/* XPM */
static char *padre[] = {
/* columns rows colors chars-per-pixel */
"16 16 171 2",
"   c #210D03",
".  c #260E05",
"X  c #2B0803",
"o  c #2C0C09",
"O  c #310B06",
"+  c #3C0B06",
"@  c #390C07",
"#  c #341209",
"$  c #3D120E",
"%  c #3E1A0F",
"&  c #360310",
"*  c #3F241D",
"=  c #1C0D21",
"-  c #15073F",
";  c #210D20",
":  c #23253C",
">  c #480F0A",
",  c #550101",
"<  c #570100",
"1  c #42170C",
"2  c #65120C",
"3  c #761D0C",
"4  c #422316",
"5  c #422515",
"6  c #672D1D",
"7  c #4F1421",
"8  c #681324",
"9  c #442D25",
"0  c #552F21",
"q  c #4D3722",
"w  c #493729",
"e  c #4E392B",
"r  c #503024",
"t  c #56412C",
"y  c #2C2D54",
"u  c #181A65",
"i  c #0D1C74",
"p  c #521A43",
"a  c #462842",
"s  c #6C3B42",
"d  c #413764",
"f  c #505251",
"g  c #774155",
"h  c #53666D",
"j  c #47637D",
"k  c #486179",
"l  c #81140C",
"z  c #922C1A",
"x  c #A72F03",
"c  c #BA3306",
"v  c #1D2C8D",
"b  c #1B3685",
"n  c #2B2D97",
"m  c #1D24A1",
"M  c #0630AC",
"N  c #0E32AF",
"B  c #1B31AB",
"V  c #0033BC",
"C  c #2A5581",
"Z  c #2C409C",
"A  c #0D628B",
"S  c #1F7798",
"D  c #2A719B",
"F  c #1551A2",
"G  c #115EAE",
"H  c #005CB3",
"J  c #006AB7",
"K  c #3178AC",
"L  c #4C748E",
"P  c #0333C4",
"I  c #083FC0",
"U  c #0249C2",
"Y  c #014CCA",
"T  c #1B49C1",
"R  c #1C4BC1",
"E  c #0058CA",
"W  c #105BCB",
"Q  c #0048D7",
"!  c #0057D4",
"~  c #0062C5",
"^  c #0161D7",
"/  c #006DDA",
"(  c #006FDA",
")  c #0A6AD8",
"_  c #037ED2",
"`  c #127DD9",
"'  c #0A77E3",
"]  c #0270EF",
"[  c #107BE2",
"{  c #0067F2",
"}  c #0068FD",
"|  c #1486AA",
" . c #1495AF",
".. c #148DBB",
"X. c #1E81C1",
"o. c #0F89D8",
"O. c #108EDB",
"+. c #0093DE",
"@. c #08A7CA",
"#. c #0CABCA",
"$. c #12A1C5",
"%. c #1CAEC7",
"&. c #0FB2C8",
"*. c #1EB9C9",
"=. c #0EA8D9",
"-. c #0FAFDB",
";. c #13AAD5",
":. c #24A9DA",
">. c #0387E9",
",. c #0B8EED",
"<. c #0297EF",
"1. c #0A92E9",
"2. c #0082F2",
"3. c #0087F1",
"4. c #088CF3",
"5. c #0090FA",
"6. c #0094FA",
"7. c #0095FB",
"8. c #009DF9",
"9. c #019DFC",
"0. c #09A6E0",
"q. c #00B2ED",
"w. c #04B8EB",
"e. c #02A7F7",
"r. c #00A9F3",
"t. c #01BDF1",
"y. c #00BBF7",
"u. c #05B4F8",
"i. c #00B0FC",
"p. c #1AC1CF",
"a. c #20C2CF",
"s. c #0AC8E6",
"d. c #0AC5EC",
"f. c #11CDEB",
"g. c #07DBEE",
"h. c #17D2EA",
"j. c #05C6F5",
"k. c #03CEF0",
"l. c #03C7F9",
"z. c #00C6FD",
"x. c #00C8FA",
"c. c #02CEFA",
"v. c #01C8FD",
"b. c #00C9FD",
"n. c #03D1F1",
"m. c #06D5F5",
"M. c #08D0F1",
"N. c #02D2FA",
"B. c #00D7F9",
"V. c #03D6F8",
"C. c #00D0FD",
"Z. c #00D2FC",
"A. c #00D4FE",
"S. c #00D6FE",
"D. c #00D9FA",
"F. c #00DCFE",
"G. c #00DCFF",
"H. c #00E1FF",
"J. c #00E4FF",
"K. c #00E6FE",
"L. c #00E7FF",
"P. c #04EAFE",
"I. c #00ECFE",
"U. c #00EEFF",
"Y. c #00F1FF",
"T. c #00F3FE",
"R. c #00F2FF",
"E. c #00F3FF",
"W. c #00F7FF",
"Q. c #00FEFF",
"!. c None",
/* pixels */
"1 @ > !.!.!.!.!.!.!.!.!.!.!.o !.",
"$ v o.=.k !.!.!.!.!.!.!.F i - O ",
"r n W w.s.h !.!.!.!.!..._ U M * ",
"!.R ' l.N.d.!.!.!.!.%.t.C.5.] !.",
"!.4.7.i.V.j.K !.!.j T.D.z.8.7.!.",
"!.u.c.A.K.M.[ g !.X.n.I.V.x.A.!.",
"!.S &.*.a.f.1.p 2 O.g.p.$.@. .!.",
"!.f D :.h.P.m.a 7 -.k.| C y 9 !.",
"!.,.S.b.G.Q.b.s 3 0.q.J H E N !.",
"!.e.J.E.E.T.;.c x L y.+.~ / P !.",
"!.` r.C.K.T.d l z 8 <./ ! Y ) !.",
"!.R Q G.I.#.< 6 0 < b 3.2.V B !.",
"!.Z { K.E.: + !.!.% & >.} ! m !.",
"!.!.G G.A X e !.!.!.# u 9.U !.!.",
"!.!.5 ;   w !.!.!.!.!.. ; 4 !.!.",
"!.!.!.q !.!.!.!.!.!.!.!.t !.!.!."
};
