/* XPM */
static char *colorname[] = {
/* columns rows colors chars-per-pixel */
"32 32 256 2",
"   c #000000",
".  c #090302",
"X  c #14100F",
"o  c #110E10",
"O  c #1B1A1A",
"+  c #1B1A16",
"@  c #0A0C19",
"#  c #251615",
"$  c #332C12",
"%  c #191B27",
"&  c #1E2022",
"*  c #1F2233",
"=  c #262322",
"-  c #2D2522",
";  c #2D2B28",
":  c #342B24",
">  c #332E2B",
",  c #362623",
"<  c #3C362D",
"1  c #212435",
"2  c #272939",
"3  c #353434",
"4  c #393733",
"5  c #3B3A35",
"6  c #383838",
"7  c #273C23",
"8  c #601B0D",
"9  c #463418",
"0  c #412421",
"q  c #453622",
"w  c #4C3C26",
"e  c #483432",
"r  c #473432",
"t  c #513E3B",
"y  c #7C3932",
"u  c #324E2D",
"i  c #2D4529",
"p  c #4F472A",
"a  c #4E4420",
"s  c #52432D",
"d  c #48453E",
"f  c #524339",
"g  c #0D1955",
"h  c #1E254B",
"j  c #192355",
"k  c #292D47",
"l  c #2F334E",
"z  c #2D3042",
"x  c #3A3942",
"c  c #31354E",
"v  c #212955",
"b  c #293055",
"n  c #4C4A48",
"m  c #4C4741",
"M  c #524E42",
"N  c #524C4B",
"B  c #54514C",
"V  c #515F4D",
"C  c #4E4D53",
"Z  c #555353",
"A  c #5E5957",
"S  c #5C5959",
"D  c #5E5754",
"F  c #644F4D",
"G  c #605C4D",
"H  c #755C41",
"J  c #625B58",
"K  c #64635D",
"L  c #66695B",
"P  c #64785F",
"I  c #585B68",
"U  c #4C5276",
"Y  c #6C6764",
"T  c #6D6863",
"R  c #666666",
"E  c #726860",
"W  c #756E6A",
"Q  c #7D746C",
"!  c #7C7976",
"~  c #727377",
"^  c #636677",
"/  c #943926",
"(  c #9C5A4C",
")  c #816E5A",
"_  c #8F6763",
"`  c #8F6864",
"'  c #906964",
"]  c #867665",
"[  c #8A7D6B",
"{  c #93726E",
"}  c #857B71",
"|  c #827E7C",
" . c #A17269",
".. c #E46B53",
"X. c #C46D64",
"o. c #7F9B7B",
"O. c #74B369",
"+. c #9A8437",
"@. c #9E8D54",
"#. c #92866C",
"$. c #8A837A",
"%. c #938979",
"&. c #80987B",
"*. c #B89875",
"=. c #D39B49",
"-. c #D0A25F",
";. c #CEA469",
":. c #DAAC6D",
">. c #ECBB76",
",. c #86D07A",
"<. c #E9CB61",
"1. c #EDD47D",
"2. c #5D6385",
"3. c #5E679B",
"4. c #626581",
"5. c #757889",
"6. c #636B9D",
"7. c #4F5EAA",
"8. c #656EA4",
"9. c #747DAA",
"0. c #6A74B0",
"q. c #274AFF",
"w. c #5B6EE2",
"e. c #4C69FF",
"r. c #5F79FF",
"t. c #617BFF",
"y. c #7B84BC",
"u. c #7D8CE8",
"i. c #6B83FF",
"p. c #7087FF",
"a. c #7B90FF",
"s. c #868584",
"d. c #8D8983",
"f. c #938B82",
"g. c #948D8C",
"h. c #9A8280",
"j. c #879F81",
"k. c #97928E",
"l. c #99938C",
"z. c #9B9085",
"x. c #969290",
"c. c #9A9593",
"v. c #9C9896",
"b. c #9E9C9C",
"n. c #A1968A",
"m. c #A3988C",
"M. c #A39A99",
"N. c #A29C95",
"B. c #9BBD95",
"V. c #8CA486",
"C. c #B3A188",
"Z. c #A6A395",
"A. c #AAA49B",
"S. c #A2A59D",
"D. c #BAAD9D",
"F. c #B0A396",
"G. c #9396AE",
"H. c #9B9EB6",
"J. c #878CAD",
"K. c #A3A2A2",
"L. c #AAA6A3",
"P. c #ABABAA",
"I. c #AFABA7",
"U. c #BAAFA3",
"Y. c #B6AEA3",
"T. c #BDB2A5",
"R. c #BCB2AA",
"E. c #A1A5BE",
"W. c #B7B5B5",
"Q. c #BDB8B3",
"!. c #D79C96",
"~. c #D89E97",
"^. c #EE9887",
"/. c #EC9A88",
"(. c #CBB299",
"). c #CCB89B",
"_. c #DDACA6",
"`. c #DEAEA8",
"'. c #C1B5A7",
"]. c #D3BEA8",
"[. c #D2BDA7",
"{. c #C4BCB2",
"}. c #F4BBAF",
"|. c #F4BDB3",
" X c #E4BBB7",
".X c #97EC89",
"XX c #92E384",
"oX c #A9C9A3",
"OX c #B3DAAD",
"+X c #BCE2B5",
"@X c #EFDB93",
"#X c #F0DB93",
"$X c #F8D39F",
"%X c #F6C886",
"&X c #CEC1B3",
"*X c #D7CABB",
"=X c #DBCBBA",
"-X c #D6C6B6",
";X c #E2D6AD",
":X c #E4D2B9",
">X c #C3ECBD",
",X c #F4E7BA",
"<X c #F5E8BC",
"1X c #8891C5",
"2X c #909BD6",
"3X c #B2B6C8",
"4X c #8D9AEA",
"5X c #919EEB",
"6X c #8D9DF0",
"7X c #9AA7EC",
"8X c #8FA1FF",
"9X c #90A2FD",
"0X c #A2AFF1",
"qX c #A6B4FD",
"wX c #A8B7FE",
"eX c #AAB8FF",
"rX c #A4B0F2",
"tX c #BCC1E1",
"yX c #CECAC6",
"uX c #C7C6C3",
"iX c #D4CDC5",
"pX c #DACEC3",
"aX c #D0CCC9",
"sX c #D8D2CA",
"dX c #DBD1C3",
"fX c #D5D4D3",
"gX c #EACAC6",
"hX c #EBCDCA",
"jX c #E2D4C6",
"kX c #E2D6C8",
"lX c #E5D8CA",
"zX c #E7DCD1",
"xX c #E8DDD2",
"cX c #F1DDDB",
"vX c #F0DAD7",
"bX c #CAF4C4",
"nX c #E9E2CB",
"mX c #EAE1D7",
"MX c #F2E5D4",
"NX c #FAE2DD",
"BX c #F6ECD6",
"VX c #F8F0D3",
"CX c #FAF4DF",
"ZX c #F6EBC5",
"AX c #C7CCED",
"SX c #CDD2F1",
"DX c #F5E7E6",
"FX c #F3EBE6",
"GX c #F9EFE4",
"HX c #F3EEE8",
"JX c #FAF4E2",
"KX c #F6F2ED",
"LX c #FAF2EA",
"PX c #FBF6F4",
"IX c #FEFDFC",
"UX c None",
/* pixels */
"UXUXUXUXUXUXUXUXUXUXUXUXUXUXUXUXUXUXUXUXUXUXUXUXUXUXUXUXUXUXUXUX",
"UXUX              .                                         UXUX",
"UX  O Z N N N N N t ,   g v v v v v v b   5 B B B B B B M +   UX",
"UX  Z IXNXNXNXNXcX:X .  q.e.t.t.t.t.i.a.  A.JXCXJXJXCXCXZXM   UX",
"UX  N NX}.}.}.}.}.^.(   t.8XqXqXwXwXwXeX  Z.VX,X<X<X<X<X1.p   UX",
"UX  N NX}.}.}.}.}.^.(   t.8XqXeXwXwXwXeX  Z.VX,X<X<X<X<X1.p   UX",
"UX  N NX}.}.}.}.}.^.(   t.8XqX7X9.2XrXeX  Z.VX,X,X<X<X<X1.p   UX",
"UX  N NX}.}.}.}.|./.(   t.8X7X1X. 2.2XrX  Z.VX<X,X,X<X<X1.p   UX",
"UX  N NX}.}.}.}.}.^.(   t.9X1XZ IXZ z 1X  l.nX,X<X<X<XZX1.p   UX",
"UX  t |.^.^.^.^.^.../   p.6XJ.Z IXZ 3 y.  %.;X#X@X@X@X#X<.a   UX",
"UX  ,  .( ( ( ( ( / 8   7.3.4.S PXZ & U   G #.@.@.@.@.@.+.$   UX",
"UX                          = Y KXZ                           UX",
"UX  Z IXKXHXFXFXFXdX%.  fXuXb.J GX$.3       ; $.Y.dXMXCX$Xf   UX",
"UX  B KXzXzXzXzXxX-X[   P.R n S GXk.! L.  ~ s.4 5 [ D.:X%Xs   UX",
"UX  N FXdXjXjXjXjX].]   R S S W GXA.L.IX= W.Q.> 4 M Q (.>.p   UX",
"UX  B FXkXkXjXjXjX].]     K.fXc.GXT.Q.IXW aXaXE K.3 < C.:.w   UX",
"UX  n FXjXjXjXjXjX].]     v.yXk.BXF.A.LXf.aXuX! s.> : %.;.q   UX",
"UX  B FXjXjXlXjXlX&X]     c.yXN.MX{.{.lX{.sXiXR.f.> : #.;.q   UX",
"UX  n mX=X=X=X=X=X(.)     x.iXY.lX=X&XiXjXpXpXpX$.> : [ -.q   UX",
"UX  f =X(.(.(.(.(.*.H     g.sX*X*X=X=X=XjX-X{.pX} - : [ =.9   UX",
"UX                .       | I.d.'.'.U.D.D.U.F.f.E -           UX",
"UX  6 P.M.M.M.M.M.%.F   P K K Y %.l.n.f.n.m.h.] = 3 C ~ 6.1   UX",
"UX  Z PXcXcXcXcXcX X{   B.P m m T Q } } } } } K   x 5.3X5Xc   UX",
"UX  n DXgXgXgXgXgX_.`   oXo.V # Z J J G J J J R . x 5.tX4Xl   UX",
"UX  N DXhXgXgXgXhX`._   >XOXoXS.  . . . .   o 2 I ^ J.AX5Xl   UX",
"UX  N HXhXhXhXhXhX`.`   bX+XV.5 M.c.g.g.l.v.K.W.% I G.SX5Xc   UX",
"UX  N DXhXhXhXhXhX`.'   bX>X&.  M.c.x.x.l.v.K.L.  I H.SX4Xl   UX",
"UX  N HXhXhXhXhXhX`.'   bXbXj.  . . . X   .       I E.SXu.k   UX",
"UX  n vX!.!.!.!.~.X.y   .X.X.X.X.XXX,.O.  U 0.0.3.8.0.7Xw.h   UX",
"UX  O N r r r r e 0 #   u u u u u u i 7   % 1 k 1 2 k c h @   UX",
"UXUX                                                        UXUX",
"UXUXUXUXUXUXUXUXUXUXUXUXUXUXUXUXUXUXUXUXUXUXUXUXUXUXUXUXUXUXUXUX"
};
