/* XPM */
static char * wb_xpm[] = {
"32 32 238 2",
"  	c None",
". 	c #000000",
"+ 	c #212121",
"@ 	c #9F9F9F",
"# 	c #484848",
"$ 	c #030303",
"% 	c #686868",
"& 	c #E9E9E9",
"* 	c #D9D9D9",
"= 	c #696969",
"- 	c #070707",
"; 	c #181818",
"> 	c #555555",
", 	c #7B7B7B",
"' 	c #404040",
") 	c #010101",
"! 	c #161616",
"~ 	c #C6C6C6",
"{ 	c #E1E1E1",
"] 	c #D6D6D6",
"^ 	c #828282",
"/ 	c #0A0A0A",
"( 	c #2B2B2B",
"_ 	c #9D9D9D",
": 	c #B3B3B3",
"< 	c #131313",
"[ 	c #5B5B5B",
"} 	c #D8D8D8",
"| 	c #D4D4D4",
"1 	c #BDBDBD",
"2 	c #303030",
"3 	c #121212",
"4 	c #9B9B9B",
"5 	c #B1B1B1",
"6 	c #878787",
"7 	c #0E0E0E",
"8 	c #A5A5A5",
"9 	c #C7C7C7",
"0 	c #B4B4B4",
"a 	c #6C6C6C",
"b 	c #050505",
"c 	c #B2B2B2",
"d 	c #6F6F6F",
"e 	c #020202",
"f 	c #1B1B1B",
"g 	c #090909",
"h 	c #BBBBBB",
"i 	c #DEDEDE",
"j 	c #535353",
"k 	c #656565",
"l 	c #B7B7B7",
"m 	c #BABABA",
"n 	c #999999",
"o 	c #0D0D0D",
"p 	c #B6B6B6",
"q 	c #1D1D1D",
"r 	c #4A4A4A",
"s 	c #E6E6E6",
"t 	c #E3E3E3",
"u 	c #363636",
"v 	c #787878",
"w 	c #BEBEBE",
"x 	c #C0C0C0",
"y 	c #C1C1C1",
"z 	c #6D6D6D",
"A 	c #3E3E3E",
"B 	c #2F2F2F",
"C 	c #747474",
"D 	c #F0F0F0",
"E 	c #232323",
"F 	c #565656",
"G 	c #B8B8B8",
"H 	c #C4C4C4",
"I 	c #CDCDCD",
"J 	c #D3D3D3",
"K 	c #E4E4E4",
"L 	c #A2A2A2",
"M 	c #0B0B0B",
"N 	c #080808",
"O 	c #8A8A8A",
"P 	c #A1A1A1",
"Q 	c #101010",
"R 	c #AFAFAF",
"S 	c #C3C3C3",
"T 	c #D5D5D5",
"U 	c #DADADA",
"V 	c #E0E0E0",
"W 	c #E5E5E5",
"X 	c #CACACA",
"Y 	c #2D2D2D",
"Z 	c #9C9C9C",
"` 	c #7C7C7C",
" .	c #505050",
"..	c #D7D7D7",
"+.	c #D2D2D2",
"@.	c #C9C9C9",
"#.	c #929292",
"$.	c #2C2C2C",
"%.	c #A6A6A6",
"&.	c #575757",
"*.	c #424242",
"=.	c #8B8B8B",
"-.	c #D0D0D0",
";.	c #191919",
">.	c #272727",
",.	c #393939",
"'.	c #1D200D",
").	c #204010",
"!.	c #37352E",
"~.	c #979797",
"{.	c #6D8061",
"].	c #2C9329",
"^.	c #27962A",
"/.	c #21360B",
"(.	c #202020",
"_.	c #151515",
":.	c #4A602D",
"<.	c #33982C",
"[.	c #309C2A",
"}.	c #1B872A",
"|.	c #302A03",
"1.	c #252A05",
"2.	c #060400",
"3.	c #223A0F",
"4.	c #2B9F2A",
"5.	c #29912A",
"6.	c #1D7C2A",
"7.	c #258E2A",
"8.	c #198C2A",
"9.	c #25661A",
"0.	c #090700",
"a.	c #868686",
"b.	c #213310",
"c.	c #308020",
"d.	c #287A22",
"e.	c #1D7F2A",
"f.	c #22892A",
"g.	c #1E8D2A",
"h.	c #168F2A",
"i.	c #18952A",
"j.	c #2C4D10",
"k.	c #040300",
"l.	c #585858",
"m.	c #6D6D6C",
"n.	c #1B1A14",
"o.	c #254910",
"p.	c #299A2A",
"q.	c #1A8E2A",
"r.	c #1C9C2A",
"s.	c #0E862A",
"t.	c #14912A",
"u.	c #148C2A",
"v.	c #273B0B",
"w.	c #BCBCBC",
"x.	c #1E1E1E",
"y.	c #2A5C15",
"z.	c #138A2A",
"A.	c #0E842A",
"B.	c #128F2A",
"C.	c #19972A",
"D.	c #0B802A",
"E.	c #13902A",
"F.	c #148227",
"G.	c #1E2D08",
"H.	c #C2C2C2",
"I.	c #3C3C3C",
"J.	c #192306",
"K.	c #188227",
"L.	c #138E2A",
"M.	c #0B7F2A",
"N.	c #148F2A",
"O.	c #0D7D2A",
"P.	c #128D2A",
"Q.	c #1E7622",
"R.	c #171903",
"S.	c #434343",
"T.	c #8F8F8F",
"U.	c #808080",
"V.	c #DCDCDC",
"W.	c #203F0E",
"X.	c #14882A",
"Y.	c #0E872A",
"Z.	c #0C7C2A",
"`.	c #128C2A",
" +	c #0C7E2A",
".+	c #0D862A",
"++	c #1E7522",
"@+	c #120D00",
"#+	c #1A1A1A",
"$+	c #474747",
"%+	c #CECECE",
"&+	c #DFDFDF",
"*+	c #1C1C1C",
"=+	c #010100",
"-+	c #284B10",
";+	c #0F832A",
">+	c #0A802A",
",+	c #0B7C2A",
"'+	c #0C802A",
")+	c #0D7F2A",
"!+	c #0B822A",
"~+	c #286018",
"{+	c #080600",
"]+	c #C8C8C8",
"^+	c #050400",
"/+	c #2A5B15",
"(+	c #0A7C2A",
"_+	c #0B7D2A",
":+	c #0B812A",
"<+	c #0D7E2A",
"[+	c #1B1400",
"}+	c #171717",
"|+	c #090800",
"1+	c #246E1D",
"2+	c #077C2A",
"3+	c #0E802A",
"4+	c #0A7B2A",
"5+	c #067A2A",
"6+	c #18862A",
"7+	c #324D10",
"8+	c #080500",
"9+	c #A7A7A7",
"0+	c #121603",
"a+	c #237A22",
"b+	c #05792A",
"c+	c #16842A",
"d+	c #15802A",
"e+	c #244710",
"f+	c #8D8D8D",
"g+	c #909090",
"h+	c #282828",
"i+	c #1A1C03",
"j+	c #1E8327",
"k+	c #1C8327",
"l+	c #253208",
"m+	c #060606",
"n+	c #141703",
"o+	c #161000",
"                                                                ",
"                                                                ",
"                                                                ",
"            .                                                   ",
"          + @ # $                             . .               ",
"          % & * = -                       ; > , ' )             ",
"          ! ~ { ] ^ /                   ( _ : ^ <               ",
"            [ } | 1 2                 3 4 5 6 3                 ",
"            7 8 9 0 a b               # c 0 d e       f g       ",
"              ; = h i j )             k l m n o     + p q       ",
"                $ r s t u           . v w x y z A B l } f       ",
"                  $ C D y E       . F w G H I J J | K L M       ",
"                    N O t P Q   . F w R R S T U V W X Y         ",
"                      7 Z J ` -  .w R R p ..+.@.9 #.$.          ",
"                        f %.w &.*.=.C 8 J -.' ;.; -             ",
"                          >.%.8 ,.'.).!.x A                     ",
"                        . ;.u ~.{.].^./.(.                      ",
"                      . F #._.:.<.[.}.|.1.2.                    ",
"                    . F w , 3.4.[.5.6.7.8.9.0.                  ",
"                . . F w R a.b.c.d.e.f.g.h.i.j.k.                ",
"            ; l.` =.w R R : m.n.o.p.q.r.s.t.u.v.                ",
"          ( _ : p w.G R p J 5 x.y.z.A.B.C.D.E.F.G.              ",
"        Q ~.5 0 m x S H.] -.I.) J.K.L.M.L.N.O.P.Q.R.            ",
"        S.c T.&.U.c I T V.*.      W.X.Y.Z.`.s. +.+++@+          ",
"        k #.#+. b $+%+U &+*+      =+-+;+>+,+Y.'+)+!+~+{+        ",
"        Y #+      f ]+V U f         ^+/+>+(+_+:+)+ +<+[+        ",
"        .         }+X W L M           |+1+2+3+4+5+6+7+8+        ",
"                ! 9+K X Y               0+a+b+c+d+e+8+          ",
"              - f+H g+h+                  i+j+k+l+k.            ",
"              $ }+}+m+                      n+o+                ",
"                                                                ",
"                                                                "};
