/* XPM */
static char *prune[] = {
/* columns rows colors chars-per-pixel */
"32 32 10 1",
"  c #0D001E",
". c #661F75",
"X c #6F0E84",
"o c #8E2BA3",
"O c #AC34C6",
"+ c #B838D4",
"@ c #C7C7C7",
"# c #CCCCCC",
"$ c #EBEBEB",
"% c None",
/* pixels */
"%%%%%%%%%%%%%%%%%%##        ##%%",
"%%%%%%%%%%%%%%%%%%##        ##%%",
"%%%%%%%%%%%%%%##    ++++++    ##",
"%%%%%%%%%%%%%%##    ++++++    ##",
"%%%%%%%%%%%%    OO++++ooooooXX  ",
"%%%%%%%%%%%%    OO++++ooooooXX  ",
"%%%%%%%%%%  OOOO++++oooooooooo  ",
"%%%%%%%%%%  OOOO++++oooooooooo  ",
"%%%%%%%%  OOOO++++ooooooooooXX  ",
"%%%%%%%%  OOOO++++ooooooooooXX  ",
"%%%%%%  OOOO++++ooooooooooXXXX  ",
"%%%%%%  OOOO++++ooooooooooXXXX  ",
"%%%%  OOOO++++oooooooooooo..  %%",
"%%%%  OOOO++++oooooooooooo..  %%",
"%%@@  OOoooooooooooooooo....  %%",
"%%@@  OOoooooooooooooooo....  %%",
"$$  OOoooooooooooooooo....  %%%%",
"$$  OOoooooooooooooooo....  %%%%",
"  OOooooooooooooooooXX....  %%%%",
"  OOooooooooooooooooXX....  %%%%",
"  ooooooooooooooooXX....  %%%%%%",
"  ooooooooooooooooXX....  %%%%%%",
"  ooooooooooooooXX....  %%%%%%%%",
"  ooooooooooooooXX....  %%%%%%%%",
"##  ooooooooooXX..    %%%%%%%%%%",
"##  ooooooooooXX..    %%%%%%%%%%",
"%%  XXXXXXXX..    ##%%%%%%%%%%%%",
"%%  XXXXXXXX..    ##%%%%%%%%%%%%",
"%%##          ##%%%%%%%%%%%%%%%%",
"%%##          ##%%%%%%%%%%%%%%%%",
"%%%%%%%%%%%%%%%%%%%%%%%%%%%%%%%%",
"%%%%%%%%%%%%%%%%%%%%%%%%%%%%%%%%"
};
