/* XPM */
static char *HelpViewer[] = {
/* columns rows colors chars-per-pixel */
"32 26 205 2",
"   c #15171C",
".  c #1D1A1D",
"X  c #0D1428",
"o  c #1D1D22",
"O  c #13152A",
"+  c #151933",
"@  c #1B1D35",
"#  c #1A1E38",
"$  c #211E24",
"%  c #211E2A",
"&  c #1C2129",
"*  c #1D213A",
"=  c #232425",
"-  c #232927",
";  c #23252A",
":  c #25282C",
">  c #29292E",
",  c #2C2931",
"<  c #21233B",
"1  c #322E33",
"2  c #3A3934",
"3  c #3F3C3D",
"4  c #413732",
"5  c #413B36",
"6  c #443D39",
"7  c #4A413A",
"8  c #1D2346",
"9  c #232540",
"0  c #262841",
"q  c #292B43",
"w  c #32365D",
"e  c #4D4C4B",
"r  c #534B42",
"t  c #5B5148",
"y  c #4E4B52",
"u  c #4F5451",
"i  c #575456",
"p  c #5A5953",
"a  c #61564D",
"s  c #67584E",
"d  c #665D53",
"f  c #695D54",
"g  c #60575A",
"h  c #625D5E",
"j  c #6E5F58",
"k  c #666157",
"l  c #6B6256",
"z  c #64635F",
"x  c #6D645C",
"c  c #74655C",
"v  c #75685F",
"b  c #666361",
"n  c #6F6662",
"m  c #716662",
"M  c #756A62",
"N  c #7A6C64",
"B  c #786F6E",
"V  c #7F736A",
"C  c #6D6E71",
"Z  c #716D71",
"A  c #777675",
"S  c #797673",
"D  c #7D7975",
"F  c #77767A",
"G  c #787578",
"H  c #7D797E",
"J  c #817266",
"K  c #84756C",
"L  c #8A756A",
"P  c #87786C",
"I  c #897A6D",
"U  c #807A76",
"Y  c #8E7C72",
"T  c #927D74",
"R  c #8F8074",
"E  c #8B827E",
"W  c #908071",
"Q  c #958379",
"!  c #9A857D",
"~  c #9B8A7D",
"^  c #A08C7F",
"/  c #5B618B",
"(  c #6D7197",
")  c #847E83",
"_  c #848483",
"`  c #898082",
"'  c #8B8986",
"]  c #8A868A",
"[  c #8D8D8D",
"{  c #948A81",
"}  c #9E8E84",
"|  c #928E92",
" . c #999A96",
".. c #99989B",
"X. c #A18F80",
"o. c #A59384",
"O. c #AD978C",
"+. c #AA988D",
"@. c #B09A8A",
"#. c #A09594",
"$. c #A89D94",
"%. c #A69F9B",
"&. c #B19F90",
"*. c #B5A18F",
"=. c #B4A293",
"-. c #BCA697",
";. c #BCA897",
":. c #B2A19F",
">. c #BFA79D",
",. c #B6A99D",
"<. c #BDA89A",
"1. c #ADAAAA",
"2. c #B6A7A0",
"3. c #B5A9A3",
"4. c #BCACA4",
"5. c #B6AFA9",
"6. c #BAAEAC",
"7. c #BDB1AA",
"8. c #AFB2B3",
"9. c #B7B6B4",
"0. c #BCB6B3",
"q. c #B6B6B8",
"w. c #BAB7BA",
"e. c #BABBBB",
"r. c #C4AE9E",
"t. c #C6B49F",
"y. c #C6ADA1",
"u. c #C6B0A0",
"i. c #C9B4A2",
"p. c #CAB9A7",
"a. c #C0B2AA",
"s. c #C2B9AE",
"d. c #CBBCAC",
"f. c #D2BCAC",
"g. c #C4B6B1",
"h. c #C3BAB5",
"j. c #CEBCB6",
"k. c #C1BCBB",
"l. c #C8BEB9",
"z. c #D4BFB2",
"x. c #BFC1BC",
"c. c #D1C1AE",
"v. c #CDC1B7",
"b. c #C4C3BF",
"n. c #CBC3BD",
"m. c #D1C1B0",
"M. c #DBC3B4",
"N. c #D3C3BC",
"B. c #DECCBB",
"V. c #E3CDBD",
"C. c #E5D0BE",
"Z. c #C1BFC5",
"A. c #BEC0C3",
"S. c #C4C3C4",
"D. c #CCC6C4",
"F. c #CACBC2",
"G. c #C3C6C8",
"H. c #CAC7CA",
"J. c #C3CAC8",
"K. c #CDCACA",
"L. c #D5CDC5",
"P. c #DDCBC2",
"I. c #D2CDCB",
"U. c #DBCFCB",
"Y. c #CBD2CF",
"T. c #D6D4C7",
"R. c #DAD3C7",
"E. c #DFD5CC",
"W. c #CED1D4",
"Q. c #D3D5D2",
"!. c #D8D4D3",
"~. c #D6D8D4",
"^. c #DBD9D6",
"/. c #DCD5DC",
"(. c #DCDCDB",
"). c #E3C9C0",
"_. c #E5D0C4",
"`. c #EAD2C4",
"'. c #E5D3CD",
"]. c #EAD4CB",
"[. c #EEDACE",
"{. c #F1DACC",
"}. c #E1DAD3",
"|. c #EFDED1",
" X c #E4DEDC",
".X c #E9DFDF",
"XX c #E4E1DD",
"oX c #E9E1DD",
"OX c #F8E0D6",
"+X c #FBE2D9",
"@X c #FAE9DF",
"#X c #E3DEE3",
"$X c #DEE3E0",
"%X c #E3E2E3",
"&X c #EAE3E3",
"*X c #E5E7EB",
"=X c #E9E6E8",
"-X c #EBE9EC",
";X c #F5E6E0",
":X c #F9ECE5",
">X c #F2EBEC",
",X c #F8F3E6",
"<X c #F3F3EC",
"1X c #F1ECF1",
"2X c None",
/* pixels */
"2X2X2X2X2X2X2X2X2X2X2X2X2X2X2X2X2X2X2X2X2X2X2X2X2X2X2X2X2X2X2X2X",
"2X2X2X2X2X2X2X2X2X2X2X2X2X2X2X2X2X2X2X2X2X2X2X2X2X2X2X2X2X2X2X2X",
"2X2X2X2X2X2X2X2X2X2X2X2X2X2X2X2X2X2X2X2X2X2X2X2X2X2X2X2X2X2X2X2X",
"2X2X2X2XU ` ' #.2.,.=.~ D z 2X2X2X2X2X2X2X2X2X2X2X2X2X2X2X2X2X2X",
"2X2X2X} n.^.(.XX}.V.c.;.o.J p 2X2X2XG ) _ ] ` ) S Z 2X2X2X2X2X2X",
"2X2X( 3.&X..| (.E.V.t.O.~ L d y i D %.K./.&X#X~.L.0.[ G y + 2X2X",
"2X2X/ ,.%XF Z !.^.B.i.~ I c j 3 e =.B.(.!.%X=X&X,X@X|.P.n X 2X2X",
"2X2X/ 3..X] ] H.g.p.t.! W c f 6 k ;.4.w.w.(./.S.n.N.'.`.m O 2X2X",
"2X2X/ ,.&XA.8.x.e.c.i.} I c k 6 l *.4.n.e.(.(.K.R.N.N.`.n X 2X2X",
"2X2X/ 3.oX~.S.e.7.p.r.Q I c f 6 k =.3.x.A.$X(.K.D.g.j.'.m O 2X2X",
"2X2X/ ,.oXD.e.H.g.d.r.~ T c d 6 x ;.7.b.9.(.[  .;X[._.`.m X 2X2X",
"2X2X/ 3.oXQ.w.q.s.f.t.} K x f 6 c *.5.K.J.(.[ E '.+X[.`.m O 2X2X",
"2X2X/ ,.oX(.J.b.7.p.+.l R N d 6 M ;.5.e.S.XX1. .;X+X[.`.m X 2X2X",
"2X2X/ 3. XS.w.k.g.f.~ x P K l 6 M >.g.S.9.^./.S.R.].[.).m O 2X2X",
"2X2X/ ,.oX~.A.9.7.d.&.l V V f 6 N ;.5.S.G.XX%XI.L.s.d._.n X 2X2X",
"2X2X/ 3.oXY.G.S.7.i.<.Y Y N f 6 c y.a.e.e.(.(.b.n.v.B._.m O 2X2X",
"2X2X/ ,.oXG.q.k.z.z.i.o.L l a 6 c r.7.H.e.^./.F.T.n.m._.m X 2X2X",
"2X2X/ 3.XX$X/. X_.M.i.@.Q N s 4 c <.5.Z.W.&X*X~.N.s.c.C.c O 2X2X",
"2X2X/ ,.oX*X%X^.P.j.,.o.Y N s 4 l i.L.%X%X=X1X<X,X[.).C.n X 2X2X",
"2X2X/ 3.K.1.[ S h e 5 2 5 7 t 2 f f.E.(.%X%X-X>X:XOX{.`.v O 2X2X",
"2X2X/ V 2 - & & = = = : - = 1 = r T N g e e i b V ` $.f.x X 2X2X",
"2X2Xw , o ; - ; % ; > : : : ;   $ = $ . . $ $ $ o % % 1 > O 2X2X",
"2X2X8 O + + # # # < < q q < # # @ < q q < 9 # * # @ + O + + 2X2X",
"2X2X2X2X2X2X2X2X2X2X2X2X2X2X2X2X2X2X2X2X2X2X2X2X2X2X2X2X2X2X2X2X",
"2X2X2X2X2X2X2X2X2X2X2X2X2X2X2X2X2X2X2X2X2X2X2X2X2X2X2X2X2X2X2X2X",
"2X2X2X2X2X2X2X2X2X2X2X2X2X2X2X2X2X2X2X2X2X2X2X2X2X2X2X2X2X2X2X2X"
};
