/* XPM */
static char * wings3d_xpm[] = {
"32 32 391 2",
"  	c None",
". 	c #F0F0F0",
"+ 	c #D2D3D3",
"@ 	c #D7D7D9",
"# 	c #D6D6D7",
"$ 	c #E7E7E8",
"% 	c #F8F7F8",
"& 	c #CFD0D2",
"* 	c #7D7E81",
"= 	c #595A5C",
"- 	c #606163",
"; 	c #5D5E60",
"> 	c #6E6E70",
", 	c #D8D9D9",
"' 	c #FFFFFF",
") 	c #F7F7F7",
"! 	c #D4D5D7",
"~ 	c #D2D3D5",
"{ 	c #D1D2D4",
"] 	c #848587",
"^ 	c #656668",
"/ 	c #5F6062",
"( 	c #6B6C6E",
"_ 	c #DBDBDC",
": 	c #838486",
"< 	c #5E5F61",
"[ 	c #696A6C",
"} 	c #E8EAEA",
"| 	c #BEC0C2",
"1 	c #D5D6D8",
"2 	c #87888A",
"3 	c #626365",
"4 	c #6C6D6F",
"5 	c #E4E4E4",
"6 	c #D6CDCD",
"7 	c #686465",
"8 	c #BCC0C3",
"9 	c #D8D9DB",
"0 	c #DBDCDE",
"a 	c #AFB1B3",
"b 	c #5E6062",
"c 	c #626466",
"d 	c #585A5C",
"e 	c #C7C7C8",
"f 	c #F2C8C8",
"g 	c #8D4240",
"h 	c #69696A",
"i 	c #B9BDC0",
"j 	c #B9BABC",
"k 	c #747678",
"l 	c #686A6C",
"m 	c #5D5F61",
"n 	c #5F6163",
"o 	c #CACACB",
"p 	c #000000",
"q 	c #FFC2C3",
"r 	c #DE2627",
"s 	c #894946",
"t 	c #676869",
"u 	c #BABDC0",
"v 	c #DDDEE0",
"w 	c #BFC0C2",
"x 	c #A4A5A8",
"y 	c #747578",
"z 	c #58595B",
"A 	c #5C5D5F",
"B 	c #555658",
"C 	c #C8C8CA",
"D 	c #F9C4C5",
"E 	c #F11D21",
"F 	c #E12C2E",
"G 	c #8A4946",
"H 	c #656769",
"I 	c #AFB3B5",
"J 	c #717374",
"K 	c #9EA0A3",
"L 	c #C1C3C7",
"M 	c #6D6E70",
"N 	c #525355",
"O 	c #EC1F22",
"P 	c #F22428",
"Q 	c #DF2E2F",
"R 	c #8E4A47",
"S 	c #565657",
"T 	c #95989B",
"U 	c #C3C5C8",
"V 	c #BCBEC0",
"W 	c #6B6D6E",
"X 	c #525455",
"Y 	c #565859",
"Z 	c #4E5152",
"` 	c #C6C6C7",
" .	c #ED272A",
"..	c #F62327",
"+.	c #C03837",
"@.	c #625C5C",
"#.	c #B4B8BC",
"$.	c #BEC0C3",
"%.	c #BCBEC1",
"&.	c #646567",
"*.	c #494A4C",
"=.	c #4D4E50",
"-.	c #4E4F51",
";.	c #505153",
">.	c #535456",
",.	c #4B4C4E",
"'.	c #C5C5C6",
").	c #ED2629",
"!.	c #F32428",
"~.	c #BE3938",
"{.	c #605A5B",
"].	c #B0B5B8",
"^.	c #BDBFC2",
"/.	c #97999C",
"(.	c #8A8C8E",
"_.	c #8C8E90",
":.	c #8F9092",
"<.	c #8E8F91",
"[.	c #5A5B5D",
"}.	c #5E6061",
"|.	c #4C4D4F",
"1.	c #48494B",
"2.	c #C4C4C5",
"3.	c #5E5858",
"4.	c #B0B4B7",
"5.	c #BBBDC0",
"6.	c #C0C2C5",
"7.	c #C1C3C6",
"8.	c #C4C6C9",
"9.	c #797A7C",
"0.	c #868688",
"a.	c #CED0D2",
"b.	c #7A7A7C",
"c.	c #454547",
"d.	c #4D4E4F",
"e.	c #454647",
"f.	c #C3C3C4",
"g.	c #BD3938",
"h.	c #5C5756",
"i.	c #B5BABD",
"j.	c #838485",
"k.	c #D7D8DA",
"l.	c #D6D7D9",
"m.	c #757677",
"n.	c #444546",
"o.	c #4A4B4C",
"p.	c #424344",
"q.	c #C2C2C2",
"r.	c #BE3A39",
"s.	c #525151",
"t.	c #8B9597",
"u.	c #979EA0",
"v.	c #959C9E",
"w.	c #979DA0",
"x.	c #6A6C6E",
"y.	c #8D8D8F",
"z.	c #D3D4D6",
"A.	c #6B6B6D",
"B.	c #414143",
"C.	c #474749",
"D.	c #3F3F41",
"E.	c #C03B3A",
"F.	c #6D4E4A",
"G.	c #624644",
"H.	c #644644",
"I.	c #654644",
"J.	c #604542",
"K.	c #4D4949",
"L.	c #B3B6B8",
"M.	c #DADBDD",
"N.	c #A8A9AA",
"O.	c #535455",
"P.	c #414243",
"Q.	c #434445",
"R.	c #3B3C3D",
"S.	c #C0C1C1",
"T.	c #EE272A",
"U.	c #E52A2C",
"V.	c #DF2F30",
"W.	c #E12E30",
"X.	c #E32D2F",
"Y.	c #DC3233",
"Z.	c #8C4642",
"`.	c #4A4A4A",
" +	c #ACB0B2",
".+	c #DCDDDF",
"++	c #9A9B9C",
"@+	c #59595B",
"#+	c #87898B",
"$+	c #3E3E3F",
"%+	c #404041",
"&+	c #373739",
"*+	c #BFBFC0",
"=+	c #EF272A",
"-+	c #F02629",
";+	c #E22F30",
">+	c #894541",
",+	c #4D4B4B",
"'+	c #949596",
")+	c #58585A",
"!+	c #B5B7BA",
"~+	c #9E9FA2",
"{+	c #383839",
"]+	c #3D3D3E",
"^+	c #343435",
"/+	c #BEBEBF",
"(+	c #F22528",
"_+	c #E32F30",
":+	c #8B4441",
"<+	c #433F3E",
"[+	c #57595B",
"}+	c #B1B3B6",
"|+	c #C7C9CC",
"1+	c #96989A",
"2+	c #39393A",
"3+	c #303031",
"4+	c #BDBDBD",
"5+	c #FCC4C5",
"6+	c #F71F22",
"7+	c #F72629",
"8+	c #F7272A",
"9+	c #F5272A",
"0+	c #F42428",
"a+	c #DC3434",
"b+	c #5D3E3B",
"c+	c #91979A",
"d+	c #C4C7CA",
"e+	c #C1C4C7",
"f+	c #949597",
"g+	c #292828",
"h+	c #2E2D2E",
"i+	c #323132",
"j+	c #353435",
"k+	c #353536",
"l+	c #2C2C2D",
"m+	c #BCBCBC",
"n+	c #DBC6C6",
"o+	c #742829",
"p+	c #792E2F",
"q+	c #792F30",
"r+	c #742F30",
"s+	c #982D2F",
"t+	c #F0272A",
"u+	c #F12529",
"v+	c #E03132",
"w+	c #5F3D3B",
"x+	c #8F9598",
"y+	c #C2C4C7",
"z+	c #BFC1C4",
"A+	c #A3A4A7",
"B+	c #5C5C5E",
"C+	c #5F5F60",
"D+	c #5E5E60",
"E+	c #656466",
"F+	c #4B4A4C",
"G+	c #2D2C2D",
"H+	c #302F30",
"I+	c #313031",
"J+	c #282728",
"K+	c #BAB9BA",
"L+	c #C3C5C6",
"M+	c #1A2425",
"N+	c #212B2C",
"O+	c #222C2D",
"P+	c #192C2D",
"Q+	c #512C2E",
"R+	c #F1282B",
"S+	c #DF3132",
"T+	c #5C3B38",
"U+	c #8D9396",
"V+	c #B4B6B8",
"W+	c #4D4D4E",
"X+	c #A1A1A3",
"Y+	c #6D6D6E",
"Z+	c #222021",
"`+	c #2C2B2B",
" @	c #242323",
".@	c #B8B8B8",
"+@	c #C4C4C4",
"@@	c #201F1F",
"#@	c #272626",
"$@	c #282727",
"%@	c #202727",
"&@	c #562829",
"*@	c #5A3836",
"=@	c #8C9295",
"-@	c #C2C5C8",
";@	c #BBBEC1",
">@	c #414041",
",@	c #959597",
"'@	c #DFE1E3",
")@	c #6A6A6B",
"!@	c #1B191A",
"~@	c #1E1D1D",
"{@	c #B7B6B6",
"]@	c #C3C3C3",
"^@	c #1C1A1B",
"/@	c #232122",
"(@	c #242223",
"_@	c #1B2222",
":@	c #532526",
"<@	c #E03233",
"[@	c #563533",
"}@	c #8C9396",
"|@	c #C5C9CD",
"1@	c #BEC1C5",
"2@	c #C0C3C7",
"3@	c #B7B9BD",
"4@	c #504F50",
"5@	c #858486",
"6@	c #D3D5D7",
"7@	c #656465",
"8@	c #110E0F",
"9@	c #B5B5B5",
"0@	c #BFBEBE",
"a@	c #120F10",
"b@	c #1F1D1E",
"c@	c #161C1D",
"d@	c #4F2122",
"e@	c #DF3333",
"f@	c #5A3B38",
"g@	c #363C3D",
"h@	c #48494A",
"i@	c #2F2E2F",
"j@	c #E5E6E8",
"k@	c #D4D6D8",
"l@	c #535253",
"m@	c #A9A9A9",
"n@	c #E2E2E2",
"o@	c #2E2B2C",
"p@	c #130F10",
"q@	c #1D1A1B",
"r@	c #1C191A",
"s@	c #131819",
"t@	c #4D1E1F",
"u@	c #A34440",
"v@	c #953937",
"w@	c #943735",
"x@	c #973735",
"y@	c #7C3B38",
"z@	c #3B3332",
"A@	c #9A9EA0",
"B@	c #DCDEE0",
"C@	c #CBCBCD",
"D@	c #E2E1E1",
"E@	c #CCCBCC",
"F@	c #282526",
"G@	c #131011",
"H@	c #F12629",
"I@	c #F3272A",
"J@	c #F62629",
"K@	c #E53132",
"L@	c #883F3C",
"M@	c #2D2728",
"N@	c #A0A3A5",
"O@	c #D0D1D3",
"P@	c #F3F3F4",
"Q@	c #D3D2D3",
"R@	c #2B2829",
"S@	c #1B1819",
"T@	c #121718",
"U@	c #4C1D1E",
"V@	c #F2272A",
"W@	c #EE2629",
"X@	c #F22427",
"Y@	c #E52F30",
"Z@	c #8A413D",
"`@	c #302A29",
" #	c #9EA1A3",
".#	c #CDCDCD",
"+#	c #0E0B0C",
"@#	c #0A0F10",
"##	c #461517",
"$#	c #F12023",
"%#	c #ED1F22",
"&#	c #F11D20",
"*#	c #E52729",
"=#	c #893633",
"-#	c #2E2222",
";#	c #A1A3A5",
">#	c #F8F9F9",
",#	c #DFDDDF",
"'#	c #BFBEBF",
")#	c #BCBEBF",
"!#	c #CCBFBF",
"~#	c #FAC1C2",
"{#	c #F9C1C2",
"]#	c #FDBFC0",
"^#	c #F5C9C9",
"/#	c #CDC2C1",
"(#	c #D4D4D5",
"      ' . + @ @ @ @ @ @ @ @ @ @ @ @ @ @ @ @ @ @ # $ '           ",
"    ' % & * = - - - - - - - - - - - - - - - - - ; > , '         ",
"  ' ) ! ~ { ] ; ^ ^ ^ ^ ^ ^ ^ ^ ^ ^ ^ ^ ^ ^ ^ ^ ^ / ( _ '       ",
"' ) ! & { ! & : < ^ ^ ^ ^ ^ ^ ^ ^ ^ ^ ^ ^ ^ ^ ^ ^ ^ - [ # '     ",
"} | 1 { { { ! & 2 3 ^ ^ ^ ^ ^ ^ ^ ^ ^ ^ ^ ^ ^ ^ ^ ^ ^ / 4 5 p   ",
"6 7 8 9 { { { 0 a b c c c c c c c c c c c c c c c c c c d e p   ",
"f g h i 9 { 9 j k l m n n n n n n n n n n n n n n n n n d o p   ",
"q r s t u v w 4 x y z A A A A A A A A A A A A A A A A A B C p   ",
"D E F G H I J K L M B = = = = = = = = = = = = = = = = = N e p   ",
"D O P Q R S T U V W X Y Y Y Y Y Y Y Y Y Y Y Y Y Y Y Y Y Z ` p   ",
"D O  ...+.@.#.$.%.&.*.=.=.-.N ;.>.>.>.>.>.>.>.>.>.>.>.>.,.'.p   ",
"D O ).!.~.{.].^.%./.(._.:.<.[.}.|.;.;.;.;.;.;.;.;.;.;.;.1.2.p   ",
"D O ).!.~.3.4.^.5.6.7.8.U 9.0.a.b.c.d.d.d.d.d.d.d.d.d.d.e.f.p   ",
"D O ).!.g.h.i.U 7.7.U 5.[ j.k.l.{ m.n.o.o.o.o.o.o.o.o.o.p.q.p   ",
"D O ).!.r.s.t.u.v.v.w.x.y.k.z.{ ! 9 A.B.C.C.C.C.C.C.C.C.D.q.p   ",
"D O ).!.E.F.G.H.H.I.J.K.L.0 { { M.N.O.P.Q.Q.Q.Q.Q.Q.Q.Q.R.S.p   ",
"D O ).T.U.V.W.W.W.X.Y.Z.`. +.+.+++@+#+$+%+%+%+%+%+%+%+%+&+*+p   ",
"D O ). .=+-+-+-+-+-+!.;+>+,+ +'+)+!+~+{+]+]+]+]+]+]+]+]+^+/+p   ",
"D O ). . . . . . . . .(+_+:+<+[+}+|+1+^+2+2+2+2+2+2+2+2+3+4+p   ",
"5+6+7+8+8+8+8+8+8+9+ . .0+a+b+c+d+e+f+g+h+h+h+i+^+j+k+k+l+m+p   ",
"n+o+p+q+q+q+q+q+r+s+t+ .u+v+w+x+y+z+A+B+C+D+E+F+h+G+H+I+J+K+p   ",
"L+M+N+O+O+O+O+O+P+Q+R+T.u+S+T+U+y+5.^.7.7.|+V+W+X+Y+Z+`+ @.@p   ",
"+@@@#@$@$@$@$@$@%@&@R+T.u+S+*@=@-@;@;@%.7.}+>@,@'@1 )@!@~@{@p   ",
"]@^@/@(@(@(@(@(@_@:@R+T.u+<@[@}@|@1@1@2@3@4@5@.+{ 1 6@7@8@9@p   ",
"0@a@b@b@b@b@b@b@c@d@R+T.u+e@f@g@o.h@h@o.i@C+j@{ { { k@k.l@m@p   ",
"n@o@p@q@r@r@r@r@s@t@R+T.-+Q u@v@w@w@w@x@y@z@A@B@{ { { z.C@D@p   ",
"' E@F@G@q@r@r@r@s@t@R+T. . .H@I@I@I@I@J@K@L@M@N@v { O@~ P@' p   ",
"  ' Q@R@a@r@S@S@T@U@V@W@).).).).).).).).X@Y@Z@`@ #M.~ P@' p     ",
"    ' .#o@+#G@G@@###$#%#O O O O O O O O O &#*#=#-#;#>#' p       ",
"      ' ,#K+'#'#)#!#~#{#{#{#{#{#{#{#{#{#{#{#]#^#/#(#' p         ",
"        p p p p p p p p p p p p p p p p p p p p p p p           ",
"                                                                "};
