/* XPM */
static char *logo[] = {
/* columns rows colors chars-per-pixel */
"32 32 82 1",
"  c #FF2F2F",
". c #FF3131",
"X c #FF3A3A",
"o c #FE4646",
"O c #FE4B4B",
"+ c #FC5B5B",
"@ c #FB6969",
"# c #FE7D7D",
"$ c #AE9696",
"% c #AC9999",
"& c #B39595",
"* c #BA9595",
"= c #B59C9C",
"- c #A9A3A3",
"; c #AEACAC",
": c #B2A4A4",
"> c #BCA6A6",
", c #B4ADAD",
"< c #BAADAD",
"1 c #B2B4B4",
"2 c #BBBDBD",
"3 c #C59494",
"4 c #C69C9C",
"5 c #CD9999",
"6 c #D39E9E",
"7 c #EE8E8E",
"8 c #F68787",
"9 c #EB9292",
"0 c #FE9C9C",
"q c #CCA5A5",
"w c #C1ABAB",
"e c #CEA8A8",
"r c #D2A6A6",
"t c #DCA6A6",
"y c #DBACAC",
"u c #CBB3B3",
"i c #C3BCBC",
"p c #D1B3B3",
"a c #DEB0B0",
"s c #E3ADAD",
"d c #F5A3A3",
"f c #FEA4A4",
"g c #FFAEAE",
"h c #E4B3B3",
"j c #E3B9B9",
"k c #EABABA",
"l c #FBB5B5",
"z c #F3BCBC",
"x c #FBBBBB",
"c c #BEC1C1",
"v c #C2C4C4",
"b c #CACCCC",
"n c #D1C5C5",
"m c #DAC5C5",
"M c #D1CBCB",
"N c #CED0D0",
"B c #D4D5D5",
"V c #DDD4D4",
"C c #D7D9D9",
"Z c #DBDCDC",
"A c #F4C5C5",
"S c #F9C4C4",
"D c #F3CCCC",
"F c #FDCCCC",
"G c #EEDADA",
"H c #F5D2D2",
"J c #FDD4D4",
"K c #F1DADA",
"L c #FDDBDB",
"P c #DEE0E0",
"I c #E3E4E4",
"U c #ECE3E3",
"Y c #ECEBEB",
"T c #F2E6E6",
"R c #FEE4E4",
"E c #F2EAEA",
"W c #FEECEC",
"Q c #EFF0F0",
"! c #F3F3F3",
"~ c #FFF4F4",
"^ c #F7F9F9",
"/ c #FFFEFE",
/* pixels */
"////////////////////////////////",
"/////////////////~~~~~~~~~~~~///",
"//////////////~~~RFxlllllllxLW//",
"/////////WLJJJJJJHFf@oooooo+xLW/",
"///////RFFLWWWWRLFxSl#X .. ofJ~/",
"/////~JFW/////////~Flz0O...o0FW/",
"^///WFL//////////^//WxkdO .o0FW/",
"!//WFR////RDkhjAL~///~xk0o o0FW~",
"!/~SR///Rh4&:,<wqsL///~zj8.O0FW/",
"!/JL///H5%1vCZIPZMyA///Whh+OfJW/",
"!WF///K3-cZY^/^/^!IjS~//Ly9OgJW/",
"!FR//W6-vI^///////^QkL//~ht@lJW/",
"TF~//k$2I!//////////EA~//Dr7xRW/",
"GJ//W5;C!///////////^DL//RrsFR~/",
"DL//L=cY/////////////WS//~ypHW~/",
"DR//D=N!/////////////~F///yuKW~/",
"JR//A>Z^//////////////F~//hiU~//",
"JR//DwC^/////////////~F///aiU///",
"KL//LqC^/////////////WF//~riY///",
"KJ//~rB!/////////////LL//R4vY///",
"TF~//AuY////////////~S~//D=bE///",
"YFR//WsV^///////////FL//~y:C^///",
"!TS///LsU^/////////JJ///H*2I////",
"E^DJ///LkG^//////~FJ///W6-b!////",
"!/!zR///WSALR~WRFFL///~s%2I^////",
"Q//TzR////WLJJJJR////~h&1C!/////",
"!^/^UkH/////////////Ws&1B!//////",
"!///^UjzR/////////WD5$1BE///////",
"^////^YmykDRW~WRHk6*;cZ!////////",
"///////!Inueqqqq>:,vCY!/////////",
"^///////^!IZBbbbbCPY!///////////",
"!/////////^^!EQE!^^^////////////"
};
