/* XPM */
static char *FTP[] = {
/* columns rows colors chars-per-pixel */
"32 32 256 2",
"   c #5B4E54",
".  c #60545C",
"X  c #7B6678",
"o  c #84807C",
"O  c #FFA34D",
"+  c #FFAE59",
"@  c #FFB250",
"#  c #FDB25D",
"$  c #F89D6B",
"%  c #D9A568",
"&  c #F8A165",
"*  c #FCAB66",
"=  c #FDA07B",
"-  c #FAB273",
";  c #FECC5B",
":  c #FED957",
">  c #FEDD5E",
",  c #FFCF65",
"<  c #FDC667",
"1  c #FDD264",
"2  c #FEC07D",
"3  c #FFD17D",
"4  c #FFE566",
"5  c #FFE46B",
"6  c #FFEA6D",
"7  c #FFF46A",
"8  c #FFE278",
"9  c #866E86",
"0  c #877784",
"q  c #887D84",
"w  c #C66AB5",
"e  c #CA75BE",
"r  c #E370A9",
"t  c #E57FB5",
"y  c #5887A8",
"u  c #4C8AB3",
"i  c #5B8FB6",
"p  c #548DB4",
"a  c #5790B4",
"s  c #5C94BA",
"d  c #7D91A2",
"f  c #6997B9",
"g  c #6395B6",
"h  c #729BB8",
"j  c #7AA3BF",
"k  c #2E95D4",
"l  c #3096D5",
"z  c #3598D7",
"x  c #3A9BD5",
"c  c #5F9BC2",
"v  c #44A2D6",
"b  c #4AA3DD",
"n  c #51AADA",
"m  c #5AB2DD",
"M  c #7AACCB",
"N  c #7BACC5",
"B  c #70ADD1",
"V  c #62B5DE",
"C  c #68B8DE",
"Z  c #77B3D1",
"A  c #67B1E5",
"S  c #66B8E0",
"D  c #6BB9E4",
"F  c #68B4E5",
"G  c #72BDE2",
"H  c #7FC5E6",
"J  c #7AC6E9",
"K  c #878480",
"L  c #898282",
"P  c #91888C",
"I  c #95918E",
"U  c #988C90",
"Y  c #8C949B",
"T  c #9B9794",
"R  c #9E9B97",
"E  c #97959A",
"W  c #A19D9B",
"Q  c #AA989A",
"!  c #A3A09B",
"~  c #978CA1",
"^  c #9D8AA0",
"/  c #9287AE",
"(  c #9B8EAE",
")  c #978AAB",
"_  c #859DAB",
"`  c #8798A3",
"'  c #9A90A5",
"]  c #9B91AF",
"[  c #9D91B0",
"{  c #A098A4",
"}  c #A497B7",
"|  c #87A4BA",
" . c #92A6B1",
".. c #8EB0BD",
"X. c #99B0BC",
"o. c #A7A0A1",
"O. c #ADAAA7",
"+. c #ACA3AC",
"@. c #ADA8A8",
"#. c #B1ADAC",
"$. c #B2B0AC",
"%. c #A2ACBD",
"&. c #B2A7BB",
"*. c #A9B3B8",
"=. c #B7B4B1",
"-. c #BAB4B5",
";. c #BDB9B7",
":. c #BEB9BB",
">. c #BCB1BB",
",. c #E9AF91",
"<. c #D083BA",
"1. c #E481B6",
"2. c #DCA4A9",
"3. c #FED183",
"4. c #FFD390",
"5. c #FFDE93",
"6. c #FFE584",
"7. c #FFF294",
"8. c #C2C1BE",
"9. c #A39CC3",
"0. c #AA9AC4",
"q. c #A796CD",
"w. c #B09ECD",
"e. c #A79ED3",
"r. c #AD9BD4",
"t. c #83AEC6",
"y. c #9AB4C2",
"u. c #9FB8C4",
"i. c #97B7C8",
"p. c #9FBCCB",
"a. c #83B9D8",
"s. c #97BCD3",
"d. c #ACA8C6",
"f. c #B4A6CB",
"g. c #B4AACC",
"h. c #BAA7C1",
"j. c #A7B8C5",
"k. c #A0BAC8",
"l. c #BAB3C5",
"z. c #BFB2C9",
"x. c #AFACD9",
"c. c #B3A0D6",
"v. c #BEA4D7",
"b. c #BAA6DB",
"n. c #B4ADDB",
"m. c #BBADDB",
"M. c #BFB9D2",
"N. c #BCB1DB",
"B. c #83BFE2",
"V. c #CA8BC8",
"C. c #D489C3",
"Z. c #D481C8",
"A. c #D78ECD",
"S. c #DF89CA",
"D. c #DD86C8",
"F. c #D594CB",
"G. c #E089C7",
"H. c #E28EC8",
"J. c #E49ACE",
"K. c #C2BBC4",
"L. c #C4BFCE",
"P. c #C9BCCD",
"I. c #C3B5C6",
"U. c #D5B8C6",
"Y. c #C6A8D7",
"T. c #D2A8D9",
"R. c #DEACDD",
"E. c #C0B5D4",
"W. c #C4BBD4",
"Q. c #C1B6DE",
"!. c #CBBBDB",
"~. c #C7BCD5",
"^. c #D0B8DA",
"/. c #E7A0CB",
"(. c #C2AFE2",
"). c #C5BAE2",
"_. c #CABFE4",
"`. c #C4B4E2",
"'. c #D2BCE4",
"]. c #9BC0D3",
"[. c #AEC0C6",
"{. c #B5C0C2",
"}. c #B9C2C6",
"|. c #A7C5D3",
" X c #ADC6D1",
".X c #BCD2DC",
"XX c #80C5E6",
"oX c #84C8E7",
"OX c #89C9E8",
"+X c #8FC3E4",
"@X c #9DD5EE",
"#X c #8FD4F2",
"$X c #A2D5EC",
"%X c #ADD8EC",
"&X c #B1D7E7",
"*X c #A0D5F0",
"=X c #A4D9F0",
"-X c #ACDDF4",
";X c #B2DEF7",
":X c #B5E3F6",
">X c #BCE5F5",
",X c #B4E1FA",
"<X c #C7C3C4",
"1X c #C8C5C5",
"2X c #CBC4CB",
"3X c #CCC9CA",
"4X c #CBCAC7",
"5X c #D1CFCD",
"6X c #D2C3CC",
"7X c #CCC3D4",
"8X c #CEC4DB",
"9X c #CEC8DC",
"0X c #C9CDD3",
"qX c #D1C4DB",
"wX c #D4CBDD",
"eX c #D2CBD5",
"rX c #CED1D0",
"tX c #C3D7DE",
"yX c #C4D2D5",
"uX c #DDD6DE",
"iX c #DDDBDC",
"pX c #D4D2D1",
"aX c #E7C3DD",
"sX c #E0E0DC",
"dX c #CCC2E4",
"fX c #D2C4E5",
"gX c #D4CAE4",
"hX c #D8CEE4",
"jX c #D3C5E9",
"kX c #D8C7EA",
"lX c #D5CCEA",
"zX c #DACDEB",
"xX c #DBD2E5",
"cX c #DCD4ED",
"vX c #DBD9EA",
"bX c #DFD5F1",
"nX c #E3C4E5",
"mX c #E0D6E5",
"MX c #E1D5EE",
"NX c #E3DBEC",
"BX c #E9DEEF",
"VX c #E1D5F1",
"CX c #E3DAF2",
"ZX c #E9DDF3",
"AX c #D4E5E8",
"SX c #C0E8F7",
"DX c #C7EDFF",
"FX c #D4F2FC",
"GX c #DBF5FC",
"HX c #DEF9FF",
"JX c #ECE5EE",
"KX c #ECE4F4",
"LX c #F0E7FB",
"PX c #F0EAF4",
"IX c #E7FAFF",
"UX c None",
/* pixels */
"UXUXUXUXUXUXUXUXUXUXUXUXUXUXUXUXE +.+.I.mXUXUXUX;.#.Q U UXUXUXUX",
"UXUXUXUXUXUXUXUXUXUXUXUXUXUXd.M.wXmXNXBXKXKXPXJXuX>.0 X 9 UXUXUX",
"UXUXUXUXUXUXUXUXUXUXUXUX} d.lXbXVXCXCXCXBXcXxXvX8XU h.P.UXUXUXUX",
"UXUXUXUXUXUXUXUXUXUXUXz.E.9X8X8XzXNXCXZXxXgXgXzXf.qXLXkXUXUXUXUX",
"UXUXUXUXUXUXUXUXUXUXUXgXBX=.T ;.1XKXKX1X<X3XmXVX} hXZXzXUXUXUXUX",
"UXUXUXUXUXUXUXUXUXUXUXhX2.O.o $.O.7X2X4XsX! #.cXq.cXCXlXUXUXUXUX",
"UXUXUXUXUXUXUXUXUXUXUX7X .1XW O.8.<X@.R I K =.eXw.xXCXkXUXUXUXUX",
"UXUXUXUXUXUXUXUX< UXUX0XI $.O.W 1XiX-.W =.iXpXqXb.MXCXlXUXUXUXUX",
"UXUXUXUXUX* # 1 > O 2.cX1XI #.W L P o.;.5X3XeXBXm.bXbXlXUXUXUXUX",
"UXUXUXUX$ < 4 5 7 5 ,.bXPXwX7X+..   q eX6XU.aXaXY.zXbXdXUXUXUXUX",
"UXUXUXUX& 1 2 4.6 @ 2.Y.<.<.C.C.V.V.F.J.1.r 1.J.b.zXlXjXUXUXUXUX",
"UXUXUXUX- ; = UX1 UXUXT.H.D.G.S.S.Z.e e w e A.R.b.zXlX_.UXUXUXUX",
"UXUXUXUX3.: UXUXUXUXUX'.kX^.~.!.'.nXkXkXfX!.W.zX(.lXdX`.UXUXUXUX",
"UXUXUXUX6.4 5.UXUXUXUXjXzXf.g.dX).cXKXcXgXE.{ qX(.jXdXm.UXUXUXUX",
"UXUXUX3 5 7.8 UXUXUXUX'.fXm.zXzXdXcXbXdXdX).l.dXm._.Q.0.UXUXUXUX",
"UXUXUXUX; 4 + UXUXUXUXkXzXjXzXvXdXcXcXdXm.).7XkXb._.`.( UXUXUXUX",
"UXUXUXUXUX% Q t.M | | %.l.JXvXvXlXCXMXfXN.dXhXjXb.`.n.) UXUXUXUX",
"UXUXUXUX` h a.$X;X,X;X%Xs.j.vXbXlXNXcXdXn.lXcXjXc.n.x.[ UXUXUXUX",
"UXUXUXE i.>XFXGXHXFXDX-XoX| M.vX9XMXlX).m.jXjXjXc.n.n.[ UXUXUXUX",
"UXUXUXY _ }.yX X].M c i y d 7XCXE.xX8XQ.N.).dXkXr.e.9.~ UXUXUXUX",
"UXUXUXy.&XAXyX{.t.N Z oXA h 7XCXW.xX&.f.dXcXbXkXe.9.[ ' UXUXUXUX",
"UXUXUXu.&XFXGXFX:X#XH G b g K.9X~.cXP.E.~.l.hXjXq./ ( UXUXUXUXUX",
"UXUXUXy.@XFXFX>X=XJ m n z p 2X!.fXVXVXMXVXVXBXzXq.UXUXUXUXUXUXUX",
"UXUXUXy.@XGXFX:X@XD n v l p I.z.P.7XqXMXUXUXUXUXUXUXUXUXUXUXUXUX",
"UXUXUXk.=XIXFX:X@XC m v x u UXUXUXUXUXUXUXUXUXUXUXUXUXUXUXUXUXUX",
"UXUXUXk.$XGXFX:X=XXXC v z u UXUXUXUXUXUXUXUXUXUXUXUXUXUXUXUXUXUX",
"UXUXUX].@XIXFXSX=XXXV x l u UXUXUXUXUXUXUXUXUXUXUXUXUXUXUXUXUXUX",
"UXUXUX|.@XFXFX>X$XOXV v x s UXUXUXUXUXUXUXUXUXUXUXUXUXUXUXUXUXUX",
"UXUXUX.X%XFXFX>X=XOXC n b f UXUXUXUXUXUXUXUXUXUXUXUXUXUXUXUXUXUX",
"UXUXUXtX>XIXGX:X-X@XOXS A | UXUXUXUXUXUXUXUXUXUXUXUXUXUXUXUXUXUX",
"UXUXUXUX[.rXAX>X>X$XXXB h UXUXUXUXUXUXUXUXUXUXUXUXUXUXUXUXUXUXUX",
"UXUXUXUXUXUX=.*.%. ._ ` UXUXUXUXUXUXUXUXUXUXUXUXUXUXUXUXUXUXUXUX"
};
