/* XPM */
static char * JavaMorph_xpm[] = {
"32 32 3 1",
" 	c #381AF1",
".	c #FFF043",
"+	c #391BF1",
"         ...        ...         ",
"         ...        ...         ",
"         ...        ...         ",
"         ...        ...         ",
"         ...        ...         ",
"         ...        ...         ",
"         ...        ...         ",
"         ...        ...         ",
"         ...        ...         ",
"................................",
"................................",
"................................",
"         ...        ...         ",
"         ...        ...         ",
"         ...        ...         ",
"         ...        ...         ",
"         ...        ...         ",
"         ...        ...         ",
"         ...        ...         ",
"         ...        ...         ",
"................................",
"................................",
"................................",
"         ...        ...         ",
"         ...        ...         ",
"         ...        ...         ",
"         ...        ...         ",
"         ...        ...         ",
"         ...        ...         ",
"         ...        ...         ",
"         ...        ...         ",
"+        ...        ...         "};
