/* XPM */
static char *OmegaT[] = {
/* columns rows colors chars-per-pixel */
"32 32 3 1",
"  c black",
". c blue",
"X c gray100",
/* pixels */
"                                ",
"            XXXXXXXX            ",
"               XX               ",
"         XXXXXXXXXXXXXX         ",
"           XXXXXXXXXX           ",
"      XXXXXXXXXXXXXXXXXXXX      ",
"       ..................       ",
"    XXX.XXXXXXXXXXXXXXXX.XXX    ",
"      X.XXXXXXXXXXXXXXXX.X      ",
"  XXXXX.XXXXXXXXXXXXXXXX.XXXXX  ",
"     XX.XXXXXXXXXXXXXXXX.XX     ",
" XXXXXX.......XXXX.......XXXXXX ",
"     XXXXXXXX.XXXX.XXXXXXXX     ",
"XXXXXXXXXXXXX.XXXX.XXXXXXXXXXXXX",
"    XXXXXXXXX.XXXX.XXXXXXXXX    ",
"XXXXXXXXXXXXX.XXXX.XXXXXXXXXXXXX",
"    XXXXXXXXX.XXXX.XXXXXXXXX    ",
"XXXXXXXXXXXXX.XXXX.XXXXXXXXXXXXX",
"     XXXXXXXX.XXXX.XXXXXXXX     ",
" XXXXXXXXXXXX.XXXX.XXXXXXXXXXXX ",
"      XXXXXXX.XXXX.XXXXXXX      ",
"   XXXXXXXXXX.XXXX.XXXXXXXXXX   ",
"         XXXX.XXXX.XXXX         ",
"     XXXXXXXX.XXXX.XXXXXXXX     ",
"           XX.XXXX.XX           ",
"        XXXXX.XXXX.XXXXX        ",
"             .XXXX.             ",
"        XXXXX.XXXX.XXXXX        ",
"             .XXXX.             ",
"XXXXXXXXXXXXX.XXXX.XXXXXXXXXXXXX",
"             ......             ",
"                                "
};
