/* XPM */
static char * vite_xpm[] = {
"32 32 76 1",
" 	c None",
".	c #2F2F2F",
"+	c #303030",
"@	c #313131",
"#	c #2E2E2E",
"$	c #2C2C2C",
"%	c #2D2D2D",
"&	c #323232",
"*	c #333333",
"=	c #262626",
"-	c #101010",
";	c #0A0A0A",
">	c #0F0F0F",
",	c #171717",
"'	c #202020",
")	c #292929",
"!	c #111111",
"~	c #000000",
"{	c #010101",
"]	c #060606",
"^	c #121212",
"/	c #3C3C3C",
"(	c #030303",
"_	c #040404",
":	c #161616",
"<	c #404040",
"[	c #0E0E0E",
"}	c #090909",
"|	c #141414",
"1	c #1A1A1A",
"2	c #363636",
"3	c #020202",
"4	c #070707",
"5	c #0C0C0C",
"6	c #1E1E1E",
"7	c #252525",
"8	c #2B2B2B",
"9	c #282828",
"0	c #353535",
"a	c #3B3B3B",
"b	c #414141",
"c	c #474747",
"d	c #4C4C4C",
"e	c #606060",
"f	c #585858",
"g	c #050505",
"h	c #343434",
"i	c #3A3A3A",
"j	c #464646",
"k	c #535353",
"l	c #8B8B8B",
"m	c #AFAFAF",
"n	c #878787",
"o	c #212121",
"p	c #383838",
"q	c #3E3E3E",
"r	c #444444",
"s	c #4A4A4A",
"t	c #505050",
"u	c #565656",
"v	c #181818",
"w	c #080808",
"x	c #434343",
"y	c #494949",
"z	c #4F4F4F",
"A	c #555555",
"B	c #5A5A5A",
"C	c #424242",
"D	c #484848",
"E	c #4D4D4D",
"F	c #595959",
"G	c #0B0B0B",
"H	c #525252",
"I	c #515151",
"J	c #191919",
"K	c #1B1B1B",
"                                ",
"                                ",
"                                ",
"                                ",
"                                ",
"                                ",
"                                ",
"                                ",
"     .+@@#$#%                   ",
"  .@&***=-;>,')                 ",
"  .+***@!~~~{]^=/               ",
"    .+@=(~~~_;-:%<              ",
"       [~~~(}>|1'2              ",
"       ~~~345!,678/             ",
"       ~~{];    9.0abcdef<      ",
"       ~{g;      hi<jdklmno~    ",
"       ~_}       pqrstudvw~~~   ",
"      ~3w}       /xyzAB#~~~~~~  ",
"      {g         CDEkFCG~~~~~~~ ",
"                 jdHfcv~~~~~~~~ ",
"                 sIuxJ~~~~~~~~  ",
"                 zI*-~~~~~~     ",
"                 hK~~~~         ",
"                  ~~            ",
"                                ",
"                                ",
"                                ",
"                                ",
"                                ",
"                                ",
"                                ",
"                                "};
