/* XPM */
static char * apvlv_xpm[] = {
"32 32 267 2",
"  	c None",
". 	c #A8ABA4",
"+ 	c #A6A9A3",
"@ 	c #A6A9A2",
"# 	c #A6A8A2",
"$ 	c #A5A8A2",
"% 	c #A5A8A1",
"& 	c #A5A7A1",
"* 	c #A4A7A1",
"= 	c #A4A7A0",
"- 	c #A4A6A0",
"; 	c #A5A7A0",
"> 	c #A7AAA4",
", 	c #A4A8A1",
"' 	c #A7A9A4",
") 	c #FAFBFA",
"! 	c #FFFFFF",
"~ 	c #F5F6F4",
"{ 	c #E8E9E5",
"] 	c #C4C7C1",
"^ 	c #A5A9A2",
"/ 	c #E9EBE7",
"( 	c #E8EBE7",
"_ 	c #E8EAE6",
": 	c #E7E9E5",
"< 	c #E6E8E3",
"[ 	c #E5E7E2",
"} 	c #E4E6E2",
"| 	c #E2E5E0",
"1 	c #E1E4DF",
"2 	c #E1E3DE",
"3 	c #DFE2DC",
"4 	c #DEE1DB",
"5 	c #E1E2DE",
"6 	c #F3F4F3",
"7 	c #DEE0DB",
"8 	c #AAABA5",
"9 	c #A4A6A1",
"0 	c #E9EAE6",
"a 	c #E6E9E4",
"b 	c #E5E8E3",
"c 	c #E4E6E1",
"d 	c #E3E5E0",
"e 	c #E2E4DF",
"f 	c #DFE2DD",
"g 	c #DEE2DC",
"h 	c #DDE1DB",
"i 	c #DADED7",
"j 	c #D8DBD6",
"k 	c #ACADA8",
"l 	c #A2A59F",
"m 	c #A3A59F",
"n 	c #E7E9E6",
"o 	c #949594",
"p 	c #8D8D8D",
"q 	c #929392",
"r 	c #DCDFD8",
"s 	c #CED1CA",
"t 	c #FCFCFC",
"u 	c #F4F5F2",
"v 	c #D7DAD4",
"w 	c #AAADA7",
"x 	c #A2A49E",
"y 	c #E6E8E4",
"z 	c #E5E7E3",
"A 	c #E4E7E2",
"B 	c #E0E3DE",
"C 	c #DDE0DA",
"D 	c #D0D3CD",
"E 	c #F8F9F8",
"F 	c #F8F8F8",
"G 	c #A4A5A1",
"H 	c #A1A39D",
"I 	c #E6E7E3",
"J 	c #E3E6E1",
"K 	c #E2E3DE",
"L 	c #E0E3DD",
"M 	c #D3D5D0",
"N 	c #C7CAC5",
"O 	c #BCBFBA",
"P 	c #B4B6B1",
"Q 	c #C5C7C2",
"R 	c #CED1CC",
"S 	c #9FA19C",
"T 	c #A0A29C",
"U 	c #BEBFBC",
"V 	c #B8B9B7",
"W 	c #B8B9B6",
"X 	c #B7B8B6",
"Y 	c #BCBEBB",
"Z 	c #E2E5DF",
"` 	c #D5D8D2",
" .	c #CACDC7",
"..	c #C0C2BD",
"+.	c #B4B7B2",
"@.	c #A9ABA7",
"#.	c #CACCC8",
"$.	c #B2B4AE",
"%.	c #9FA19B",
"&.	c #E5E6E2",
"*.	c #E3E6E0",
"=.	c #E2E4E0",
"-.	c #E0E2DE",
";.	c #E0E2DD",
">.	c #DFE1DC",
",.	c #DCDEDA",
"'.	c #D6D8D3",
").	c #CBCDC8",
"!.	c #C6C8C4",
"~.	c #D7D8D3",
"{.	c #9EA29A",
"].	c #9EA09A",
"^.	c #E3E5E1",
"/.	c #F3F4F2",
"(.	c #9A9D97",
"_.	c #9D9F99",
":.	c #616460",
"<.	c #5E605C",
"[.	c #5D5F5B",
"}.	c #595B57",
"|.	c #989A94",
"1.	c #9B9E98",
"2.	c #6F654F",
"3.	c #645B47",
"4.	c #544D3C",
"5.	c #6C634D",
"6.	c #685F4A",
"7.	c #6B614C",
"8.	c #BEBFBD",
"9.	c #BDBEBC",
"0.	c #979993",
"a.	c #8D744B",
"b.	c #8B724A",
"c.	c #59492F",
"d.	c #776240",
"e.	c #6B5839",
"f.	c #745F3D",
"g.	c #876F48",
"h.	c #969892",
"i.	c #999C96",
"j.	c #AC8548",
"k.	c #AB8448",
"l.	c #8B6B3A",
"m.	c #725830",
"n.	c #71582F",
"o.	c #A27D44",
"p.	c #C0C1BE",
"q.	c #B9BAB8",
"r.	c #BFC0BE",
"s.	c #959791",
"t.	c #989B95",
"u.	c #CA9444",
"v.	c #D09D45",
"w.	c #CF9E44",
"x.	c #CC9745",
"y.	c #6B4E24",
"z.	c #B9883E",
"A.	c #B5843D",
"B.	c #A67A38",
"C.	c #E9EAE7",
"D.	c #939690",
"E.	c #E9A540",
"F.	c #EDB545",
"G.	c #F8DB75",
"H.	c #FAE388",
"I.	c #F1C251",
"J.	c #E4A63F",
"K.	c #684A1D",
"L.	c #A1722C",
"M.	c #EBECE9",
"N.	c #C2C2C1",
"O.	c #BBBCBA",
"P.	c #C0C1BF",
"Q.	c #EAEBE8",
"R.	c #92958F",
"S.	c #969993",
"T.	c #FCB43F",
"U.	c #FDD664",
"V.	c #FEF7BA",
"W.	c #FFF8BE",
"X.	c #FDEE97",
"Y.	c #FCBC42",
"Z.	c #78531D",
"`.	c #DA9836",
" +	c #FCAF3E",
".+	c #ECEDEA",
"++	c #91948E",
"@+	c #959892",
"#+	c #94713B",
"$+	c #897344",
"%+	c #A2915D",
"&+	c #9A8654",
"*+	c #7D6439",
"=+	c #594729",
"-+	c #6F5833",
";+	c #7D6339",
">+	c #EEEEEC",
",+	c #C3C3C2",
"'+	c #BDBDBC",
")+	c #BCBDBC",
"!+	c #C2C3C1",
"~+	c #EDEEEB",
"{+	c #90938D",
"]+	c #949791",
"^+	c #EAECE8",
"/+	c #ECE9E1",
"(+	c #EDE9DE",
"_+	c #EEEADF",
":+	c #EFEBE0",
"<+	c #EFEBE1",
"[+	c #F0EBE1",
"}+	c #F0ECE1",
"|+	c #F0EDE6",
"1+	c #EFF0EE",
"2+	c #EFF0ED",
"3+	c #EFEFED",
"4+	c #EEEFED",
"5+	c #EEEFEC",
"6+	c #90928C",
"7+	c #BCBDBB",
"8+	c #BDBEBD",
"9+	c #BEBEBD",
"0+	c #C4C4C3",
"a+	c #F0F0EE",
"b+	c #8E908B",
"c+	c #EDEEEC",
"d+	c #F0F1EE",
"e+	c #F0F1EF",
"f+	c #F1F2F0",
"g+	c #F2F2F0",
"h+	c #F2F2F1",
"i+	c #F2F3F1",
"j+	c #F1F1EF",
"k+	c #8D8F8A",
"l+	c #91938E",
"m+	c #ECEDEB",
"n+	c #BEBFBE",
"o+	c #BFBFBE",
"p+	c #BFBFBF",
"q+	c #BFC0BF",
"r+	c #C0C0BF",
"s+	c #C5C5C4",
"t+	c #8C8E89",
"u+	c #90928D",
"v+	c #ECEEEB",
"w+	c #F3F3F2",
"x+	c #F4F4F3",
"y+	c #F5F5F3",
"z+	c #F5F5F4",
"A+	c #F4F4F2",
"B+	c #8B8D88",
"C+	c #8F918C",
"D+	c #C6C6C6",
"E+	c #8A8C87",
"F+	c #EBEDEA",
"G+	c #F3F3F1",
"H+	c #898B86",
"I+	c #888A85",
"J+	c #8D908A",
"K+	c #F6F7F6",
"L+	c #FEFEFE",
"M+	c #F7F7F7",
"N+	c #8A8D87",
"O+	c #5B5D59",
"P+	c #8B8E89",
"Q+	c #898A86",
"R+	c #5D5D5B",
"                                                                ",
"                                                                ",
"          . + @ # # $ $ % & & * = - ; > ,                       ",
"        ' ) ! ! ! ! ! ! ! ! ! ! ! ! ~ { ] ^                     ",
"        & ! / ( _ : < [ } | 1 2 3 4 3 5 6 7 8 9                 ",
"        - ! 0 _ : a b [ c d e 2 f g h i j ) 4 k l               ",
"        m ! n : o p p p p p p p p q 4 r s t u v w x             ",
"        x ! a y y z A A c d e 1 B 3 4 C D E F / v G             ",
"        H ! y z I [ [ c J | 1 K 2 L 3 4 M N O P Q R S           ",
"        T ! z [ U V W W X Y Z 1 B L 3 4 `  ...+.@.#.$.          ",
"        %.! &.A c } c J *.| =.e 2 -.;.;.;.>.,.'.).!.~.{.        ",
"        ].! c } c c J J ^.d e e 1 1 1 1 1 1 1 1 2 d /.(.        ",
"        _.! J c :.<.[.}.<.<.<.<.<.<.:.d d d d d d | ! |.        ",
"        1.! ^.^.2.2.2.3.4.5.6.2.2.7.2.} 8.V V 9.} } ! 0.        ",
"        (.! ^.c a.a.a.a.b.c.d.b.e.f.g.y y y y < I z ! h.        ",
"        i.! } [ j.j.j.k.l.m.j.j.n.o.j.{ p.q.q.r.: : ! s.        ",
"        t.! I y u.u.v.w.x.y.z.A.B.u.u.C.C.C.C.C.0 _ ! D.        ",
"        |.! : : E.F.G.H.I.J.K.L.E.E.E.M.N.O.O.P.Q.Q.! R.        ",
"        S.! _ _ T.U.V.W.X.Y.Z.`. + + +.+.+.+.+.+.+M.! ++        ",
"        @+! C./ #+$+%+%+&+*+=+-+;+;+#+>+,+'+)+!+~+~+! {+        ",
"        ]+! Q.^+/+(+(+_+_+:+:+<+[+}+|+1+1+1+2+3+4+5+! 6+        ",
"        D.! M.M.!+7+7+'+'+9.8+9+9+9+9+9+9+9+9+0+a+1+! b+        ",
"        R.! M..+~+c+5+3+1+d+e+f+f+g+h+i+i+h+g+f+j+e+! k+        ",
"        l+! .+m+,+'+'+8+9+9+n+o+o+p+q+r+r+q+p+s+g+f+! t+        ",
"        u+! .+v+~+5+3+1+e+j+g+i+w+x+y+z+z+x+A+w+h+f+! B+        ",
"        C+! .+m+,+'+'+8+9+9+o+o+D+/.x+x+x+x+w+i+g+f+! E+        ",
"        b+! F+.+~+c+5+2+1+e+j+f+h+i+G+w+w+i+i+g+f+j+! H+        ",
"        k+! .+~+~+5+4+2+a+e+j+f+g+i+i+i+i+i+g+f+f+e+! I+        ",
"        J+K+L+L+L+L+L+L+L+L+L+L+L+L+L+L+L+L+L+L+L+L+M+N+        ",
"        O+P+B+B+E+E+E+E+H+H+H+H+H+I+I+I+I+I+I+I+I+I+Q+R+        ",
"                                                                ",
"                                                                "};
