/* XPM */
static char * asylum_xpm[] = {
"32 32 4 1",
" 	c None",
".	c #00CC00",
"+	c #558800",
"@	c #FFFFFF",
"         ..     ..              ",
" .      .++.   .++.    ....     ",
" .      .++.   .++.    ....     ",
".+.     .+++..  .++.  .++++.    ",
".+.     .+++..  .++.  .++++.    ",
" .+........+++.  .+.  .+...     ",
" .+........+++.  .+.  .+...     ",
" .+++++++....++..++....+.       ",
" .+++++++....++..++....+.       ",
"  ......+++..++.++++++++.       ",
"  ......+++..++.++++++++.       ",
"   ..    .++..++.@.@..++.       ",
"   ..    .++..++.@.@..++.       ",
"  .++...  .+++@.@.@+++.....  .. ",
"  .++...  .+++@.@.@+++.....  .. ",
" .++++++..+..@.@.@+..++++++..++.",
" .++++++..+..@.@.@+..++++++..++.",
".++....++++++.@.++++......++++. ",
".++....++++++.@.++++......++++. ",
" ..    ..++..++++..+++++. ....  ",
" ..    ..++..++++..+++++. ....  ",
"         .+. ..+++. .+++.       ",
"         .+. ..+++. .+++.       ",
"        .++.   ..++..+..        ",
"        .++.   ..++..+..        ",
"       .++. ....+++..+++......  ",
"       .++. ....+++..+++......  ",
"      .++. .+++++..  ..+++++++. ",
"      .++. .+++++..  ..+++++++. ",
"       ..  .+....      .......  ",
"       ..  .+....      .......  ",
"            .                   "};
