/* XPM */
static char * blobby_xpm[] = {
"32 32 367 2",
"  	c None",
". 	c #E4E5E5",
"+ 	c #F9F8F9",
"@ 	c #FDFDFD",
"# 	c #FAFAFA",
"$ 	c #F3F3F3",
"% 	c #EDEDED",
"& 	c #F2F2F2",
"* 	c #F1F1F1",
"= 	c #EEEFEF",
"- 	c #ECECEC",
"; 	c #F4F4F4",
"> 	c #F7F7F7",
", 	c #FCFCFC",
"' 	c #FEFEFE",
") 	c #F8F8F8",
"! 	c #E0E0E0",
"~ 	c #FBFBFB",
"{ 	c #FFFFFF",
"] 	c #F6F6F6",
"^ 	c #F7F8F8",
"/ 	c #EDEEEE",
"( 	c #F9F9F9",
"_ 	c #F0F0F0",
": 	c #E7E8E7",
"< 	c #DEDFDF",
"[ 	c #D4D4D5",
"} 	c #C6C5C6",
"| 	c #F2F3F3",
"1 	c #F2F2F3",
"2 	c #EEEEEE",
"3 	c #E9E9E9",
"4 	c #DFE0E0",
"5 	c #DCDCDC",
"6 	c #DFDFDF",
"7 	c #DDDEDD",
"8 	c #DCDCDD",
"9 	c #D2D2D2",
"0 	c #CAC9C9",
"a 	c #FDFDFC",
"b 	c #F3F4F4",
"c 	c #FAFAFB",
"d 	c #E2E2E1",
"e 	c #E6E6E6",
"f 	c #EBEBEB",
"g 	c #EAEAEA",
"h 	c #E7E7E7",
"i 	c #E5E6E5",
"j 	c #DDDDDD",
"k 	c #DCDBDC",
"l 	c #E2E2E2",
"m 	c #E0E1E0",
"n 	c #D4D4D4",
"o 	c #C4C4C4",
"p 	c #C6C5C5",
"q 	c #FBFAFB",
"r 	c #E6E7E7",
"s 	c #E8E9E9",
"t 	c #D8D8D8",
"u 	c #DBDADA",
"v 	c #DADADA",
"w 	c #D7D7D7",
"x 	c #D1D1D2",
"y 	c #C3C3C3",
"z 	c #BBBBBB",
"A 	c #D0D0D0",
"B 	c #F6F7F7",
"C 	c #F7F8F7",
"D 	c #E6E7E6",
"E 	c #E9EAEA",
"F 	c #E4E4E3",
"G 	c #E4E4E4",
"H 	c #E7E8E8",
"I 	c #E2E3E2",
"J 	c #DEDEDE",
"K 	c #D3D4D4",
"L 	c #D1D1D1",
"M 	c #D0D0D1",
"N 	c #CBCBCC",
"O 	c #C4C3C3",
"P 	c #B4B4B4",
"Q 	c #ACACAC",
"R 	c #EFEFEF",
"S 	c #D9D9D9",
"T 	c #DBDBDB",
"U 	c #E1E1E1",
"V 	c #DFDFDE",
"W 	c #D1D0D1",
"X 	c #C9C8C8",
"Y 	c #C9C9C9",
"Z 	c #BFBFBF",
"` 	c #B0B0B0",
" .	c #AAAAAA",
"..	c #A5A5A5",
"+.	c #EAEBEB",
"@.	c #E8E9E8",
"#.	c #E4E5E4",
"$.	c #E8E8E8",
"%.	c #D6D6D6",
"&.	c #D8D9D8",
"*.	c #D3D2D3",
"=.	c #CDCDCD",
"-.	c #C2C2C2",
";.	c #BFBEBF",
">.	c #C0BFC0",
",.	c #BDBDBD",
"'.	c #B9B8B8",
").	c #AEADAD",
"!.	c #A0A0A0",
"~.	c #A1A1A1",
"{.	c #959696",
"].	c #E3E3E3",
"^.	c #E3E2E3",
"/.	c #E3E4E3",
"(.	c #E0DFDF",
"_.	c #DDDCDC",
":.	c #C8C8C8",
"<.	c #CFCFCF",
"[.	c #CBCBCB",
"}.	c #BEBEBE",
"|.	c #B6B6B6",
"1.	c #B5B4B4",
"2.	c #B0B1B0",
"3.	c #999998",
"4.	c #8E8E8E",
"5.	c #D8D8D9",
"6.	c #E0E0DF",
"7.	c #DEDDDD",
"8.	c #D5D5D5",
"9.	c #CACACA",
"0.	c #BCBCBC",
"a.	c #C1C0C1",
"b.	c #C0C0C0",
"c.	c #B9BAB9",
"d.	c #ABABAB",
"e.	c #A8A8A8",
"f.	c #A3A3A3",
"g.	c #969696",
"h.	c #898889",
"i.	c #898888",
"j.	c #C8C8C9",
"k.	c #CECECE",
"l.	c #DAD9DA",
"m.	c #D6D5D6",
"n.	c #C5C5C5",
"o.	c #B2B2B2",
"p.	c #B5B5B4",
"q.	c #BCBDBC",
"r.	c #B7B7B7",
"s.	c #B3B3B3",
"t.	c #AAA9A9",
"u.	c #A2A2A2",
"v.	c #9A9A9A",
"w.	c #929292",
"x.	c #808080",
"y.	c #7E7E7E",
"z.	c #807F80",
"A.	c #D2D2D3",
"B.	c #D2D1D2",
"C.	c #C7C7C7",
"D.	c #BABABA",
"E.	c #AFAFAF",
"F.	c #B4B4B3",
"G.	c #A2A3A2",
"H.	c #989898",
"I.	c #929192",
"J.	c #8A8A89",
"K.	c #7A7B7A",
"L.	c #707071",
"M.	c #7D7D7D",
"N.	c #B6B7B6",
"O.	c #BABAB9",
"P.	c #B8B9B8",
"Q.	c #B5B5B5",
"R.	c #A6A6A6",
"S.	c #9C9C9C",
"T.	c #90908F",
"U.	c #8A8A8A",
"V.	c #8C8C8C",
"W.	c #878787",
"X.	c #807F7E",
"Y.	c #767676",
"Z.	c #676768",
"`.	c #717171",
" +	c #B3B2B2",
".+	c #C2C3C2",
"++	c #C4C4C3",
"@+	c #C1C1C1",
"#+	c #B4B3B3",
"$+	c #B8B8B8",
"%+	c #B7B6B6",
"&+	c #AFAEAF",
"*+	c #9D9D9D",
"=+	c #9FA0A0",
"-+	c #989999",
";+	c #939394",
">+	c #888988",
",+	c #7F807F",
"'+	c #7C7C7C",
")+	c #777676",
"!+	c #6E6E6E",
"~+	c #616262",
"{+	c #656565",
"]+	c #B1B1B1",
"^+	c #B8B9B9",
"/+	c #B7B8B8",
"(+	c #B4B3B4",
"_+	c #B0AFB0",
":+	c #ADADAD",
"<+	c #959495",
"[+	c #949494",
"}+	c #999999",
"|+	c #959595",
"1+	c #909091",
"2+	c #8C8C8D",
"3+	c #838484",
"4+	c #767877",
"5+	c #767778",
"6+	c #696868",
"7+	c #615F60",
"8+	c #5D5E5E",
"9+	c #ABACAB",
"0+	c #A5A6A5",
"a+	c #ADAEAD",
"b+	c #9F9F9F",
"c+	c #8E8D8E",
"d+	c #888888",
"e+	c #8F8F8E",
"f+	c #848484",
"g+	c #777778",
"h+	c #727172",
"i+	c #727373",
"j+	c #6D6D6E",
"k+	c #666667",
"l+	c #616161",
"m+	c #525252",
"n+	c #9E9E9E",
"o+	c #A4A4A4",
"p+	c #AEAEAE",
"q+	c #A7A7A7",
"r+	c #9B9B9B",
"s+	c #939393",
"t+	c #838383",
"u+	c #8A8C8B",
"v+	c #909090",
"w+	c #8C8C8B",
"x+	c #868686",
"y+	c #828282",
"z+	c #6C6C6C",
"A+	c #6F6F6E",
"B+	c #696869",
"C+	c #646363",
"D+	c #5B5C5C",
"E+	c #4F4F4E",
"F+	c #A5A4A2",
"G+	c #A9A9A9",
"H+	c #979797",
"I+	c #828281",
"J+	c #8A8B8A",
"K+	c #7D7D7E",
"L+	c #757675",
"M+	c #646464",
"N+	c #606161",
"O+	c #5D5D5D",
"P+	c #5A5A5A",
"Q+	c #5E5E5E",
"R+	c #9C9C9D",
"S+	c #99999A",
"T+	c #979798",
"U+	c #979697",
"V+	c #8F8F8F",
"W+	c #7F7F7F",
"X+	c #787878",
"Y+	c #6D6E6D",
"Z+	c #535353",
"`+	c #585959",
" @	c #5E5F5F",
".@	c #626262",
"+@	c #9D9E9D",
"@@	c #9A999A",
"#@	c #8D8D8D",
"$@	c #828181",
"%@	c #767677",
"&@	c #7B7C7B",
"*@	c #777677",
"=@	c #59595A",
"-@	c #999899",
";@	c #9B9A9A",
">@	c #8D8E8C",
",@	c #696968",
"'@	c #6A6A6A",
")@	c #666666",
"!@	c #626363",
"~@	c #646465",
"{@	c #939494",
"]@	c #8D8D8C",
"^@	c #9C9B9B",
"/@	c #919191",
"(@	c #8F8F90",
"_@	c #787879",
":@	c #656666",
"<@	c #9A9A9B",
"[@	c #9A9B9B",
"}@	c #98989A",
"|@	c #959695",
"1@	c #737273",
"2@	c #676868",
"3@	c #5B5B5C",
"4@	c #8A898A",
"5@	c #8B8A8B",
"6@	c #949695",
"7@	c #797879",
"8@	c #747373",
"9@	c #717172",
"0@	c #636464",
"a@	c #5F6060",
"b@	c #848483",
"c@	c #868786",
"d@	c #8E8F8F",
"e@	c #8B8B8B",
"f@	c #818080",
"g@	c #7E7D7E",
"h@	c #787778",
"i@	c #6F6E6E",
"j@	c #747474",
"k@	c #717271",
"l@	c #6F6E6F",
"m@	c #696969",
"n@	c #5C5C5C",
"o@	c #7B7B79",
"p@	c #858485",
"q@	c #818281",
"r@	c #727272",
"s@	c #7C7B7C",
"t@	c #7D7D7C",
"u@	c #7A7A7A",
"v@	c #676767",
"w@	c #6D6C6E",
"x@	c #6C6C6D",
"y@	c #666665",
"z@	c #565656",
"A@	c #6B6A6A",
"B@	c #757575",
"C@	c #707171",
"D@	c #6E6E6F",
"E@	c #767777",
"F@	c #747475",
"G@	c #5C5D5D",
"H@	c #757475",
"I@	c #747576",
"J@	c #6C6B6C",
"K@	c #6E6D6E",
"L@	c #707070",
"M@	c #6F6F70",
"N@	c #6A6A6B",
"O@	c #5F5F5F",
"P@	c #585858",
"Q@	c #636363",
"R@	c #6D6B6C",
"S@	c #636263",
"T@	c #5C5C5D",
"U@	c #656464",
"V@	c #666766",
"W@	c #606060",
"X@	c #6D6D6D",
"Y@	c #6B6A6B",
"Z@	c #5D5D5E",
"                        . + @ # $ % & #                         ",
"                  & * @ = - ; ; > , ' , # ) ;                   ",
"              ! ~ { { { ] % ~ ' { ' , # ^ ] & / !               ",
"            ) & ~ { { { , * ( ' @ # ) ] _ - : < [ }             ",
"          { ' | ] { { ' ' 1 2 ] ] ; _ 3 4 5 6 7 8 9 0           ",
"        a ' ' ] b , , c ( * d e f g h i j k l m 5 n o p         ",
"      - # q c ; - $ ] $ _ g j 5 r g s r ! t u v w x y z z       ",
"    A 3 ] B C $ h D f f E g F 5 G H e I J K L K M N O P P Q     ",
"    % G R & R - e D g g g g e S T U V 5 t W X Y Y o Z `  ...    ",
"  g +.m l @.#.F i s $.$.e G d %.9 t &.%.*.=.-.;.>.,.'.).!.~.{.  ",
"  ].#.u n j m ^.G G /.U (._.u 9 :.=.x <.[.:.}.|.1.P 2. .3.{.4.  ",
"  5 5.n w J ! 6.V 7.T v t 8.9 9.0.a.Y :.o b.c.` d.d.e.f.g.h.i.  ",
"j.[.k.%.l.v v S t m.n M k.9.n.0.o.p.Z Z q.r.s.t.u.u.!.v.w.x.y.z.",
"e.9.L A.A.A.B.M =.[.C.O Z q.D.c.P E.F.|.s.E.d.G.H.g.g.I.J.K.L.M.",
"N.:.9.9.[.9.:.o b.0.D.c.O.O.D.P.Q.d.R.Q  .R.u.S.T.U.V.W.X.Y.Z.`.",
" +0.-..+++@+z |.#+|.$+$+%+|.s.` &+R.*+=+!.S.-+;+>+,+x.'+)+!+~+{+",
"Q ]+^+/+(+E.Q E.(+|.P s.o._+:+d.e.u.<+[+}+|+1+2+3+Y.4+5+L.6+7+8+",
"9+0+a+Q Q ` P r.|.P s.]+_+Q  .e.R.b+c+d+[+w.e+U.f+g+h+i+j+k+l+m+",
"R.n+o+E.s.P P P s.o.` p+Q d.q+u.r+s+h.t+u+v+w+x+y+Y.z+A+B+C+D+E+",
"F+~.G+]+o.o.o.]+` p+Q d.q+u.r+H+[+[+[+V.I+J+d+t+K+L+M+N+O+P+P+Q+",
"  u...Q p+:+p+Q Q G+u.R+S+T+U+g.H.{.[+V+W+x.f+y.X+Y+P+Z+`+ @.@  ",
"  +@n+.. . .e.o+*+-+H.H.S+@@v.H.g.|+v+#@$@%@&@*@!+M+=@P+l+{+{+  ",
"  -@;@S.~.n+H.g.-@S.n+n+S.v.H.g.s+v+>@d+x.z+,@'@)@l+N+!@~@{+{+  ",
"    {@]@#@;+H.*+b+n+R+^@}+g.[+/@(@V.W.x._@)@Q+:@:@!@M+{+{+{+    ",
"    e+J.#@-+S.<@[@}@T+|@[+w.v+V.d+y+'+Y.1@2@3@.@{+{+{+{+{+M+    ",
"      4@5@s+{.6@|+[+w./@4.u+W.$@7@%@Y.8@9@z+Q+D+0@{+{+!@a@      ",
"        b@c@d@T.T.4.e@f+f@g@'+h@!+i@j@k@l@m@N+P+n@Q+O+3@        ",
"          o@f+p@q@g@h@r@s@t@u@%@i@v@w@x@2@y@{+O+Z+z@O+          ",
"            A@r@B@%@C@D@X+u@E@F@!+.@a@)@{+{+{+l+z@G@            ",
"              C@H@I@r@J@K@L@M@z+N@O@P@Q@{+{+{+Q@P+              ",
"                  R@'@S@T@U@V@:@{+!@P@W@{+~+l+                  ",
"                        P@{+X@6+6+Y@M+Z@                        "};
