/* XPM */
static char *gamelogo[] = {
/* columns rows colors chars-per-pixel */
"32 32 247 2",
"   c #0E1421",
".  c #0E192A",
"X  c #141826",
"o  c #131928",
"O  c #111A31",
"+  c #152137",
"@  c #15233B",
"#  c #232325",
"$  c #25252B",
"%  c #26292A",
"&  c #2B2B2C",
"*  c #2C2D33",
"=  c #2C2B3A",
"-  c #333334",
";  c #3A3A35",
":  c #373B39",
">  c #3C3C3B",
",  c #3F403E",
"<  c #1C2A49",
"1  c #1D304F",
"2  c #1D2F51",
"3  c #1F355A",
"4  c #262C46",
"5  c #3A3E42",
"6  c #232E56",
"7  c #2A3A5A",
"8  c #243862",
"9  c #31436C",
"0  c #374B76",
"q  c #3E5075",
"w  c #444445",
"e  c #43434B",
"r  c #47494B",
"t  c #4A4B4B",
"y  c #484B56",
"u  c #4E5251",
"i  c #525354",
"p  c #56565B",
"a  c #565B5F",
"s  c #5B5A5C",
"d  c #46566F",
"f  c #4C596D",
"g  c #575862",
"h  c #5D5D63",
"j  c #4B5C7C",
"k  c #615E60",
"l  c #5E626D",
"z  c #586172",
"x  c #646565",
"c  c #66666B",
"v  c #666868",
"b  c #6C6D6B",
"n  c #6A6D7A",
"m  c #6E727C",
"M  c #727272",
"N  c #767874",
"B  c #75767B",
"V  c #74787B",
"C  c #7A7B7B",
"Z  c #80807E",
"A  c #375387",
"S  c #385490",
"D  c #3D5C9C",
"F  c #386199",
"G  c #395FA0",
"H  c #3645B9",
"J  c #3C57BE",
"K  c #3E64AE",
"L  c #3E69AB",
"P  c #4C5B87",
"I  c #515F83",
"U  c #445A98",
"Y  c #596582",
"T  c #52699A",
"R  c #676F88",
"E  c #6C7980",
"W  c #797C81",
"Q  c #787C87",
"!  c #4953AF",
"~  c #585EBC",
"^  c #4264A9",
"/  c #5E63AF",
"(  c #4769B5",
")  c #536BB8",
"_  c #4A73BE",
"`  c #5875B1",
"'  c #6268A2",
"]  c #6E7EA2",
"[  c #6068B2",
"{  c #6778BB",
"}  c #797DB7",
"|  c #202ECA",
" . c #273AC7",
".. c #2033CE",
"X. c #263AD1",
"o. c #2942CA",
"O. c #3B4AC2",
"+. c #3748C9",
"@. c #2D49D2",
"#. c #384BD6",
"$. c #434ECE",
"%. c #4553CB",
"&. c #525DCD",
"*. c #4D5BD3",
"=. c #4D58D8",
"-. c #515ED4",
";. c #4566CE",
":. c #5E6FC7",
">. c #4C74C8",
",. c #5A7AC0",
"<. c #527ACF",
"1. c #4E7CD5",
"2. c #4B7CDF",
"3. c #6778C6",
"4. c #747CCA",
"5. c #606DD1",
"6. c #6A74DC",
"7. c #737AD8",
"8. c #5D7EE9",
"9. c #817A87",
"0. c #7C838D",
"q. c #5F80B8",
"w. c #7A8EAB",
"e. c #768DB9",
"r. c #5482DD",
"t. c #5887DE",
"y. c #6382C7",
"u. c #7588CC",
"i. c #688CDA",
"p. c #7687D3",
"a. c #7593D7",
"s. c #5286E2",
"d. c #5A83E6",
"f. c #5D8BE1",
"g. c #5987EA",
"h. c #568BEC",
"j. c #5B8BEB",
"k. c #5D8CF2",
"l. c #628DEE",
"z. c #6A8CE9",
"x. c #608AFA",
"c. c #6091F2",
"v. c #848484",
"b. c #84858B",
"n. c #84888C",
"m. c #8C8C8D",
"M. c #938E8F",
"N. c #91928E",
"B. c #828793",
"V. c #8F8D93",
"C. c #939393",
"Z. c #979796",
"A. c #9C9B9B",
"S. c #A3A29E",
"D. c #8F8FA2",
"F. c #9D9CA1",
"G. c #8D8CB8",
"H. c #8F9CB3",
"J. c #979FBA",
"K. c #A19FA9",
"L. c #9EA2A8",
"P. c #9AA6BB",
"I. c #A4A4A4",
"U. c #A9ABA3",
"Y. c #ACACAC",
"T. c #AEB3AC",
"R. c #B5B6AE",
"E. c #A3ABB9",
"W. c #B0AFB0",
"Q. c #AEB1B8",
"!. c #B5B4B5",
"~. c #B8B5B7",
"^. c #B6B8B5",
"/. c #BCBCB4",
"(. c #BBBBBB",
"). c #BDC0BE",
"_. c #C4C4B7",
"`. c #C3C3BC",
"'. c #CCCCBB",
"]. c #9297C6",
"[. c #8C96D7",
"{. c #959CD5",
"}. c #8BA3CF",
"|. c #9BABC7",
" X c #9EB0CA",
".X c #96ADDF",
"XX c #97B0D5",
"oX c #A6ABC6",
"OX c #ACB5C3",
"+X c #ACB6CA",
"@X c #BDBEC6",
"#X c #BABECB",
"$X c #A9AEDD",
"%X c #A6B2D0",
"&X c #B7BBD7",
"*X c #87A4E1",
"=X c #97A5E2",
"-X c #A8AAE5",
";X c #A5BDE3",
":X c #B7B9E6",
">X c #C2BEC0",
",X c #BCC0CA",
"<X c #B9C4D6",
"1X c #ABC5EB",
"2X c #BAC2E3",
"3X c #C3C3C3",
"4X c #C9C7C7",
"5X c #C7C9C2",
"6X c #CBCCC4",
"7X c #CBCBCB",
"8X c #D0CDCF",
"9X c #CFD1C6",
"0X c #D2D2C6",
"qX c #D2D2CA",
"wX c #D7D8CF",
"eX c #D3D5D2",
"rX c #D8D5D4",
"tX c #D5D9D1",
"yX c #DBD9D7",
"uX c #D5D6DE",
"iX c #DCDCDB",
"pX c #E2DCDF",
"aX c #E4E4D7",
"sX c #CBD7E8",
"dX c #DBD9E7",
"fX c #C4CCF2",
"gX c #E2DDE2",
"hX c #E4DFF0",
"jX c #D7E4F4",
"kX c #E4E4E4",
"lX c #E7E6ED",
"zX c #E8E5EC",
"xX c #ECEBEA",
"cX c #F0EFEC",
"vX c #EBF2EC",
"bX c #F3F1EA",
"nX c #EEEDF3",
"mX c #E2E9F8",
"MX c #F0EEF3",
"NX c #ECF1F3",
"BX c #EAF4FB",
"VX c #F3F3F2",
"CX c #FAF3F2",
"ZX c #FAFBF5",
"AX c #F6F7F9",
"SX c #F9F7FC",
"DX c #FDFCFC",
/* pixels */
"'.'.'.'.'.'.'._.'.'.'.'.'.9X6X5X6X6X'.'.'.'.'.'.'.'.'.'.'.'.'.'.",
"'.'.'.'.'.'.'.'.'.'.'.0X).E.P.H.P.|.Q.,XqX'.'.'.'.'.'.'.'.'.'.'.",
"'.'.'.'.'.'.'.'.'.6X~.F.L.E.P.+X,X<X,XOX@X4X0X'.'.'.'.'.'.'.'.'.",
"'.'.'.'.'.'.'.'.I.Z.I.!.>X5XqXrXiXyXpXiXrX7X5X6X0X'.'.'.'.'.'.'.",
"'.'.'.'.'.'.`.V.C.U.^.5X8X8XgXaXkXlXxXlXzXaXyX7X5X6X'.'.'.'.'.'.",
"'.'.'.'.'./.Q C.S.^.3X<XXX<XzXxXNXNXvXvXMXxXkXsX X,X6X'.'.'.'.'.",
"'.'.'.'.(.N V.A.T.,X|.y.8.i..XmXCXCXCXSXSXbXvXXX3.u.%X7X'.'.'.'.",
"'.'.'.5Xl 9.Z.U.|.e.>.s.s.s.l.*XmXDXDXDXSXSXmXi.g.s.,.|.0X'.'.'.",
"'.'.'.n l 9.M.G. .;.<.r.g.g.l.c.=XBXNXvXvXVXfXz.h.t.1.` OX'.'.'.",
"'.'.T.e B M.A. .H ..1.t.g.g.k.c.1XDXDXDXDXZXAX*Xj.g.r.>.w.eX'.'.",
"'.'.n h Z N.[ *. .@.;.d.f.g.x.a.BXAXDXDXDXDXZXjXi.j.s.1.q.,X'.'.",
"'.7Xe c Z M. .4.o.;.X.1.2.h.z.;XSXAXDXDXDXDXZXAX;Xf.s.1.` P.aX'.",
"6XZ.w c C V.A.{ ) >.X.@.#.8.i.mXAXZXZXDXDXSXZXCXmXa.d.1.` J.6X'.",
"'.m.t v C V.S.U.J.{ ..:.p.X.=.:XVXNXNXAXCXAXNXbXnX2X}.e.w.L./.'.",
"/.M w x B m.A.Y.} %.oXuX5.[.7.7.-X6.=.lXCXVXNXbXkXdXyX7X`.I./.'.",
"R.v w k N v.Z.K.Y.~.>X>Xp.5.$.#X{...=XxXcXvXxXaXwXiXrX4X~.K.!.'.",
"/.s w a b 9.M.Z.Y.!.(.oX&.#.{.dX$.:XhX:X2XlXlXgXuXuX7X>X!.A.Y.'.",
"_.v , u v C b.Z.F.W.~.(.@X#X8X&X4.yX{.=.-.$XdX7XtX7X3X~.Y.C.W.'.",
"'.v.- 5 y f E m.Z.I.W.!.(.3X4XqXeX+X%.p.*.3.u.[.7X>X>XW.K.B.Y.'.",
"'.A.% @ 6 8 d B.C.A.U.Y.!.(.3X5X&X` ;.o.o.+.o.O.].~.G.K.Z.E W.'.",
"'.'.* O < 3 9 Y n.N.A.I.U.Y.~./.w.) >._ _ o.J o.].~ | D.B.l qX'.",
"'.'.l o + < 3 q m n.N.Z.K.U.Y.P.T _ _ ( ( J  .H P.O./ ' m b.'.'.",
"'.'.S.X . @ 2 7 f W v.m.C.Z.K.] ! L L ^ L K ^ U w.H m.V y /.'.'.",
"'.'.0Xa   . @ 1 7 z C v.m.m.M.I D F F G F D U P B.! R g B '.'.'.",
"'.'.'./.* o o @ 4 p x M N 9.v.b.j A S S S 0 j 0.W M x r 5X'.'.'.",
"'.'.'.'.A.= X o 4 e i k x b M N 0.I 0 0 q R 0.b x p w Y.'.'.'.'.",
"'.'.'.'.'.N.* # $ - > r u p s x v m z d n v k i t , S.'.'.'.'.'.",
"'.'.'.'.'.'.K.- & # & - ; w w t i i i i i t w ; > Y.'.'.'.'.'.'.",
"'.'.'.'.'.'.'./.k * # # % & - : , , : ; ; - & b 5X'.'.'.'.'.'.'.",
"'.'.'.'.'.'.'.'.0XU.k & # # # $ $ $ % # & v S.'.'.'.'.'.'.'.'.'.",
"'.'.'.'.'.'.'.'.'.'.'.5XZ.B a u y h E Z.7X'.'.'.'.'.'.'.'.'.'.'.",
"'.'.'.'.'.'.'.'.'.'.'.'.'.'.'.'.'.'.'.'.'.'.'.'.'.'.'.'.'.'.'.'."
};
