/* XPM */
static char * bazaar_explorer_xpm[] = {
"64 64 712 2",
"  	c None",
". 	c #C7BA48",
"+ 	c #6E6C3E",
"@ 	c #62623C",
"# 	c #BFB347",
"$ 	c #848040",
"% 	c #333936",
"& 	c #293035",
"* 	c #383D37",
"= 	c #2D3335",
"- 	c #706D3E",
"; 	c #8F8941",
"> 	c #282F35",
", 	c #3A3E37",
"' 	c #CEC049",
") 	c #EFDD4D",
"! 	c #51533A",
"~ 	c #262D34",
"{ 	c #E7D74C",
"] 	c #66653D",
"^ 	c #2B3237",
"/ 	c #363B37",
"( 	c #DCCD4B",
"_ 	c #FDEA4F",
": 	c #F3E24E",
"< 	c #6A683D",
"[ 	c #262D35",
"} 	c #50523A",
"| 	c #E8D74C",
"1 	c #828294",
"2 	c #8A89A0",
"3 	c #757584",
"4 	c #7B783F",
"5 	c #293036",
"6 	c #434639",
"7 	c #E3D34B",
"8 	c #FBE84E",
"9 	c #FBE94F",
"0 	c #F9E64E",
"a 	c #272E35",
"b 	c #52533A",
"c 	c #E4D44B",
"d 	c #9B9BAC",
"e 	c #E2E2FC",
"f 	c #DFE0FF",
"g 	c #C2C3FA",
"h 	c #B0B1F4",
"i 	c #A1A1DE",
"j 	c #6E6E92",
"k 	c #605F3B",
"l 	c #282F36",
"m 	c #464938",
"n 	c #FCE94F",
"o 	c #F9E74E",
"p 	c #878341",
"q 	c #484B39",
"r 	c #E1D14C",
"s 	c #4F4F70",
"t 	c #80819F",
"u 	c #9797B2",
"v 	c #C6C6E7",
"w 	c #CBCCFE",
"x 	c #A9A9EA",
"y 	c #9999E2",
"z 	c #8F8FDF",
"A 	c #8987C6",
"B 	c #73703E",
"C 	c #494B39",
"D 	c #ECDB4C",
"E 	c #74713E",
"F 	c #444738",
"G 	c #DDCE4A",
"H 	c #868796",
"I 	c #8E8EA2",
"J 	c #6D6E87",
"K 	c #BEC1DA",
"L 	c #D3E4F3",
"M 	c #5B698D",
"N 	c #708EB2",
"O 	c #586482",
"P 	c #8486A8",
"Q 	c #9899D1",
"R 	c #9091DA",
"S 	c #8787E2",
"T 	c #726FA4",
"U 	c #5C5C3B",
"V 	c #4B4E39",
"W 	c #EDDC4D",
"X 	c #8D8841",
"Y 	c #434638",
"Z 	c #C4B63F",
"` 	c #787995",
" .	c #D3D3E6",
"..	c #D7D6F9",
"+.	c #D5D4FF",
"@.	c #D0D0FF",
"#.	c #C8C8FA",
"$.	c #C3C4F3",
"%.	c #AFB1EB",
"&.	c #96A7E9",
"*.	c #51628B",
"=.	c #5B7EA1",
"-.	c #A7CBE4",
";.	c #3D4155",
">.	c #4F5176",
",.	c #9493D4",
"'.	c #73713E",
").	c #4C4F39",
"!.	c #EEDD4D",
"~.	c #FBE84F",
"{.	c #79753F",
"].	c #2C3238",
"^.	c #7D7E8C",
"/.	c #E1E0F5",
"(.	c #D6D5F9",
"_.	c #D8D6FE",
":.	c #CFCDFF",
"<.	c #C5C3FF",
"[.	c #BEBCFD",
"}.	c #BBB8FA",
"|.	c #B6B2FF",
"1.	c #B8B5FF",
"2.	c #BDBAFF",
"3.	c #9896F0",
"4.	c #94A5EA",
"5.	c #47495D",
"6.	c #EEF4FA",
"7.	c #2A3037",
"8.	c #0A0A0D",
"9.	c #61613B",
"0.	c #938D42",
"a.	c #383A44",
"b.	c #525254",
"c.	c #737373",
"d.	c #7C7C80",
"e.	c #9B9AA6",
"f.	c #C4C4D9",
"g.	c #DDDCFF",
"h.	c #CBC8FF",
"i.	c #B4B0FF",
"j.	c #AEAAFD",
"k.	c #ABA7FD",
"l.	c #A6A1FF",
"m.	c #A59FF9",
"n.	c #9994F8",
"o.	c #A19EF9",
"p.	c #525278",
"q.	c #070700",
"r.	c #7D793F",
"s.	c #4D4F39",
"t.	c #F0DE4D",
"u.	c #FEEA4F",
"v.	c #E2D24B",
"w.	c #FAE74E",
"x.	c #767239",
"y.	c #4D4E58",
"z.	c #737475",
"A.	c #6A6D70",
"B.	c #606365",
"C.	c #525353",
"D.	c #525251",
"E.	c #7B7C81",
"F.	c #ADAFC1",
"G.	c #B9B8E4",
"H.	c #B1AEF7",
"I.	c #ACA8FF",
"J.	c #A29EFC",
"K.	c #9C95FC",
"L.	c #958FFF",
"M.	c #958EFF",
"N.	c #7A75E0",
"O.	c #33324E",
"P.	c #67663D",
"Q.	c #4F5039",
"R.	c #FFEB4F",
"S.	c #999142",
"T.	c #4D4F48",
"U.	c #989143",
"V.	c #FFF150",
"W.	c #8D8743",
"X.	c #7C5A4C",
"Y.	c #E48731",
"Z.	c #C37149",
"`.	c #A47B71",
" +	c #85888E",
".+	c #6C797D",
"++	c #565959",
"@+	c #575657",
"#+	c #616165",
"$+	c #7C7D90",
"%+	c #B0B1E3",
"&+	c #B8B8FF",
"*+	c #9690FF",
"=+	c #8F88FF",
"-+	c #7F78F5",
";+	c #6A67C1",
">+	c #1C1D29",
",+	c #868240",
"'+	c #4C4E39",
")+	c #EFDE4D",
"!+	c #FEEB4F",
"~+	c #C7BB49",
"{+	c #4B4E4A",
"]+	c #565854",
"^+	c #3C4148",
"/+	c #AEA037",
"(+	c #FDEA4E",
"_+	c #FCE94E",
":+	c #696B3D",
"<+	c #594F35",
"[+	c #D9B329",
"}+	c #FDAA16",
"|+	c #FF7D08",
"1+	c #EA6D29",
"2+	c #C68064",
"3+	c #9C7E7A",
"4+	c #776C6D",
"5+	c #5D6261",
"6+	c #4B4C48",
"7+	c #5D5D60",
"8+	c #989BB8",
"9+	c #9F9DEA",
"0+	c #938FF7",
"a+	c #6D69D7",
"b+	c #3D3B6A",
"c+	c #6E6C3D",
"d+	c #FDE94F",
"e+	c #E9D84B",
"f+	c #444842",
"g+	c #545653",
"h+	c #545652",
"i+	c #565853",
"j+	c #4D4E42",
"k+	c #DECA3E",
"l+	c #8E8942",
"m+	c #807A54",
"n+	c #9B8F4A",
"o+	c #BAA344",
"p+	c #DCAF33",
"q+	c #FFB21C",
"r+	c #FF9212",
"s+	c #EC5B18",
"t+	c #C33A33",
"u+	c #98747B",
"v+	c #7A8989",
"w+	c #585958",
"x+	c #535455",
"y+	c #454552",
"z+	c #7778A6",
"A+	c #8D8EE2",
"B+	c #050503",
"C+	c #8F8A41",
"D+	c #282E35",
"E+	c #4A4D39",
"F+	c #EEDC4D",
"G+	c #5F5F3F",
"H+	c #565753",
"I+	c #555753",
"J+	c #515452",
"K+	c #615A2D",
"L+	c #FBE648",
"M+	c #FBE955",
"N+	c #EEDF73",
"O+	c #A49A5E",
"P+	c #8C8450",
"Q+	c #938A46",
"R+	c #B2A23E",
"S+	c #9E8B31",
"T+	c #B59626",
"U+	c #D3A519",
"V+	c #ED990C",
"W+	c #E14A00",
"X+	c #C42D1D",
"Y+	c #8D6E6E",
"Z+	c #636565",
"`+	c #4E4E4D",
" @	c #1D1D1B",
".@	c #242630",
"+@	c #252634",
"@@	c #77743E",
"#@	c #B6AB47",
"$@	c #4D504E",
"%@	c #4B4E4F",
"&@	c #81772D",
"*@	c #FDE94C",
"=@	c #FBE94E",
"-@	c #FCE955",
";@	c #E9DC80",
">@	c #CEC373",
",@	c #CCBF67",
"'@	c #A59B58",
")@	c #8B834B",
"!@	c #978C42",
"~@	c #C3AE3B",
"{@	c #B49E26",
"]@	c #B09919",
"^@	c #AB930A",
"/@	c #695105",
"(@	c #331507",
"_@	c #240809",
":@	c #151818",
"<@	c #191919",
"[@	c #9D9643",
"}@	c #EAD94C",
"|@	c #3E4242",
"1@	c #4B4D45",
"2@	c #CFBC3A",
"3@	c #FDEA50",
"4@	c #EBE08B",
"5@	c #CEC585",
"6@	c #CCC278",
"7@	c #CCC06C",
"8@	c #CCBD61",
"9@	c #9D9352",
"0@	c #8A8246",
"a@	c #9A8D3D",
"b@	c #C2AE34",
"c@	c #B9A120",
"d@	c #BCA111",
"e@	c #847F40",
"f@	c #3F4238",
"g@	c #E9D84C",
"h@	c #696840",
"i@	c #535553",
"j@	c #535552",
"k@	c #514F30",
"l@	c #FAE340",
"m@	c #EEDD51",
"n@	c #D1C35B",
"o@	c #C8BE6F",
"p@	c #CEC376",
"q@	c #CDC068",
"r@	c #CCBD5D",
"s@	c #9E944E",
"t@	c #8B8140",
"u@	c #998B37",
"v@	c #C2AC2F",
"w@	c #B99F17",
"x@	c #AAA044",
"y@	c #2C3235",
"z@	c #424538",
"A@	c #E6D64C",
"B@	c #C8BC49",
"C@	c #4E504D",
"D@	c #494D50",
"E@	c #897B26",
"F@	c #FCE84D",
"G@	c #F1DE48",
"H@	c #D9C849",
"I@	c #D0C259",
"J@	c #CEBF5D",
"K@	c #C9BA55",
"L@	c #998E48",
"M@	c #8D813B",
"N@	c #A09134",
"O@	c #C3AD27",
"P@	c #938C42",
"Q@	c #373C36",
"R@	c #E4D44C",
"S@	c #FEEB4E",
"T@	c #494C40",
"U@	c #DAC538",
"V@	c #FCE950",
"W@	c #F9E64D",
"X@	c #F2E04B",
"Y@	c #E8D64B",
"Z@	c #D4C446",
"`@	c #706A37",
" #	c #6D6632",
".#	c #98892C",
"+#	c #A39121",
"@#	c #B5AA46",
"##	c #2F3536",
"$#	c #3C4037",
"%#	c #E0D04B",
"&#	c #807C40",
"*#	c #4F5151",
"=#	c #505352",
"-#	c #696027",
";#	c #FEE949",
">#	c #EBDA4C",
",#	c #424536",
"'#	c #222832",
")#	c #686538",
"!#	c #A39B43",
"~#	c #2D3336",
"{#	c #D9CA4A",
"]#	c #515349",
"^#	c #43474B",
"/#	c #AB9722",
"(#	c #EAD94D",
"_#	c #3B3F38",
":#	c #2D3338",
"<#	c #BEB347",
"[#	c #333836",
"}#	c #373B36",
"|#	c #D3C54A",
"1#	c #FFEC4F",
"2#	c #A49C46",
"3#	c #4D5050",
"4#	c #575855",
"5#	c #515033",
"6#	c #EFDA40",
"7#	c #3C4038",
"8#	c #2D3438",
"9#	c #948D42",
"0#	c #BDB347",
"a#	c #252C34",
"b#	c #CCBE49",
"c#	c #B8AD47",
"d#	c #48493B",
"e#	c #43453D",
"f#	c #42453D",
"g#	c #41443D",
"h#	c #3C424A",
"i#	c #3D4241",
"j#	c #43463C",
"k#	c #4E4D34",
"l#	c #7D6D1B",
"m#	c #D2B216",
"n#	c #FEEC52",
"o#	c #D5C64A",
"p#	c #2A3036",
"q#	c #2D3337",
"r#	c #7F7B3F",
"s#	c #CEC149",
"t#	c #3C4137",
"u#	c #313736",
"v#	c #C4B948",
"w#	c #FFED50",
"x#	c #E6C822",
"y#	c #D3AF08",
"z#	c #BFA00C",
"A#	c #545547",
"B#	c #4B4A34",
"C#	c #B49503",
"D#	c #CEA902",
"E#	c #D2AE07",
"F#	c #D1AF0C",
"G#	c #DFC427",
"H#	c #FDEB51",
"I#	c #C9BC48",
"J#	c #343A38",
"K#	c #313638",
"L#	c #A9A044",
"M#	c #202734",
"N#	c #B2A846",
"O#	c #FAE64C",
"P#	c #F9E54B",
"Q#	c #E1D048",
"R#	c #56584B",
"S#	c #706523",
"T#	c #D4B20D",
"U#	c #F6E046",
"V#	c #F8E44A",
"W#	c #F9E64B",
"X#	c #ACA445",
"Y#	c #252B36",
"Z#	c #303637",
"`#	c #9F9743",
" $	c #A59D44",
".$	c #FFF04F",
"+$	c #57594C",
"@$	c #535030",
"#$	c #DDBD17",
"$$	c #948F42",
"%$	c #35393B",
"&$	c #383D38",
"*$	c #C6B948",
"=$	c #79763F",
"-$	c #232A34",
";$	c #3C4147",
">$	c #C4A510",
",$	c #FBE84D",
"'$	c #2D3339",
")$	c #404438",
"!$	c #A49C44",
"~$	c #212834",
"{$	c #FFF450",
"]$	c #505353",
"^$	c #786C21",
"/$	c #F8E345",
"($	c #52533B",
"_$	c #31363A",
":$	c #62613C",
"<$	c #4E4F39",
"[$	c #F5E24E",
"}$	c #514F39",
"|$	c #E1CA36",
"1$	c #D0C249",
"2$	c #353A3C",
"3$	c #454838",
"4$	c #B5AB46",
"5$	c #272E36",
"6$	c #898541",
"7$	c #545753",
"8$	c #A28C1A",
"9$	c #FFEC51",
"0$	c #FAE84E",
"a$	c #7E7A3F",
"b$	c #3B4042",
"c$	c #4B4E38",
"d$	c #F4E24E",
"e$	c #444436",
"f$	c #ECD12D",
"g$	c #FCEA50",
"h$	c #272D35",
"i$	c #6F6D3D",
"j$	c #CBBE49",
"k$	c #3A3F3B",
"l$	c #383D3F",
"m$	c #9B9343",
"n$	c #FFED4F",
"o$	c #4C5051",
"p$	c #7D7026",
"q$	c #FBE74B",
"r$	c #A09843",
"s$	c #252C37",
"t$	c #2E3438",
"u$	c #A69D44",
"v$	c #4D4E43",
"w$	c #D6C135",
"x$	c #A29A44",
"y$	c #2A3035",
"z$	c #303636",
"A$	c #D8C94A",
"B$	c #34393A",
"C$	c #343A37",
"D$	c #57584C",
"E$	c #60592A",
"F$	c #FCE647",
"G$	c #C4B748",
"H$	c #343A36",
"I$	c #C8BB48",
"J$	c #888340",
"K$	c #252C36",
"L$	c #353A37",
"M$	c #57584B",
"N$	c #4A4D4F",
"O$	c #8B7F2A",
"P$	c #B0A745",
"Q$	c #817D40",
"R$	c #2F3537",
"S$	c #3B3F37",
"T$	c #E0D14B",
"U$	c #E5D54B",
"V$	c #57594B",
"W$	c #4C4D42",
"X$	c #D7C43B",
"Y$	c #A59C44",
"Z$	c #76743E",
"`$	c #3F4338",
" %	c #57594A",
".%	c #4D514F",
"+%	c #525553",
"@%	c #525452",
"#%	c #60592B",
"$%	c #FFE946",
"%%	c #E3D34C",
"&%	c #393E37",
"*%	c #222934",
"=%	c #8E8841",
"-%	c #2C3335",
";%	c #424638",
">%	c #58594A",
",%	c #55522E",
"'%	c #675D24",
")%	c #4C4F4C",
"!%	c #555752",
"~%	c #3F454D",
"{%	c #AA951F",
"]%	c #FDE94E",
"^%	c #E7D64C",
"/%	c #414538",
"(%	c #837E40",
"_%	c #474A39",
":%	c #F3E14E",
"<%	c #515352",
"[%	c #776920",
"}%	c #A59836",
"|%	c #3A3E45",
"1%	c #555754",
"2%	c #5F5828",
"3%	c #F4DD40",
"4%	c #F2E04E",
"5%	c #454839",
"6%	c #6C6B3D",
"7%	c #2B3235",
"8%	c #4B4D39",
"9%	c #595A49",
"0%	c #505351",
"a%	c #7F6F1C",
"b%	c #DBBC1B",
"c%	c #FFF153",
"d%	c #B9AC3F",
"e%	c #4C4E47",
"f%	c #4E5152",
"g%	c #6E621D",
"h%	c #E3C728",
"i%	c #EDDB4D",
"j%	c #494C39",
"k%	c #68663D",
"l%	c #68673D",
"m%	c #51523A",
"n%	c #595A48",
"o%	c #4F5251",
"p%	c #877418",
"q%	c #DEC120",
"r%	c #D2C241",
"s%	c #534E2D",
"t%	c #736621",
"u%	c #C09C00",
"v%	c #E9D034",
"w%	c #4E503A",
"x%	c #605F3C",
"y%	c #65643D",
"z%	c #55563A",
"A%	c #EDDC4C",
"B%	c #5A5B48",
"C%	c #4E5151",
"D%	c #8D7715",
"E%	c #E1C525",
"F%	c #F9E13E",
"G%	c #D2B00D",
"H%	c #D9BC1F",
"I%	c #F2E04D",
"J%	c #53553A",
"K%	c #2A3135",
"L%	c #5B5B3B",
"M%	c #FFF350",
"N%	c #61623C",
"O%	c #5C5C3C",
"P%	c #FFEE4F",
"Q%	c #F0DF4D",
"R%	c #5A5B47",
"S%	c #8C7815",
"T%	c #E3C828",
"U%	c #595A3B",
"V%	c #5F5F3C",
"W%	c #61613C",
"X%	c #F6E44E",
"Y%	c #F4E24D",
"Z%	c #5B5C44",
"`%	c #E3C829",
" &	c #F6E34E",
".&	c #5F603C",
"+&	c #292F35",
"@&	c #4F523A",
"#&	c #5B5C3B",
"$&	c #67663C",
"%&	c #FFF050",
"&&	c #58593E",
"*&	c #42474D",
"=&	c #4D5152",
"-&	c #4D5153",
";&	c #474C51",
">&	c #8A7615",
",&	c #63623C",
"'&	c #2B3135",
")&	c #DECE4B",
"!&	c #FFEE50",
"~&	c #6A693D",
"{&	c #F8E64E",
"]&	c #B19B21",
"^&	c #927D11",
"/&	c #877313",
"(&	c #847113",
"_&	c #837114",
":&	c #AA8C05",
"<&	c #E2C729",
"[&	c #F7E44E",
"}&	c #5A5A3B",
"|&	c #706E3D",
"1&	c #FFF250",
"2&	c #FAE64A",
"3&	c #F5DF42",
"4&	c #F3DD40",
"5&	c #F1DA3D",
"6&	c #F1DA3C",
"7&	c #F0D83C",
"8&	c #F6E146",
"9&	c #DCCC4B",
"0&	c #F8E54E",
"a&	c #7A773F",
"b&	c #6D6B3D",
"c&	c #DBCC4A",
"d&	c #242B34",
"e&	c #858040",
"f&	c #DBCD4B",
"g&	c #595B3B",
"h&	c #878241",
"i&	c #F7E54E",
"j&	c #69673D",
"k&	c #F5E24D",
"l&	c #60613C",
"m&	c #878141",
"n&	c #59593B",
"o&	c #878140",
"p&	c #252C35",
"q&	c #58593B",
"r&	c #76733E",
"s&	c #716F3D",
"t&	c #908A41",
"u&	c #202834",
"v&	c #8E8941",
"w&	c #A49B44",
"x&	c #323736",
"y&	c #343936",
"z&	c #D1C349",
"A&	c #64643C",
"B&	c #57573A",
"C&	c #CDC049",
"                                                                                                                                ",
"                                                                                                                                ",
"                                                            . + @ #                                                             ",
"                                                          $ % & * = -                                                           ",
"                                                        ; > , ' ) ! ~ + {                                                       ",
"                                                      ] ^ / ( _ _ : < [ } |                         1 2 3                       ",
"                                                    4 5 6 7 _ 8 9 8 0 ] a b c                   d e f g h i j                   ",
"                                                  k l m | _ 8 n n n n o p a q r               s t u v w x y z A                 ",
"                                                B 5 C D n 8 n n n n n 8 n E > F G       H I J K L M N O P Q R S T               ",
"                                              U 5 V W _ 8 n n n n n n n n n X > Y Z `  ...+.@.#.$.%.&.*.=.-.;.>.,.              ",
"                                            '.5 ).!.8 ~.n n n n n n n n n 8 n {.].^./.(._.:.<.[.}.|.1.2.3.4.5.6.7.8.            ",
"                                          9.a } ) _ ~.n n n n n n n n n n n n n 0.a.b.c.d.e.f.g.h.i.j.k.l.m.n.o.p.q.            ",
"                                        r.a s.t.8 ~.n n n u.v.w.8 8 n n n n n 8 _ x.y.z.A.B.C.D.E.F.G.H.I.J.K.L.M.N.O.          ",
"                                      P.a Q.t._ ~.n n ~.R.S.T.U.V.8 n n n n n n n _ W.X.Y.Z.`. +.+++@+#+$+%+&+*+=+-+;+>+        ",
"                                    ,+a '+)+8 ~.n n 8 !+~+{+]+^+/+(+8 n n n n n n 8 _+:+<+[+}+|+1+2+3+4+5+6+7+8+9+0+a+b+        ",
"                                  c+a '+!._ ~.n n n d+e+f+g+h+i+j+k+n 8 n n n n n n n _+l+m+n+o+p+q+r+s+t+u+v+w+x+y+z+A+B+      ",
"                                C+D+E+F+8 ~.n n n 8 0 G+H+I+I+h+J+K+L+n n n n n n n _+M+N+O+P+Q+R+S+T+U+V+W+X+Y+Z+`+ @.@+@      ",
"                              @@> m W _ ~.n n n 8 R.#@$@I+h+I+I+I+%@&@*@8 n n n n =@-@;@>@,@'@)@!@~@{@]@^@/@(@_@:@<@            ",
"                            [@& m }@_+~.n n n n n W |@I+I+I+I+I+h+I+1@2@3@8 n n _+_+4@5@6@7@8@9@0@a@b@c@d@                      ",
"                          e@& f@g@_ 8 n n n n ~.8 h@i@I+I+I+I+I+I+h+j@k@l@n n n _+n m@n@o@p@q@r@s@t@u@v@w@                      ",
"                        x@y@z@A@n 8 n n n n 8 _ B@C@I+I+I+I+I+I+I+I+I+D@E@F@8 n n 8 n (+G@H@I@J@K@L@M@N@O@                      ",
"                      P@y@Q@R@_ 8 n n n n n n S@T@g+h+I+I+I+I+I+I+I+h+H+j+U@V@8 n n 8 n n _+W@X@Y@Z@`@ #.#+#                    ",
"                    @###$#%#n 8 n n n n n ~._ &#*#I+I+I+I+I+I+I+I+I+I+h+=#-#;#n n n n n n n 8 n n !+>#,#'#)#                    ",
"                  !###~#{#_ 8 n n n n n n 8 7 ]#I+h+I+I+I+I+I+I+I+I+I+I+I+^#/#(+n n n n n n n n n 8 _ (#_#:#<                   ",
"                <#[#}#|#!+8 n n n n n n n 1#2#3#I+I+I+I+h+I+I+I+h+I+I+I+I+4#5#6#n n n n n n n n n n 8 n %#7#8#9#                ",
"              0#[#a#b#_ 8 n n n n n n n n !+c#d#e#f#g#C@I+I+I+I+I+I+h#i#j#k#l#m#n#n n n n n n n n n n 8 _ o#p#q#r#              ",
"            s#t#u#v#1#8 n n n n n n n n n 8 w#x#y#y#z#A#I+I+I+I+g+B#C#D#E#y#F#G#H#n n n n n n n n n n n 8 R.I#J#K#L#            ",
"          g@Y M#N#_ 8 n n n n n n n n n n n 8 n O#P#Q#R#I+I+I+I+J+S#T#U#V#W#8 V@8 n n n n n n n n n n n n 8 _ X#Y#Z#`#          ",
"          b y@ $.$8 n n n n n n n n n n n n n n n n 7 +$I+I+I+I+g+@$#$3@n n n n n n n n n n n n n n n n n n 8 V.$$%$&$*$        ",
"        =$-$X n 8 n n n n n n n n n n n n n n n n n 7 +$I+I+I+I+I+;$>$,$n n n n n n n n n n n n n n n n n n n 8 8 c+'$)$)       ",
"      !$~${.{$8 n n n n n n n n n n n n n n n n n n 7 +$I+I+I+I+I+]$^$/$8 n n n n n n n n n n n n n n n n n n n n .$($_$:$      ",
"      z@<$[$8 ~.n n n n n n n n n n n n n n n n n n 7 +$I+I+I+I+h+]+}$|$n n n n n n n n n n n n n n n n n n n n 8 n 1$2$3$      ",
"    4$5$6$1#n n n n n n n n n n n n n n n n n n n n 7 +$I+I+I+I+I+7$$@8$9$n n n n n n n n n n n n n n n n n n n n 0$b > a$      ",
"    !#b$c$d$8 n n n n n n n n n n n n n n n n n n n 7 +$I+I+I+I+I+h+g+e$f$g$n n n n n n n n n n n n n n n n n 8 w.< h$i$        ",
"    j$k$l$m$n$n n n n n n n n n n n n n n n n n n n 7 +$I+I+I+I+I+I+I+o$p$q$8 n n n n n n n n n n n n n n n n 1#[@& q R@        ",
"      r$s$t$u$1#~.n n n n n n n n n n n n n n n n n 7 +$I+I+I+I+I+I+h+I+v$w$g$8 n n n n n n n n n n n n n ~.1#x$y$z$A$          ",
"        U.B$C$s#R.8 n n n n n n n n n n n n n n n n 7 D$I+I+I+I+I+I+I+h+J+E$F$n n n n n n n n n n n n n 8 1#G$z$H$I$            ",
"          J$K$L$o#!+n n n n n n n n n n n n n n n n c M$I+I+I+I+I+I+I+I+I+N$O$*@8 n n n n n n n n n n n R.G$z$~$P$              ",
"            Q$R$S$T$_ 8 n n n n n n n n n n n n n n U$V$I+I+I+I+h+I+I+h+h+i+W$X$3@8 n n n n n n n n 8 !+A$/ ##Y$                ",
"              Z$a#`$}@_ n n n n n n n n n n n n n n A@ %I+I+I+I+I+.%+%I+I+h+@%#%$%n n n n n n n n n _ %%&%*%=%                  ",
"                '.-%;%| _ 8 n n n n n n n n n n n n | >%I+I+I+I+g+,%'%)%I+!%I+~%{%]%8 n n n n n 8 _ ^%/%= (%                    ",
"                  i$[ _%:%d+n n n n n n n n n n n n g@>%I+I+I+I+<%[%T#}%|%I+h+1%2%3%n n n n n n _ 4%5%[ c+                      ",
"                    6%7%8%F+n 8 n n n n n n n n n n }@9%I+I+I+I+0%a%b%c%d%e%i@f%g%h%3@n n n 8 n i%j%7%k%                        ",
"                      l%a m%n n n n n n n n n n n n >#n%I+I+I+I+o%p%q%g$_ r%s%t%u%v%n n n n n ~.w%> x%                          ",
"                        y%y$z%:%n 8 n n n n n n n n A%B%I+I+I+I+C%D%E%g$8 3@F%G%H%8 8 n 8 n I%J%K%L%M%                          ",
"                          N%> O%P%n n n n n n n n n Q%R%H+I+I+I+C%S%T%g$n 8 n 8 n n n n n n$U%y$z%                              ",
"                          {$V%> W%X%n 8 n n n n n n Y%Z%]+I+I+I+C%S%`%g$n n n n n n 8 n  &.&+&@&~.                              ",
"                              #&+&$&%&n n n n n n n _ &&*&D@=&-&;&>&`%g$n n n n n n n .$,&'&s.)&                                ",
"                              !&U%a ~&{&n 8 n n n n n 9$]&^&/&(&_&:&<&g$n n n n 8 n [&y%D+V t.                                  ",
"                                  }&& |&1&n n n n n 8 n 2&3&4&5&6&7&8&n n n n n n V.l%'&'+9&                                    ",
"                                  w#U%[ E w.~.8 n n n n n n n n n n n 8 n n 8 n 0&~&a E+!.                                      ",
"                                      }&& a&M%8 n n n n n n n n n n n n n n n 1&b&'&V c&                                        ",
"                                      w#U%d&a$~.8 ~.n n n n n n n n n n 8 n {&c+[ E+D                                           ",
"                                          }&& e&M%8 n n n n n n n n n n n V.~&K%Q.f&                                            ",
"                                          w#g&-$h&~.8 ~.n n n n n n 8 n i&j&a b k&                                              ",
"                                              l&D+m&M%8 n n n n n n n .$] +&n&                                                  ",
"                                                ] -$o&9 8 ~.n n 8 n d$,&D+U w#                                                  ",
"                                                  |&p&,+1&8 n n n d+q&[ P.                                                      ",
"                                                    r&d&$ 8 n _ W m%K%s&                                                        ",
"                                                      t&u&+ %&}@C u&v&                                                          ",
"                                                        w&x&;%C$y&x$                                                            ",
"                                                          z&A&B&C&                                                              ",
"                                                                                                                                ",
"                                                                                                                                "};
