/* XPM */
static char *gmchess___[] = {
/* columns rows colors chars-per-pixel */
"48 48 256 2",
"   c #010100",
".  c #0B0302",
"X  c #0B0A03",
"o  c #0B0A09",
"O  c #130000",
"+  c #100F08",
"@  c #15140C",
"#  c #1B1909",
"$  c #1C1606",
"%  c #151513",
"&  c #1C1B14",
"*  c #1B1B1A",
"=  c #191710",
"-  c #280201",
";  c #3A0301",
":  c #340000",
">  c #201E0A",
",  c #261212",
"<  c #292409",
"1  c #312E0F",
"2  c #382B0A",
"3  c #353110",
"4  c #3D3812",
"5  c #1D1E20",
"6  c #222224",
"7  c #2B2B2B",
"8  c #282829",
"9  c #323233",
"0  c #3D3D3B",
"q  c #353538",
"w  c #3C392D",
"e  c #470000",
"r  c #570903",
"t  c #6C0000",
"y  c #670301",
"u  c #7C0000",
"i  c #463B08",
"p  c #553111",
"a  c #473010",
"s  c #413F28",
"d  c #403F3B",
"f  c #7F3434",
"g  c #5A4C0C",
"h  c #4A441A",
"j  c #534D1A",
"k  c #5C551D",
"l  c #56521B",
"z  c #645C1F",
"x  c #754517",
"c  c #73610D",
"v  c #42413C",
"b  c #565136",
"n  c #695D25",
"m  c #746D25",
"M  c #776C2A",
"N  c #7A7227",
"B  c #6B652F",
"V  c #3E3F40",
"C  c #4C4D4D",
"Z  c #464645",
"A  c #595959",
"S  c #636364",
"D  c #6B6B6B",
"F  c #676768",
"G  c #747474",
"H  c #7D7D7D",
"J  c #787464",
"K  c #8E0000",
"L  c #8D0C04",
"P  c #940100",
"I  c #9D0100",
"U  c #980F05",
"Y  c #911717",
"T  c #A40101",
"R  c #AC0202",
"E  c #A60909",
"W  c #AC0A0A",
"Q  c #B20202",
"!  c #BD0100",
"~  c #B10C0C",
"^  c #BD0D0D",
"/  c #A91608",
"(  c #AE1313",
")  c #AF1D1D",
"_  c #B21313",
"`  c #B91C1C",
"'  c #B81616",
"]  c #9E2E1D",
"[  c #9B3110",
"{  c #A3210E",
"}  c #9C3128",
"|  c #B62424",
" . c #BD2424",
".. c #BF2B2B",
"X. c #BF3232",
"o. c #A03737",
"O. c #C40202",
"+. c #CB0504",
"@. c #C40A0A",
"#. c #CD0C0C",
"$. c #D00607",
"%. c #D10D0D",
"&. c #C41212",
"*. c #CD1313",
"=. c #C51A1A",
"-. c #C91D1D",
";. c #D01515",
":. c #D11B1B",
">. c #D11718",
",. c #C23113",
"<. c #C42D2D",
"1. c #CD2929",
"2. c #CB2424",
"3. c #D32424",
"4. c #D62D2D",
"5. c #C93C3C",
"6. c #C43737",
"7. c #D63434",
"8. c #D83939",
"9. c #9D5C1F",
"0. c #9D4517",
"q. c #A24C1A",
"w. c #8A7513",
"e. c #907B1A",
"r. c #947D16",
"t. c #935423",
"y. c #877C29",
"u. c #8D7232",
"i. c #BD6528",
"p. c #BB5F40",
"a. c #A65151",
"s. c #BE6956",
"d. c #CC4545",
"f. c #D64040",
"g. c #D94848",
"h. c #CC5959",
"j. c #DD5454",
"k. c #DD5B5B",
"l. c #D75757",
"z. c #E05E5E",
"x. c #D57875",
"c. c #C9746F",
"v. c #E16666",
"b. c #E36E6E",
"n. c #E57878",
"m. c #A38B1A",
"M. c #B2971C",
"N. c #AA911C",
"B. c #94882F",
"V. c #91862D",
"C. c #998D30",
"Z. c #94843E",
"A. c #B99F2C",
"S. c #B79D23",
"D. c #A18F3C",
"F. c #A19532",
"G. c #A99937",
"H. c #B49D33",
"J. c #AEA137",
"K. c #BAAC3B",
"L. c #B3A538",
"P. c #CCAD1E",
"I. c #D9B616",
"U. c #DBB817",
"Y. c #DDBB1A",
"T. c #E1BE1C",
"R. c #DDBC24",
"E. c #CABB3F",
"W. c #E4C11E",
"Q. c #E8C41F",
"!. c #E6C321",
"~. c #E9C523",
"^. c #E9C628",
"/. c #ECCA2B",
"(. c #EBC928",
"). c #F2CE2A",
"_. c #F0CC27",
"`. c #F4D12C",
"'. c #F9D52D",
"]. c #ECCB34",
"[. c #EBCC3C",
"{. c #F1CF34",
"}. c #EDD63D",
"|. c #E9D038",
" X c #F1D333",
".X c #F3D43A",
"XX c #F3DA3C",
"oX c #FAD93A",
"OX c #FAD632",
"+X c #988F66",
"@X c #A69E77",
"#X c #CDBE40",
"$X c #D6BF58",
"%X c #C3B46F",
"&X c #D5C544",
"*X c #DCCA42",
"=X c #E2CF43",
"-X c #ECCE44",
";X c #E8CC47",
":X c #E5D243",
">X c #EFD943",
",X c #EED24B",
"<X c #EAD747",
"1X c #F5D545",
"2X c #F6DA48",
"3X c #E8CE5B",
"4X c #E7CF5C",
"5X c #ECD45D",
"6X c #EBD353",
"7X c #F4DA56",
"8X c #F6DA5B",
"9X c #F5D957",
"0X c #F6E05A",
"qX c #E7CF61",
"wX c #E7D065",
"eX c #EFD561",
"rX c #F4DA63",
"tX c #F9DE64",
"yX c #F4DC6D",
"uX c #E1CF7D",
"iX c #F3DC72",
"pX c #F4DE7D",
"aX c #F6E07D",
"sX c #F8E178",
"dX c #828282",
"fX c #E88787",
"gX c #EA9393",
"hX c #E99898",
"jX c #EDA4A4",
"kX c #EFAEAE",
"lX c #E4A5A5",
"zX c #EDB2B2",
"xX c #F2BCBC",
"cX c #F1B4B4",
"vX c #F3DF84",
"bX c #F6E183",
"nX c #F6E28A",
"mX c #F8E58C",
"MX c #F8E382",
"NX c #F6E594",
"BX c #F9E693",
"VX c #F6E69B",
"CX c #F9E89B",
"ZX c #F9E896",
"AX c #F9EAA5",
"SX c #F9ECAD",
"DX c #F6E7A1",
"FX c #F9ECB3",
"GX c #FAEFBB",
"HX c #FBF1C3",
"JX c #FBF3CA",
"KX c #FCF4D3",
"LX c #FCF6D8",
"PX c #FDF8E3",
"IX c #FDFAE9",
"UX c None",
/* pixels */
"UXUXUXUXUXUXUXUXUXUXUXUXUXUXUXUXUXUXUXUXUXUXUXUXUXUXUXUXUXUXUXUXUXUXUXUXUXUXUXUXUXUXUXUXUXUXUXUX",
"UXUXUXUXUXUXUXUXUXUXUXUXUXUXUXUXUXUXUXUXUXUXUXUXUXUXUXUXUXUXUXUXUXUXUXUXUXUXUXUXUXUXUXUXUXUXUXUX",
"UXUXUXUXUXUXUXUXUXUXUXUXUXUXUXUXUXUXUXUXUXUXUXUXUXUXUXUXUXUXUXUXUXUXUXUXUXUXUXUXUXUXUXUXUXUXUXUX",
"UXUXUXUXUXUXUXUXUXUXUXUXUXUXUXUXUXUXUXUXUXUXUXUXUXUXUXUXUXUXUXUXUXUXUXUXUXUXUXUXUXUXUXUXUXUXUXUX",
"UXUXUXUXUXUXUXUXUXUXUXUXUXUXUXUXUXUXUXUXUXUXUXUXUXUXUXUXUXUXUXUXUXUXUXUXUXUXUXUXUXUXUXUXUXUXUXUX",
"UXUXUXUXUXUXUXUXUXUXUXUXUXUXUXUXUXT UXUXUXUXUXUXUXUXUXUXUXUXUXT UXUXUXUXUXUXUXUXUXUXUXUXUXUXUXUX",
"UXUXUXUXUXUXUXUXUXUXUXUXUXUXUXUX) E T UXUXUXUXUXUXUXUXUXUXX.( T T UXUXUXUXUXUXUXUXUXUXUXUXUXUXUX",
"UXUXUXUXUXUXUXUXUXUXUXUXUXUXUX7.d.) UXUXUXUXUXUXUXUXUXUXj.:. .T T UXUXUXUXUXUXUXUXUXUXUXUXUXUXUX",
"UXUXUXUXUXUXUXUXUXUXUXUXUXE 5.%.5.E T T T T UXUXUXUXUXUXj.%.` T T UXUXUXUXUXUXUXUXUXUXUXUXUXUXUX",
"UXUXUXUXUXUXUXUXUXUXUXUX5.5.1.#.d.<.<.<.X.E T UXUXT T ( l.*.` T T T T T T UXUXUXUXUXUXUXUXUXUXUX",
"UXUXUXUXUXUXUXUXUXUXUXv.#.>.*.>.>.:.:.>.1.E ( | ) _ _ | l.>. .( _ _ _ ( T UXUXUXUXUXUXUXUXUXUXUX",
"UXUXUXUXUXUXUXUXUXUXUXb.>.5.| UXUXUXfX7.2.E X.:.*.*.*.:.k.*.#.#.#.*.3.&.E UXUXUXUXUXUXUXUXUXUXUX",
"UXUXUXUXUXUXUXUXUXUXUXn.:...T UXUXUXUXz.-.E 6.:.*.=.-.8.n.:.*.&.&.7.7.@.R UXUXUXUXUXUXUXUXUXUXUX",
"UXUXUXUXUXUXUXUXUXUXUXfX3. .T UXUXUXUXv.-.E d.7.=.E UXUXhX:._ T T UXg.#.E UXUXUXUXUXUXUXUXUXUXUX",
"UXUXUXUXUXUXUXUXUXUXUXhX3.<.( ( ( ( v.v.=.T h.g.&.E UXUXjX3.~ T T UXv.@.T UXUXUXUXUXUXUXUXUXUXUX",
"UXUXUXUXUXUXUXUXUXUXUXjX3.;.*.*.*.*.5.g.=.E x.k.&.T UXUXzX3.Q T T UXn.@.R UXUXUXUXUXUXUXUXUXUXUX",
"UXUXUXUXUXUXUXUXUXUXUXkX4.=.=.3.3.3.8.4.&.E lXb.@.T UXUXxX3.~ T T UXfX@.R UXUXUXUXUXUXUXUXUXUXUX",
"UXUXUXUXUXUXUXUXUXUXUXxX7.` E UXUXUXUX4.3.UXUXn.@.T UXUXxX3.Q T T UXhX@.T UXUXUXUXUXUXUXUXUXUXUX",
"UXUXUXUXUXUXUXUXUXUXUXxX7.^ T UXUXUXUXUXUXUXzXb.^ T UXUXxX3.R T T UXhX+.R UXUXUXUXUXUXUXUXUXUXUX",
"UXUXUXUXUXUXUXUXUXUXUXxX7.' _ ~ ~ ~ ~ W R R c.z.! T UXUXxX3.Q T T UXfXO.T UXUXUXUXUXUXUXUXUXUXUX",
"UXUXUXUXUXUXUXUXUXUXUXcX4.+.#.+.+.+.+.#.+.R h.g.! T UXUXkX3.R T T UXb.@.T UXUXUXUXUXUXUXUXUXUXUX",
"UXUXUXUXUXUXUXUXUXUXUXjX4.@.^ UXUXUX>.7.+.T 6.4.! E UXUXhX3.R T T UXk.O.R UXUXUXUXUXUXUXUXUXUXUX",
"UXUXUXUXUXUXUXUXUXUXUXgX3.~ P UXUX  , h.#.T Y >.! I ; 5 c.>.Q T P f f.+.T UXUXUXUXUXUXUXUXUXUXUX",
"UXUXUXUXUXUXUXUXUXUXo a.3.Q L i j l n x.*.T { +.! T x M c.>.Q R T ( 3.O.I -   UXUXUXUXUXUXUXUXUX",
"UXUXUXUXUXUX  + 1 j m s.:.W E q.q.0.q.x.#.T U +.O.P a s s.>.Q O.+.$.#./ 9.y.z 4 # . UXUXUXUXUXUX",
"UXUXUXUXUX# z F.L.J.C.i.*.O.! ! ! ! &.l.#.T u T K :   o o.%.Q Q I y r 3 j N C.G.G.N 1   UXUXUXUX",
"UXUXUXUX# F.*X#XL.V.z } %.O.O.Q Q Q ^ 7.+.T e . .     o o.%.R T y     X $ 3 l y.J.&X#Xs   UXUXUX",
"UXUXUXUXs 6X<X&XK.B.z ] $.! K - O O - _ O.t .         . } +.Q T r   . X # 4 n V.K.&X7Xy.  UXUXUX",
"UXUXUXUXV 5XXX2X<X&XK.i.,.[ p < @ X X ; ; X             Y O.I r $ # 3 l m B.L.#X:X>XoXV.  UXUXUX",
"UXUXUXUXv 4X`.XX7X7X0X<X=X&X#XL.C.y.N m n k j h j k k k t.t.u.B.F.J.K.#X:X>XXXXX X`.'.w.  UXUXUX",
"UXUXUXUXv 3X`.>X7XrX7X.X{.{. X}.}.>X>X>X>X:X*X*X:X:X<X:X:X|.}.XX}.XX{. X X(._._._._.'.r.  UXUXUX",
"UXUXUXUXv 3XoX8XsXaXyX,X/.~.!.!.W.W.!.T.W.R.T.Y.Y.Y.T.R.Y.W.W.W.Q.W.Q.(.(./. X`.`._.'.e.  UXUXUX",
"UXUXUXUXd 4X2XyXmXZXnXrX].~.~.!.!.T.T.T.T.I.I.I.I.I.U.U.T.T.T.T.!.!.^.[.,X9X6X1X1X).OXe.  UXUXUX",
"UXUXUXUXd 4X9XMXAXFXCXiX-X~.!.Q.!.T.T.T.T.U.U.I.I.I.I.T.I.T.T.T.!.^.-X5XiXvXvXyX8X1XOXr.  UXUXUX",
"UXUXUXUXv wX8XmXGXJXSXaX,X~.!.!.T.T.T.T.T.U.U.I.I.I.I.T.T.T.T.T.T.].3XpXNXAXDXNXiX8XoXr.  UXUXUX",
"UXUXUXUXv wXtXCXJXPXGXnX6X(.!.Q.!.T.T.T.U.U.U.I.I.I.U.I.T.T.T.!.!.;XyXNXFXJXJXSXvXyX1Xr.  UXUXUX",
"UXUXUXUX0 wXtXCXJXIXHXmX9X^.~.T.T.T.T.T.T.U.U.U.I.I.U.Y.T.T.T.T.!.;XiXVXHXIXPXGXZXsX2Xe.  UXUXUX",
"UXUXUXUXv wXtXZXHXLXGXvX,X^.~.~.!.T.T.T.U.U.U.I.I.I.I.Y.U.T.T.T.^.;XiXNXHXLXKXFXmXtX2Xe.o UXUXUX",
"UXUXUXF Z qX9XmXFXHXAXpX-X^.Q.Q.!.T.T.U.T.U.U.I.I.I.I.I.Y.T.T.T.!.[.wXvXVXFXSXVXaX8XoXe.6 UXUXUX",
"UXUXdXG Z 5X2XaXCXAXZXyX[.~.!.Q.!.T.T.T.T.U.U.I.I.I.I.T.T.T.T.T.!.^.;XyXvXvXvXvXtX2X'.e.9 dXUXUX",
"UXUXdXG 9 %X9XtXMXmXpX9X].!.!.!.!.T.T.T.U.U.U.I.I.I.U.Y.Y.T.T.T.W.~.].-X9XrXrX9X2XOX^.g 9 dXdXUX",
"UXUXdXdX0 7 +XuXpXpXtX1X(.Q.!.Q.!.T.T.T.T.U.U.I.I.I.U.U.Y.T.T.W.W.W.~.(.].[..X{.R.m.i o A H UXUX",
"UXUXUXdXH C 6 0 J @X%X$X;X]./.^.!.!.!.T.T.T.U.U.I.I.I.Y.T.T.W.!.Q.~.W.Y.P.M.e.g < + 8 S H dXUXUX",
"UXUXUXUXdX+XG S C d 7 8 w C B u.Z.D.G.H.H.A.S.A.S.S.S.M.N.m.e.w.c g i 2 $ + % 7 Z F H dXUXUXUXUX",
"UXUXUXUXUXUXdXdXdXH G S C V 9 8 5 * * * * * * * & = = = % % % % * 8 V V A F G H dXdXUXUXUXUXUXUX",
"UXUXUXUXUXUXUXUXUXUXH dXdXdXdXH H G G D F F S F S S F F D G G G H +XdXdXdXdXdXUXUXUXUXUXUXUXUXUX",
"UXUXUXUXUXUXUXUXUXUXUXUXUXUXUXUXdXdXdXdXdXdXdXdXdXdX+XdXdXdXdXdXdXUXUXUXUXUXUXUXUXUXUXUXUXUXUXUX",
"UXUXUXUXUXUXUXUXUXUXUXUXUXUXUXUXUXUXUXUXUXUXUXUXUXUXUXUXUXUXUXUXUXUXUXUXUXUXUXUXUXUXUXUXUXUXUXUX"
};
