/* XPM */
static char * gmdb2_xpm[] = {
"32 32 271 2",
"  	c None",
". 	c #C4C38B",
"+ 	c #CFCD76",
"@ 	c #F6F438",
"# 	c #CFCD52",
"$ 	c #A9A873",
"% 	c #7F7F75",
"& 	c #B5B5A1",
"* 	c #ECEA3D",
"= 	c #F9F614",
"- 	c #AFAE84",
"; 	c #E0DE6E",
"> 	c #A7A685",
", 	c #9C9C9D",
"' 	c #B9B9AB",
") 	c #E0DF42",
"! 	c #F2F03A",
"~ 	c #CDCC5A",
"{ 	c #BFBFAF",
"] 	c #B7B686",
"^ 	c #818185",
"/ 	c #AFAFB1",
"( 	c #ABABAB",
"_ 	c #D5D371",
": 	c #FFFE15",
"< 	c #C5C471",
"[ 	c #C2C158",
"} 	c #C7C65F",
"| 	c #939393",
"1 	c #D1D064",
"2 	c #BBBBB2",
"3 	c #A9A9A9",
"4 	c #CCCB7E",
"5 	c #EBE943",
"6 	c #DEDC46",
"7 	c #CCCA4B",
"8 	c #C5C465",
"9 	c #A7A68F",
"0 	c #A2A27E",
"a 	c #BDBDBD",
"b 	c #9E9D8D",
"c 	c #B6B6B7",
"d 	c #B5B5B5",
"e 	c #AAAAAA",
"f 	c #A9A9AC",
"g 	c #F4F21D",
"h 	c #F1EF34",
"i 	c #B2B160",
"j 	c #DCDA45",
"k 	c #969691",
"l 	c #B0AF7F",
"m 	c #E8E642",
"n 	c #C6C5AB",
"o 	c #888888",
"p 	c #A0A0A7",
"q 	c #96968B",
"r 	c #848453",
"s 	c #96956B",
"t 	c #909095",
"u 	c #A6A697",
"v 	c #C2C2A7",
"w 	c #D5D359",
"x 	c #F7F417",
"y 	c #D2D169",
"z 	c #B2B17E",
"A 	c #C9C764",
"B 	c #81818B",
"C 	c #939387",
"D 	c #AFAE6F",
"E 	c #A6A6B7",
"F 	c #929293",
"G 	c #797989",
"H 	c #999865",
"I 	c #E8E515",
"J 	c #FAF717",
"K 	c #A7A677",
"L 	c #E5E32F",
"M 	c #C0BF7C",
"N 	c #CBC959",
"O 	c #F8F622",
"P 	c #C1C170",
"Q 	c #D8D659",
"R 	c #B5B572",
"S 	c #99999E",
"T 	c #BDBC7F",
"U 	c #ABABAC",
"V 	c #ACACAD",
"W 	c #9A9A99",
"X 	c #7E7E75",
"Y 	c #CECB27",
"Z 	c #FFFF0A",
"` 	c #FEFB10",
" .	c #FFFC10",
"..	c #FDFA10",
"+.	c #C1C057",
"@.	c #FDFA15",
"#.	c #FFFD0C",
"$.	c #F0EE34",
"%.	c #AEAD72",
"&.	c #D3D24F",
"*.	c #A7A799",
"=.	c #B6B567",
"-.	c #FCF915",
";.	c #C4C38E",
">.	c #A5A6A7",
",.	c #71717C",
"'.	c #B1AF49",
").	c #C6C479",
"!.	c #C3C26D",
"~.	c #FFFE0C",
"{.	c #BCBB4D",
"].	c #F2F01D",
"^.	c #C6C670",
"/.	c #C8C761",
"(.	c #A5A58D",
"_.	c #B5B573",
":.	c #E8E630",
"<.	c #ECEA30",
"[.	c #939283",
"}.	c #9D9DA3",
"|.	c #686870",
"1.	c #D0CE58",
"2.	c #C2C05A",
"3.	c #EEEB31",
"4.	c #A2A176",
"5.	c #FFFF0C",
"6.	c #FFFC0F",
"7.	c #FDFA11",
"8.	c #A3A36F",
"9.	c #A5A6AE",
"0.	c #B1B174",
"a.	c #9B9BA0",
"b.	c #E6E44A",
"c.	c #FFFE0B",
"d.	c #FAF714",
"e.	c #C5C57B",
"f.	c #B7B7B7",
"g.	c #A9A9AA",
"h.	c #95956D",
"i.	c #C1BF66",
"j.	c #DDDB47",
"k.	c #BFBE88",
"l.	c #C3C25B",
"m.	c #828291",
"n.	c #A7A690",
"o.	c #D5D46E",
"p.	c #FFFE0D",
"q.	c #FFFE07",
"r.	c #D3D15B",
"s.	c #79796B",
"t.	c #90909B",
"u.	c #7A7A74",
"v.	c #DFDC1D",
"w.	c #CECC55",
"x.	c #868694",
"y.	c #BCBC88",
"z.	c #EBE941",
"A.	c #9B9B8C",
"B.	c #C6C45C",
"C.	c #FFFF07",
"D.	c #E5E44B",
"E.	c #B6B6B5",
"F.	c #67674B",
"G.	c #FAF830",
"H.	c #F5F227",
"I.	c #C3C279",
"J.	c #C5C460",
"K.	c #FEFB0C",
"L.	c #AAA969",
"M.	c #A9A86B",
"N.	c #B9B863",
"O.	c #97978B",
"P.	c #BEBEBF",
"Q.	c #6F6F77",
"R.	c #C3C271",
"S.	c #B9B877",
"T.	c #AEAC5A",
"U.	c #FFFD1F",
"V.	c #FEFB13",
"W.	c #FCF912",
"X.	c #ACAA45",
"Y.	c #F3F01B",
"Z.	c #B1B082",
"`.	c #B1B17B",
" +	c #6D6D63",
".+	c #BBBB78",
"++	c #DEDD62",
"@+	c #AEAE8D",
"#+	c #F9F71F",
"$+	c #EAE825",
"%+	c #AAA843",
"&+	c #ADAC67",
"*+	c #ECE950",
"=+	c #99997F",
"-+	c #A3A37B",
";+	c #C8C764",
">+	c #CCCA75",
",+	c #C9C877",
"'+	c #C6C55C",
")+	c #BBBB8F",
"!+	c #FDFA0E",
"~+	c #83837B",
"{+	c #FCF914",
"]+	c #AEAE98",
"^+	c #9C9A51",
"/+	c #A7A7A5",
"(+	c #EEEC45",
"_+	c #CFCE46",
":+	c #C6C597",
"<+	c #FFFD0B",
"[+	c #E0DE46",
"}+	c #8C8B57",
"|+	c #CFCD65",
"1+	c #A6A6A2",
"2+	c #BBBA4E",
"3+	c #D8D65C",
"4+	c #A2A2BF",
"5+	c #DDDB5A",
"6+	c #D4D347",
"7+	c #FAF822",
"8+	c #9B9A71",
"9+	c #FFFD0E",
"0+	c #F3F134",
"a+	c #5E5F70",
"b+	c #E8E64B",
"c+	c #B6B6AF",
"d+	c #A2A2A7",
"e+	c #CAC847",
"f+	c #ABAA75",
"g+	c #A0A089",
"h+	c #F3F141",
"i+	c #CBC94A",
"j+	c #C2C171",
"k+	c #B3B28F",
"l+	c #FCF92A",
"m+	c #F3F01A",
"n+	c #6B6B66",
"o+	c #D6D55A",
"p+	c #D2D167",
"q+	c #85857F",
"r+	c #E7E534",
"s+	c #F5F31C",
"t+	c #B5B47D",
"u+	c #DFDD37",
"v+	c #B1B194",
"w+	c #C5C357",
"x+	c #A3A34D",
"y+	c #7E7E91",
"z+	c #D2D147",
"A+	c #D8D756",
"B+	c #B3B3B4",
"C+	c #757567",
"D+	c #F1EE21",
"E+	c #9A9A9D",
"F+	c #C5C35C",
"G+	c #B1B066",
"H+	c #66666A",
"I+	c #BEBD70",
"J+	c #EEEC49",
"K+	c #B4B494",
"L+	c #B7B7B8",
"M+	c #A2A16A",
"N+	c #D9D721",
"O+	c #88875E",
"P+	c #9D9C6E",
"Q+	c #DEDD6E",
"R+	c #D8D751",
"S+	c #939496",
"T+	c #9F9FA6",
"U+	c #E1DF3B",
"V+	c #CCCB6E",
"                                                                ",
"                                                                ",
"                                                                ",
"                                                          .     ",
"                                                      + @ # $ % ",
"                                                  & * = - ; > , ",
"                                              ' ) ! ~ { ] ^ / ( ",
"                                            _ : < [ } | 1 2 3   ",
"                                        4 5 6 7 8 9 0 a b c     ",
"                    d e             f g h i j k l m n o         ",
"                p q r s t   u   v w x y z A B C D E F           ",
"              G H I : J K L M N O P Q R S T U V                 ",
"          W X Y Z `  ...+.@.#.$.%.&.*.=.-.;.>.                  ",
"        ,.'.).!.~. . ...{.].^./.(._.:.<.[.}.                    ",
"      |.1.2.3.4.5. .6.7.8.9.0.a.b.c.d.e.f.                      ",
"    g.h.i.j.  k.c. .Z l.m.n.o.p.q.r.s.t.                        ",
"    u.v.w.x.  y.c. .#.z.A.B.C.D.e E.                            ",
"    F.G.C.H.I.J.p. .` K.L.M.N.O.P.                              ",
"  Q.R.S.T.U.V.W.6. . ...X.Y.Z.`.                                ",
"   +.+++  @+#+$+6. . ...%+&+*+=+                                ",
"  -+;+>+  ,+'+)+c. .` !+~+{+]+                                  ",
", ^+ .  /+(+_+:+<+` c.[+}+|+                                    ",
"1+2+3+4+5+6+7+8+Z 9+0+a+b+c+                                    ",
"d+e+f+g+h+i+j+k+l+m+n+o+p+                                      ",
"  q+r+s+t+u+v+w+x+y+z+A+                                        ",
"  B+C+D+E+F+G+H+I+J+K+                                          ",
"    L+M+N+O+P+Q+R+                                              ",
"      S+T+U+V+                                                  ",
"                                                                ",
"                                                                ",
"                                                                ",
"                                                                "};
