/* XPM */
static char * icon_xpm[] = {
"32 32 134 2",
"  	c None",
". 	c #000000",
"+ 	c #92C4FB",
"@ 	c #BD0000",
"# 	c #CCCC00",
"$ 	c #F00000",
"% 	c #FFFF00",
"& 	c #BD6611",
"* 	c #25571B",
"= 	c #F18216",
"- 	c #3B892B",
"; 	c #4F0043",
"> 	c #030666",
", 	c #010100",
"' 	c #82006E",
") 	c #060A9A",
"! 	c #959595",
"~ 	c #797979",
"{ 	c #7A7C7E",
"] 	c #85909C",
"^ 	c #93A7BE",
"/ 	c #893C7D",
"( 	c #5E2054",
"_ 	c #92C1F6",
": 	c #757575",
"< 	c #616161",
"[ 	c #676767",
"} 	c #787878",
"| 	c #858585",
"1 	c #434343",
"2 	c #949596",
"3 	c #9BA2AB",
"4 	c #9DBFE5",
"5 	c #A2A2A2",
"6 	c #7E7E7E",
"7 	c #313131",
"8 	c #868686",
"9 	c #7C7C7C",
"0 	c #343434",
"a 	c #ACACAC",
"b 	c #BFBFBF",
"c 	c #A6C2E0",
"d 	c #92C3FA",
"e 	c #92BCEB",
"f 	c #93B3D8",
"g 	c #93AAC4",
"h 	c #758392",
"i 	c #8A9FB6",
"j 	c #92BDED",
"k 	c #E1E1E1",
"l 	c #CBCBCB",
"m 	c #D5D5D5",
"n 	c #B0B0B0",
"o 	c #A7A7A7",
"p 	c #969696",
"q 	c #5A5A5A",
"r 	c #3B3B3B",
"s 	c #8F8F8F",
"t 	c #BBBBBB",
"u 	c #C0C0C0",
"v 	c #9FC7F4",
"w 	c #95ABC3",
"x 	c #8E9AA7",
"y 	c #595C5F",
"z 	c #939393",
"A 	c #444444",
"B 	c #949597",
"C 	c #93A6BB",
"D 	c #191B6D",
"E 	c #646464",
"F 	c #555555",
"G 	c #FFFFFF",
"H 	c #F9F9F9",
"I 	c #E2E2E2",
"J 	c #B3B3B3",
"K 	c #B4B4B4",
"L 	c #6A83A7",
"M 	c #879FC4",
"N 	c #EDEDED",
"O 	c #585858",
"P 	c #929292",
"Q 	c #4F4F4F",
"R 	c #636485",
"S 	c #1D206E",
"T 	c #F7F7F7",
"U 	c #F6F6F6",
"V 	c #FEFEFE",
"W 	c #2F2F2F",
"X 	c #8EAFE0",
"Y 	c #D9D9D9",
"Z 	c #A0A0A0",
"` 	c #717171",
" .	c #292929",
"..	c #8A8A8A",
"+.	c #9A9A9A",
"@.	c #B5B8BC",
"#.	c #BEBEBE",
"$.	c #C3DEFC",
"%.	c #C3C3C3",
"&.	c #ABABAB",
"*.	c #B5B5B5",
"=.	c #1B1B1B",
"-.	c #6D7074",
";.	c #4A4A4A",
">.	c #BDBDBD",
",.	c #FCFCFC",
"'.	c #B9B9B9",
").	c #AEAEAE",
"!.	c #9D9D9D",
"~.	c #B1B5B8",
"{.	c #B7B7B7",
"].	c #D6D6D6",
"^.	c #6680A6",
"/.	c #D2D2D2",
"(.	c #B6B6B6",
"_.	c #414141",
":.	c #A8A8A8",
"<.	c #BDC0C3",
"[.	c #5B5B5B",
"}.	c #010101",
"|.	c #737373",
"1.	c #A3A3A3",
"2.	c #3E3E3E",
"3.	c #9E9E9E",
"4.	c #DBDBDB",
"5.	c #636363",
"6.	c #454545",
"7.	c #484848",
"8.	c #BCBCBC",
"9.	c #535353",
"0.	c #9F9F9F",
"a.	c #080808",
"b.	c #999999",
"c.	c #FBFBFB",
"                . . . . . . . . . . . . . . . . . . . . . .     ",
"              . + + + @ + + @ + + @ + + # + + # + + # + + + .   ",
"            . + + + + @ + + @ + + @ + + # + + # + + # + + + + . ",
"            . + + + + @ + + @ + + @ + + # + + # + + # + + + + . ",
"            . + + + + @ $ $ @ $ $ @ + + # % % # % % # + + + + . ",
"            . & & & & . @ @ @ @ @ @ . . # # # # # # . * * * * . ",
"            . + + + = & + + + + + + + + + + + + + + * - + + + . ",
"            . + + + = & + + + + + + + + + + + + + + * - + + + . ",
"            . & & & & & + + + + + + + + + + + + + + * * * * * . ",
"            . + + + = & + + + + + + + + + + + + + + * - + + + . ",
"            . + + + = & + + + + + + + + + + + + + + * - + + + . ",
"            . & & & & & + + + + + + + + + + + + + + * * * * * . ",
"            . + + + + . + + + + + + + + + + + + + + . + + + + . ",
"            . + + + + . + + + + + + + + + + + + + + . + + + + . ",
"            . ; ; ; ; ; + + + + + + + + + + + + + + > > > > > . ",
"          , . + + + ' ; + + + + + + + + + + + + + + > ) + + + . ",
"      , , ! ~ { ] ^ / ( _ + + + + + + + + + + + + + > ) + + + . ",
"  , , ! ! : < [ } ! | 1 2 3 4 + + + + + + + + + + + > > > > > . ",
", 5 ! 6 7 8 9 ! ! 0 6 8 a b c + + + d e f g h i j + > ) + + + . ",
", k l m n o p q r s 5 t u u c v w x y z ! ! A : B C D ) + + + . ",
", E F G G G H I l J K u u u L M N o O P ! ! ! ! ! Q < R S > > . ",
", T U G G G G G V ! W u u u L X G G Y Z `  .! ! p ..+.o @.+ + . ",
", G G G G G G G V u #.u u u L $.G G G H %.+.&.*.#.u u =.-.+ + . ",
", G G G ;.s G G V u u u >...L $.G G G G ,.'.Q ).u u u !.~.+ + . ",
", G G G {.].G G V u u u ).0 ^.$.G /.(.G ,.(._.:.u u u u <.+ .   ",
", G G G G G G G V u u u t [.}.|.G /.'.G ,.u u u 1.2.#.u J .     ",
", G G G G G G 3.4.u u u u , , G G G G G ,.u u u a 5.b u u ,     ",
"  , G G G G G 6.).u u , ,     , G G G G ,.u u u u u u 7.!.,     ",
"    , , , , , G V #.,           , G G G ,.u ..8.u u u 9.0.,     ",
"              , , ,               , G G ,.{.a.b.u u u u ,       ",
"                                    , , c.u >.u , , , ,         ",
"                                        , , , ,                 "};
