/* XPM */
static char * gtkballs_16x16_xpm[] = {
"16 16 4 1",
"      c #000000",
".     c #FFFFFF",
"+     c #FF0000",
"@     c #00FF00",
"                ",
" ......  ...... ",
" ..++..  ...... ",
" .++++.  ...... ",
" .++++.  ...... ",
" ..++..  ...... ",
" ......  ...... ",
"                ",
"                ",
" ......  ...... ",
" ......  ..@@.. ",
" ......  .@@@@. ",
" ......  .@@@@. ",
" ......  ..@@.. ",
" ......  ...... ",
"                "};

