/* XPM */
static char * gtkpycad_xpm[] = {
"32 32 80 1",
" 	c None",
".	c #000000",
"+	c #D2AE30",
"@	c #C6A52D",
"#	c #C5A42D",
"$	c #D9B432",
"%	c #CAA82E",
"&	c #D1AE30",
"*	c #FFE03E",
"=	c #D3AF30",
"-	c #DEB933",
";	c #FDD23A",
">	c #FFD43B",
",	c #FFD63B",
"'	c #DDB62C",
")	c #121930",
"!	c #9F8529",
"~	c #FFE13E",
"{	c #211C07",
"]	c #342B0C",
"^	c #FFDA3C",
"/	c #D2AE2D",
"(	c #9E9C98",
"_	c #FFFFFF",
":	c #DCDDE3",
"<	c #584709",
"[	c #30280B",
"}	c #332B0B",
"|	c #FFD83C",
"1	c #9E9D9C",
"2	c #12182E",
"3	c #FFDE3E",
"4	c #C8A62E",
"5	c #FFD53B",
"6	c #FED33A",
"7	c #FFED42",
"8	c #251E08",
"9	c #FCD13A",
"0	c #181000",
"a	c #599ED4",
"b	c #5A9FD3",
"c	c #5A9FD4",
"d	c #2F2608",
"e	c #5BA2D8",
"f	c #1F3649",
"g	c #FFDF3E",
"h	c #211903",
"i	c #599CCE",
"j	c #599ED3",
"k	c #5DA4DB",
"l	c #366080",
"m	c #FFE23F",
"n	c #5CA3DA",
"o	c #5DA5DC",
"p	c #12202A",
"q	c #000001",
"r	c #5CA2D8",
"s	c #12202B",
"t	c #FBD13A",
"u	c #000003",
"v	c #5CA3D9",
"w	c #272009",
"x	c #FFF143",
"y	c #FFF243",
"z	c #06090B",
"A	c #60AAE2",
"B	c #599ED2",
"C	c #60AAE3",
"D	c #4981AC",
"E	c #579ACE",
"F	c #5CA2D9",
"G	c #5BA1D7",
"H	c #457BA4",
"I	c #0D1820",
"J	c #14232F",
"K	c #111E28",
"L	c #0F1B24",
"M	c #4C86B3",
"N	c #203A4D",
"O	c #101D27",
"                                ",
"                                ",
"                                ",
"                                ",
"                                ",
" .+@@@@#$%&* =@@@@@@@+.         ",
" -;>>>,')!~{ >>>>>>>>;-         ",
"]^>>>>/(_:<] >>>>>>>>>^[        ",
"}|>>>>/1_:<] >>>>>>>>>|[        ",
"}|>>>>,'2!~{ >>>>>>>>>|[        ",
"}|>>>>>;34&* >>>55>>>>|[        ",
"}|>>>>678        &>>>>|[        ",
"}|>>>690 abccccc @>>>>|d cccef  ",
"}|>>>ghijbcccccc @>>>>|d cccjkl ",
"}|>>>m.ncccccccc @>>>>|d cccccop",
"}|>>>mqncccccccc @>>>>|d cccccrs",
"}t6>>muvcccccccc @>>>>|d cccccrs",
" wxmmyuvcccccccc @>>>>|d cccccrs",
"  ....zrcccccccc @>>>>|d cccccrs",
"       ABccccccc @>>>>|d cccccrs",
"       .Cccccccc @>>>>|d cccccrs",
"       .Accccccc @>>>>|d cccccrs",
"       .Accccccc @>>>>|d cccccrs",
"       .Accccccc @>>>>|d cccccrs",
"       .DErrrrFc @>>>>|d GrrroHI",
"         JKKKKLM @>>>>|d NKKKO  ",
"                                ",
"                                ",
"                                ",
"                                ",
"                                ",
"                                "};
