/* XPM */
static char *hannah[] = {
/* columns rows colors chars-per-pixel */
"30 30 197 2",
"   c black",
".  c #03000F",
"X  c #0A0909",
"o  c gray4",
"O  c #070016",
"+  c #070017",
"@  c #1B1B1B",
"#  c #0A0022",
"$  c #110036",
"%  c #2B2A2A",
"&  c gray17",
"*  c #17004A",
"=  c #1F005A",
"-  c #200064",
";  c #260073",
":  c #270079",
">  c #5C554F",
",  c #5C5A59",
"<  c #9B5A1B",
"1  c #A06021",
"2  c #A06022",
"3  c #A26224",
"4  c #A56628",
"5  c #A96B2E",
"6  c #AD6F33",
"7  c #AD6F34",
"8  c #AD7033",
"9  c #AF7135",
"0  c #B27539",
"q  c #B4783D",
"w  c #B6793E",
"e  c #FF3F48",
"r  c #EB3956",
"t  c #FF3E5B",
"y  c #B87B40",
"u  c #B87C40",
"i  c #B87C41",
"p  c #B97D42",
"a  c #BB7F45",
"s  c #8A7A6C",
"d  c #FF4141",
"f  c #FF4043",
"g  c #FF4145",
"h  c #FF4A4E",
"j  c #FF5D5E",
"k  c #FF656A",
"l  c #BD8248",
"z  c #C0854C",
"x  c #C3884E",
"c  c #C3884F",
"v  c #C48A50",
"b  c #CF975F",
"n  c #FF8373",
"m  c #E1AB75",
"M  c #2A0081",
"N  c #2B0084",
"B  c #300093",
"V  c #310095",
"C  c #340097",
"Z  c #3D01A3",
"A  c #3F02A2",
"S  c #3A00A4",
"D  c #3B00B3",
"F  c #4B0699",
"G  c #4200C9",
"H  c #4A00E0",
"J  c #4B00E4",
"K  c #4D00EA",
"L  c #5B02F4",
"P  c #5B02F5",
"I  c #5D03F4",
"U  c #5400FE",
"Y  c #5400FF",
"T  c #5801F8",
"R  c #5801F9",
"E  c #5C02F8",
"W  c #5D03F8",
"Q  c #5B0AFB",
"!  c #5A0AFE",
"~  c #5A0AFF",
"^  c #6D09E1",
"/  c #6305EE",
"(  c #6406EC",
")  c #6D08ED",
"_  c #6F09EC",
"`  c #610CF6",
"'  c #6716F7",
"]  c #6013FF",
"[  c #6215FF",
"{  c #6719F8",
"}  c #651AFF",
"|  c #681EFF",
" . c #6F29FF",
".. c #702AFE",
"X. c #702AFF",
"o. c #732FFF",
"O. c #7431FF",
"+. c #7735FF",
"@. c #7B3BFF",
"#. c #7B3CFF",
"$. c #7E3FFF",
"%. c #8E15BC",
"&. c #8D15BF",
"*. c #9B19B7",
"=. c #A631B2",
"-. c #FF6D84",
";. c #FF72A1",
":. c #8D13D9",
">. c #8224DD",
",. c #BE6EC2",
"<. c #8144FF",
"1. c #8346FF",
"2. c #8449FD",
"3. c #8449FF",
"4. c #874DFF",
"5. c #894DFB",
"6. c #8A51FD",
"7. c #8A52FF",
"8. c #8F59FF",
"9. c #915CFF",
"0. c #9D62E7",
"q. c gray54",
"w. c #9A8D82",
"e. c #9A9189",
"r. c #9A928C",
"t. c #9A9694",
"y. c #9A9A9A",
"u. c #AA9785",
"i. c #AAAAAA",
"p. c #FF9684",
"a. c #C3AD98",
"s. c #FFAA9F",
"d. c #FFB1A0",
"f. c #FFB5A2",
"g. c #FFA4B2",
"h. c #FFB5B8",
"j. c #FFBFBB",
"k. c #DAC2AA",
"l. c #C3C0BF",
"z. c #DAC8B8",
"x. c #D8CBBE",
"c. c #FFC5AF",
"v. c #F3CDA8",
"b. c #E2CAB4",
"n. c #E3CBB4",
"m. c #FFCBB4",
"M. c #FFC0BC",
"N. c #FFC9BA",
"B. c #EBD2BA",
"V. c #ECD3BA",
"C. c #EFD5BC",
"Z. c #FFD0B7",
"A. c #F8D7B6",
"S. c #F0D5BC",
"D. c #F0D6BD",
"F. c #F1D6BD",
"G. c #F1D7BE",
"H. c #F2D7BE",
"J. c #FFD1B8",
"K. c #F3D8BF",
"L. c #DFA4C1",
"P. c #DAD5D1",
"I. c #D8D7D6",
"U. c #DADADA",
"Y. c #FFD0C1",
"T. c #FFD1C1",
"R. c #FFD1C2",
"E. c #FFD6C4",
"W. c #F5DBC1",
"Q. c #F7DDC3",
"!. c #FFD8C4",
"~. c #FFDAC5",
"^. c #FFDFC6",
"/. c #FFDEC7",
"(. c #FFE0C6",
"). c #FEE1C7",
"_. c #FFE1C7",
"`. c #FFE1C8",
"'. c #FEE2C8",
"]. c #FFE2C8",
"[. c #FFE3C8",
"{. c #FFE4C9",
"}. c #FFE7D0",
"|. c #FFEBD9",
" X c #FFF0E1",
".X c #FFF3E8",
"XX c #FFF4EA",
"oX c #FFF5EC",
"OX c gray94",
"+X c #FFF8F2",
"@X c #FFFAF6",
"#X c #FFFCFA",
"$X c #FFFDFC",
"%X c #FFFEFD",
"&X c #FFFEFE",
"*X c gray100",
"=X c None",
/* pixels */
"=X=X=X=X=X=X=X=X=X=X=X=X3 < < < < < 2 < =X=X=X=X=X=X=X=X=X=X",
"=X=X=X=X=X=X=X=X=X=X< 9 3 i < < 3 3 0 0 < < =X=X=X=X=X=X=X=X",
"=X=X=X=X=X=X=X=X=X< i < 0 < < < 3 3 < 4 0 < =X=X=X=X=X=X=X=X",
"=X=X=X=X=X=X=X=X< z < 6 8 < < 5 5 < < < < i < =X=X=X=X=X=X=X",
"=X=X=X=X=X=X=X< i 5 w w < < < < 0 2 < < < < i < =X=X=X=X=X=X",
"=X=X=X=X=X=X< 0 i < 0 < < < < < < 0 6 < < < < i 0 =X=X=X=X=X",
"=X=X=X=X=X=X5 y u i < < < < [.[.< < q q 2 < < < w w =X=X=X=X",
"=X=X=X=X2 p b 0 0 < < < < [.[.[.[.< < 5 0 0 < < < w w =X=X=X",
"=X=X=X< w v 5 2 < < < [.[.[.[.[.[.[.< < < w a 5 < < 6 q =X=X",
"=X=X=X< < < < < < [.[.[. X#XoX|.@X%XoX[.< < < 5 i < < 5 =X=X",
"=X=X=X< < 6 1 [.[.[.[.XX&X*X*XXX*X*X&X.X[.[.< < < < < < =X=X",
"=X=X=X=X=Xm 7 < < [.[.l.q.i.OXP.y.y.U.$X[.[.[.[.8 0 < < =X=X",
"=X=X=X=X=X=X0 0 c A.[., o & I.y.@ @ y.+X[.[.< w x =X=X=X=X=X",
"=X=X=X=X=X=X< 5 l v.[.> X % x.r.@ @ t.}.[.[.i 0 < =X=X=X=X=X",
"=X=X=X=X=X=X=X=X=X[.[.a.s u.S.k.w.e.z.{.[.[.< < < =X=X=X=X=X",
"=X=X=X=XM./.E.h.=X[.[.[.[.[.[.Z.[.[.{.{.{.[.=X=X=X=X=X=X=X=X",
"=X=X=X=X_.{.{.[.g.=X`.{.{.{.n p.p.{.{.{.~.=X=X=X[.[.=X=X=X=X",
"=X=X=X=X[.C.C.{.!.-.f.).'.{.{.{.J.{.{.N.=X=XR.[.{.{.[.=X=X=X",
"=X=X=X[.[.b.C.[.[.h d &.{ ,.c.{.m.L.0.=.f =X[.[.G.V.[.[.=X=X",
"=X=X=X[.[.F.K.[.d.d d ` X.R r d r Y | [ d k (.D.H.n.W.{.=X=X",
"=X=X=X=XY.T.^.[.j d d I X.+.>.^ %.Y | ' d d {.Q.B.B.Q.{.=X=X",
"=X=X=X=X=X=X=X;.g d d I X. ...Y Q 6.Y T d d s.{.{.{.{.[.=X=X",
"=X=X=X=X=X=X=X=Xd d d I +.X.! Y 2.8.~ / d d e j.].[.{.=X=X=X",
"=X=X=X=X=X=X=X=Xd d d I <.} L } <.7.~ L d d d =X=X=X=X=X=X=X",
"=X=X=X=X=X=X=X=XE Y P 5.o.Y ( Y @.1.~ &.d d d =X=X=X=X=X=X=X",
"=X=X=X=X=X=X=X) Y Y <.3.U Y Y Y } @.O.~ *.t =X=X=X=X=X=X=X=X",
"=X=X=X=X=XY Y Y ! 1.$.Y Y Y Y Y o.$.$.#.Y :.O =X=X=X=X=X=X=X",
"=X=X=X=XH N ; +.4.] Y Y Y Y Y Y ~ X.3. .Y K + =X=X=X=X=X=X=X",
"=X=X=X=XM $ * G Y Y Y Y Y =XY Y Y Y 9.} J $ .   =X=X=X=X=X=X",
"=X=X=X=X: V - C Z A F _ =X=XW W W Z S B D = # =X=X=X=X=X=X=X"
};
