/* XPM */
static char *iceape_mailnews[] = {
/* columns rows colors chars-per-pixel */
"32 32 162 2",
"   c #1F1F73",
".  c #383460",
"X  c #3E3A68",
"o  c #232276",
"O  c #2E2B72",
"+  c #22227C",
"@  c #2D2D7E",
"#  c #423B78",
"$  c #4D455C",
"%  c #574D5B",
"&  c #5B505B",
"*  c #6C5D5E",
"=  c #75665F",
"-  c #514966",
";  c #564D6B",
":  c #5D526A",
">  c #474273",
",  c #48407F",
"<  c #524A74",
"1  c #554D79",
"2  c #5C5277",
"3  c #63586A",
"4  c #625774",
"5  c #645872",
"6  c #6B5F71",
"7  c #746666",
"8  c #7C6B63",
"9  c #7D6D6A",
"0  c #7F7068",
"q  c #6E6478",
"w  c #857367",
"e  c #82726A",
"r  c #88776B",
"t  c #8E7C6E",
"y  c #927F6F",
"u  c #837670",
"i  c #94806F",
"p  c #958372",
"a  c #998674",
"s  c #9B8877",
"d  c #9E8B7A",
"f  c #A18F7E",
"g  c #252586",
"h  c #2B2B84",
"j  c #27278E",
"k  c #29298B",
"l  c #302F85",
"z  c #35358F",
"x  c #272790",
"c  c #292995",
"v  c #25239A",
"b  c #2C2C9C",
"n  c #2F309F",
"m  c #303096",
"M  c #383892",
"N  c #32329E",
"B  c #1D1DAF",
"V  c #1F1FB9",
"C  c #2020A0",
"Z  c #2E2EA2",
"A  c #2D2DAB",
"S  c #2F30A1",
"D  c #3434A2",
"F  c #3B3BA4",
"G  c #3434AB",
"H  c #3A3BAE",
"J  c #2727B5",
"K  c #2C2CB3",
"L  c #2525BC",
"P  c #3535B2",
"I  c #3738B3",
"U  c #3B3BB4",
"Y  c #3535B9",
"T  c #5B5485",
"R  c #47479A",
"E  c #736E86",
"W  c #777083",
"Q  c #4242A6",
"!  c #4646A9",
"~  c #4B4BAB",
"^  c #5252AE",
"/  c #4647B0",
"(  c #4748B1",
")  c #4E4EB2",
"_  c #5555B2",
"`  c #5A5BBC",
"'  c #7070BD",
"]  c #2121C4",
"[  c #2222CA",
"{  c #2323D3",
"}  c #2D2DD3",
"|  c #2424DB",
" . c #2C2CDE",
".. c #3536D6",
"X. c #3A3AD3",
"o. c #3535DB",
"O. c #3C3CDC",
"+. c #2626E4",
"@. c #2828E6",
"#. c #2727E8",
"$. c #2B2BE8",
"%. c #3232E4",
"&. c #3434E9",
"*. c #3C3CEA",
"=. c #4040D5",
"-. c #4B4BD5",
";. c #4040DB",
":. c #6262C1",
">. c #696BC3",
",. c #4A4AE3",
"<. c #4343EB",
"1. c #4B4BEB",
"2. c #5353E1",
"3. c #5454EC",
"4. c #5858ED",
"5. c #5F60F1",
"6. c #6566E2",
"7. c #6162E8",
"8. c #6061F2",
"9. c #6D6EF3",
"0. c #6F70F3",
"q. c #7071F4",
"w. c #787AF3",
"e. c #7F80EF",
"r. c #A28F80",
"t. c #A49383",
"y. c #AC9C8D",
"u. c #AF9F91",
"i. c #B09F91",
"p. c #B6A799",
"a. c #B7A899",
"s. c #BAAB9E",
"d. c #BDAEA2",
"f. c #BFB0A3",
"g. c #C0B2A5",
"h. c #C6B9AD",
"j. c #C9BCAF",
"k. c #CCBFB3",
"l. c #CEC1B5",
"z. c #CFC3B8",
"x. c #D1C5BA",
"c. c #D5C9BE",
"v. c #9194D7",
"b. c #8F92E2",
"n. c #9395E4",
"m. c #989BE3",
"M. c #9699F1",
"N. c #999CF1",
"B. c #9FA2F0",
"V. c #A0A3EF",
"C. c #A2A5F0",
"Z. c #D7CBC1",
"A. c #D8CDC3",
"S. c #DBD0C7",
"D. c #DED4CA",
"F. c #E1D7CE",
"G. c #E5DBD2",
"H. c #E9E0D7",
"J. c #EDE4DC",
"K. c #F3EBE4",
"L. c #F7F0E9",
"P. c None",
/* pixels */
"P.P.P.P.P.P.P.P.P.P.P.N D F F D F D F D n P.P.P.P.P.P.P.P.P.P.P.",
"P.P.P.P.P.P.P.P.P.D F ~ _ _ ^ ^ ~ ~ ~ ! F D D P.P.P.P.P.P.P.P.P.",
"P.P.P.P.P.P.P.D F _ _ _ ^ ^ ~ ~ ~ ! ! ! Q Q F N S P.P.P.P.P.P.P.",
"P.P.P.P.P.P.D ^ _ ^ ^ ~ ~ ~ ~ ~ ! ! Q F F F F F D N P.P.P.P.P.P.",
"P.P.P.P.P.F ^ ^ _ ~ ~ ~ ! ! ! ! Q Q F F F D F N N b S P.P.P.P.P.",
"P.P.P.P.D _ ^ ^ ~ ~ ~ ~ ! ! Q F Q N F F D N N b b b b N P.P.P.P.",
"P.P.P.D ^ ~ ~ ~ ~ ! ! ! Q Q Q F M F D N N N b b b b b b Z P.P.P.",
"P.P.D ~ ~ ~ ~ ! ! Q Q Q F M F N D D N n b b b b b b b b b S P.P.",
"P.P.F ~ ! ! ! ! Q z @ @ @ h h h k k j c b b b b b b b b v b P.P.",
"P.D ! ! ! Q Q F z * p i i t w 8 = * & .   + g x b b b b b b D P.",
"P.D Q Q Q Q F N # a t.l.h.f.a.y.t.f p p p t 8 $   j b b b b D P.",
"D F Q F F Q N l i f y.L.L.L.L.L.L.L.K.G.z.d.t.y y % j b b b S b ",
"n F F F F D b - s z.i F.L.L.L.L.L.L.L.L.L.L.L.G.t.p o b b b b b ",
"D ) :.:.` _ R y g.J.i.d J.L.L.L.L.L.L.L.L.L.L.G.a a O b b D :.F ",
"/ C.C.C.C.m.E d G.J.c.f f c.L.L.L.L.L.L.L.K.z.a y.d > >.b.B.B./ ",
"/ C.C.C.C.v.u p.G.a.a t.f i s f.k.x.Z.A.k.d a g.J.f W n.M.M.B./ ",
"U 0.0.w.e.' d g.f t.A.K.K.J.k.y.f s i y a s.G.J.J.y.q 6.9.0.q.U ",
"I 5.9.9.7.T s a g.J.K.K.K.K.K.K.K.K.K.F.f f A.J.J.s.6 ..1.5.0.U ",
"G #.@.@.{ 3 p h.K.K.K.K.K.K.K.K.K.K.K.K.J.s.a k.J.p.3 } &.&.*.P ",
"A #.@.@.[ 9 a j.J.K.K.K.K.K.K.K.K.K.K.K.K.K.h.a j.t.2 o.*.*.*.G ",
"Z } #.#.| , e a a y.g.l.S.G.K.K.K.K.K.K.K.K.K.k.p d 1 O.*.<.X.G ",
"P.P #.#.#.| ] C ; e i a p p s t.y.p.g.h.z.c.S.c.y.a < O.<.<.P P.",
"P.D +.#.#.#.#.+.{ ] V B v # : 7 e r y p a p p a a a 4 ;.<.,.G P.",
"P.P.K #.#.#.#.#.#.#.#.#.+.+.{ [ ] L L J J A A A P Y =.1.1.I P.P.",
"P.P.Z  .#.#.#.#.#.#.#.#.#.#.$.$.%.&.&.&.*.*.*.<.<.1.1.1.,.G P.P.",
"P.P.P.G #.#.#.#.#.#.#.#.#.$.$.&.&.&.*.*.<.<.<.1.1.1.3.3.D P.P.P.",
"P.P.P.P.G #.#.#.#.#.#.$.$.&.&.&.&.*.<.<.<.1.1.1.3.3.4.H P.P.P.P.",
"P.P.P.P.P.G #.#.#.$.$.$.&.&.&.*.*.<.<.<.1.1.3.3.3.4.I P.P.P.P.P.",
"P.P.P.P.P.P.A  .$.$.&.&.&.*.*.<.<.<.1.1.1.3.4.4.2.G P.P.P.P.P.P.",
"P.P.P.P.P.P.P.D K %.&.*.*.*.<.<.1.1.1.3.4.4.3.I D P.P.P.P.P.P.P.",
"P.P.P.P.P.P.P.P.P.D P ..<.<.<.1.1.1.3.4.-.U G P.P.P.P.P.P.P.P.P.",
"P.P.P.P.P.P.P.P.P.P.P.D D G H I H I I G S P.P.P.P.P.P.P.P.P.P.P."
};
