/* XPM */
static char *iceowl_[] = {
/* columns rows colors chars-per-pixel */
"32 32 256 2",
"   c #605F54",
".  c #605F58",
"X  c #616056",
"o  c #63625A",
"O  c #6C6A5E",
"+  c #6D6A67",
"@  c #716E62",
"#  c #747164",
"$  c #7A7768",
"%  c #7D7B6B",
"&  c #7F7E7B",
"*  c #DA371E",
"=  c #DA381F",
"-  c #DA391F",
";  c #DA381E",
":  c #D9381E",
">  c #D53B23",
",  c #DF4618",
"<  c #DF4619",
"1  c #DF4719",
"2  c #DA491D",
"3  c #DE5719",
"4  c #DE5A1D",
"5  c #E04618",
"6  c #E15413",
"7  c #E15615",
"8  c #E05615",
"9  c #DD6316",
"0  c #E16416",
"q  c #E36312",
"w  c #E0661A",
"e  c #E1691E",
"r  c #D84B20",
"t  c #D7612A",
"y  c #DF702A",
"u  c #E06C24",
"i  c #E07430",
"p  c #E07836",
"a  c #E07C3B",
"s  c #93584D",
"d  c #9C6C5D",
"f  c #A0745E",
"g  c #A3795E",
"h  c #807D6C",
"j  c #888472",
"k  c #83817E",
"l  c #8F8B7B",
"z  c #8D8975",
"x  c #908D7C",
"c  c #96927C",
"v  c #98967F",
"b  c #A5907E",
"n  c #E08244",
"m  c #E08A4F",
"M  c #E08F56",
"N  c #E0945E",
"B  c #E09965",
"V  c #E09F6C",
"C  c #DFA87B",
"Z  c #E1A675",
"A  c #E1AB7C",
"S  c #898681",
"D  c #898782",
"F  c #908D86",
"G  c #9F9B83",
"H  c #959189",
"J  c #9D998F",
"K  c #99968C",
"L  c #A29E8B",
"P  c #A09D91",
"I  c #A2A086",
"U  c #ADA986",
"Y  c #A6A288",
"T  c #ADA98E",
"R  c #A5A294",
"E  c #AAA696",
"W  c #ADA991",
"Q  c #ADA997",
"!  c #ACA998",
"~  c #B3AD95",
"^  c #B2AF91",
"/  c #BAB696",
"(  c #BDB997",
")  c #BCB79D",
"_  c #BAB899",
"`  c #AEAAA3",
"'  c #B1AEA6",
"]  c #BEB9A1",
"[  c #BDB9A6",
"{  c #B6B3AA",
"}  c #B9B6AD",
"|  c #BDBAAE",
" . c #BEBBB0",
".. c #C2BE9C",
"X. c #E4B285",
"o. c #E5B78B",
"O. c #E8BC95",
"+. c #E3BD93",
"@. c #C1BEB2",
"#. c #C3C09C",
"$. c #C8C49E",
"%. c #DEC29B",
"&. c #E8C09B",
"*. c #E3C299",
"=. c #C6C0A6",
"-. c #CECAA7",
";. c #CAC5AA",
":. c #CDC9AD",
">. c #CCC9A8",
",. c #CAC5A2",
"<. c #D1CBAF",
"1. c #D8D4AE",
"2. c #D4D0AA",
"3. c #CDC9B0",
"4. c #D4CFB5",
"5. c #D3CFBE",
"6. c #D6D2B2",
"7. c #D9D6B5",
"8. c #DAD6B3",
"9. c #DDD9B2",
"0. c #D7D2B8",
"q. c #D2D0BF",
"w. c #DBD7BB",
"e. c #DCD8BC",
"r. c #EAC7A3",
"t. c #EBCCA9",
"y. c #ECD2B2",
"u. c #E2DFB6",
"i. c #EDDABB",
"p. c #E6E3BB",
"a. c #E9E6BD",
"s. c #ECE8BE",
"d. c #D8D6C2",
"f. c #DEDAC0",
"g. c #D8D6C9",
"h. c #DCDACD",
"j. c #E2DDC2",
"k. c #E2DEC6",
"l. c #E1DFCA",
"z. c #E0DECD",
"x. c #E1DFD0",
"c. c #E5E1C2",
"v. c #E7E3C6",
"b. c #E5E1C5",
"n. c #E3E0C6",
"m. c #E8E3C2",
"M. c #E8E3C1",
"N. c #E8E3C5",
"B. c #E9E5C4",
"V. c #EBE6C7",
"C. c #E9E5C6",
"Z. c #EDE5C6",
"A. c #EEE1C3",
"S. c #EBE8C6",
"D. c #E5E2CA",
"F. c #E3E0CD",
"G. c #E6E3CD",
"H. c #E7E4CD",
"J. c #E3E0CB",
"K. c #EAE6C9",
"L. c #EAE6CA",
"P. c #E9E5CA",
"I. c #E9E6CD",
"U. c #EAE7CD",
"Y. c #E9E6CE",
"T. c #EAE7CF",
"R. c #E8E5CE",
"E. c #ECE7CE",
"W. c #EFE7C9",
"Q. c #ECE9CA",
"!. c #EEEACA",
"~. c #EBE8CF",
"^. c #EEEACD",
"/. c #ECE8CE",
"(. c #EEEACD",
"). c #EBE9C9",
"_. c #F0ECCF",
"`. c #F2EECE",
"'. c #F2EDCB",
"]. c #E3E1D1",
"[. c #E5E3D1",
"{. c #E6E3D4",
"}. c #E7E4D0",
"|. c #E9E6D0",
" X c #E9E6D2",
".X c #E9E7D5",
"XX c #EBE8D1",
"oX c #EBE8D3",
"OX c #EFEBD1",
"+X c #ECE9D1",
"@X c #EBE8D5",
"#X c #EAE8D6",
"$X c #ECE9D5",
"%X c #EFEBD5",
"&X c #EDEAD6",
"*X c #EFECD5",
"=X c #EFECD2",
"-X c #E7E6D8",
";X c #E8E6DC",
":X c #E8E6D8",
">X c #EBE9D9",
",X c #ECE9D8",
"<X c #ECEAD8",
"1X c #EDEADA",
"2X c #EEEBD9",
"3X c #EFECD8",
"4X c #EFECDA",
"5X c #EEEED8",
"6X c #EAE9DC",
"7X c #EFECDD",
"8X c #ECEADD",
"9X c #F2EED0",
"0X c #F2EED2",
"qX c #F0EDD1",
"wX c #F2EED4",
"eX c #F1EDD6",
"rX c #F1EED9",
"tX c #F1EEDF",
"yX c #F1EEDC",
"uX c #F5F1D6",
"iX c #F4F0D3",
"pX c #F2F0DB",
"aX c #F4F1D8",
"sX c #F5F1DA",
"dX c #F6F2DA",
"fX c #F2F0DD",
"gX c #F6F3DC",
"hX c #F6F3DE",
"jX c #F5F2DE",
"kX c #F7F4DE",
"lX c #ECEBE1",
"zX c #EEEDE2",
"xX c #EDECE3",
"cX c #F0EEE1",
"vX c #F0EFE6",
"bX c #F2F0E2",
"nX c #F3F2E1",
"mX c #F5F2E2",
"MX c #F6F4E2",
"NX c #F3F1E5",
"BX c #F5F3E6",
"VX c #F5F2E4",
"CX c #F6F5E5",
"ZX c #F9F6E3",
"AX c #F8F5E1",
"SX c #F8F6E5",
"DX c #F3F2E9",
"FX c #F4F3E8",
"GX c #F6F4EA",
"HX c #F6F5ED",
"JX c #F8F7E8",
"KX c #F9F7E9",
"LX c #F8F7EF",
"PX c #FBF9EC",
"IX c #FAF9F0",
"UX c None",
/* pixels */
"UXUXUXUXUXUXUXUXUXUXUXUXUXUXUXUXUXUXUXUXUXUXUXUXUXUXUXUXUXUXUXUX",
"UXUXUX> - - - - - - - - - - - - - > = = * > = = = = = * > s @ UX",
"UXUXUXr 5 5 , , , , , , , , , , 5 5 5 5 5 , , , 5 5 5 5 r d h UX",
"UXUXUXt 4 4 3 3 3 8 8 8 6 6 6 6 6 6 6 6 6 6 8 6 7 7 7 7 4 f D UX",
"UXUXUX%.*.+.o.X.A Z V B N M M n n a p i u u u e 0 0 0 q 4 f S UX",
"UXUXUXM.S.V.).).^.^.^.^._.W.Z.Z.A.j.i.i.i.y.t.r.&.O.o.X.C G S UX",
"UXUXUXM.c.V.S.K.K.K.K.Z.K.D.K.XXqXXXeX<X<XyXhXbXCXCXCXKXbX` S UX",
"UXUXUXM.M.!.'.'.'.`.0X0X0XD.0XyX$XL.eX>XD.XX%XJ. X#X,XbXMX' D UX",
"UXUXUXM.c.N.K.!.^.^.'.0X0X^.dXSX7XeXZXVX XdXMX%X0XdXcXcXMX' F UX",
"UXUXUXV.v.^.eXJ.K.oXJ.K.E.l.$XvX6X<XSXFXoXhXKX<XuXZXNXcXVX{ H UX",
"UXUXUXM.N.eXZX<XeXhX#XoXhXJ.R.%X].J.,X;XF.<XvX-XyXCXNXNXVX{ H UX",
"UXUXUXV.j.H.4X{.%XMX,XuXSX%XwXMX,X0XdXtXD.0X<Xx.R.#X;XcXGX} K UX",
"UXUXUXV.c.^.eXJ.D.#Xz.R.tX{.%XMX6XeXZXCX XdXZX%X0XhXtXvXVX .J UX",
"UXUXUXV.v.0XMX X0XdXR.!.%Xl.K..Xx.J.tXvX XhXSX<XdXZXNXvXGX .P UX",
"UXUXUXV.j.R..Xl.^.fX XeXhX X'.dX XK.oX Xk. X6X].oXbXvXDXHX .R UX",
"UXUXv.V.!.uX<XD.oX#Xk.^.<XH.eXMX X'.dXaX!.'.yXD.K.oX-XvXHX;.R UX",
"UXUXV.j.E.yX<X^.dX4XZ.0X Xk.R.%XJ.^.tX4X^.uXhXR.0XuXtXNXDX@.E UX",
"UXUXK.v.^..Xl.R.tX.X0XhX%X^.dXyXv.^.%X].D.%X6XR.uXkXbXGXvX| ! UX",
"UXV.V.^.dXtXR.qX#Xh.R.*XJ.0XkX<X^.uXhX X^.%X[.k.E.<XlXHX-X[ Q UX",
"UX!.N.R.yX%XqXhX4X!.eX.Xl.R.#Xz.^.dXfXR.uXhX%X!.0XyXlXIXx.[ E UX",
";.w.N.R. XJ.XXrXR.0XgXoX'.dX<XD.R.#X{.R.yXfXR.0XgXbXDXLX5.[ J UX",
"UX~ ) 4.u.V.^.XXH.oX#XK.0XhX<X0XuXhX<XtXcX<X XeXhXzXLXzX3.] l UX",
"UXUX@ j L [ 4.j.~.*X#X~.oX%XH.0XhXfXbXKXKXKXGXVXlXxXIXh.:.W UXUX",
"UXUXUXUXo # z W =.0.D.*XyX4X#X#X#X6XCXKXPXPXPXIXDXHX-X0.;.x UXUX",
"UXUXUXUXUXUXUXo $ c ~ ;.w.J.yXhXbX7XcXbXVXGX<Xg.g.d.6.8.T UXUXUX",
"UXUXUXUXUXUXUXUXUXUXO h L ) <.f. XtXMXbX6Xq.^ U ( -.8.;.$ UXUXUX",
"UXUXUXUXUXUXUXUXUXUXUXUXUXO j Y ..6.e.e.:.#...$.2.9.7.G UXUXUXUX",
"UXUXUXUXUXUXUXUXUXUXUXUXUXUXUXUX# z T ,.1.9.u.p.a.p.W . UXUXUXUX",
"UXUXUXUXUXUXUXUXUXUXUXUXUXUXUXUXUXUXUX@ c / 1.s.s._ X UXUXUXUXUX",
"UXUXUXUXUXUXUXUXUXUXUXUXUXUXUXUXUXUXUXUXUXo % I Y X UXUXUXUXUXUX",
"UXUXUXUXUXUXUXUXUXUXUXUXUXUXUXUXUXUXUXUXUXUXUXUXUXUXUXUXUXUXUXUX",
"UXUXUXUXUXUXUXUXUXUXUXUXUXUXUXUXUXUXUXUXUXUXUXUXUXUXUXUXUXUXUXUX"
};
