/* XPM */
static char *itksnap[] = {
/* columns rows colors chars-per-pixel */
"32 32 242 2 ",
"   c #000000",
".  c #010101",
"X  c #020202",
"o  c #030303",
"O  c #040404",
"+  c #050505",
"@  c #060606",
"#  c #070707",
"$  c #080808",
"%  c #090909",
"&  c #0A0A0A",
"*  c #0B0B0B",
"=  c #0C0C0C",
"-  c #0D0D0D",
";  c #0E0E0E",
":  c #0F0F0F",
">  c #101010",
",  c #111111",
"<  c #121212",
"1  c #131313",
"2  c #141414",
"3  c #151515",
"4  c #161616",
"5  c #171717",
"6  c #181818",
"7  c #191919",
"8  c #1A1A1A",
"9  c #1B1B1B",
"0  c #1C1C1C",
"q  c #1D1D1D",
"w  c #1E1E1E",
"e  c #1F1F1F",
"r  c #202020",
"t  c #212121",
"y  c #222222",
"u  c #232323",
"i  c #242424",
"p  c #252525",
"a  c #262626",
"s  c #272727",
"d  c #282828",
"f  c #292929",
"g  c #2A2A2A",
"h  c #2C2C2C",
"j  c #2D2D2D",
"k  c #2E2E2E",
"l  c #2F2F2F",
"z  c #303030",
"x  c #313131",
"c  c #323232",
"v  c #333333",
"b  c #343434",
"n  c #353535",
"m  c #363636",
"M  c #373737",
"N  c #383838",
"B  c #393939",
"V  c #3A3A3A",
"C  c #3B3B3B",
"Z  c #3C3C3C",
"A  c #3E3E3E",
"S  c #404040",
"D  c #414141",
"F  c #424242",
"G  c #434343",
"H  c #444444",
"J  c #454545",
"K  c #474747",
"L  c #484848",
"P  c #494949",
"I  c #4A4A4A",
"U  c #4B4B4B",
"Y  c #4C4C4C",
"T  c #4D4D4D",
"R  c #4E4E4E",
"E  c #4F4F4F",
"W  c #505050",
"Q  c #515151",
"!  c #525252",
"~  c #535353",
"^  c #545454",
"/  c #555555",
"(  c #565656",
")  c #585858",
"_  c #595959",
"`  c #5A5A5A",
"'  c #5B5B5B",
"]  c #5C5C5C",
"[  c #5D5D5D",
"{  c #5E5E5E",
"}  c #606060",
"|  c #616161",
" . c #626262",
".. c #636363",
"X. c #646464",
"o. c #656565",
"O. c #666666",
"+. c #676767",
"@. c #686868",
"#. c #696969",
"$. c #6A6A6A",
"%. c #6B6B6B",
"&. c #6C6C6C",
"*. c #6D6D6D",
"=. c #6E6E6E",
"-. c #6F6F6F",
";. c #707070",
":. c #717171",
">. c #727272",
",. c #737373",
"<. c #747474",
"1. c #757575",
"2. c #767676",
"3. c #777777",
"4. c #797979",
"5. c #7A7A7A",
"6. c #7B7B7B",
"7. c #7C7C7C",
"8. c #7D7D7D",
"9. c #7E7E7E",
"0. c #7F7F7F",
"q. c #808080",
"w. c #818181",
"e. c #838383",
"r. c #848484",
"t. c #858585",
"y. c #868686",
"u. c #878787",
"i. c #888888",
"p. c #898989",
"a. c #8A8A8A",
"s. c #8B8B8B",
"d. c #8C8C8C",
"f. c #8D8D8D",
"g. c #8E8E8E",
"h. c #8F8F8F",
"j. c #909090",
"k. c #919191",
"l. c #939393",
"z. c #949494",
"x. c #959595",
"c. c #969696",
"v. c #979797",
"b. c #989898",
"n. c #999999",
"m. c #9A9A9A",
"M. c #9B9B9B",
"N. c #9C9C9C",
"B. c #9D9D9D",
"V. c #9E9E9E",
"C. c #9F9F9F",
"Z. c #A0A0A0",
"A. c #A1A1A1",
"S. c #A3A3A3",
"D. c #A4A4A4",
"F. c #A5A5A5",
"G. c #A7A7A7",
"H. c #A8A8A8",
"J. c #A9A9A9",
"K. c #AAAAAA",
"L. c #ABABAB",
"P. c #ACACAC",
"I. c #ADADAD",
"U. c #AEAEAE",
"Y. c #AFAFAF",
"T. c #B0B0B0",
"R. c #B2B2B2",
"E. c #B3B3B3",
"W. c #B4B4B4",
"Q. c #B5B5B5",
"!. c #B6B6B6",
"~. c #B7B7B7",
"^. c #B8B8B8",
"/. c #B9B9B9",
"(. c #BABABA",
"). c #BCBCBC",
"_. c #BDBDBD",
"`. c #BEBEBE",
"'. c #BFBFBF",
"]. c #C0C0C0",
"[. c #C1C1C1",
"{. c #C2C2C2",
"}. c #C3C3C3",
"|. c #C4C4C4",
" X c #C5C5C5",
".X c #C6C6C6",
"XX c #C7C7C7",
"oX c #C8C8C8",
"OX c #C9C9C9",
"+X c #CACACA",
"@X c #CBCBCB",
"#X c #CCCCCC",
"$X c #CDCDCD",
"%X c #CECECE",
"&X c #CFCFCF",
"*X c #D0D0D0",
"=X c #D1D1D1",
"-X c #D2D2D2",
";X c #D3D3D3",
":X c #D4D4D4",
">X c #D5D5D5",
",X c #D6D6D6",
"<X c #D7D7D7",
"1X c #D8D8D8",
"2X c #D9D9D9",
"3X c #DADADA",
"4X c #DBDBDB",
"5X c #DCDCDC",
"6X c #DDDDDD",
"7X c #DEDEDE",
"8X c #DFDFDF",
"9X c #E0E0E0",
"0X c #E1E1E1",
"qX c #E2E2E2",
"wX c #E3E3E3",
"eX c #E4E4E4",
"rX c #E5E5E5",
"tX c #E6E6E6",
"yX c #E7E7E7",
"uX c #E8E8E8",
"iX c #E9E9E9",
"pX c #EAEAEA",
"aX c #EBEBEB",
"sX c #ECECEC",
"dX c #EDEDED",
"fX c #EEEEEE",
"gX c #EFEFEF",
"hX c #F0F0F0",
"jX c #F1F1F1",
"kX c #F2F2F2",
"lX c #F3F3F3",
"zX c #F4F4F4",
"xX c #F5F5F5",
"cX c #F6F6F6",
"vX c #F7F7F7",
"bX c #F8F8F8",
"nX c #F9F9F9",
"mX c #FAFAFA",
"MX c #FBFBFB",
"NX c #FCFCFC",
"BX c #FDFDFD",
"VX c #FFFFFF",
/* pixels */
"=X9.m h X.~..X^.'.~.%.t m ;.f O X $ h ) ! Z 8 m [.eX=XqX:XoX&X&X",
"fXv.t ; q v.:XfXlXlXoX9.h q q O O ; $ c 1 ; 4 { ^.aXfXqX^.Y.:XaX",
"5X9.X ; O 8 v.eXfXvXvXlXD.{ 1 ; 8 t f q ) &.y.'.eXfX5XE.&.<.H.&X",
"'.D X R ) X i .XvXlXVXnX5X:XZ.w./ 9.Z.~.=XeXqXeXvXvXoXP 4 h %.D.",
"'.h O %.'.m X { qXnXVXvXqXfXaXqX5X5XfXeXaXlXeXeXlX'.D X X O c v.",
"[.f X / eXn.4 $ 6.vXnXfXaXlXlXlXfXfXaXaXlXvXaX3Xa.f X i R O 1 v.",
"&XD O f oXqXX.$ 1 n.lXlXlXnXvXnXqX3XfXvXfXlX3XX.$ X i D.'.; O v.",
"oXK $ O D ^.^.K X c [.lXvXvXfX3X3X:XeXaXaX.X/ $ X h Z.vX^.; O v.",
"g.c B q X 4 ;.D.c X R 3XfXqXqX&XqXeX=X[.a.q X ; ! '.aXaXa.O $ H.",
"! K l.v.D $ $ m 9.q O ) H.g.9.6.a.v.w.c O X h a.:XD.y.<.q X i .X",
"D %.'.5X[.%.4 O Z | 1 O c c ; $ 1 q $ X 8 X.~.5Xv.h 1 X X ; / &X",
"D a.qX5XeX:Xw.8 $ ) &.8 X ; $ O $ O ; X.[.aX3X6.q X O 1 B P P Z.",
"/ l.3X3X:X3X=X&.; 4 w.V.f X 1 ; $ 4 9.eXnXqX<.4 X 1 ! g.[.a.B w.",
"| g.:X:X=X&X[.V.m X D [.V.t 4 8 1 6.qXvXaXl.8 X t 6.oXeXqXH.P X.",
"%.l.=XqXfX5X'.Y.;.1 4 y.=X%.X $ h &XfXvX&XP X q 9.:XaX3X5X^.) ) ",
"{ w.&XeXqX5X.X~.g.t O 9.aXl.O $ Z aXlXfXg.4 O ! .XaXeX3X3XZ./ %.",
";.) E.qX3X&X.X[.H.B O <.lXn.$ $ K vXfX5X) O 1 a.3XqXqXqX=Xn.{ 6.",
"V.K y.=X:XoX[.&XE.Z O <.fXV.$ ; D lXvX3XK O B [.3X:X3X=X[.D.&.y.",
"[./ | ^.=XoX=XqX[.K O %.3Xn.; ; K fXvX3Xh O ) [.:X:X:XE.H.v.%.v.",
"&X;./ n..XoX:XeX&XR O ;.oXl.$ 1 Z 3XeX.Xq O { H.oX&X[.Y.Y.;.) '.",
"qXl.! %.H..X=XeX[.c O y.=Xg.; 1 D eXqX~.q O ! Y.=X=X&X[.Z.D X..X",
"nX^.! K V.oX=X:XV.; 1 H.aXv.$ ; D aXeX&Xi O ! E.:X5XqX.X9.m | D.",
"lXoXX.Z 9.[.5X=X) $ q [.vXn.$ $ m oXaX3Xh O P H.&X:XoXZ.%.K l.:X",
"aX5Xa.R | V.&X'.h O ) qXVXn.O ; f '.vXqX! O D E.&X=X:XH.| ! '.lX",
"fXqXZ./ R X.E.y.; 8 Z.fXfX6.O $ i '.vXeX;.O c ~.eXaX3XZ.{ | g.oX",
"5XE.n.X.B ) n.D X ! qXlXoXR O $ q D.3X=Xv.$ 4 g.5XaX3X6.| %.v.:X",
":X~.^.l.c / <.t X %.lXaXH.c O ; 1 ! | a.Z.4 $ { '.3X[.{ D { Z.3X",
"fXeX5X^.c h m 8 O K V.;.R 4 O $ ; h t P V.h O K V.^.v.R Z y.=XfX",
"vXvXfXE.c 8 t q ; 4 q 1 ; O O O $ f h X.D.i O B w.n.y./ ) E.:XqX",
"vXnXnX~.D 4 8 q $ ; 1 $ O X ; ; O 1 8 / / ; ; t ) l.X.P D y.5XaX",
"nXnXvX.X{ t $ ; 1 4 4 8 1 O t 8 O $ ; ; ; $ t f ! g./ Z P v.^.5X",
"nXnXlX=Xa.R 4 O $ $ 1 B 8 O m P $ O $ ; 1 $ t c ) a.D B 6.=X[.3X"
};
