/* XPM */
static char *icon____y_pirui__w_nad_cdyok_spulq_______out[] = {
/* columns rows colors chars-per-pixel */
"32 32 114 2",
"   c #070707",
".  c #080707",
"X  c #0C0C0C",
"o  c #110707",
"O  c #120D0D",
"+  c #1B0D0D",
"@  c #0F100F",
"#  c #12110E",
"$  c #18130B",
"%  c #1E1A0F",
"&  c #0F1010",
"*  c #131413",
"=  c #1A1313",
"-  c #161817",
";  c #1B1A15",
":  c #161919",
">  c #1B1C1B",
",  c #221313",
"<  c #231D10",
"1  c #1E201F",
"2  c #2A230D",
"3  c #37270E",
"4  c #342D0D",
"5  c #2D2513",
"6  c #20231F",
"7  c #1F2121",
"8  c #202322",
"9  c #30312D",
"0  c #3D382E",
"q  c #313330",
"w  c #393B36",
"e  c #393C3A",
"r  c #4C3D0B",
"t  c #5C480A",
"y  c #694C04",
"u  c #694F08",
"i  c #735A06",
"p  c #7B5F0A",
"a  c #605310",
"s  c #484134",
"d  c #46473C",
"f  c #49473B",
"g  c #4A493C",
"h  c #4C4C43",
"j  c #524F40",
"k  c #535243",
"l  c #595547",
"z  c #5E5847",
"x  c #54574C",
"c  c #595D4F",
"v  c #615C4B",
"b  c #5F614F",
"n  c #66644F",
"m  c #636553",
"M  c #6A6552",
"N  c #666954",
"B  c #6A6A56",
"V  c #676758",
"C  c #68665C",
"Z  c #6F6C5F",
"A  c #706E57",
"S  c #726E59",
"D  c #767255",
"F  c #76715B",
"G  c #7A755E",
"H  c #787565",
"J  c #7E7A61",
"K  c #8B6C05",
"L  c #876908",
"P  c #906F03",
"I  c #8D7509",
"U  c #937307",
"Y  c #9C7506",
"T  c #9D7D06",
"R  c #907108",
"E  c #877019",
"W  c #A17A05",
"Q  c #A87E05",
"!  c #827D63",
"~  c #9F830A",
"^  c #A98306",
"/  c #B38E05",
"(  c #BA9304",
")  c #B7990D",
"_  c #BB9C0A",
"`  c #848067",
"'  c #8B8964",
"]  c #868268",
"[  c #8A856B",
"{  c #8E896F",
"}  c #9D986F",
"|  c #8F8C77",
" . c #928C73",
".. c #969175",
"X. c #9D9376",
"o. c #9A9579",
"O. c #9F997D",
"+. c #A39C7E",
"@. c #A89B7F",
"#. c #A6A077",
"$. c #AAA27D",
"%. c #B7A17D",
"&. c #B3AC7E",
"*. c #A7A082",
"=. c #ABA484",
"-. c #B1A584",
";. c #B4AA8A",
":. c #C2BB85",
">. c #CBBD93",
",. c #D0C39E",
"<. c #E0D59F",
"1. c #D9D0A6",
"2. c #E1D7A5",
"3. c None",
/* pixels */
"3.3.3.0 f f f f f g g g g g j k z v n M M B S F G G G G F 3.3.3.",
"3.3.3.l B B N B B B B B B B F G ! [  ...X.O.+.=.;.;.;.;.@.3.3.3.",
"3.3.3.m B N N N N B B B N B S F J ! [  ...o.+.*.=.;.;.;.3.3.3.3.",
"3.3.s N N N m N N B B N N N B F G ! ] { ..o.O.+.=.;.;.;.3.3.3.3.",
"3.3.k m m m m m m N N m N N M A F J ` [  .o.O.+.=.=.;.-.3.3.3.3.",
"3.3.b m m m m m m m m m m m n B V m V V H | O.*.=.=.=.+.3.3.3.3.",
"3.s m m m m m m m m c h d w 9 8 > > 1 > 1 8 e C  .*.$.X.3.3.3.3.",
"3.k m m m m m x w 6 : : : : > > 1 1 8 8 8 8 8 8 8 w Z 3.3.3.3.3.",
"3.m V m m c q - - - - - : > > > > > 7 7 7 8 8 8 8 8 7 3.3.3.3.3.",
"3.3.3.3.h > - * - - - - : > > > > > > > > 1 7 8 8 7 > 3.3.3.3.3.",
"3.3.3.3.3.* * * - - : : > > > > > > 7 > > > > > > - * X * O 3.3.",
"3.3.3.3.3.3.* - - - - - : > > > > > 1 > > > > : * * * X * * * 3.",
"3.3.3.3.3.3.O * - - : - > > > > > > > > - - * * * X X X * * * = ",
"3.3.3.3.3.3.+ * * - - - : > > > > > > - * * * X X X . X * * - = ",
"3.3.3.3.3.3.O - * - - - : ; ; ; - - * * * X X . . . . X X * - ; ",
"3.3.3.3.3.3.* * - - : ; ; - * * - * X X X X .       . X * * - , ",
"3.3.3.3.3.O * - : > > ; - - * # O X X X X .         . X * * + 3.",
"3.3.3.3.3 * * - : > > - * * # # X . . . . X     . . X 3.3.3.3.3.",
"E ) / ^ R % * - ; ; ; * * # X X O - * * * * # # X X X 3.3.3.3.3.",
"3._ ( Q Y 2 * - - - - - * # X X X X X * * * * * - * X 3.3.3.3.3.",
"3.~ / W U 2 * - * * * * * # O O X X X # * - - - * * * 3.3.3.3.3.",
"3.L ^ Y R < * * * * # # X X X * * * * * * * X X X X & O 3.3.3.3.",
"3.u T P i $ * X O X X X X X * * * * * X X X X X X X X O 3.3.3.3.",
"3.3.I K t * * X X X X * * * * * * * X X X X X X X X X X 3.3.3.3.",
"3.3.p K r * * * * * - * * * * * * * * X X X X X X X X X 3.3.3.3.",
"3.3.y U 4 * * * * - * * * * * = 3.3.3.O & & & * @ X X X 3.3.3.3.",
"3.3.3.I ; * * * * * * - * O 3.3.3.3.3.3.$ * * * * * * X o 3.3.3.",
"3.3.3.a - * * * * * - - - 3.3.3.3.3.3.3.3.O * * * * X X o 3.3.3.",
"3.3.3.5 - - - ; ; ; ; ; ; 3.3.3.3.3.3.3.3.3.X X X X X X X 3.3.3.",
"3.3.3.3.; s D ' } #.&.:.3.3.3.3.3.3.3.3.3.3.X X . . . o 3.3.3.3.",
"3.3.3.3.3.3.3.3.,.1.2.<.3.3.3.3.3.3.3.3.3.3.$ X o 3.3.3.3.3.3.3.",
"3.3.3.3.3.3.3.3.3.3.3.>.%.3.3.3.3.3.3.3.3.3.3.3.3.3.3.3.3.3.3.3."
};
