/* XPM */
static char * jsymphonic_xpm[] = {
"32 32 330 2",
"  	c None",
". 	c #B4A9CC",
"+ 	c #9689AE",
"@ 	c #9187AB",
"# 	c #B4B1C0",
"$ 	c #A7A0C2",
"% 	c #7F73BB",
"& 	c #8164E8",
"* 	c #8768F7",
"= 	c #8A6CF9",
"- 	c #947EF2",
"; 	c #9584DF",
"> 	c #A49ED5",
", 	c #B9B2DA",
"' 	c #BDBCD6",
") 	c #B5B4C7",
"! 	c #8E81C2",
"~ 	c #8970EC",
"{ 	c #785CE2",
"] 	c #7251E7",
"^ 	c #7250F7",
"/ 	c #7351FB",
"( 	c #7D64F5",
"_ 	c #7F68F2",
": 	c #826EE9",
"< 	c #9E8FF1",
"[ 	c #A999E4",
"} 	c #A39ACD",
"| 	c #B7B6CE",
"1 	c #A49ABF",
"2 	c #5437B2",
"3 	c #5D32E2",
"4 	c #6436CE",
"5 	c #6F48E0",
"6 	c #5F40E1",
"7 	c #6944EE",
"8 	c #7D68F9",
"9 	c #6E56E9",
"0 	c #7866F4",
"a 	c #6C57EA",
"b 	c #745BE9",
"c 	c #876EF8",
"d 	c #8C7AF2",
"e 	c #9F8FE2",
"f 	c #BAB3E0",
"g 	c #B2ADCD",
"h 	c #BFBECB",
"i 	c #A09DB6",
"j 	c #3C258E",
"k 	c #492EC7",
"l 	c #4E28CC",
"m 	c #4D29CE",
"n 	c #502AD4",
"o 	c #6A48DF",
"p 	c #5C3CC4",
"q 	c #8066E7",
"r 	c #7250EA",
"s 	c #7658F2",
"t 	c #785DF8",
"u 	c #725BEF",
"v 	c #6E57E2",
"w 	c #715BEF",
"x 	c #7C63F7",
"y 	c #9985F7",
"z 	c #B1A9E2",
"A 	c #B2AADD",
"B 	c #A5A0D2",
"C 	c #BFBCD4",
"D 	c #E0E0E6",
"E 	c #AAAABB",
"F 	c #3B3774",
"G 	c #332E8C",
"H 	c #412CB1",
"I 	c #472BBA",
"J 	c #482AC1",
"K 	c #4F28C7",
"L 	c #5229C3",
"M 	c #5734C8",
"N 	c #5637CE",
"O 	c #5D3DD8",
"P 	c #6F51EB",
"Q 	c #5D40D6",
"R 	c #6244F0",
"S 	c #7E5DF3",
"T 	c #8B72F9",
"U 	c #7D64F6",
"V 	c #7D6FC8",
"W 	c #776D9E",
"X 	c #B5AED9",
"Y 	c #DCD9EE",
"Z 	c #D1D1D1",
"` 	c #BCBBC3",
" .	c #7E8693",
"..	c #363861",
"+.	c #343270",
"@.	c #3C3583",
"#.	c #3B2A92",
"$.	c #3E27A7",
"%.	c #4428B8",
"&.	c #462AB5",
"*.	c #492DBB",
"=.	c #4A2FC3",
"-.	c #4E31CB",
";.	c #6040D5",
">.	c #5937D5",
",.	c #5938D3",
"'.	c #583BBE",
").	c #9585D8",
"!.	c #9288C7",
"~.	c #E5E3F6",
"{.	c #C6C7CE",
"].	c #C9CBD2",
"^.	c #D3D4D8",
"/.	c #DCDCE3",
"(.	c #80808A",
"_.	c #5D5D5D",
":.	c #5B5B5B",
"<.	c #545454",
"[.	c #4C4C4C",
"}.	c #4A4A4A",
"|.	c #AAAB9B",
"1.	c #8E8E90",
"2.	c #535D63",
"3.	c #393D51",
"4.	c #383B5F",
"5.	c #35366B",
"6.	c #35367B",
"7.	c #35319A",
"8.	c #352FAC",
"9.	c #4127B7",
"0.	c #4A2CBE",
"a.	c #5129BD",
"b.	c #4E26B9",
"c.	c #5335C0",
"d.	c #4824BE",
"e.	c #412CA9",
"f.	c #7C75B2",
"g.	c #A0A0AE",
"h.	c #ADAFB2",
"i.	c #D8D8D8",
"j.	c #D6D7D6",
"k.	c #C7C7C8",
"l.	c #DFDFE0",
"m.	c #B5B5B5",
"n.	c #BCBCBC",
"o.	c #8C8D91",
"p.	c #5B5B66",
"q.	c #6D6E75",
"r.	c #6A6877",
"s.	c #454456",
"t.	c #353652",
"u.	c #36365D",
"v.	c #393279",
"w.	c #362D91",
"x.	c #3D2AAC",
"y.	c #4337B8",
"z.	c #7063C9",
"A.	c #AEA4EC",
"B.	c #9284D8",
"C.	c #5B5495",
"D.	c #A1A0A9",
"E.	c #919298",
"F.	c #B7BBBC",
"G.	c #C6C9CC",
"H.	c #D4D6D6",
"I.	c #DFE0E5",
"J.	c #CCCED3",
"K.	c #AFAFB3",
"L.	c #BABABA",
"M.	c #A7A5AD",
"N.	c #63646C",
"O.	c #818187",
"P.	c #7E7C87",
"Q.	c #55546B",
"R.	c #363654",
"S.	c #2B2B53",
"T.	c #2E2D59",
"U.	c #2D2681",
"V.	c #322E90",
"W.	c #333187",
"X.	c #928ADD",
"Y.	c #342785",
"Z.	c #BBB7D8",
"`.	c #B4B4BC",
" +	c #989BA0",
".+	c #5B5B60",
"++	c #B6B6C1",
"@+	c #C7C7CA",
"#+	c #B6B7BD",
"$+	c #A3A3A9",
"%+	c #7C807E",
"&+	c #C8C7CB",
"*+	c #7D7C83",
"=+	c #2B2B34",
"-+	c #14141D",
";+	c #474F4D",
">+	c #2D3638",
",+	c #19212F",
"'+	c #242B4E",
")+	c #2B297D",
"!+	c #332B9D",
"~+	c #6762A0",
"{+	c #C0C0C7",
"]+	c #B9B9C4",
"^+	c #626270",
"/+	c #92929C",
"(+	c #AAAAB4",
"_+	c #909396",
":+	c #73767A",
"<+	c #121519",
"[+	c #292929",
"}+	c #464648",
"|+	c #808186",
"1+	c #616162",
"2+	c #1D1D22",
"3+	c #555663",
"4+	c #767583",
"5+	c #6A6975",
"6+	c #4C5058",
"7+	c #393A48",
"8+	c #262D38",
"9+	c #505A62",
"0+	c #9E9EA9",
"a+	c #7A7A86",
"b+	c #52525D",
"c+	c #888890",
"d+	c #7B7B81",
"e+	c #8B8E94",
"f+	c #555559",
"g+	c #101214",
"h+	c #0E0F0E",
"i+	c #121619",
"j+	c #120F17",
"k+	c #222329",
"l+	c #C2C2C5",
"m+	c #4C4C52",
"n+	c #151213",
"o+	c #867C88",
"p+	c #757474",
"q+	c #7C757C",
"r+	c #464945",
"s+	c #6A6B78",
"t+	c #7C7D90",
"u+	c #808082",
"v+	c #4A4A51",
"w+	c #83848B",
"x+	c #98989C",
"y+	c #5F6263",
"z+	c #676A6D",
"A+	c #595B5B",
"B+	c #252529",
"C+	c #0F0D17",
"D+	c #AAA8BF",
"E+	c #63607E",
"F+	c #1D1B2C",
"G+	c #55555E",
"H+	c #BABBBF",
"I+	c #504E4F",
"J+	c #7E7F82",
"K+	c #797978",
"L+	c #514590",
"M+	c #3A2C75",
"N+	c #29224A",
"O+	c #9592A0",
"P+	c #989898",
"Q+	c #2E2E2E",
"R+	c #B2B2B2",
"S+	c #746AA3",
"T+	c #3B2C87",
"U+	c #6A619E",
"V+	c #B5B4CA",
"W+	c #191918",
"X+	c #9593A6",
"Y+	c #4B4174",
"Z+	c #49446B",
"`+	c #9794A5",
" @	c #94978F",
".@	c #474669",
"+@	c #5B508A",
"@@	c #BDB3DC",
"#@	c #9493A3",
"$@	c #716F79",
"%@	c #383740",
"&@	c #888790",
"*@	c #3F3D45",
"=@	c #463C70",
"-@	c #513E9F",
";@	c #7A6CB8",
">@	c #222222",
",@	c #8B8B8A",
"'@	c #B7B4BA",
")@	c #3B3844",
"!@	c #5A5864",
"~@	c #282831",
"{@	c #535251",
"]@	c #382977",
"^@	c #3B2D86",
"/@	c #5D548C",
"(@	c #787878",
"_@	c #111111",
":@	c #100F11",
"<@	c #020207",
"[@	c #050008",
"}@	c #18141B",
"|@	c #7C789B",
"1@	c #3A3264",
"2@	c #2A2159",
"3@	c #7D7881",
"4@	c #7E7A83",
"5@	c #A6A4B2",
"6@	c #1E1B2F",
"7@	c #281F3F",
"8@	c #414054",
"9@	c #25242F",
"0@	c #A8A6AB",
"a@	c #7F7E86",
"b@	c #5E5D60",
"c@	c #9A97A7",
"d@	c #564F5E",
"e@	c #171619",
"f@	c #575056",
"g@	c #2A2832",
"h@	c #2C2B36",
"i@	c #676668",
"j@	c #1E1C1F",
"k@	c #919191",
"l@	c #141413",
"m@	c #131318",
"n@	c #141415",
"o@	c #222024",
"                                                                ",
"                                                                ",
"                                                                ",
"                                                                ",
"                                                                ",
"        . + @ #                                                 ",
"    $ % & * = - ; > , '                                         ",
"  ) ! ~ { ] ^ / ( _ : < [ } |                                   ",
"  1 2 3 4 5 6 7 8 9 0 a b c d e f g h                           ",
"  i j k l m n o p q r s t u v w x y z A B C D                   ",
"  E F G H I J K L M N O P Q R S T U V W X Y     Z               ",
"  `  ...+.@.#.$.%.&.*.=.-.;.>.,.'.).!.~.{.].^./.(._.:.<.[.}.[.:.",
"    |.1.2.3.4.5.6.7.8.9.0.a.b.c.d.e.f.g.h.i.j.k.l.m.n.          ",
"        o.p.q.r.s.t.u.v.w.x.y.z.A.B.C.D.E.F.G.H.I.J.K.L.        ",
"            M.N.O.P.Q.R.S.T.U.V.W.X.Y.Z.`. +.+++@+#+$+%+        ",
"                  &+*+=+-+;+>+,+'+)+!+~+{+]+^+/+(+_+:+<+[+}+|+  ",
"                      1+2+3+4+5+6+7+8+9+0+a+b+c+d+e+f+g+h+i+j+k+",
"              l+m+n+o+p+        q+r+s+t+u+v+w+x+y+z+      A+B+C+",
"          D+E+F+G+  H+I+                J+K+                    ",
"        L+M+N+O+      P+Q+R+                                    ",
"      S+T+U+V+            W+X+                                  ",
"      Y+Z+`+ @              .@+@@@                              ",
"      #@$@%@&@*@              =@-@;@                            ",
"    >@,@'@)@!@~@{@            g.]@^@/@                          ",
"    (@_@:@<@[@}@                |@1@2@                          ",
"                            3@4@5@6@7@8@                        ",
"                            9@0@a@b@c@d@                        ",
"                            e@f@g@h@i@j@                        ",
"                            k@l@m@n@o@                          ",
"                                                                ",
"                                                                ",
"                                                                "};
