/* XPM */
static char *latexila[] = {
/* columns rows colors chars-per-pixel */
"22 22 176 2",
"   c #000000",
".  c #000001",
"X  c #000101",
"o  c #000002",
"O  c #010002",
"+  c #000202",
"@  c #000303",
"#  c #000404",
"$  c #000505",
"%  c #090906",
"&  c #000A0B",
"*  c #000C0C",
"=  c #000E0E",
"-  c #181500",
";  c #1B180D",
":  c #001010",
">  c #001212",
",  c #001414",
"<  c #001515",
"1  c #001616",
"2  c #001717",
"3  c #041519",
"4  c #001919",
"5  c #00191A",
"6  c #001A1A",
"7  c #001B1B",
"8  c #001F1F",
"9  c #231F00",
"0  c #2D1B06",
"q  c #310B14",
"w  c #322D00",
"e  c #312E00",
"r  c #002020",
"t  c #002121",
"y  c #002122",
"u  c #002222",
"i  c #002223",
"p  c #002424",
"a  c #002425",
"s  c #002828",
"d  c #002C2C",
"f  c #002F30",
"g  c #003737",
"h  c #003738",
"j  c #00303D",
"k  c #003B3C",
"l  c #003C3D",
"z  c #003E3E",
"x  c #003E3F",
"c  c #422A30",
"v  c #084433",
"b  c #494D00",
"n  c #5D5400",
"m  c #6E5B00",
"M  c #6E5D01",
"N  c #5F6C05",
"B  c #7D6B00",
"V  c #737504",
"C  c #7A7E00",
"Z  c #71730C",
"A  c #69691F",
"S  c #727C27",
"D  c #004141",
"F  c #004343",
"G  c #004344",
"H  c #004748",
"J  c #004849",
"K  c #00494A",
"L  c #004D4E",
"P  c #004F50",
"I  c #005253",
"U  c #005354",
"Y  c #005457",
"T  c #005A5B",
"R  c #005B5D",
"E  c #005D5F",
"W  c #005E5F",
"Q  c #005E60",
"!  c #006061",
"~  c #006162",
"^  c #006263",
"/  c #006466",
"(  c #006566",
")  c #00646A",
"_  c #006E70",
"`  c #006F70",
"'  c #007071",
"]  c #007273",
"[  c #007374",
"{  c #007475",
"}  c #007677",
"|  c #007678",
" . c #007A7B",
".. c #007C7D",
"X. c #007E7F",
"o. c #3B626C",
"O. c #595A47",
"+. c #7E7E40",
"@. c #6A6D68",
"#. c #807C02",
"$. c #7C8F32",
"%. c #8D8400",
"&. c #8D8703",
"*. c #969E1D",
"=. c #A59000",
"-. c #A49505",
";. c #96A33D",
":. c #C7C813",
">. c #EAC100",
",. c #A9AC41",
"<. c #BCBC54",
"1. c #82896C",
"2. c #808478",
"3. c #858C7B",
"4. c #AEAE68",
"5. c #D3D453",
"6. c #F1F148",
"7. c #E7E954",
"8. c #007F80",
"9. c #6D6990",
"0. c #008081",
"q. c #008485",
"w. c #008688",
"e. c #00898B",
"r. c #008A8B",
"t. c #009091",
"y. c #009495",
"u. c #009C9D",
"i. c #009FA1",
"p. c #00A0A3",
"a. c #00A2A3",
"s. c #00A1A4",
"d. c #00A2A4",
"f. c #00ABAD",
"g. c #00ADAE",
"h. c #00ADAF",
"j. c #00AEB0",
"k. c #00B0B2",
"l. c #00B0B3",
"z. c #00B7BA",
"x. c #00B8BB",
"c. c #00BABB",
"v. c #00BDBE",
"b. c #00BEBE",
"n. c #5B8E91",
"m. c #11BAC3",
"M. c #00C2C5",
"N. c #00C6C8",
"B. c #02C4CA",
"V. c #00C9CA",
"C. c #00C8CB",
"Z. c #00C9CB",
"A. c #00CACB",
"S. c #00CACC",
"D. c #00CACE",
"F. c #00CDD2",
"G. c #00CFD2",
"H. c #00D0D2",
"J. c #00D4D6",
"K. c #00D5D7",
"L. c #00D6D8",
"P. c #00D8DB",
"I. c #00E4E7",
"U. c #00EBED",
"Y. c #00F2F5",
"T. c #00F3F5",
"R. c #00F5F7",
"E. c #8E9384",
"W. c #A2A48A",
"Q. c #F3F39F",
"!. c #A2A3C7",
"~. c #C0BED3",
"^. c #E1E7CC",
"/. c #FFFFFC",
"(. c #FFFFFF",
"). c None",
/* pixels */
").).).).).).).).).).).).).).).).).).).).).).",
").).).).).).).).).).).).).).).).).).).).).).",
").).).).).).).).).* ).  ).).).).).).).).).).",
").).).).).).).).)._ ).  ).).).).).).).).).).",
").).).).).).).).).b.).  ).).).).).).).).).).",
").).).).).> [ )./ f.).s / ).).  i   ).).).).",
").).).).).).U | u.a.).p c.).  I.L ).).).).).",
").).  # ).).  8.K.y.).i T.  g.K.  ).).).).).",
").).).  b.  ).5 A.t.).i H.~ L.i.x s ).).).).",
").).).).  A.x p g.q.).5 a.I H k | ).).).).).",
").).).).).# D.N.G _   ,  .5 R.h s r.g   ).).",
").  , * i p , * Q 5 # * p 2 5 i i f ).).).).",
").).).  P.A.U.W x D   P { { d T.H.s.).  ).).",
").).).  A.K.D K ' W   k.c.a.~   k.m.3 Q.  ).",
").).).X.D.~ )., r.' f X.B.G.  ).0 c :.A ,.).",
").).)./ 0.  ).).g.r.T Y D.B.).).% 9.2.@.<.).",
").).* K   ).).).Q z.) o.n.q 1.  O.V 7.~.N ).",
").).    ).).).).  G.v   O     E.*.(.Z ;.m ).",
").).  ).).).).).).  j ; 5.W.6.3.4.b ^.&.M   ",
").).).).).).).).).).).).S (.+.!.(.$.-.=.  ).",
").).).).).).).).).).).).  n #.C B >.&.  ).).",
").).).).).).).).).).).).).).9 e e - ).).).)."
};
