/* XPM */
static char *licq[] = {
/* columns rows colors chars-per-pixel */
"32 32 151 2",
"   c #000100",
".  c #000C00",
"X  c #001200",
"o  c #001B00",
"O  c #002300",
"+  c #002C00",
"@  c #003400",
"#  c #003A00",
"$  c #004400",
"%  c #004B00",
"&  c #005300",
"*  c #005C00",
"=  c #006300",
"-  c #006C00",
";  c #0F6805",
":  c #017400",
">  c #017C01",
",  c #677819",
"<  c #6D4724",
"1  c #744426",
"2  c #784726",
"3  c #724B24",
"4  c #7D4B24",
"5  c #8E581F",
"6  c #855221",
"7  c #BE7E2A",
"8  c #018400",
"9  c #098403",
"0  c #028C00",
"q  c #098B00",
"w  c #0D8E09",
"e  c #10830C",
"r  c #009200",
"t  c #0C9600",
"y  c #049A01",
"u  c #0C9C00",
"i  c #119B01",
"p  c #10910C",
"a  c #159D10",
"s  c #219119",
"d  c #229A19",
"f  c #03A500",
"g  c #0FA300",
"h  c #01AF00",
"j  c #0CAB00",
"k  c #12A400",
"l  c #16AB00",
"z  c #18AD00",
"x  c #1AAD09",
"c  c #05B300",
"v  c #0AB600",
"b  c #0DBC00",
"n  c #13B600",
"m  c #1BB400",
"M  c #11BE00",
"N  c #1BBB01",
"B  c #1EA710",
"V  c #33A20A",
"C  c #22B402",
"Z  c #20BA00",
"A  c #39B00A",
"S  c #25A31B",
"D  c #2BBA12",
"F  c #329C26",
"G  c #33A626",
"H  c #3BA42D",
"J  c #3AB52C",
"K  c #468C0F",
"L  c #4C8314",
"P  c #5F9D10",
"I  c #769A16",
"U  c #56BD0B",
"Y  c #46BB35",
"T  c #14C300",
"R  c #19C400",
"E  c #1CCB00",
"W  c #22C300",
"Q  c #22CE00",
"!  c #2ACD00",
"~  c #2BC60A",
"^  c #37CF0D",
"/  c #23D200",
"(  c #2CD400",
")  c #2DDD00",
"_  c #31D600",
"`  c #35DE00",
"'  c #38D803",
"]  c #33C416",
"[  c #33E200",
"{  c #39E303",
"}  c #3CEC00",
"|  c #39E008",
" . c #5CCE0B",
".. c #41CE1E",
"X. c #42EF00",
"o. c #43F400",
"O. c #48F602",
"+. c #47F800",
"@. c #4CFC00",
"#. c #4FF908",
"$. c #51EF12",
"%. c #44C428",
"&. c #50D02E",
"*. c #50C935",
"=. c #5ECD3F",
"-. c #5AD635",
";. c #66FC22",
":. c #70FF2C",
">. c #6BF133",
",. c #77FF35",
"<. c #5BC144",
"1. c #6DDC47",
"2. c #6FD254",
"3. c #70D252",
"4. c #75D758",
"5. c #7BF841",
"6. c #9F9B1E",
"7. c #A2B71B",
"8. c #AA9720",
"9. c #AA9820",
"0. c #BAA223",
"q. c #CB880E",
"w. c #E59B07",
"e. c #D9B30F",
"r. c #E3BF0A",
"t. c #F6BE02",
"y. c #FFBC00",
"u. c #EABE1B",
"i. c #C89322",
"p. c #DE972B",
"a. c #E09E28",
"s. c #8CC116",
"d. c #FFCE00",
"f. c #FFD500",
"g. c #FFDB00",
"h. c #ECC518",
"j. c #FFEC00",
"k. c #F7E50B",
"l. c #F9EC08",
"z. c #FFF400",
"x. c #FFFD00",
"c. c #85FF47",
"v. c #92FF58",
"b. c #81DD61",
"n. c #85E361",
"m. c #90E46C",
"M. c #A3F17B",
"N. c #ADFF7B",
"B. c #AFF784",
"V. c #BBFF8D",
"C. c None",
/* pixels */
"C.C.C.C.C.C.C.C.C.C.C.C.C.C.            C.C.C.C.C.C.C.C.C.C.C.C.",
"C.C.C.C.C.C.C.C.C.C.C.C.C.  + 8 r r 0 * . C.C.C.C.C.C.C.C.C.C.C.",
"C.C.C.C.C.C.C.C.      C.C.o r Y M.M.2.a :   C.C.C.C.C.C.C.C.C.C.",
"C.C.C.C.C.C.  O = - - +   = x :.@.;.5.m.r O C.C.C.C.C.C.C.C.C.C.",
"C.C.C.C.C.  $ r Y b.Y r @ 0 ` @.@.@.+.>.S $   . @ $ o   C.C.C.C.",
"C.C.C.C.C.+ r 4.N.c.c.-.r 0 +.@.@.O.+.O.S # $ 0 w p 8 &   C.C.C.",
"C.C.C.C.  = Y v.@.@.@.@.m r @.@.+.+.o.o.0 8 0 W | ..G 8 $   C.C.",
"C.C.C.C.  : *.@.@.@.@.@.o.0 ` +.o.o.} ! 8 u [ [ [ [ ] d > X C.C.",
"C.C.C.C.  = D @.@.@.@.@.@.m l +.+.o.} k y [ [ [ [ ) ( S 8 @ C.C.",
"C.C.C.C.C.O r } @.@.@.@.+.( 0 } o.} [ 8 / [ [ ) ) ( ( B > @ C.C.",
"C.C.C.      = g +.@.@.@.O.o.0 ! } } l t [ [ [ ) ) ) / w : X C.C.",
"C.C.. * r r 0 0 u O.O.O.o.o.l l } ( > Q [ ` ) ( / / u > + C.C.C.",
"C.  & S n.c.$.( u u { O.o.} U I s.P t [ [ ) ) ( m 9 - +   C.C.C.",
"C.  8 b.,.@.@.+.o.k 0 ! } 7.p.h.h.a.0.' ) N t > : & .   C.C.C.C.",
"C.X 0 V.@.@.+.+.+.o.N > P a.l.x.x.z.i., > : : : : - : % o   C.C.",
"C.X 0 B.@.+.+.o.o.} X.( 9.h.x.x.x.z.r.2 l N E E E E n 9 - +   C.",
"C.  > <.#.O.o.o.} } ( m 9.k.x.x.z.g.t.1 / / E E E R T T > =   C.",
"C.C.+ 8 k ( _ ! l 9 > q 6.u.z.j.f.y.q.< 9 R E E R T T b 8 = X C.",
"C.C.  X % > > > i Z [ [  .8.e.d.y.w.4 L 9 : k R T T b v 8 = . C.",
"C.C.C.  % > l ) } } { ` ' L 3 6 6 1 L E E g - 0 T b b f > *   C.",
"C.C.  & q ^ } } [ [ [ ) ! : C A V ; R E R R j - > u r : = @   C.",
"C.C.O > <.} } [ [ [ ) ) i q / / / : k R R T T j - * = & +   C.C.",
"C.  # s 1.} [ [ [ ) ) m - N / E Q q q T T b b b f = +   C.C.C.C.",
"C.  @ e 3.{ [ [ ) ) W : > / / E E k - M T b b c v 0 & . C.C.C.C.",
"C.C.. : H &.` ) ) N : - k Q E E R T - u b b v c c h = O C.C.C.C.",
"C.C.  # : F %.~ i - $ - N E E R R T - - b c c c h f = + C.C.C.C.",
"C.C.C.  # - - - * o o = N E T T T b * * 0 c c c f 8 = O C.C.C.C.",
"C.C.C.C.  . o X   C.o = j R T T b j * + = 0 y r 8 = % . C.C.C.C.",
"C.C.C.C.C.C.C.C.C.C.. = > g v b j > %   # * - - * % X C.C.C.C.C.",
"C.C.C.C.C.C.C.C.C.C.  $ = : > 8 : * o C.  O $ $ + . C.C.C.C.C.C.",
"C.C.C.C.C.C.C.C.C.C.C.  + & * * & O   C.C.C.      C.C.C.C.C.C.C.",
"C.C.C.C.C.C.C.C.C.C.C.C.            C.C.C.C.C.C.C.C.C.C.C.C.C.C."
};
