/* XPM */
static char * massxpert_icon_32_xpm[] = {
"32 32 636 2",
"  	c None",
". 	c #25B060",
"+ 	c #2BB163",
"@ 	c #2BAE61",
"# 	c #40AF72",
"$ 	c #0DA550",
"% 	c #41A76C",
"& 	c #259F56",
"* 	c #06A949",
"= 	c #3EAB6A",
"- 	c #28AB5C",
"; 	c #06A547",
"> 	c #17994B",
", 	c #059D45",
"' 	c #1AA856",
") 	c #49A972",
"! 	c #13A657",
"~ 	c #99B6A6",
"{ 	c #9BA69E",
"] 	c #B7BEB9",
"^ 	c #32985E",
"/ 	c #05A847",
"( 	c #10A249",
"_ 	c #05A044",
": 	c #86AC96",
"< 	c #BAC0BC",
"[ 	c #A3B3A8",
"} 	c #1C9751",
"| 	c #27A55A",
"1 	c #22A55B",
"2 	c #4BA172",
"3 	c #6B746E",
"4 	c #272928",
"5 	c #848A86",
"6 	c #8BA999",
"7 	c #03A545",
"8 	c #00A63F",
"9 	c #459565",
"0 	c #49514A",
"a 	c #373B38",
"b 	c #989F99",
"c 	c #7BA38B",
"d 	c #16A252",
"e 	c #0FA44E",
"f 	c #7CA58F",
"g 	c #444945",
"h 	c #3E4043",
"i 	c #4F534B",
"j 	c #90A296",
"k 	c #11A051",
"l 	c #00A341",
"m 	c #658675",
"n 	c #1B1E1B",
"o 	c #585D59",
"p 	c #656B63",
"q 	c #ADB3AC",
"r 	c #1D9E56",
"s 	c #2B9B57",
"t 	c #2F9657",
"u 	c #0AA24A",
"v 	c #95A9A0",
"w 	c #747777",
"x 	c #666E79",
"y 	c #555652",
"z 	c #9FB3A6",
"A 	c #139E53",
"B 	c #039E41",
"C 	c #859F94",
"D 	c #43464A",
"E 	c #7C7F90",
"F 	c #767570",
"G 	c #B3B5AF",
"H 	c #2E9E61",
"I 	c #20994F",
"J 	c #21934B",
"K 	c #03A247",
"L 	c #8EA69B",
"M 	c #BAC2C0",
"N 	c #B8BFC0",
"O 	c #BBC1BF",
"P 	c #89A795",
"Q 	c #0AA14A",
"R 	c #03A03F",
"S 	c #7FA092",
"T 	c #B3B9B9",
"U 	c #A6ABB0",
"V 	c #B9BCBB",
"W 	c #AAAEA5",
"X 	c #249B58",
"Y 	c #1D974B",
"Z 	c #1D9148",
"` 	c #00A444",
" .	c #61987A",
"..	c #AEB9B6",
"+.	c #B7C1BE",
"@.	c #B1BFB9",
"#.	c #569473",
"$.	c #01A543",
"%.	c #00A43E",
"&.	c #589176",
"*.	c #B0BDB9",
"=.	c #BAC3C0",
"-.	c #B6BAB7",
";.	c #90A08F",
">.	c #0E9C4A",
",.	c #109442",
"'.	c #148E41",
").	c #00A140",
"!.	c #239557",
"~.	c #80A393",
"{.	c #9CB4AB",
"].	c #81A795",
"^.	c #208E53",
"/.	c #01A23E",
"(.	c #248955",
"_.	c #8BAD9F",
":.	c #A6B7B1",
"<.	c #99AA9E",
"[.	c #4D8E63",
"}.	c #019F3D",
"|.	c #0A913D",
"1.	c #098E3B",
"2.	c #019C3E",
"3.	c #05A249",
"4.	c #218D54",
"5.	c #3E956A",
"6.	c #28965C",
"7.	c #12A04E",
"8.	c #07A244",
"9.	c #0DA34C",
"0.	c #189D52",
"a.	c #40916A",
"b.	c #4F906F",
"c.	c #398355",
"d.	c #0B9641",
"e.	c #009A37",
"f.	c #068F39",
"g.	c #65A481",
"h.	c #359F64",
"i.	c #23A05A",
"j.	c #27A25D",
"k.	c #17A152",
"l.	c #0BA049",
"m.	c #019D3C",
"n.	c #00A03B",
"o.	c #00A23B",
"p.	c #01A23C",
"q.	c #05A141",
"r.	c #1AA053",
"s.	c #239A56",
"t.	c #079B42",
"u.	c #0F9E48",
"v.	c #159A4C",
"w.	c #19954C",
"x.	c #3D9560",
"y.	c #5EA980",
"z.	c #3CA469",
"A.	c #25A159",
"B.	c #1FA056",
"C.	c #1CA154",
"D.	c #059E44",
"E.	c #019F40",
"F.	c #00A23D",
"G.	c #00A33B",
"H.	c #00A43C",
"I.	c #00A43D",
"J.	c #00A33C",
"K.	c #04A03E",
"L.	c #1CA152",
"M.	c #29A15C",
"N.	c #32A061",
"O.	c #31A060",
"P.	c #329E61",
"Q.	c #3A9C64",
"R.	c #59A075",
"S.	c #69A885",
"T.	c #36A465",
"U.	c #0CA04B",
"V.	c #049F43",
"W.	c #049D43",
"X.	c #049D44",
"Y.	c #029E43",
"Z.	c #019F42",
"`.	c #00A141",
" +	c #00A13A",
".+	c #009E39",
"++	c #109E46",
"@+	c #269F5A",
"#+	c #279E5B",
"$+	c #2A9E5B",
"%+	c #2C9F5E",
"&+	c #359E62",
"*+	c #4C9F6E",
"=+	c #5EA57E",
"-+	c #1AA153",
";+	c #01A143",
">+	c #01A043",
",+	c #039E43",
"'+	c #039D42",
")+	c #039C42",
"!+	c #029E42",
"~+	c #01A344",
"{+	c #00A33A",
"]+	c #00A23C",
"^+	c #00A13B",
"/+	c #00A03A",
"(+	c #009D38",
"_+	c #009A36",
":+	c #06993B",
"<+	c #1F9C53",
"[+	c #1A9B4E",
"}+	c #029738",
"|+	c #0B9A41",
"1+	c #1F9D52",
"2+	c #3A9C63",
"3+	c #609F79",
"4+	c #61A47E",
"5+	c #16A051",
"6+	c #03A245",
"7+	c #02A445",
"8+	c #03A246",
"9+	c #029D41",
"0+	c #009836",
"a+	c #009937",
"b+	c #019E41",
"c+	c #02A045",
"d+	c #03A347",
"e+	c #00A23F",
"f+	c #00A039",
"g+	c #00A139",
"h+	c #009F38",
"i+	c #009D37",
"j+	c #009734",
"k+	c #019434",
"l+	c #009533",
"m+	c #09993E",
"n+	c #2A9A57",
"o+	c #599971",
"p+	c #74A389",
"q+	c #1B9A4E",
"r+	c #03A147",
"s+	c #05A449",
"t+	c #08A44A",
"u+	c #07A249",
"v+	c #009735",
"w+	c #009531",
"x+	c #009731",
"y+	c #009B39",
"z+	c #04A047",
"A+	c #04A248",
"B+	c #01A242",
"C+	c #009F36",
"D+	c #009F37",
"E+	c #009E35",
"F+	c #009E36",
"G+	c #009C36",
"H+	c #009935",
"I+	c #009633",
"J+	c #009432",
"K+	c #009231",
"L+	c #009332",
"M+	c #009936",
"N+	c #059538",
"O+	c #2B9554",
"P+	c #459968",
"Q+	c #019735",
"R+	c #08A249",
"S+	c #09A44B",
"T+	c #1EA85C",
"U+	c #08943D",
"V+	c #008E2D",
"W+	c #00922F",
"X+	c #00952F",
"Y+	c #04A048",
"Z+	c #04A147",
"`+	c #02A144",
" @	c #029F3C",
".@	c #069F44",
"+@	c #039E3E",
"@@	c #019D37",
"#@	c #009C33",
"$@	c #009C34",
"%@	c #009934",
"&@	c #009331",
"*@	c #009230",
"=@	c #008F2F",
"-@	c #04943B",
";@	c #019634",
">@	c #009333",
",@	c #09903A",
"'@	c #398E57",
")@	c #158E41",
"!@	c #08A14A",
"~@	c #03A142",
"{@	c #51B584",
"]@	c #048833",
"^@	c #007725",
"/@	c #008929",
"(@	c #00912C",
"_@	c #009835",
":@	c #069E47",
"<@	c #049C43",
"[@	c #219F59",
"}@	c #279F5D",
"|@	c #1B9C51",
"1@	c #069A43",
"2@	c #059B3E",
"3@	c #099D40",
"4@	c #029937",
"5@	c #019432",
"6@	c #009131",
"7@	c #008C2D",
"8@	c #007D24",
"9@	c #098436",
"0@	c #30A262",
"a@	c #089539",
"b@	c #008C30",
"c@	c #1C8942",
"d@	c #66987A",
"e@	c #038A2F",
"f@	c #019636",
"g@	c #0C9F49",
"h@	c #089E41",
"i@	c #3AAF70",
"j@	c #009637",
"k@	c #017D2D",
"l@	c #006319",
"m@	c #00711B",
"n@	c #007D22",
"o@	c #008125",
"p@	c #007E23",
"q@	c #00781E",
"r@	c #006D1A",
"s@	c #006A18",
"t@	c #006C19",
"u@	c #00751D",
"v@	c #007F21",
"w@	c #008626",
"x@	c #018829",
"y@	c #038427",
"z@	c #017920",
"A@	c #006517",
"B@	c #046721",
"C@	c #179349",
"D@	c #49AC79",
"E@	c #339D55",
"F@	c #0A9139",
"G@	c #028A2F",
"H@	c #0B8534",
"I@	c #418355",
"J@	c #4F9068",
"K@	c #008729",
"L@	c #009434",
"M@	c #019939",
"N@	c #009838",
"O@	c #099240",
"P@	c #016322",
"Q@	c #004D17",
"R@	c #004E13",
"S@	c #005012",
"T@	c #004911",
"U@	c #023D10",
"V@	c #043810",
"W@	c #033D10",
"X@	c #004A11",
"Y@	c #005512",
"Z@	c #005A13",
"`@	c #005913",
" #	c #005411",
".#	c #004811",
"+#	c #015319",
"@#	c #1A8D4B",
"##	c #038A32",
"$#	c #119444",
"%#	c #068F31",
"&#	c #0B8F38",
"*#	c #168B39",
"=#	c #057F2A",
"-#	c #357D4A",
";#	c #488C62",
">#	c #008327",
",#	c #008D2C",
"'#	c #00932E",
")#	c #019835",
"!#	c #009632",
"~#	c #008E32",
"{#	c #018F35",
"]#	c #006523",
"^#	c #004C15",
"/#	c #003E10",
"(#	c #003A10",
"_#	c #08250E",
":#	c #1D1811",
"<#	c #3C3434",
"[#	c #292320",
"}#	c #0E1F0E",
"|#	c #02340F",
"1#	c #003C10",
"2#	c #004614",
"3#	c #01551B",
"4#	c #058730",
"5#	c #008531",
"6#	c #008326",
"7#	c #008828",
"8#	c #008827",
"9#	c #01862A",
"0#	c #0C8634",
"a#	c #037B27",
"b#	c #317945",
"c#	c #4C8A64",
"d#	c #008A27",
"e#	c #008E29",
"f#	c #00912D",
"g#	c #01963B",
"h#	c #008D2F",
"i#	c #009738",
"j#	c #018834",
"k#	c #017E2C",
"l#	c #007422",
"m#	c #006921",
"n#	c #291E14",
"o#	c #5E0D14",
"p#	c #74131F",
"q#	c #680D16",
"r#	c #540B10",
"s#	c #0F3B17",
"t#	c #005B1A",
"u#	c #00681E",
"v#	c #007427",
"w#	c #0A903A",
"x#	c #00842B",
"y#	c #00852A",
"z#	c #00872A",
"A#	c #008223",
"B#	c #008024",
"C#	c #007B23",
"D#	c #007321",
"E#	c #317443",
"F#	c #558868",
"G#	c #007421",
"H#	c #008325",
"I#	c #008B29",
"J#	c #008D2A",
"K#	c #00912F",
"L#	c #008F31",
"M#	c #008F2B",
"N#	c #009B38",
"O#	c #018838",
"P#	c #008B2D",
"Q#	c #00892A",
"R#	c #18481D",
"S#	c #5E0910",
"T#	c #710D13",
"U#	c #730B12",
"V#	c #5D0D0F",
"W#	c #047325",
"X#	c #008526",
"Y#	c #00822A",
"Z#	c #017F26",
"`#	c #089334",
" $	c #048831",
".$	c #008228",
"+$	c #007D21",
"@$	c #007A20",
"#$	c #016E1E",
"$$	c #376F44",
"%$	c #0A6C27",
"&$	c #007921",
"*$	c #008224",
"=$	c #008A28",
"-$	c #009530",
";$	c #018835",
">$	c #027D28",
",$	c #352819",
"'$	c #5A0F12",
")$	c #550F10",
"!$	c #1F421A",
"~$	c #008527",
"{$	c #008528",
"]$	c #01812B",
"^$	c #038E2A",
"/$	c #0F923A",
"($	c #007F23",
"_$	c #007A1F",
":$	c #00771E",
"<$	c #00741C",
"[$	c #006F1B",
"}$	c #04651E",
"|$	c #406C46",
"1$	c #327246",
"2$	c #006C1C",
"3$	c #008123",
"4$	c #008426",
"5$	c #008628",
"6$	c #008525",
"7$	c #008A26",
"8$	c #009A31",
"9$	c #019231",
"0$	c #05893B",
"a$	c #008B33",
"b$	c #008229",
"c$	c #036D24",
"d$	c #037023",
"e$	c #008429",
"f$	c #00862E",
"g$	c #01842D",
"h$	c #008D27",
"i$	c #0D983B",
"j$	c #008021",
"k$	c #007A1E",
"l$	c #007B21",
"m$	c #00701A",
"n$	c #006B19",
"o$	c #105A21",
"p$	c #065C1E",
"q$	c #006D1D",
"r$	c #007721",
"s$	c #007D23",
"t$	c #008023",
"u$	c #007E22",
"v$	c #007C21",
"w$	c #008122",
"x$	c #008B26",
"y$	c #009931",
"z$	c #008F2C",
"A$	c #008830",
"B$	c #008631",
"C$	c #008630",
"D$	c #008732",
"E$	c #008530",
"F$	c #008D28",
"G$	c #00952E",
"H$	c #008422",
"I$	c #00771D",
"J$	c #00761D",
"K$	c #00731C",
"L$	c #006E1A",
"M$	c #006718",
"N$	c #006115",
"O$	c #005314",
"P$	c #24572D",
"Q$	c #336343",
"R$	c #015617",
"S$	c #00691B",
"T$	c #00711D",
"U$	c #00781F",
"V$	c #00721C",
"W$	c #007C1F",
"X$	c #008623",
"Y$	c #009532",
"Z$	c #029233",
"`$	c #008A2C",
" %	c #008829",
".%	c #00922C",
"+%	c #008120",
"@%	c #00731B",
"#%	c #006F1A",
"$%	c #00701B",
"%%	c #006C1A",
"&%	c #006417",
"*%	c #005A14",
"=%	c #004C13",
"-%	c #16461F",
";%	c #275233",
">%	c #024D16",
",%	c #005F18",
"'%	c #006A1B",
")%	c #006E1C",
"!%	c #00691A",
"~%	c #006819",
"{%	c #006D1B",
"]%	c #007B1E",
"^%	c #04882D",
"/%	c #09923C",
"(%	c #0B9540",
"_%	c #07943B",
":%	c #029032",
"<%	c #00761B",
"[%	c #006B18",
"}%	c #006716",
"|%	c #006416",
"1%	c #005F16",
"2%	c #005113",
"3%	c #024112",
"4%	c #163D1C",
"5%	c #1D4225",
"6%	c #093B16",
"7%	c #014814",
"8%	c #005616",
"9%	c #005715",
"0%	c #005214",
"a%	c #005714",
"b%	c #006016",
"c%	c #006A19",
"d%	c #00721B",
"e%	c #006E19",
"f%	c #006616",
"g%	c #006014",
"h%	c #005412",
"i%	c #005613",
"j%	c #004F13",
"k%	c #014112",
"l%	c #073212",
"m%	c #203A22",
"n%	c #133119",
"o%	c #0B3215",
"p%	c #033B12",
"q%	c #013E12",
"r%	c #003E12",
"s%	c #004512",
"t%	c #005814",
"u%	c #005912",
"v%	c #005812",
"w%	c #005711",
"x%	c #005111",
"y%	c #014110",
"z%	c #023C11",
"A%	c #033910",
"B%	c #063210",
"C%	c #123016",
"D%	c #223722",
"E%	c #122F18",
"F%	c #043412",
"G%	c #013C11",
"H%	c #003C11",
"I%	c #003D11",
"J%	c #004010",
"K%	c #004210",
"L%	c #004110",
"M%	c #00380F",
"N%	c #01350F",
"O%	c #013610",
"P%	c #03310F",
"Q%	c #112A14",
"R%	c #003B10",
"S%	c #003910",
"                        . +           @                         ",
"                    # $ % & * =   - ; > , '                     ",
"                  ) ! ~ { ] ^ / ( _ : < [ } |                   ",
"                  1 2 3 4 5 6 7 8 9 0 a b c d                   ",
"                  e f g h i j k l m n o p q r s                 ",
"                t u v w x y z A B C D E F G H I                 ",
"                J K L M N O P Q R S T U V W X Y                 ",
"                Z `  ...+.@.#.$.%.&.*.=.-.;.>.,.                ",
"                '.).!.~.{.].^././.(._.:.<.[.}.|.                ",
"                1.2.3.4.5.6.7.8.9.0.a.b.c.d.e.f.                ",
"              g.h.i.j.k.l.m.n.o.p.q.r.s.t.u.v.w.x.              ",
"            y.z.A.B.C.D.E.F.G.H.I.J.K.L.M.N.O.P.Q.R.            ",
"        S.T.U.V.W.X.Y.Z.`.F.G.H.J.J. +.+++@+#+$+%+&+*+          ",
"      =+-+;+>+,+'+)+!+>+~+F.{+]+]+^+/+(+_+:+<+[+}+|+1+2+3+      ",
"    4+5+6+7+8+9+0+a+b+c+d+e+f+g+g+f+h+i+_+j+k+k+l+0+0+m+n+o+    ",
"  p+q+r+s+t+u+v+w+x+y+z+A+B+C+D+E+E+F+G+H+I+J+K+L+v+M+j+N+O+    ",
"  P+Q+R+S+T+U+V+W+X+M+Y+Z+`+ @.@+@@@#@$@%@I+&@*@=@-@;@I+>@,@'@  ",
"  )@j+!@~@{@]@^@/@(@_@:@2.<@[@}@|@1@2@3@4@5@6@7@8@9@0@a@6@b@c@  ",
"d@e@f@g@h@i@j@k@l@m@n@o@p@q@r@s@t@u@v@w@x@y@z@A@B@C@D@E@F@G@H@I@",
"J@K@L@M@e.N@&@O@P@Q@R@S@S@T@U@V@W@X@Y@Z@`@ #.#+#@###$#%#&#*#=#-#",
";#>#,#'#)#!#(@~#{#]#^#/#(#_#:#<#[#}#|#1#1#2#3#4#5#6#7#8#9#0#a#b#",
"c#8@d#e#f#j@g#h#i#j#k#l#m#n#o#p#q#r#s#t#u#v#p@w#x#y#z#A#B#C#D#E#",
"F#G#H#8#I#J#K#L#M#N#O#P#Q#R#S#T#U#V#W#X#Y#Z#`# $.$p@p@+$@$u@#$$$",
"  %$&$*$w@Q#=$/@=$-$I+;$7@>$,$'$)$!$~${$]$^$/$($p@n@_$:$<$[$}$|$",
"  1$2$&$3$4$5$4$6$7$8$9$0$a$b$c$d$e$f$g$h$i$j$k$l$q@<$m$n$A@o$  ",
"    p$q$r$s$t$u$v$w$x$y$z$A$B$C$D$E$y#F$G$H$I$J$:$K$L$M$N$O$P$  ",
"    Q$R$S$T$&$U$V$J$W$X$Y$Z$`$z#z# %z$.%+%@%#%#%$%%%&%*%=%-%    ",
"      ;%>%,%'%)%!%~%{%V$]%^%/%(%_%:%6$<%[%}%|%A@A@1%2%3%4%      ",
"        5%6%7%8%9%0%a%b%A@c%$%V$d%e%f%g%Z@Y@h%i%j%k%l%m%        ",
"            n%o%p%q%r%s%2%t%Z@u%v%w%x%X@y%z%A%B%C%D%            ",
"                E%F%G%H%I%J%K%K%L%/#M%N%O%P%Q%                  ",
"                            H%R%S%                              "};
