/* XPM */
static char *modest[] = {
/* columns rows colors chars-per-pixel */
"32 32 209 2",
"   c black",
".  c #060606",
"X  c #0A0909",
"o  c #0B0B0A",
"O  c gray6",
"+  c #10100F",
"@  c #1D1D1C",
"#  c gray26",
"$  c #434343",
"%  c gray29",
"&  c gray31",
"*  c gray33",
"=  c #585858",
"-  c #686868",
";  c #767673",
":  c #7B7B7B",
">  c #7C7C7C",
",  c gray51",
"<  c #848480",
"1  c #868686",
"2  c #898784",
"3  c #888884",
"4  c #8A8985",
"5  c #8B8B8B",
"6  c #8D8D8D",
"7  c #93928D",
"8  c #91918F",
"9  c #929292",
"0  c #959490",
"q  c #959492",
"w  c #969593",
"e  c #969694",
"r  c #979794",
"t  c #979695",
"y  c #999793",
"u  c #989896",
"i  c #999996",
"p  c #9A9996",
"a  c #9A9A97",
"s  c #9C9B97",
"d  c #999B99",
"f  c #9B9A98",
"g  c #9A9A9A",
"h  c #9C9B99",
"j  c #9D9C98",
"k  c #9F9D99",
"l  c #9D9C9A",
"z  c #9E9D9B",
"x  c #9F9E9C",
"c  c #9F9F9F",
"v  c #A09F9B",
"b  c #A09F9D",
"n  c #A2A09F",
"m  c #A3A29F",
"M  c #A4A3A1",
"N  c #A5A4A2",
"B  c #A6A5A2",
"V  c #A7A7A4",
"C  c #A8A7A4",
"Z  c #A3AAA3",
"A  c #A5A9A5",
"S  c #A7ADA7",
"D  c gray66",
"F  c #AAAAAA",
"G  c #ACABA8",
"H  c #AEADA9",
"J  c gray68",
"K  c #AEAEAE",
"L  c #ADB1AD",
"P  c #AFB4AF",
"I  c #B1B1B1",
"U  c #B2B1B0",
"Y  c #B0B4B0",
"T  c #B0B5B0",
"R  c #B1B6B1",
"E  c #B2B7B2",
"W  c #B4B4B1",
"Q  c #B3B8B3",
"!  c #B5B9B5",
"~  c #B4BAB4",
"^  c #B6BAB6",
"/  c #B7BAB7",
"(  c #B7BDB7",
")  c #BBBBB7",
"_  c gray73",
"`  c #B8BCB8",
"'  c #BABEBA",
"]  c #BDBFBD",
"[  c #BBC0BB",
"{  c #BDC0BD",
"}  c #BFC4BF",
"|  c #C0C0C0",
" . c #C1C1C1",
".. c #C2C2C1",
"X. c #C3C3C2",
"o. c #C6C5C4",
"O. c #C6C6C5",
"+. c gray78",
"@. c #C8C7C5",
"#. c #C8C7C6",
"$. c #C6CBC6",
"%. c #C8C8C6",
"&. c #CACAC7",
"*. c #C8C8C8",
"=. c #C9C9C8",
"-. c gray79",
";. c #CAC9C8",
":. c #CAC9C9",
">. c #CACAC9",
",. c #CBCAC9",
"<. c #CACACA",
"1. c #CBCBCA",
"2. c #CBCBCB",
"3. c #CACDCA",
"4. c #CDCCCB",
"5. c gray80",
"6. c #CCCFCC",
"7. c #CECECE",
"8. c gray81",
"9. c #D0CFCE",
"0. c #CFD3CF",
"q. c #D0D0D0",
"w. c gray82",
"e. c #D0D3D0",
"r. c #D2D2D2",
"t. c LightGray",
"y. c #D1D4D1",
"u. c #D2D5D2",
"i. c gray83",
"p. c #D5D5D5",
"a. c #D7D7D4",
"s. c #D7D6D5",
"d. c #D7D7D5",
"f. c gray84",
"g. c #D7D7D7",
"h. c #D8D7D6",
"j. c #D7D9D7",
"k. c #D9D8D6",
"l. c #D9D8D7",
"z. c #DAD9D7",
"x. c #DADAD7",
"c. c #D8D8D8",
"v. c gray85",
"b. c #D8DBD8",
"n. c #DADAD8",
"m. c #DBDAD8",
"M. c #DBDBD8",
"N. c #DADADA",
"B. c gray86",
"V. c #DCDBD9",
"C. c #DCDBDA",
"Z. c #D9DCD9",
"A. c #DADCDA",
"S. c #DBDCDB",
"D. c #DBDDDB",
"F. c gainsboro",
"G. c #DCDDDC",
"H. c #DDDDDD",
"J. c #DDDEDD",
"K. c gray87",
"L. c #DFDFDE",
"P. c #DFDFDF",
"I. c #DFE0DF",
"U. c #E1E0DF",
"Y. c #E1E1DF",
"T. c gray88",
"R. c #E0E1E0",
"E. c #E1E1E1",
"W. c #E0E2E0",
"Q. c #E2E2E2",
"!. c #E2E3E2",
"~. c #E3E3E2",
"^. c gray89",
"/. c #E4E4E2",
"(. c #E4E4E4",
"). c #E4E5E4",
"_. c gray90",
"`. c #E6E6E6",
"'. c #E7E7E7",
"]. c gray91",
"[. c #E9E9E9",
"{. c #EAEAEA",
"}. c #EAEBEA",
"|. c gray92",
" X c #EBEDEB",
".X c #ECECEC",
"XX c #ECEDEC",
"oX c gray93",
"OX c #EEEEEE",
"+X c #EFEFEF",
"@X c gray94",
"#X c #F0F1F0",
"$X c #F1F1F1",
"%X c gray95",
"&X c #F3F3F3",
"*X c #F4F4F4",
"=X c gray96",
"-X c #F6F6F6",
";X c gray97",
":X c #F8F8F8",
">X c #F9F9F9",
",X c #F9FAF9",
"<X c gray98",
"1X c #FBFBFB",
"2X c gray99",
"3X c #FDFDFD",
"4X c #FEFEFE",
"5X c gray100",
"6X c None",
/* pixels */
"6X6X6X6X6X6X6X6X6X6X6X6X6X6X6X6X6X6X6X6X6X6X6X6X6X6X6X6X6X6X6X6X",
"6X6X6X6X6X6X6X6X6X6X6X6X6Xy v k j s p 0 6X6X6X6X6X6X6X6X6X6X6X6X",
"6X6X6X6X6X6X6X6X6X6X6X6XW >X-X=X=X*X&X=X9.6X6X6X6X6X6X6X6X6X6X6X",
"6X6X6X6X6X6X6X6X6X6X6XC.;X{.'._.^.E.P.K.oX~.4 6X6X6X6X6X6X6X6X6X",
"6X6X6X6X6X6X6X6X6X6XY.*X[.'._.^.E.P.H.B.c._.E.3 6X6X6X6X6X6X6X6X",
"6X6X6X6X6X6X6X6X6X/.*X[.'._.^.E.P.H.B.c.f.i.^.L.2 6X6X6X6X6X6X6X",
"6X6X6X6X6X6X6X6XU.*X[.'._.^.E.P.H.N.c.f.i.r.q.P.N.6X6X6X6X6X6X6X",
"6X6X6X6X6X6X6Xd.=X[.'._.^.E.P.H.N.c.f.i.r.q.7.5.E.%.6X6X6X6X6X6X",
"6X6X6X6X6X6X&.;X[.'._.^.E.P.H.N.c.f.i.r.q.7.5.*.*.`.U 6X6X6X6X6X",
"6X6X6X6X6X) :X{.'._.^.E.P.H.N.c.f.i.r.q.7.-.6 $ 9 <.'.i 6X6X6X6X",
"6X6X6X6XH ;X|.`.(.Q.T.K.F.N.c.f.i.r.I * = J [.3X1 +.7._.< 6X6X6X",
"6X6X6X6Xn.OX`.(.Q.T.K.F.v.g.2., # 5 p.<X3X>X*X%X{.> *.p.O.6X6X6X",
"6X6X6X6XV.XXQ.Q.T.K.B.K & - _ @X4X3X>X-X&X%X@X+X=X: +.P.4.6X6X6X",
"6X6X6X6XM.:XA.8.> % g P.3X4X2X<X-X=X&X%X@X+XoX.X|.Q.c +X1.6X6X6X",
"6X6X6X6Xm.;X=Xd =X5X5X3X1X>X;X-X*X&X$X@XOX.X|.[.]. .^.OX1.6X6X6X",
"6X6X6X6Xn.-X*XXX] -X-X-X-X=X=X&X%X@X+XoX|.{.].'.| +..XoX1.6X6X6X",
"6X6X6X6Xx.=X&X%XW.A K.T.^.`.[.{.@XOX.X|.[.].`.2.F .X|..X,.6X6X6X",
"6X6X6X6Xz.*X%X$X$X6.L g.v.F.K.Q.(._.{.].'._.w.c {.{.[.{.;.6X6X6X",
"6X6X6X6Xl.%X@X+X+X+X^ / r.t.f.c.N.F.P.E._.t.D [.[.[.].[.=.6X6X6X",
"6X6X6X6Xk.%X+XOXOXOX.XS { ! P Y T R E Q ` I P.].].].'.].>.6X6X6X",
"6X6X6X6Xh.$XOXoXoX.X.X).Z b.$X#X}.!.Z.e.~ ' `.'.`.`._.`.>.6X6X6X",
"6X6X6X6Xs.+X.X|.|.|.R.( #X<XOX].].'.'.'.`.3.[ ^._.(.(._.;.6X6X6X",
"6X6X6X6Xa.OX|.{.{.j.0.1X$X].].'.'.`.`.`._._.j.} E.^.^.^.:.6X6X6X",
"6X6X6X6X,.oX{.[.u. X>X|.'.'.`.`.`._._.(.(.(.^.I.$.J.Q.^.X.@ 6X6X",
"6X6X  X #..X].D.,X%X'.'.`.`._._.(.(.(.^.^.Q.Q.Q.Q.y.G.^...O   6X",
"6X    X @.].).:X[.`._._.(.(.(.^.^.Q.Q.Q.Q.Q.Q.Q.Q.Q.S.I.X.+   6X",
"6X    X o.OXoX.X.X|.|.{.[.[.].].'.'.`.`.`.`.`.`.`.`.`.`.X.+     ",
"6X6X  . 7 C G V B N M m n b x z l h f a i u t e w q r 8 ; o   6X",
"6X6X                                                          6X",
"6X6X6X6X      6X6X6X6X6X6X6X6X6X6X6X6X6X6X6X6X6X6X6X6X    6X6X6X",
"6X6X6X6X6X6X6X6X6X6X6X6X6X6X6X6X6X6X6X6X6X6X6X6X6X6X6X6X6X6X6X6X",
"6X6X6X6X6X6X6X6X6X6X6X6X6X6X6X6X6X6X6X6X6X6X6X6X6X6X6X6X6X6X6X6X"
};
