/* XPM */
static char * mp3diags_xpm[] = {
"32 32 4 1",
" 	c None",
".	c #6E0000",
"+	c #6D0000",
"@	c #FFFFA0",
"                                ",
"                                ",
"                                ",
"                                ",
"                                ",
"       .+..............+.       ",
"   ++.++...+..+.........++..    ",
"+.+.+.+........................ ",
"...............................+",
"..@@..@@..@@...@@@@@.....@@@@...",
"..@@.@@@.@@@...@@@@@@...@@@@@@..",
"..@@@@@@@@@@...@@...@@..@@..@@..",
"..@@@.@@@.@@...@@...@@......@@..",
"..@@..@@..@@...@@...@@......@@..",
"..@@..@@..@@...@@...@@......@@..",
"..@@..@@..@@...@@...@@...@@@@...",
"..@@..@@..@@...@@@@@@....@@@@...",
"..@@..@@..@@...@@@@@........@@..",
"..@@..@@..@@...@@...........@@..",
"..@@..@@..@@...@@...........@@..",
"..@@..@@..@@...@@.......@@..@@..",
"..@@..@@..@@...@@.......@@@@@@..",
".+@@..@@..@@...@@........@@@@...",
"..+............................+",
"  .++.++................++...   ",
"     +..++...........+.+..      ",
"          .....+......          ",
"                                ",
"                                ",
"                                ",
"                                ",
"                                "};
