/* XPM */
static char *noname[] = {
/* width height ncolors chars_per_pixel */
"32 32 62 1",
/* colors */
"  c #CBC4B0",
". c #455D4A",
"X c #979476",
"o c #72704B",
"O c #FDFDFB",
"+ c #FBFBF9",
"@ c #DFD6CD",
"# c #D5CEAF",
"$ c #4D603D",
"% c #E9E4E0",
"& c #B8B492",
"* c #F8F8F5",
"= c #DCD5C9",
"- c #AFA489",
"; c #F7F6F4",
": c #D6D2B9",
"> c #C1B797",
", c #E7E1DD",
"< c #F4F3ED",
"1 c #F0EFE9",
"2 c #E0DACC",
"3 c #ACA985",
"4 c #F2F1EE",
"5 c #FFFFFE",
"6 c #FEFFFD",
"7 c #3D5946",
"8 c #2F4B38",
"9 c #E3DED8",
"0 c #302550",
"q c #3B5440",
"w c #DBD7C6",
"e c #F8F6F3",
"r c #9E9969",
"t c #9F9C60",
"y c #F0EEEB",
"u c #FEFEFC",
"i c #FCFCFA",
"p c #EDE9DE",
"a c #727951",
"s c #24154D",
"d c #253551",
"f c #CFCCB9",
"g c #C2BE95",
"h c #F6F5F3",
"j c #2B4346",
"k c #FFFFFF",
"l c #1E2D4D",
"z c #CEC7B1",
"x c #646656",
"c c #BCBA81",
"v c #C4C0A0",
"b c #969776",
"n c #FEFEFD",
"m c #FCFCFB",
"M c #FAFAF9",
"N c #CFC9A7",
"B c #868C73",
"V c #C3BCA5",
"C c #EFEDE4",
"Z c #B4AF89",
"A c #748154",
"S c None",
/* pixels */
"kkkkkkkkkkkkkkkkkkkkkkkkkkkkkkkk",
"kkkkkkkkkkkkkkkkkkkkkkkkkkkkkkkk",
"kkkkkkkkkkkkkkkkkkkkkkkkkkkkkkkk",
"kkkkkkkkkkkkkkkkkkkkkkkkkkkkkkkk",
"kkkkkkkkkkkkkkkkkkkkkkkkkkkkkkkk",
"kkkkkkkkkkkkkkkkkkkkkkkkkkkkkkkk",
"kkkkkkkkkkkkkkkkkkkkkkkkkkkkkkkk",
"55555555555555555555555555555555",
"5nOin55nmOn56n55nnun5555Oi+mn555",
"uCNN*nn<>z1eppmep: 2en5+23t&%O55",
"*#oA,O+=xxwcAN1ca7d.c<ipt88.>4n5",
"h#o7#*hVdxft$Z9B8.xjo#4gj.r3zyu5",
";=t8&41blb t83fB$b-b$c,c8A& @4n5",
"+9c8t%9Aqcft83ftq& Z$c@c$$&9y+55",
"uCV.owf.o =bjZftjgft7&9ztjxNhu55",
"5<fx$v-lBf@Bl3fBlxxjB %@>Bd.v*55",
"5*@bjBx0-99X8-fBs0xb>@hy=&B0a9O5",
"5O,&qls0V%,Xl-fBsB-V=ym+y=&x0z*5",
"5n1 ossxfy,Xl-fB0- 9y+O*@9 .0 h5",
"55h=BslB@h%bl-fBjV%;On;vxBBlxfh5",
"55+9c$qc,M%cqZft$N455n4go880X=;5",
"55OCNtrz1i%gcN=gc:<55nyfcBBbV,+5",
"555h@VV@hu4= =9f @;555*, &&V@4n5",
"555iy,9yO5My,C4C,y+555n;%@@,4m55",
"5555uMMi555O+iOm+mn5555n+*eMu555",
"kkkkkkkkkkkkkkkkkkkkkkkkkkkkkkkk",
"kkkkkkkkkkkkkkkkkkkkkkkkkkkkkkkk",
"kkkkkkkkkkkkkkkkkkkkkkkkkkkkkkkk",
"kkkkkkkkkkkkkkkkkkkkkkkkkkkkkkkk",
"kkkkkkkkkkkkkkkkkkkkkkkkkkkkkkkk",
"kkkkkkkkkkkkkkkkkkkkkkkkkkkkkkkk",
"kkkkkkkkkkkkkkkkkkkkkkkkkkkkkkkk"
};
