/* XPM */
static char * qutecom_xpm[] = {
"32 32 454 2",
"  	c None",
". 	c #7797B0",
"+ 	c #83A1B8",
"@ 	c #7294AD",
"# 	c #84A2B8",
"$ 	c #7D9CB4",
"% 	c #809FB6",
"& 	c #82A0B7",
"* 	c #86A4BA",
"= 	c #7C9CB3",
"- 	c #88A5BB",
"; 	c #85A4B9",
"> 	c #7798B1",
", 	c #83A2B8",
"' 	c #809FB5",
") 	c #89A6BB",
"! 	c #8DAABE",
"~ 	c #7A9AB2",
"{ 	c #8CA9BE",
"] 	c #7496AE",
"^ 	c #93AEC2",
"/ 	c #96B1C4",
"( 	c #8EAABF",
"_ 	c #88A6BB",
": 	c #87A5BB",
"< 	c #9CB5C8",
"[ 	c #9BB4C7",
"} 	c #9AB4C6",
"| 	c #9AB3C6",
"1 	c #99B2C5",
"2 	c #8FABC0",
"3 	c #84A3B9",
"4 	c #7E9DB5",
"5 	c #8EAABE",
"6 	c #95AFC3",
"7 	c #96B0C4",
"8 	c #99B3C6",
"9 	c #9AB4C7",
"0 	c #97B2C6",
"a 	c #93AFC3",
"b 	c #91ADC1",
"c 	c #90AABF",
"d 	c #7D9CB3",
"e 	c #7F9EB5",
"f 	c #87A4BA",
"g 	c #88A6BA",
"h 	c #90ADC1",
"i 	c #9FB9CB",
"j 	c #ABC3D3",
"k 	c #B0C6D6",
"l 	c #AEC4D5",
"m 	c #A4BDD1",
"n 	c #93B2C7",
"o 	c #84A3BC",
"p 	c #7D9DB5",
"q 	c #7F9FB5",
"r 	c #799AB2",
"s 	c #6C8FA9",
"t 	c #7797AF",
"u 	c #7B9BB3",
"v 	c #83A1B9",
"w 	c #ACC2D2",
"x 	c #D4E1EA",
"y 	c #E9F0F5",
"z 	c #F1F6F8",
"A 	c #F4F7FA",
"B 	c #F1F5F8",
"C 	c #E9F0F4",
"D 	c #D1DFE9",
"E 	c #A5BED0",
"F 	c #789CB5",
"G 	c #7092AC",
"H 	c #7293AC",
"I 	c #6387A3",
"J 	c #6D90A9",
"K 	c #7092AB",
"L 	c #84A2B9",
"M 	c #CBD9E4",
"N 	c #F0F5F8",
"O 	c #EBF2F6",
"P 	c #E8EFF4",
"Q 	c #E6EDF2",
"R 	c #E5ECF2",
"S 	c #E6EDF3",
"T 	c #E9EFF4",
"U 	c #EBF0F5",
"V 	c #CDDBE6",
"W 	c #81A2BB",
"X 	c #6489A5",
"Y 	c #678BA5",
"Z 	c #59809D",
"` 	c #6085A1",
" .	c #668BA5",
"..	c #7698B0",
"+.	c #CDDCE6",
"@.	c #ECF2F6",
"#.	c #E0E9F0",
"$.	c #DAE4EC",
"%.	c #D7E2EB",
"&.	c #D2DFE9",
"*.	c #D1DEE8",
"=.	c #D0DEE8",
"-.	c #D8E3EB",
";.	c #CDDCE7",
">.	c #7599B4",
",.	c #5C829F",
"'.	c #5C839E",
").	c #5E84A0",
"!.	c #6187A2",
"~.	c #ADC4D4",
"{.	c #E0EAF0",
"].	c #CBDAE6",
"^.	c #C5D6E2",
"/.	c #C0D2DF",
"(.	c #BED1DF",
"_.	c #BFD1DF",
":.	c #BDD0DE",
"<.	c #BCCFDD",
"[.	c #B8CDDB",
"}.	c #B6CBDB",
"|.	c #BACFDC",
"1.	c #BACEDC",
"2.	c #A7C0D3",
"3.	c #557F9F",
"4.	c #587E9C",
"5.	c #4F7896",
"6.	c #527A98",
"7.	c #577E9B",
"8.	c #7598B1",
"9.	c #C5D7E4",
"0.	c #C7D8E3",
"a.	c #BDD0DD",
"b.	c #B0C7D8",
"c.	c #B9CDDC",
"d.	c #B4CADA",
"e.	c #AAC3D5",
"f.	c #ABC2D4",
"g.	c #ADC4D5",
"h.	c #B1C7D7",
"i.	c #A2BCD0",
"j.	c #A3BDD0",
"k.	c #A1BCCF",
"l.	c #A3BED0",
"m.	c #5E88A7",
"n.	c #4A7594",
"o.	c #4E7796",
"p.	c #497392",
"q.	c #4F7897",
"r.	c #547C9A",
"s.	c #84A5BF",
"t.	c #B7CCDC",
"u.	c #AFC6D6",
"v.	c #A6C0D4",
"w.	c #9CB9CE",
"x.	c #BBCFDE",
"y.	c #FFFEFF",
"z.	c #A0BCD0",
"A.	c #92B1C8",
"B.	c #9DB9CD",
"C.	c #EFF3F7",
"D.	c #FFFFFF",
"E.	c #B1C8D7",
"F.	c #86A9C2",
"G.	c #89ABC3",
"H.	c #8AABC2",
"I.	c #5B85A3",
"J.	c #37668A",
"K.	c #4C7594",
"L.	c #436E8F",
"M.	c #3E6B8C",
"N.	c #467090",
"O.	c #497393",
"P.	c #567F9E",
"Q.	c #7DA3BF",
"R.	c #9EBBCF",
"S.	c #98B6CC",
"T.	c #90B1C9",
"U.	c #86A9C3",
"V.	c #B5CCDB",
"W.	c #F8FAFB",
"X.	c #92B1C9",
"Y.	c #7BA1BD",
"Z.	c #8EAEC6",
"`.	c #F6F9FB",
" +	c #ABC3D5",
".+	c #6D97B5",
"++	c #719AB7",
"@+	c #7298B4",
"#+	c #497495",
"$+	c #28587D",
"%+	c #477191",
"&+	c #406B8C",
"*+	c #3B6788",
"=+	c #305F83",
"-+	c #396688",
";+	c #3B6789",
">+	c #416C8D",
",+	c #446E8E",
"'+	c #5781A0",
")+	c #6E99B7",
"!+	c #81A6C0",
"~+	c #83A7C1",
"{+	c #7CA2BE",
"]+	c #7AA1BC",
"^+	c #7BA1BE",
"/+	c #A6C0D2",
"(+	c #97B5CC",
"_+	c #7099B7",
":+	c #6A95B4",
"<+	c #8DADC6",
"[+	c #9CB8CD",
"}+	c #6692B1",
"|+	c #5E8CAD",
"1+	c #5C89AB",
"2+	c #5884A5",
"3+	c #2E5F83",
"4+	c #1F4E72",
"5+	c #406B8B",
"6+	c #3C6889",
"7+	c #366485",
"8+	c #326083",
"9+	c #326183",
"0+	c #376486",
"a+	c #3D6889",
"b+	c #3F6A8B",
"c+	c #517E9F",
"d+	c #6390B1",
"e+	c #6691B2",
"f+	c #6E98B7",
"g+	c #6995B5",
"h+	c #6994B4",
"i+	c #6793B3",
"j+	c #5F8EAF",
"k+	c #5E8DAF",
"l+	c #628FB0",
"m+	c #5F8DAF",
"n+	c #5B8AAD",
"o+	c #5183A7",
"p+	c #4B7EA4",
"q+	c #4F81A6",
"r+	c #4D80A5",
"s+	c #4A7DA2",
"t+	c #3B6E93",
"u+	c #1F5077",
"v+	c #1B486B",
"w+	c #386586",
"x+	c #386587",
"y+	c #326084",
"z+	c #2D5D80",
"A+	c #305E82",
"B+	c #376587",
"C+	c #487799",
"D+	c #5688AC",
"E+	c #5687AA",
"F+	c #5787AB",
"G+	c #5989AC",
"H+	c #5889AC",
"I+	c #5486AA",
"J+	c #5284A8",
"K+	c #4E81A7",
"L+	c #4B7FA5",
"M+	c #487DA3",
"N+	c #4479A1",
"O+	c #40769F",
"P+	c #3C739C",
"Q+	c #306993",
"R+	c #265C84",
"S+	c #1C4B70",
"T+	c #194365",
"U+	c #356183",
"V+	c #346385",
"W+	c #2E5D80",
"X+	c #336284",
"Y+	c #366385",
"Z+	c #3D6D91",
"`+	c #487DA4",
" @	c #4C81A6",
".@	c #4C80A6",
"+@	c #4C7FA5",
"@@	c #4A7FA5",
"#@	c #497DA4",
"$@	c #467CA2",
"%@	c #4379A1",
"&@	c #3F779E",
"*@	c #3D749D",
"=@	c #39729B",
"-@	c #316C97",
";@	c #286592",
">@	c #4D7DA0",
",@	c #255980",
"'@	c #184467",
")@	c #194161",
"!@	c #2F5E82",
"~@	c #366487",
"{@	c #3E7298",
"]@	c #43779D",
"^@	c #467BA1",
"/@	c #477DA4",
"(@	c #477CA3",
"_@	c #457AA2",
":@	c #4379A0",
"<@	c #40779F",
"[@	c #3D759D",
"}@	c #39719B",
"|@	c #2B6794",
"1@	c #2C6994",
"2@	c #9BB8CC",
"3@	c #14476F",
"4@	c #133A5B",
"5@	c #1D4464",
"6@	c #305F84",
"7@	c #2A5A7E",
"8@	c #2D5C80",
"9@	c #356589",
"0@	c #3A6B91",
"a@	c #3F7298",
"b@	c #3A729B",
"c@	c #3E769E",
"d@	c #3F769E",
"e@	c #3C749C",
"f@	c #356F99",
"g@	c #2C6895",
"h@	c #2B6894",
"i@	c #5C8AAC",
"j@	c #CADAE5",
"k@	c #F9FBFC",
"l@	c #416E90",
"m@	c #103E62",
"n@	c #113250",
"o@	c #244F71",
"p@	c #2B5C81",
"q@	c #26577C",
"r@	c #29597D",
"s@	c #2C5B7F",
"t@	c #34658A",
"u@	c #386C92",
"v@	c #80A3BD",
"w@	c #6E98B6",
"x@	c #42789F",
"y@	c #3B749C",
"z@	c #4B7FA4",
"A@	c #739CB9",
"B@	c #BBCEDD",
"C@	c #FAFBFC",
"D@	c #8CA7BC",
"E@	c #0D3E65",
"F@	c #123553",
"G@	c #143755",
"H@	c #29597E",
"I@	c #25577C",
"J@	c #28587C",
"K@	c #285579",
"L@	c #295577",
"M@	c #27587E",
"N@	c #547E9E",
"O@	c #DBE4EB",
"P@	c #F0F5F9",
"Q@	c #D9E5ED",
"R@	c #DCE6EE",
"S@	c #ADBFCD",
"T@	c #19476B",
"U@	c #103554",
"V@	c #0E2D4A",
"W@	c #214D70",
"X@	c #26587D",
"Y@	c #25577E",
"Z@	c #225179",
"`@	c #25587D",
" #	c #26567B",
".#	c #224C6D",
"+#	c #224A6B",
"@#	c #1C4A6F",
"##	c #AFC1CF",
"$#	c #F8F9FB",
"%#	c #E8EDF1",
"&#	c #869EB2",
"*#	c #164164",
"=#	c #0D314F",
"-#	c #0D2B46",
";#	c #1B4465",
">#	c #25577D",
",#	c #23567E",
"'#	c #215378",
")#	c #24567D",
"!#	c #235479",
"~#	c #1D4667",
"{#	c #1A3E5C",
"]#	c #163E5F",
"^#	c #154064",
"/#	c #375D7C",
"(#	c #5D7C95",
"_#	c #658299",
":#	c #55748D",
"<#	c #274D6B",
"[#	c #072D4F",
"}#	c #0B2B48",
"|#	c #0F2E4A",
"1#	c #1B4567",
"2#	c #23557C",
"3#	c #22557D",
"4#	c #1E4E72",
"5#	c #22567E",
"6#	c #22547A",
"7#	c #1D496B",
"8#	c #163A58",
"9#	c #133350",
"0#	c #0D2E4B",
"a#	c #062949",
"b#	c #042647",
"c#	c #042544",
"d#	c #0A2944",
"e#	c #0E2E48",
"f#	c #143958",
"g#	c #1E4D71",
"h#	c #22567D",
"i#	c #21557D",
"j#	c #163F5E",
"k#	c #071621",
"l#	c #173D59",
"m#	c #20547C",
"n#	c #21567E",
"o#	c #1F5178",
"p#	c #1C496D",
"q#	c #184061",
"r#	c #163B5A",
"s#	c #153958",
"t#	c #153C5C",
"u#	c #1E4D72",
"v#	c #21557C",
"w#	c #21577F",
"x#	c #112F46",
"y#	c #000405",
"z#	c #010406",
"A#	c #0C2130",
"B#	c #194160",
"C#	c #1F5177",
"D#	c #20547D",
"E#	c #20557C",
"F#	c #20547B",
"G#	c #1D4C6F",
"H#	c #14354E",
"I#	c #07151E",
"J#	c #000406",
"K#	c #02070B",
"L#	c #0A1D2B",
"M#	c #153852",
"N#	c #1B4769",
"O#	c #1C496C",
"P#	c #1C496B",
"Q#	c #1C4A6C",
"R#	c #194261",
"S#	c #102D43",
"T#	c #06131C",
"U#	c #01070B",
"                          . + +                                 ",
"                        @ # $ % &                               ",
"                        * = -   ; >                             ",
"                        , ' )   ! ~                             ",
"                        { ] ^ / (                               ",
"                        - _                                     ",
"                        : < [ } | 1 2 3                         ",
"                    4 5 6 7 8 9 0 a b c ) d                     ",
"                  e f g h i j k l m n o p q r s                 ",
"                t u v w x y z A A B C D E F G H I               ",
"              J K L M N N O P Q R R S T U V W X Y Z             ",
"            `  ...+.@.#.$.%.x &.*.=.=.=.*.-.;.>.,.'.            ",
"            ).!.~.{.D ].^./.(._.:.<.[.}.|.1./.2.3.4.5.          ",
"          6.7.8.9.0.a.}.b.c.d.e.f.2.g.h.i.j.k.l.m.n.o.          ",
"        p.q.r.s.t.u.v.w.x.y.B z.A.B.C.D.E.F.G.H.I.J.K.L.        ",
"      M.N.O.P.Q.R.S.T.U.V.D.W.X.Y.Z.`.D. +.+++@+#+$+%+&+*+=+    ",
"    -+;+>+,+'+)+!+~+{+]+^+/+(+++_+:+<+[+}+|+1+2+3+4+5+6+7+8+    ",
"    9+0+a+b+c+d+e+f+g+h+i+j+k+l+m+n+o+p+q+r+s+t+u+v+w+x+y+z+    ",
"      A+B+*+C+D+E+F+G+G+H+F+I+J+K+L+M+N+O+P+Q+R+S+T+U+V+W+      ",
"        X+Y+Z+`+ @.@+@.@.@@@#@$@%@&@*@=@-@;@>@,@'@)@y+!@        ",
"          8+~@{@]@^@$@/@M+(@_@:@<@[@}@|@1@2@/ 3@4@5@6@7@        ",
"          8@!@9@0@a@]@*@b@c@d@e@f@g@h@i@j@k@l@m@n@o@p@q@        ",
"          r@s@8@A+t@u@v@w@x@y@e@z@A@B@C@D.D@E@F@G@H@I@          ",
"            J@H@K@L@M@N@O@P@Q@R@B D.D.D.S@T@U@V@W@X@Y@          ",
"            Z@`@ #.#+#@#;+##$#D.D.D.%#&#*#=#-#;#>#,#            ",
"              '#)#!#~#{#]#^#/#(#_#:#<#[#}#|#1#2#3#              ",
"                4#5#6#7#8#9#0#a#b#c#d#e#f#g#h#i#j#              ",
"                k#l#m#n#o#p#q#r#s#t#T+u#v#w#4#x#                ",
"                y#z#A#B#C#m#D#E#v#v#i#F#G#H#I#                  ",
"                    J#K#L#M#N#O#P#Q#R#S#T#U#                    ",
"                                                                ",
"                                                                "};
