/* XPM */
static char * spout_xpm[] = {
"15 16 4 1",
" 	c None",
".	c #FFFFFF",
"+	c #000000",
"@	c #555555",
"...............",
"........++++++.",
"........++++++.",
"........++..++.",
"........++..++.",
"........++++++.",
"........++++++.",
"..++...........",
"..++...........",
"........++.....",
"........++.....",
"....@@++.......",
"....@@++.......",
"@@.............",
"@@.............",
"@@............."};
