/* XPM */
static char *UIMA[] = {
/* columns rows colors chars-per-pixel */
"32 32 232 2",
"   c #0437007800DF",
".  c #040406060B0B",
"X  c #03600A390B22",
"o  c #11110B8B0000",
"O  c #050516960202",
"+  c #060618180202",
"@  c #0E2E1DBE01E2",
"#  c #1B1B13940000",
"$  c #10101F1F0202",
"%  c #030308081010",
"&  c #05050C0C1C1C",
"*  c #111123230202",
"=  c #1C1C37370101",
"-  c #1F1F3D3D0404",
";  c #32B321210000",
":  c #3A3A26260000",
">  c #3D3D29290000",
",  c #20203DE80404",
"<  c #04B80EF5206D",
"1  c #060610102323",
"2  c #0C0C10102525",
"3  c #131319193C3C",
"4  c #424200000909",
"5  c #585800001010",
"6  c #6E6E00000E0E",
"7  c #6E6E00001515",
"8  c #74CA00001616",
"9  c #7AD600001237",
"0  c #76761A1A1212",
"q  c #42C22C2C0383",
"w  c #49492C2C0000",
"e  c #5A5A3B3B0000",
"r  c #797927271212",
"t  c #6C6C3A9011BC",
"y  c #7F7F31311616",
"u  c #4B4B38382020",
"i  c #1F1F46460404",
"p  c #1F1F4B4B0404",
"a  c #272747470505",
"s  c #296945850585",
"d  c #242449CA042F",
"f  c #3CE7772103AE",
"g  c #323279F90202",
"h  c #3BE67C2605B0",
"j  c #3F3F7F7F0808",
"k  c #484845450808",
"l  c #4B4B58580808",
"z  c #5D5D5A5A0E0E",
"x  c #6BC145F00000",
"c  c #686848480000",
"v  c #75F64CCC0000",
"b  c #79F94DCE0000",
"n  c #646440401010",
"m  c #68684E4E1111",
"M  c #737346461313",
"N  c #70C649F41212",
"B  c #656551511010",
"V  c #6AC05C5C10BB",
"C  c #797954541414",
"Z  c #76765C5C1313",
"A  c #7A7A5B5B1414",
"S  c #48C869690A8A",
"D  c #5BDC64E40D8D",
"F  c #565669690D0D",
"G  c #5CDC6EEF0D0D",
"H  c #40407E7E0707",
"J  c #47477B7B0909",
"K  c #4ACB79790989",
"L  c #585874740D0D",
"P  c #51517D7D0A0A",
"I  c #63236A2A0EEF",
"U  c #6EC4650F1111",
"Y  c #727257573636",
"T  c #7F7F5F5F3737",
"R  c #737357573838",
"E  c #747458583A3A",
"W  c #15E31E0444C4",
"Q  c #11921E1E5313",
"!  c #161620204ECF",
"~  c #187F20874A7D",
"^  c #1495202051D2",
"/  c #262634347F7F",
"(  c #28BB36367E7E",
")  c #33333C3C7575",
"_  c #32DD3D937D27",
"`  c #3CBD41C27373",
"'  c #3B3B42987E28",
"]  c #59594B4B4C4C",
"[  c #4E4E45455151",
"{  c #4E4E48485E5E",
"}  c #59034D4D55AB",
"|  c #58584F4F5F5F",
" . c #64E452D34A4A",
".. c #71F15A5A45C6",
"X. c #74CA5D074949",
"o. c #78785F5F4949",
"O. c #6A6A58585454",
"+. c #666658585E5E",
"@. c #6AEB5ADB59D9",
"#. c #7B7B60604545",
"$. c #757561615B5B",
"%. c #4BF6489E6565",
"&. c #424244446E6E",
"*. c #4C4C49496868",
"=. c #53134C8C63A3",
"-. c #53534D4D6969",
";. c #575750506565",
":. c #5C5C55556D17",
">. c #434346067474",
",. c #4E4E4DCE75F6",
"<. c #4C4C4DCE7C7C",
"1. c #50504E4E7272",
"2. c #575752A87373",
"3. c #6161575769EA",
"4. c #868600001212",
"5. c #979700001C1C",
"6. c #92920E0E1818",
"7. c #9A9A0C0C1919",
"8. c #9E9E1A1A1D1D",
"9. c #A5A510101F1F",
"0. c #A6A618181E1E",
"q. c #A9A91E1E1E1E",
"w. c #921125251A1A",
"e. c #999926261C1C",
"r. c #8A6A32F31818",
"t. c #8A8A38381818",
"y. c #929232321A1A",
"u. c #999934341A1A",
"i. c #93D33CBD1959",
"p. c #9E9E3C3C1B1B",
"a. c #A72720A01D9E",
"s. c #B0B024241F1F",
"d. c #A2A231871C1C",
"f. c #ACAC31311E1E",
"g. c #A2A238381C1C",
"h. c #ADAD00002020",
"j. c #B53501012161",
"k. c #BC7C00A12303",
"l. c #B2B208082121",
"z. c #B5351A1A2121",
"x. c #BABA2D2D2121",
"c. c #C3EE0101244F",
"v. c #C3C30A0A2424",
"b. c #CE230D0D257B",
"n. c #D42905B02727",
"m. c #D2D20A0A2727",
"M. c #D8D80F0F2727",
"N. c #D7D700C12828",
"B. c #DC0E010128D3",
"V. c #C0C0171723A4",
"C. c #E50F00112AA2",
"Z. c #EBD700002BDD",
"A. c #E9E90A0A2B2B",
"S. c #F14600002CD7",
"D. c #808054540000",
"F. c #8A345AB00000",
"G. c #863044C516C1",
"H. c #8E8E43431818",
"J. c #9B1B65E60000",
"K. c #A34D6AC00000",
"L. c #AFAF73730505",
"P. c #B5B576760000",
"I. c #BB107A7A0000",
"U. c #BBBB7B7B0B0B",
"Y. c #A8FE741E1AC5",
"T. c #B0B077771111",
"R. c #B5B57A7A12BD",
"E. c #929267672424",
"W. c #9F9F6F6F2020",
"Q. c #9B1A72723CBC",
"!. c #A8A879793333",
"~. c #A52579793F3F",
"^. c #C1C17F7F0000",
"/. c #838363634040",
"(. c #8C8C6CEC4949",
"). c #92926F6F4A4A",
"_. c #979772724747",
"`. c #87876A6A5252",
"'. c #A0A077774646",
"]. c #2F2F8A8A0404",
"[. c #32F383830545",
"{. c #3CE783D906B1",
"}. c #35F68C4C0545",
"|. c #3AD88CB40613",
" X c #31CB9595046B",
".X c #41418A8A0707",
"XX c #4343844B0816",
"oX c #494981810909",
"OX c #448489080808",
"+X c #48488C8C0808",
"@X c #BEBE81811919",
"#X c #BE1384DA25D0",
"$X c #C2C280800000",
"%X c #CACA85850303",
"&X c #C5C584840E0E",
"*X c #C8C885850F0F",
"=X c #D36C8AF10134",
"-X c #DA2F8E8E0157",
";X c #D47E8CE20A60",
":X c #DCDC90900000",
">X c #C0C081811414",
",X c #C0C085851F1F",
"<X c #E3A394A40252",
"1X c #EAEA97970000",
"2X c #E7E798980000",
"3X c #EB2199E20006",
"4X c #E2E296960C0C",
"5X c #E9E99A9A0C0C",
"6X c #F3949E24000E",
"7X c #F688A1580000",
"8X c #FB0FA3630000",
"9X c #FFFFAC2B0000",
"0X c #1E7430DB852F",
"qX c #1C1C31318989",
"wX c #141431319D9D",
"eX c #232334B58484",
"rX c #282838388383",
"tX c #242438389090",
"yX c #2BAB3F3F9696",
"uX c #245D3B589C9C",
"iX c #295C3E719C02",
"pX c #1A1A3603A43D",
"aX c #1D9E3838A1A1",
"sX c #343441418989",
"dX c #3E3E48488E8E",
"fX c #2F2F40C09313",
"gX c #2DD840EB9A44",
"hX c #319141C193D3",
"jX c #328844449B70",
"kX c #449A4AA08383",
"lX c #414149498888",
"zX c None",
/* pixels */
"zXzXzXzXzXzXzXzXzXzXzXzXzXzXzXzXzXzXzXzXzXzXzXzXzXzXzXzXzXzXzXzX",
"zXzXzXzXzXzXzXzXzXzXzXzXzXzXzXzXzXzXzXzXzXzXzXzXv F.K.=XD.zXzXzX",
"zXzXzXzXzXzXzXzXzXzXzXzXzXzXzXzXzXzXzXzXv K.T.1.3.4X8X9XP.zXzXzX",
"zXzX* s a d p d s d d s d d s zXx ^.=X6X8X9X#XpXwXY.6X6X=X# zXzX",
"zXzXi L i.x.x.d.B oX+XV f.d.z + b 9X3X3X2X3X<X/.E -X3X3X3X: zXzX",
"zXzX, |.V C.Z.w.[.XXXX}.u.y [.O w 7X3X2X2X3X6X6X;X<X3X2X8Xe zXzX",
"zXzX- |.I N.C.r.}.XXXX|.G.N |.+ zX<X3X2X3X<XQ.2.' *X6X2X8XF.zXzX",
"zXzX- |.I N.C.r.}.XXXX|.G.M |.@ zX$X7X2X3X<XX.pX' ;X3X2X6XI.zXzX",
"zXzX- |.I N.C.r.}.XXXX|.G.M |.@ zXK.7X2X2X6X#XuX>.-X3X2X3X:Xo zX",
"zXzX- |.I N.C.r.}.XXXX|.G.M |.@ zXb 7X2X2X6X!.aX%.<X3X2X3X3X; zX",
"zXzX- |.I N.C.r.}.XXXX|.G.M |.@ zXw 6X1X2X6XQ.pX} 3X3X2X2X7Xx zX",
"zXzX- |.I N.C.r.}.XXXX|.G.N |.@ zXzX<X3X2X6X(.pX..@X;X3X2X8XJ.zX",
"zXzX, |.G n.Z.r.}.XXXX|.i.m |.@ zXzX%X6X2X6X$.aX;.R <X7X8X9XI.zX",
"zXzX- .XoXV.Z.a.}.|.}.P 0.S |.@ zXzXJ.7X3X8X_.iX` R.2XI.F.e ; zX",
"zXzX, OX|.V m.Z.g.U A a.n |.OX$ zXzXx 9X6X-XL.u q > o   zXzXzXzX",
"zXzX= f f g l r 7.6.0 k g f f @ zXzXzXc > #   zXzXzXzXzXzXzXzXzX",
"zXzXzXX X X X X X . X X X . X   zXzXzXzXzXzXzXzXzXzXzXzXzXzXzXzX",
"zXzX3 ( ( ( 0X0X( ( ( / 0XeX( & 6 c.k.k.k.c.c.c.k.k.k.c.5.zXzXzX",
"zXzXW jXjX:.~.).hXjXgXdX'.~.=.< 9 S.C.C.C.p.U i.C.C.C.Z.j.  zXzX",
"zXzXW hXyX' 3X<X_ yXuX(.9XY.eX< 9 C.N.B.b.K  XH v.B.N.C.h.  zXzX",
"zXzXW hXiX,.%X<X` uXkX&X6X .uX< 9 C.N.C.d.|.j }.t.C.N.C.h.  zXzX",
"zXzXW hXuX@.W.6X*.uXX.T.1X*.uX< 9 C.N.B.U {.t OXF n.B.C.h.  zXzX",
"zXzXW fXhXX.#.7X=.<.Y ,X;X_ yX< 9 C.B.V..XS v.I }.q.C.C.h.  zXzX",
"zXzXW yXlX .+.6XO...{ 5XY.tXfX< 9 C.C.H. Xt Z.i. XN B.C.h.  zXzX",
"zXzXW iX2.} 2.3XR.[ :.8XT uXhX< 9 Z.n.G }.D Z I |.K v.Z.h.  zXzX",
"zXzXW iX@.%.<.6XU.qX`.8X} iXhX< 9 S.s.|.{.h [.h {.|.y.Z.h.  zXzX",
"zXzXW iXo._ kX<X] pX#X<X) gXfX< 9 S.C  Xt j.l.j.t. XD C.j.  zXzX",
"zXzXW :.>X>.kXE.rX3.2X=X&.gXfX< 9 M.XX[.9.Z.B.C.b.J ].z.j.  zXzX",
"zXzX~ ,.| >.jXsXjX-.=.=.>.jXjX1 4.A.e.8.B.Z.C.Z.Z.z.w.b.k.  zXzX",
"zXzX2 ^ Q ! ~ ! ~ Q Q Q ^ ~ ~ % 4 9 8 8 8 7 7 7 7 8 8 8 5   zXzX",
"zXzXzXzXzXzXzXzXzXzXzXzXzXzXzXzXzXzXzXzXzXzXzXzXzXzXzXzXzXzXzXzX",
"zXzXzXzXzXzXzXzXzXzXzXzXzXzXzXzXzXzXzXzXzXzXzXzXzXzXzXzXzXzXzXzX"
};
