/* XPM */
static char *yahtzeesharp[] = {
/* columns rows colors chars-per-pixel */
"31 32 197 2",
"   c #000001",
".  c #080706",
"X  c #00070A",
"o  c #00090D",
"O  c #0D0B0A",
"+  c #000E15",
"@  c #00131C",
"#  c #0C181D",
"$  c #16191B",
"%  c #001621",
"&  c #041823",
"*  c #0E1B22",
"=  c #001C2A",
"-  c #002334",
";  c #002639",
":  c #002A3F",
">  c #16303D",
",  c #292726",
"<  c #252829",
"1  c #2B3134",
"2  c #353434",
"3  c #383636",
"4  c #3A3C3E",
"5  c #25473E",
"6  c #26493F",
"7  c #526B3A",
"8  c #667937",
"9  c #61773A",
"0  c #002D44",
"q  c #093647",
"w  c #01324C",
"e  c #103841",
"r  c #193847",
"t  c #113F4A",
"y  c #003552",
"u  c #003955",
"i  c #003B5B",
"p  c #273943",
"a  c #283F4B",
"s  c #3A3F42",
"d  c #003F62",
"f  c #10424E",
"g  c #1E4C4D",
"h  c #0B4053",
"j  c #0A425A",
"k  c #2C5245",
"l  c #24524D",
"z  c #315442",
"x  c #3A5C41",
"c  c #2B5C55",
"v  c #285E5B",
"b  c #2A615C",
"n  c #004364",
"m  c #0C4764",
"M  c #00466A",
"N  c #00496D",
"B  c #07506F",
"V  c #014D73",
"C  c #065075",
"Z  c #00527C",
"A  c #155270",
"S  c #1A5D7F",
"D  c #274E61",
"F  c #295368",
"G  c #245C78",
"H  c #14627A",
"J  c #34736C",
"K  c #2B777D",
"L  c #377C75",
"P  c #3C7D71",
"I  c #327E7E",
"U  c #414649",
"Y  c #444A4D",
"T  c #4B5154",
"R  c #565A5C",
"E  c #585A5C",
"W  c #605F5E",
"Q  c #436B4D",
"!  c #426E52",
"~  c #447459",
"^  c #4F7C58",
"/  c #437B65",
"(  c #566C77",
")  c #556F7C",
"_  c #636262",
"`  c #646B6F",
"'  c #717170",
"]  c #787676",
"[  c #71797C",
"{  c #6D823A",
"}  c #758A3C",
"|  c #798B3A",
" . c #33807F",
".. c #3C847B",
"X. c #5A8253",
"o. c #648246",
"O. c #6B8542",
"+. c #748E44",
"@. c #799549",
"#. c #6F9352",
"$. c #63915E",
"%. c #799F56",
"&. c #789F59",
"*. c #75A15F",
"=. c #5F9366",
"-. c #53906F",
";. c #5D946A",
":. c #458673",
">. c #488974",
",. c #518F70",
"<. c #659866",
"1. c #6D9D63",
"2. c #639768",
"3. c #81933B",
"4. c #879A3D",
"5. c #8D9F3F",
"6. c #949F36",
"7. c #96A238",
"8. c #99A538",
"9. c #9CAB3D",
"0. c #A1AD39",
"q. c #ACB437",
"w. c #B3B936",
"e. c #B9BD35",
"r. c #B5BE3A",
"t. c #BDC134",
"y. c #B4C03F",
"u. c #BBC23A",
"i. c #C3C737",
"p. c #C6C936",
"a. c #CDCC33",
"s. c #D0CF32",
"d. c #D2D031",
"f. c #829840",
"g. c #87A44D",
"h. c #8BA64C",
"j. c #97A840",
"k. c #9BAE43",
"l. c #95B04E",
"z. c #9BB44C",
"x. c #81A455",
"c. c #85A957",
"v. c #8DAD52",
"b. c #83A859",
"n. c #A6B845",
"m. c #ADBC42",
"M. c #A2B748",
"N. c #005684",
"B. c #025A85",
"V. c #005C8B",
"C. c #005F92",
"Z. c #01608F",
"A. c #156B87",
"S. c #16708E",
"D. c #1D748A",
"F. c #006394",
"G. c #096692",
"H. c #076996",
"J. c #0A6B95",
"K. c #006699",
"L. c #066A9C",
"P. c #0B6E9F",
"I. c #146A95",
"U. c #156E9A",
"Y. c #266280",
"T. c #236789",
"R. c #276C8E",
"E. c #207081",
"W. c #2F7E81",
"Q. c #217688",
"!. c #3A728E",
"~. c #296E91",
"^. c #2D7092",
"/. c #387492",
"(. c #3D7D9D",
"). c #0D6FA0",
"_. c #1372A1",
"`. c #1B77A5",
"'. c #1D78A6",
"]. c #2B7DA6",
"[. c #267DA8",
"{. c #2A7EA8",
"}. c #456E82",
"|. c #477389",
" X c #577686",
".X c #527689",
"XX c #697E88",
"oX c #3C86AB",
"OX c #519182",
"+X c #49829F",
"@X c #6F828B",
"#X c #698593",
"$X c #4783A2",
"%X c #4087AA",
"&X c #898787",
"*X c #8A8A8B",
"=X c None",
/* pixels */
"=X=X=X=X=X=X=X=X=X=X=X_ R Y U U 4 3 =X=X=X=X=X=X=X=X=X=X=X=X=X",
"=X=X=X=X=X=X=X=X' ` ) |./.^.~.R.Y.F a 1 , =X=X=X=X=X=X=X=X=X=X",
"=X=X=X=X=X=X&X[ .X(.{.'._.).).P.)._.U.S r $ =X=X=X=X=X=X=X=X=X",
"=X=X=X=X=X*XXX$X[._.L.K.K.K.K.K.K.K.L.L.G.m * . =X=X=X=X=X=X=X",
"=X=X=X=X*X#XoX`.I.H.K.K.K.K.K.K.K.K.K.J.L.K.C &   =X=X=X=X=X=X",
"=X=X=X*X#XoXOXb.l.l.:.F.K.K.K.K.K.D.2.z.2.Z.K.V @   =X=X=X=X=X",
"=X=X=X@X%X_.c.s.a.s.@.Z C.K.K.S.2.m.s.e.! V F.F.n o =X=X=X=X=X",
"=X=X[ +X[.K.;.a.a.s.| d V.K...M.a.a.7.k w N C.F.F.0   =X=X=X=X",
"=X]  X{.L.K.D.m.a.a.6.i B.,.i.s.e.9 q y N V.F.K.F.Z +   =X=X=X",
"=X` (._.K.K.K.P r.s.i.O.g.p.e.+.k 0 u Z Z.K.K.K.K.V.0   =X=X=X",
"=X( ].L.K.K.K.F.J 0.a.a.a.4.k w y N B.F.K.K.K.K.K.F.M o =X=X=X",
"W }.`.L.K.K.K.K.E.j.a.e.7 q u N N.C.K.K.K.K.K.K.K.F.Z @   =X=X",
"E !._.K.K.K.K.W.n.d.d.8 0 i N.V.I.OX:.<.*.I F.K.K.F.N.-   =X=X",
"T ^.P.K.K.K.K.>.x.f.8 5 i H :.b.m.p.a.i.q.~ N.F.K.K.V.:   =X=X",
"Y ~.P.K.K.K.K.F.N.n u j X.n.p.j.9.8.{ 6 f u Z F.K.K.V.0   =X=X",
"U R.P.K.K.K.K.K.Z.B.B.<.a.s.w.g h f u j n Z V.F.K.K.V.:   =X=X",
"z T.P.K.K.K.K.K.K.K.K.;.a.d.a.3.b C Z Z.F.F.K.K.K.K.B.;   =X=X",
"2 G ).K.K.F.K.K.K.K.K.G./ f.e.s.u.*.K G.K.K.K.K.K.F.N.&   =X=X",
"2 D _.K.K.K.K.K.K.K.K.K.V.C c O.w.a.u.*.A.F.K.K.K.F.N +   =X=X",
"=Xp I.L.K.K.K.K.K.K.K.K.K.F.N.V v 0.d.d.#.B.F.K.K.Z.y     =X=X",
"=X, A L.K.K.K.K.K.K.K.J.D...2.x.h.t.0.8 6 B Z.K.F.Z =   =X=X=X",
"=X=X> G.K.K.K.K.K.K.Q.v.r.i.t.9.+.Q f w i C Z.F.V.u X   =X=X=X",
"=X=X$ j K.K.K.K.K.K.J.L ^ Q l h u n M Z B.F.F.F.V %     =X=X=X",
"=X=X=X# V K.F.K.K.K.K.C.Z M M V Z V.Z.F.K.K.F.Z ;     =X=X=X=X",
"=X=X=XO * V F.K.K.K.K.K.F.F.F.F.K.K.K.K.K.V.Z :     =X=X=X=X=X",
"=X=X=X=X. @ n C.F.F.K.K.K.K.K.K.K.K.K.F.V.N - X     =X=X=X=X=X",
"=X=X=X=X=X  o 0 Z F.F.F.F.K.F.F.F.F.V.Z i %       =X=X=X=X=X=X",
"=X=X=X=X=X=X=X  @ 0 N N.V.V.V.V.Z V y - X     =X=X=X=X=X=X=X=X",
"=X=X=X=X=X=X=X=X    o @ - ; ; ; = + X       =X=X=X=X=X=X=X=X=X",
"=X=X=X=X=X=X=X=X=X=X=X                  =X=X=X=X=X=X=X=X=X=X=X",
"=X=X=X=X=X=X=X=X=X=X=X=X=X=X=X=X=X=X=X=X=X=X=X=X=X=X=X=X=X=X=X",
"=X=X=X=X=X=X=X=X=X=X=X=X=X=X=X=X=X=X=X=X=X=X=X=X=X=X=X=X=X=X=X"
};
