/* XPM */
static char *zynjacku[] = {
/* columns rows colors chars-per-pixel */
"32 32 116 2",
"   c #000000000000",
".  c #020203030303",
"X  c #030303030404",
"o  c #040405050606",
"O  c #060607070808",
"+  c #060608080909",
"@  c #08080A0A0B0B",
"#  c #08080A0A0C0C",
"$  c #0A0A0C0C0E0E",
"%  c #0B0B0E0E1010",
"&  c #0C0C0F0F1111",
"*  c #0D0D10101212",
"=  c #0F0F12121515",
"-  c #101014141717",
";  c #121216161919",
":  c #131318181B1B",
">  c #141418181C1C",
",  c #16161C1C2020",
"<  c #19191E1E2323",
"1  c #19191F1F2424",
"2  c #1B1B22222727",
"3  c #1C1C23232828",
"4  c #1D1D25252A2A",
"5  c #1E1E25252B2B",
"6  c #202027272D2D",
"7  c #212129292F2F",
"8  c #22222B2B3131",
"9  c #23232C2C3232",
"0  c #24242C2C3333",
"q  c #25252D2D3434",
"w  c #292933333B3B",
"e  c #2A2A34343C3C",
"r  c #2C2C37373F3F",
"t  c #2E2E39394141",
"y  c #33333F3F4747",
"u  c #333340404848",
"i  c #353542424B4B",
"p  c #373745454E4E",
"a  c #3A3A48485252",
"s  c #3B3B49495353",
"d  c #3C3C4B4B5555",
"f  c #3F3F4E4E5959",
"g  c #414150505B5B",
"h  c #464657576363",
"j  c #474758586464",
"k  c #484859596565",
"l  c #4B4B5D5D6A6A",
"z  c #4C4C5E5E6B6B",
"x  c #4E4E61616E6E",
"c  c #4F4F62627070",
"v  c #515164647272",
"b  c #535367677575",
"n  c #545468687676",
"m  c #555569697878",
"M  c #58586D6D7C7C",
"N  c #58586E6E7D7D",
"B  c #5A5A6F6F7F7F",
"V  c #5C5C72728282",
"C  c #5F5F76768686",
"Z  c #606077778888",
"A  c #616178788989",
"S  c #63637B7B8C8C",
"D  c #64647C7C8D8D",
"F  c #64647C7C8E8E",
"G  c #66667E7E9090",
"H  c #686881819393",
"J  c #696982829494",
"K  c #6B6B84849797",
"L  c #6C6C86869999",
"P  c #6E6E88889B9B",
"I  c #6E6E89899C9C",
"U  c #70708B8B9F9F",
"Y  c #72728E8EA2A2",
"T  c #73738F8FA3A3",
"R  c #75759191A5A5",
"E  c #77779393A8A8",
"W  c #79799696ABAB",
"Q  c #79799797ACAC",
"!  c #7B7B9898AEAE",
"~  c #7C7C9999AFAF",
"^  c #7D7D9B9BB1B1",
"/  c #7E7E9C9CB2B2",
"(  c #7E7E9D9DB3B3",
")  c #8181A0A0B7B7",
"_  c #8383A3A3BABA",
"`  c #8484A4A4BBBB",
"'  c #8787A7A7BEBE",
"]  c #8787A8A8BFBF",
"[  c #8989AAAAC1C1",
"{  c #8B8BACACC4C4",
"}  c #8C8CAEAEC6C6",
"|  c #8E8EB1B1C9C9",
" . c #9191B3B3CCCC",
".. c #9191B4B4CDCD",
"X. c #9393B7B7D0D0",
"o. c #9494B8B8D1D1",
"O. c #9696BABAD4D4",
"+. c #9898BCBCD6D6",
"@. c #9A9ABFBFD9D9",
"#. c #9B9BC0C0DBDB",
"$. c #9C9CC1C1DCDC",
"%. c #9D9DC3C3DEDE",
"&. c #9F9FC6C6E1E1",
"*. c #A1A1C7C7E3E3",
"=. c #A1A1C8C8E4E4",
"-. c #A4A4CBCBE7E7",
";. c #A6A6CDCDEAEA",
":. c #A8A8D1D1EEEE",
">. c #AAAAD3D3F0F0",
",. c #ABABD4D4F2F2",
"<. c #ADADD6D6F4F4",
"1. c #AEAED8D8F6F6",
"2. c #AFAFDADAF8F8",
"3. c #B1B1DBDBFAFA",
"4. c #B2B2DCDCFBFB",
"5. c #B3B3DEDEFDFD",
/* pixels */
"5.5.5.5.5.5.5.5.5.5.5.5.5.5.5.5.5.5.5.5.5.5.5.5.5.5.5.5.5.5.5.5.",
"5.:.~ ! ! ! ! ` 5.5.5.5.=.5.5.5.5.3...5.5.3.1.5.5.5.5.5.5.4.5.5.",
"5.z             C 5.5.I * ,.5.5.5.J   X.5.c y 5.5.5.5.5.w ; ;.5.",
"5.w             9 5.5.i   I 5.5.5.9   D 5.w   [ 5.5.5.,.    W 5.",
"5.y             , 5.5.w   t 5.5.#.    A 5.q   s 5.5.5.-.    Y 5.",
"5.C             p 5.5.j     &.5.C     [ 5.0     &.5.5.;.    Y 5.",
"5.;.f g A ) z   R 5.5.'     A 5.7   > 5.5.0     n 5.5.:.    Y 5.",
"5.5.5.5.5.5.< @ ,.5.5.4.>   7 +.    m 5.5.0     * <.5.1.    Y 5.",
"5.5.5.5.5.[   f 5.5.5.5.b     d     O.5.5.0       P 5.3.    R 5.",
"5.5.5.5.5.h   / 5.5.5.5.o.        0 5.5.5.q   +   4 5.5.    Y 5.",
"5.5.5.5.<.$ * 2.5.5.5.5.5.8       G 5.5.5.0   d X   ] 5.+   Y 5.",
"5.5.5.5.R   k 5.5.5.5.5.5.S     o =.5.5.5.0   x u   s 5.$   Y 5.",
"5.5.5.5.y   ' 5.5.5.5.5.5.=.    i 5.5.5.5.9   k /     %.=   Y 5.",
"5.5.5.*.  : 5.5.5.5.5.5.5.5.2   C 5.5.5.5.q   h 4.>   b :   Y 5.",
"5.5.5.Z   v 5.5.5.5.5.5.5.5.2   C 5.5.5.5.9   g 5.M   * -   Y 5.",
"5.5.5.4    .5.5.5.5.5.5.5.5.2   C 5.5.5.5.q   s 5.&.        Y 5.",
"5.5.|   3 5.5.5.5.5.5.5.5.5.2   C 5.5.5.5.0   p 4.5.i       Y 5.",
"5.5.l   B 5.5.5.5.5.5.5.5.5.2   C 5.5.5.5.0   i 5.5./       Y 5.",
"5.3.=   a a 0 * w 3.5.5.5.5.2   C 5.5.5.5.0   t 5.5.3.>     Y 5.",
"5.'               X.5.5.5.5.4   C 5.5.5.5.0   w 5.5.5.B     Y 5.",
"5.S               ' 5.5.5.5.2   C 5.5.5.5.0   e 5.5.5.*.o   Y 5.",
"5.B               o.5.5.5.5.w   G 5.5.5.5.t   p 5.5.5.5.s   W 5.",
"5.{ 1 < < < < 1 s 5.5.5.5.5.W < %.5.5.5.5.P   Y 5.5.5.5.o.$ @.5.",
"5.5.5.5.5.5.5.5.5.5.5.5.5.5.5.5.5.5.5.5.5.5.3.5.5.5.5.5.5.3.5.5.",
"5.%.A 5.5.5...K 5.5.5.5.5.' Y / 1.5.[ H 5.5.' ;.5.5.5.5.5.5.5.5.",
"5.D   5.5.5.q   L 5.5.5.p o ;   y 5.m & 5.V   J 5.=. .5.5.<...5.",
"5.Y   ,.5.&.  e 5 5.5.[ o @.5.@._ 5.C + D   h 3.5.m X >.5.n   :.",
"5./   =.5.H $ %.  ' 5.J 8 5.5.5.5.5.D     , 2.5.5.V   -.5.B   %.",
"5.[   @.5.y < b > p 5.Q ; 3.5.5.5.5.I   x   h 5.5.D   =.5.J   o.",
"e B   @.:.o C 5.Y   %.>.- l | Y C 3.E   | B   b 5.Y   %.5.W   } ",
"s @ d 5...  [ 5.:.* D 5.| 3     6 >...; o.5.v * 3.#.X A 5.Z   *.",
"5.5.5.5.5.5.5.5.5.<.5.5.5.5.=.-.5.5.5.5.5.5.5.5.5.5.R - # # D 5."
};
