/* XPM */
static char *openofficeorg__printeradmin[] = {
/* columns rows colors chars-per-pixel */
"32 32 183 2",
"   c #0C0C0C",
".  c #0F1011",
"X  c #0A131B",
"o  c #101212",
"O  c #1A1B1B",
"+  c #091622",
"@  c #091A29",
"#  c #0C1F30",
"$  c #0E2537",
"%  c #0E233A",
"&  c #172636",
"*  c #10273A",
"=  c #222323",
"-  c #2A2B2C",
";  c #323435",
":  c #3B3C3D",
">  c #37434C",
",  c #3B454E",
"<  c #3F4953",
"1  c #1B4A7B",
"2  c #274664",
"3  c #434546",
"4  c #47494B",
"5  c #494C4E",
"6  c #444E58",
"7  c #4F5255",
"8  c #49545F",
"9  c #515455",
"0  c #575A5B",
"q  c #505B66",
"w  c #5C5E60",
"e  c #56616D",
"r  c #5C6874",
"t  c #646669",
"y  c #6C6F72",
"u  c #626F7B",
"i  c #737577",
"p  c #747779",
"a  c #76797B",
"s  c #7B7E7F",
"d  c #7B9567",
"f  c #8DFF1A",
"g  c #82BA4E",
"h  c #89A376",
"j  c #8AC257",
"k  c #22568C",
"l  c #2B639C",
"z  c #3F6994",
"x  c #396B9D",
"c  c #1D62AB",
"v  c #1C65B1",
"b  c #2463A4",
"n  c #2864A0",
"m  c #2165AE",
"M  c #276EAF",
"N  c #2A6EAF",
"B  c #326BAA",
"V  c #2D76AC",
"C  c #3F73AC",
"Z  c #3079AD",
"A  c #236BB4",
"S  c #2B6DB2",
"D  c #2670B7",
"F  c #2B73B5",
"G  c #2A75BA",
"H  c #2B79BC",
"J  c #3673B3",
"K  c #3B73B0",
"L  c #337CBD",
"P  c #3D7EBA",
"I  c #697682",
"U  c #6E7B89",
"Y  c #757C83",
"T  c #4576AD",
"R  c #4175B1",
"E  c #4078B6",
"W  c #4A7CB3",
"Q  c #2E7EC4",
"!  c #317EC1",
"~  c #387EC1",
"^  c #7D8083",
"/  c #73808E",
"(  c #778592",
")  c #7A8896",
"_  c #4C85BC",
"`  c #5B83B4",
"'  c #548CBC",
"]  c #628AB3",
"[  c #648CBB",
"{  c #698DB9",
"}  c #6D91BC",
"|  c #7091BC",
" . c #2F80C4",
".. c #3483C3",
"X. c #3B83C3",
"o. c #3385C8",
"O. c #4484C2",
"+. c #438BC4",
"@. c #448EC9",
"#. c #548DC0",
"$. c #5D8FC1",
"%. c #4691C6",
"&. c #4792CA",
"*. c #4B95CB",
"=. c #4E99CE",
"-. c #5491C6",
";. c #5D94C4",
":. c #5296C9",
">. c #5996C9",
",. c #549ACD",
"<. c #5C9DCD",
"1. c #668EC0",
"2. c #6491C3",
"3. c #6893C4",
"4. c #6098C7",
"5. c #6E9BC5",
"6. c #6397C8",
"7. c #629CCC",
"8. c #6C9BCA",
"9. c #749CC6",
"0. c #799DC7",
"q. c #759ECA",
"w. c #7A9DC8",
"e. c #64A0CF",
"r. c #75A0C7",
"t. c #76A2CB",
"y. c #7BA4CB",
"u. c #7FA8CD",
"i. c #83878A",
"p. c #85898D",
"a. c #888B8E",
"s. c #838990",
"d. c #8B8E92",
"f. c #95999B",
"g. c #999C9F",
"h. c #9FA3A8",
"j. c #8EA5BC",
"k. c #A8ACAE",
"l. c #A7ACB0",
"z. c #ADB1B4",
"x. c #B5B9BB",
"c. c #81A4CC",
"v. c #82A9CE",
"b. c #86ACD1",
"n. c #8CADD2",
"m. c #83B4D7",
"M. c #8EB1D4",
"N. c #93B3D5",
"B. c #99B5D5",
"V. c #9DB8D7",
"C. c #94B8D9",
"Z. c #BABEC1",
"A. c #BFC3C7",
"S. c #A3C2DD",
"D. c #ABC6DD",
"F. c #9EC5E1",
"G. c #A2C6E1",
"H. c #A3C8E2",
"J. c #A9CAE3",
"K. c #B6CEE5",
"L. c #BBD1E5",
"P. c #BED5E8",
"I. c #D1D4D7",
"U. c #D1D5D8",
"Y. c #CADDED",
"T. c #D9DDE0",
"R. c #CAE0EF",
"E. c #DEE1E3",
"W. c #D4E2EF",
"Q. c #DBE4EA",
"!. c #DAE6F1",
"~. c #DDE8F2",
"^. c #E4E7E9",
"/. c #E2E9EF",
"(. c #E6EDF2",
"). c #E7F0F6",
"_. c #EDF2F5",
"`. c #EDF3F9",
"'. c #F1F4F7",
"]. c #F5F7F9",
"[. c #F5FAFC",
"{. c #FCFEFE",
"}. c None",
/* pixels */
"}.}.}.}.}.}.}.}.}.}.}.}.}.{ | { { }.}.}.}.}.}.}.}.}.}.}.}.}.}.}.",
"}.}.}.}.}.}.}.}.}.{ } 9.w.c.n.c.0.9.1.{ ] }.}.}.}.}.}.}.}.}.}.}.",
"}.}.}.}.}.}.}.{ 0.N.V.B.B.B.B.B.B.B.V.B.c.[ ` }.}.}.}.}.}.}.}.}.",
"}.}.}.}.}.}.w.V.B.N.N.N.N.N.N.N.N.N.N.N.N.B.w.` }.}.}.}.}.}.}.}.",
"}.}.}.}.}.c.N.N.M.n.N.N.N.C.C.N.N.N.N.N.M.M.N.c.W }.}.}.}.}.}.}.",
"}.}.}.}.3.n.b.v.b.M.M.M.N.M.N.N.n.N.M.M.n.v.c.b.3.W }.}.}.}.}.}.",
"}.}.}.R y.y.y.c.u.y.y.t.t.r.t.y.u.b.y.q.9.y.c.5.9.J T }.}.}.}.}.",
"}.}.T E 8.8.q.q.u.K.(.{.{.{.(.L.u.5.S.W.{.{.{.[.W.b.J }.}.}.}.}.",
"}.}.S J ;.6.8.8.C.v.v.C.D.~.{.{.[.`.{.{.~.D.y.q.w.;.J B }.}.}.}.",
"}.B S F #.;.<.6.<.2.4.' ' ' r.R.{.{._.b.' ' ' #._ N S S }.}.}.}.",
"}.m S J P -.>.<.e.e.e.e.e.) ) ) ) ) ) ) ) ) ) ) ) ) ) S B }.}.}.",
"}.A S H ~ O.:.>.<.<.<.<.<.( _._.'._._._._._._._.'._.( S c }.}.}.",
"l A G L L +.@.*.,.,.,.,.,./ Q.Q.Q.Q.Q.Q.Q.Q.Q.Q.Q.Q.( A v }.}.}.",
"b v G L X.+.&.&.,.=.,.,.,.U Q.Q.Q.Q.Q.Q.W.T.Q.Q.Q.Q.U A v }.}.}.",
"b A G L X.X.*.=.*.=.=.=.=.u Q.Q.M V V V V V V V Q.Q.I G v k }.}.",
"b A H ! X.@.&.=.=.=.=.=.=.u Q.Q.Q.T.Q.Q.Q.Q.Q.Q.W.T.u G A k }.}.",
"l A F H P X.X.%.*.=.,.&.&.r /.Q.!.Q./.Q.^.Q.Q.Q.^.!.r G A 1 }.}.",
"] C.S.Y.R.J.H.m.:.@.@.&.H.q /./.V V Z V V V V Z /./.e G A }.}.}.",
"j.{.{.{.{.[.[.[.].R.F.(.[.q (.(.(.(.)./.(.(.(./.(.(.q G A }.}.}.",
"}.W.W.`.{.{.{.{.x.i.9 5 5 8 _._._._._._._._._._._._.8 * & 4 w }.",
"}.l N N P t.P.[.0 i.a A.Z.6 _.'.Z Z Z Z Z Z Z Z '.'.6 Z.Z.a p.0 ",
"}.}.L H H F L _ > l.i.E.I.6 ].].].].].].].].].[.].].< T.U.a.k.9 ",
"}.}.x ~ ! Q ....* z.d.^.U., Y p.p.p.p.p.s.p.) p.p.Y > E.T.d.z.5 ",
"}.}.}.E .. . .o.$ z.d.U.x.I.I.I.I.I.U.U.U.U.I.I.I.I.I.I.I.d.z.3 ",
"}.}.}.}.O.X.! ! # z.f.k.k.h.k.g.h.h.h.h.h.h.h.h.h.h.k.g.g.f.z.: ",
"}.}.}.}.2 O.X.o.@ Y a y t t t t t t t t t t t t t t t t y a Y ; ",
"}.}.}.}.}.}._ O.+ a a a i p a a a a a a i a i I p d g g d a a - ",
"}.}.}.}.}.}.}.z X s s s s s s s s s s s s s h Y Y g f f g s s = ",
"}.}.}.}.}.}.}.}.. a.a.a.a.a.a.a.a.a.a.a.a.a.a.a.a.h j j h a.a.O ",
"}.}.}.}.}.}.}.}.o i g.g.g.g.g.g.g.g.g.g.g.g.g.g.g.g.g.g.g.g.a o ",
"}.}.}.}.}.}.}.}.                            .   .   .     .     ",
"}.}.}.}.}.}.}.}.}.}.}.}.}.}.}.}.}.}.}.}.}.}.}.}.}.}.}.}.}.}.}.}."
};
