/* XPM */
static char *openofficeorg__main[] = {
/* columns rows colors chars-per-pixel */
"32 32 143 2",
"   c #1D3953",
".  c #1B4A7B",
"X  c #244464",
"o  c #244C74",
"O  c #2D4F71",
"+  c #34577A",
"@  c #395B7D",
"#  c #22568C",
"$  c #3F6386",
"%  c #3F688E",
"&  c #2B639C",
"*  c #3F6994",
"=  c #396B9D",
"-  c #1D62AB",
";  c #1C65B1",
":  c #2463A4",
">  c #2864A0",
",  c #2165AE",
"<  c #276EAF",
"1  c #2A6EAF",
"2  c #346DA4",
"3  c #3B6EA3",
"4  c #326BAA",
"5  c #3774AF",
"6  c #3F73AC",
"7  c #236BB4",
"8  c #2B6DB2",
"9  c #2670B7",
"0  c #2B72B5",
"q  c #2B75BA",
"w  c #2D7ABD",
"e  c #3673B3",
"r  c #3B73B0",
"t  c #3177B9",
"y  c #327CBD",
"u  c #3D7EBA",
"i  c #40678D",
"p  c #4473A0",
"a  c #4576AD",
"s  c #4C7CAB",
"d  c #4175B1",
"f  c #417AB4",
"g  c #4A7CB3",
"h  c #2E7EC3",
"j  c #327DC1",
"k  c #397FC2",
"l  c #3682BE",
"z  c #3C85BD",
"x  c #4C85BA",
"c  c #4C8CBE",
"v  c #5B83B4",
"b  c #548DBD",
"n  c #628AB3",
"m  c #648CBB",
"M  c #698DB9",
"N  c #6D91BC",
"B  c #7091BC",
"V  c #2F81C5",
"C  c #3382C5",
"Z  c #3B84C4",
"A  c #3D89C4",
"S  c #3285C8",
"D  c #3689C9",
"F  c #3B8DCB",
"G  c #3E91CE",
"H  c #4485C3",
"J  c #4B86C0",
"K  c #438CC4",
"L  c #4B8CC5",
"P  c #448DC8",
"I  c #4A8CCA",
"U  c #548DC0",
"Y  c #5D8FC1",
"T  c #4590C7",
"R  c #4A91C6",
"E  c #4493CD",
"W  c #4B95CB",
"Q  c #4E99CE",
"!  c #5292C5",
"~  c #5C94C4",
"^  c #5496CA",
"/  c #5996C9",
"(  c #549ACD",
")  c #5C9CCD",
"_  c #4395D0",
"`  c #4699D2",
"'  c #4A9BD2",
"]  c #668EC0",
"[  c #6491C3",
"{  c #6893C4",
"}  c #6098C7",
"|  c #6E9BC5",
" . c #6397C8",
".. c #629CCC",
"X. c #6C9BCA",
"o. c #749CC6",
"O. c #799DC7",
"+. c #759ECA",
"@. c #7A9DC8",
"#. c #639ED0",
"$. c #64A1CE",
"%. c #6AA3CE",
"&. c #75A0C7",
"*. c #76A2CB",
"=. c #7BA4CB",
"-. c #7FA8CD",
";. c #6EA7D1",
":. c #70A7D0",
">. c #8EA5BC",
",. c #81A4CC",
"<. c #82A9CE",
"1. c #86ACD1",
"2. c #8CADD2",
"3. c #83B4D7",
"4. c #8EB2D4",
"5. c #8CB9DA",
"6. c #93B3D5",
"7. c #99B5D5",
"8. c #9DB8D7",
"9. c #94B9D9",
"0. c #A3C2DD",
"q. c #AAC6DD",
"w. c #9EC5E1",
"e. c #A2C6E1",
"r. c #A3C8E2",
"t. c #ABCBE4",
"y. c #B6CEE5",
"u. c #BAD2E6",
"i. c #BED5E8",
"p. c #C4DDED",
"a. c #CADDED",
"s. c #CAE0EF",
"d. c #D4E2EF",
"f. c #D2E5F2",
"g. c #DAE6F1",
"h. c #DDEAF3",
"j. c #E1EDF5",
"k. c #E7F0F6",
"l. c #EDF4F9",
"z. c #F1F7FA",
"x. c #F5FAFC",
"c. c #FCFDFE",
"v. c None",
/* pixels */
"v.v.v.v.v.v.v.v.v.v.v.v.v.v.M B M M v.v.v.v.v.v.v.v.v.v.v.v.v.v.",
"v.v.v.v.v.v.v.v.v.v.M N o.@.,.2.,.O.o.] m n v.v.v.v.v.v.v.v.v.v.",
"v.v.v.v.v.v.v.v.M O.7.7.7.7.7.7.7.7.7.7.7.,.m n v.v.v.v.v.v.v.v.",
"v.v.v.v.v.v.v.@.7.7.6.6.6.6.6.6.6.6.6.6.6.6.7.o.v v.v.v.v.v.v.v.",
"v.v.v.v.v.v.,.6.6.2.6.6.6.6.6.7.7.6.6.6.6.4.6.6.,.g v.v.v.v.v.v.",
"v.v.v.v.v.{ 2.1.1.1.2.4.4.6.5.6.6.6.4.4.4.2.<.<.1.{ g v.v.v.v.v.",
"v.v.v.v.d +.=.=.-.-.-.*.=.&.&.*.=.-.,.=.o.| -.,.| | r a v.v.v.v.",
"v.v.v.d f o.X.+.*.<.y.h.c.c.c.j.u.-.| 0.g.c.c.c.x.d.1.e v.v.v.v.",
"v.v.v.8 e ~  .X.X.9.1.1.6.q.h.c.c.c.l.c.c.g.q.-.O.+.m e 4 v.v.v.",
"v.v.4 8 8 U /  ...~ ~ ~ ~ b b &.a.c.c.k.<.b b U U x 0 8 8 v.v.v.",
"v.v., 8 0 z ! / ) ) $.$.$.$.$./ b q.g.~ b ..#.) / H t 0 8 4 v.v.",
"v.v.7 8 w u H ^ / ) ) ) ) ) ) ) ^ c c ! ) ) / ^ L z y 0 8 - v.v.",
"v.& 7 q w l H K ^ ( ( ( / ( ( ( ( ( ( ( ( ( ^ R K Z l q 8 ; v.v.",
"v.: ; q y Z K E W Q Q ^ ( ( ^ ( ( ( ( ( ( Q Q R P H l t 9 ; v.v.",
"v.: 7 q y Z K T W Q Q Q ' Q ^ Q ^ W W R T R R T E K Z w 9 ; # v.",
"v.: 7 q C Z P E ` Q Q Q ( ' W E T T $.$.3.;.%.H K Z C h q 7 # v.",
"v.& < 9 t y z A T R Q Q W E W 5.s.z.c.c.c.c.c.c.k.w...y q ; # v.",
"v.n 9.q.s.a.t.0.3.^ T T W r.k.x.x.c.c.c.l.u.9.5.%.) ) w q 7 v.v.",
"v.>.c.c.c.x.c.c.x.z.s.0.j.x.x.c.c.z.0.%.z z z z z l w w q 8 v.v.",
"v.v.d.d.l.c.c.c.c.c.x.x.x.x.c.c.t.R z T Q Q ` E F A C w h 2 v.v.",
"v.v.& 1 8 l *.i.x.c.c.c.c.c.h.$.T W ' ' ' ' ' G F C h q q o v.v.",
"v.v.v.y w w 0 y K t.c.c.c.f.R T ' ' ' ' ` ' E F D j h j e v.v.v.",
"v.v.v.= u h V C l l :.z.h.W P ' ' ' ` ' ` E G D C h j k X v.v.v.",
"v.v.v.v.u Z w V C D l L ! F ` ` ` ` ` _ G G D C h j k 3 v.v.v.v.",
"v.v.v.v.v.H Z j V S D D F G G _ _ G G G F D S h j Z f v.v.v.v.v.",
"v.v.v.v.v.X H H j h V S D D F F F F D D S V h k H g v.v.v.v.v.v.",
"v.v.v.v.v.v.v.x H k C C V S S S S S S h h S Z P p v.v.v.v.v.v.v.",
"v.v.v.v.v.v.v.v.* I P Z C C C C S h C C Z I J O v.v.v.v.v.v.v.v.",
"v.v.v.v.v.v.v.v.v.v.i x I I I I I I I I s + v.v.v.v.v.v.v.v.v.v.",
"v.v.v.v.v.v.v.v.v.v.v.v.v.X @ i % +   v.v.v.v.v.v.v.v.v.v.v.v.v.",
"v.v.v.v.v.v.v.v.v.v.v.v.v.v.v.v.v.v.v.v.v.v.v.v.v.v.v.v.v.v.v.v.",
"v.v.v.v.v.v.v.v.v.v.v.v.v.v.v.v.v.v.v.v.v.v.v.v.v.v.v.v.v.v.v.v."
};
