/* XPM */
static char *openofficeorg__calc[] = {
/* columns rows colors chars-per-pixel */
"32 32 153 2",
"   c #000000",
".  c #1E1E1E",
"X  c #0F1F2E",
"o  c #102438",
"O  c #2D2D2E",
"+  c #323232",
"@  c #1B4873",
"#  c #254665",
"$  c #415364",
"%  c #646567",
"&  c #696C6F",
"*  c #6B6D70",
"=  c #747576",
"-  c #72757B",
";  c #7B7B7C",
":  c #1F68AF",
">  c #1966B2",
",  c #2C6DAE",
"<  c #226DB5",
"1  c #2474B7",
"2  c #2F72B5",
"3  c #2472B9",
"4  c #2B75B9",
"5  c #2779BA",
"6  c #2A7ABC",
"7  c #3374B1",
"8  c #3876B3",
"9  c #357ABD",
"0  c #397BBC",
"q  c #48739C",
"w  c #7A7E83",
"e  c #4D7BA7",
"r  c #4C7CA8",
"t  c #527BA2",
"y  c #507EAE",
"u  c #407CBA",
"i  c #2C7EC3",
"p  c #347EC3",
"a  c #2D81BF",
"s  c #3282BD",
"d  c #3984BC",
"f  c #7D8186",
"g  c #7F8389",
"h  c #5D86AC",
"j  c #4680B7",
"k  c #4483BE",
"l  c #4B87BD",
"z  c #588ABE",
"x  c #2B80C5",
"c  c #3483C3",
"v  c #3B83C5",
"b  c #378AC5",
"n  c #3C8AC6",
"m  c #3E8DCA",
"M  c #4487C3",
"N  c #4188C5",
"B  c #4188C8",
"V  c #4C8DC9",
"C  c #558DC1",
"Z  c #5C8EC1",
"A  c #4B90C4",
"S  c #4191CB",
"D  c #4C93CA",
"F  c #5491C4",
"G  c #5B91C5",
"H  c #5592CB",
"J  c #5A95C8",
"K  c #5F99C8",
"L  c #6192C7",
"P  c #6A95C5",
"I  c #629DCA",
"U  c #6B9ACA",
"Y  c #7AA3C7",
"T  c #74A7CF",
"R  c #7BA4C9",
"E  c #6BA7D2",
"W  c #72A3D0",
"Q  c #7CACD5",
"!  c #82868B",
"~  c #87898D",
"^  c #878A90",
"/  c #898D93",
"(  c #8C9097",
")  c #8E9399",
"_  c #90949A",
"`  c #95989D",
"'  c #9C9E9F",
"]  c #8397AB",
"[  c #999CA1",
"{  c #9FA0A1",
"}  c #A3A3A5",
"|  c #A3A7AC",
" . c #A6A9AE",
".. c #A7ABB0",
"X. c #ACAFB0",
"o. c #AEB1B4",
"O. c #AFB7BE",
"+. c #B0B2B7",
"@. c #B4B6BA",
"#. c #B6B9BC",
"$. c #B8BBBD",
"%. c #80A7CA",
"&. c #84A8CB",
"*. c #85ACD3",
"=. c #88AFD5",
"-. c #85B7DB",
";. c #8AB5D9",
":. c #8FB9D9",
">. c #90B7D8",
",. c #93BDDD",
"<. c #9ABBDC",
"1. c #AFB7C0",
"2. c #B2BAC2",
"3. c #BABEC3",
"4. c #A0BEDD",
"5. c #BEC1C3",
"6. c #BDC4CA",
"7. c #AAC6DF",
"8. c #B0C6DD",
"9. c #A4C6E4",
"0. c #AFCCE5",
"q. c #B4CDE3",
"w. c #BED3E9",
"e. c #C3C5C7",
"r. c #C3C7CC",
"t. c #C4C9CD",
"y. c #C9CACD",
"u. c #C6CCD2",
"i. c #C9CDD2",
"p. c #CED1D4",
"a. c #CED3D8",
"s. c #D2D6DB",
"d. c #D5DADD",
"f. c #DADBDC",
"g. c #C0DAEB",
"h. c #DADEE2",
"j. c #DEE1E4",
"k. c #CFE3F1",
"l. c #D5E6F3",
"z. c #DEEAF4",
"x. c #E1E4E6",
"c. c #E3E6E9",
"v. c #E7E9EC",
"b. c #E9ECED",
"n. c #E7EFF7",
"m. c #EDEFF1",
"M. c #EFF1F2",
"N. c #EDF3F9",
"B. c #F2F3F5",
"V. c #F6F7F8",
"C. c #F7F8F9",
"Z. c #FCFCFD",
"A. c None",
/* pixels */
"A.A.A.A.A.P Z P P P A.A.A.A.A.A.A.A.A.A.A.A.A.A.A.A.A.A.A.A.A.A.",
"A.A.A.C L =.<.<.,.7.*.U A.A.A.A.A.A.A.A.A.A.A.A.A.A.A.A.A.A.A.A.",
"A.A.k Z =.*.R R Y Y %.&.z A.A.A.A.A.A.A.A.A.A.A.A.A.A.A.A.A.A.A.",
"A.u 0 W Q 0.n.N.8.7.n.N.w.U A.A.A.A.A.A.A.A.A.A.A.A.A.A.A.A.A.A.",
"A.2 9 J H J I >.B.C.:.F Z 2 A.O.O.1.2.1.@.1.A.A.A.A.A.A.A.A.A.A.",
", 4 4 n V D D A I T M M v 4 y 2.2.2.2.2.2.1.1.2.A.A.A.A.A.A.A.A.",
"> 3 6 i b m S S n n c c 5 < , x.M.C.Z.C.M.x.a.2.2.2.A.A.A.A.A.A.",
"> : 1 6 c b b d s s d 5 3 < < V.C.C.C.C.C.C.V.m.i.6.2.A.A.A.A.A.",
": M Z F s a d ,.l.Z.C.l.9.J 7 V.V.V.V.V.V.C.V.V.V.a.6.6.A.A.A.A.",
"0.Z.Z.Z.Z.w.N.Z.l.E a 5 4 4 r V.B.V.B.B.B.B.B.B.N.V.s.t.6.A.A.A.",
"@ k J ;.z.Z.Z.-.a a x i 6 p ] Z.Z.Z.Z.Z.Z.Z.Z.Z.Z.C.V.h.u.6.A.A.",
"A.8 9 4 6 ,.Q i x x i i v q ' $.$.$.$.$.$.$.$.$.#.$.f.c.a.u.3.A.",
"A.o M N c 6 6 i x x c B l ! p.p.p.@.5.p.p.p.y.p.p.+.y.v.h.a.6.A.",
"A.A.X j V n v c v B C h f B.Z.Z.Z. .p.Z.Z.Z.Z.Z.Z. .3.m.j.s.i.A.",
"A.A.A.A.# e C V C t # } b.C.C.C.Z.' e.Z.C.Z.C.C.C.` @.B.x.f.a.O.",
"A.A.A.A.A.& & % ; * ; ! ! ! ~ ! ^ ) ) ~ ! ~ ~ ! ^ / @.V.v.x.s.2.",
"A.A.A.A.A.6.h.x.B.o.( #.@.#.#.#.$._ | $.#.#.#.#.#./ @.V.b.x.h.r.",
"A.A.A.A.A.u.h.c.V.X./ Z.Z.Z.Z.Z.Z.) e.Z.Z.Z.Z.Z.Z./ @.C.m.v.h.a.",
"A.A.A.A.A.i.h.b.V.o.^ Z.Z.Z.Z.Z.Z.^ 3.Z.C.Z.Z.Z.Z.^ #.C.m.v.j.a.",
"A.A.A.A.A.e.x.b.V.o./ f w w w w ! / ^ f w w w w g / #.C.M.b.x.r.",
"A.A.A.A.A.o.c.b.V.o.) 2.$.$.#.$.$.)  .#.#.#.$.$.$.) #.C.B.b.x.o.",
"A.A.A.A.A.^ c.b.C.o.) Z.Z.Z.Z.Z.Z.) e.Z.Z.Z.Z.Z.Z./ #.Z.M.b.x.~ ",
"A.A.A.A.A.A.x.v.Z.o./ Z.Z.Z.Z.Z.Z./ e.Z.Z.Z.Z.Z.Z./ @.Z.M.b.x.A.",
"A.A.A.A.A.A.} b.Z.@./ ! w w f w ! / ~ f f w f w ! / $.Z.M.b.X.A.",
"A.A.A.A.A.A.A.c.V.f.$.$.$.$.$.$.$.3.3.3.$.$.$.#.3.$.x.C.b.c.A.A.",
"A.A.A.A.A.A.A.= B.V.Z.Z.Z.Z.Z.Z.Z.Z.Z.Z.Z.Z.Z.Z.Z.Z.V.B.M.; A.A.",
"A.A.A.A.A.A.A.A.' B.M.B.C.C.Z.Z.Z.Z.Z.Z.Z.Z.Z.C.C.B.b.B.} A.A.A.",
"A.A.A.A.A.A.A.A.A.} B.M.B.B.V.C.C.Z.C.Z.Z.C.V.B.B.B.V.} A.A.A.A.",
"A.A.A.A.A.A.A.A.A.A.= B.B.M.B.B.V.B.V.B.B.B.M.M.B.B.; A.A.A.A.A.",
"A.A.A.A.A.A.A.A.A.A.A.O #.B.B.V.B.m.B.b.M.V.B.V.#.+ A.A.A.A.A.A.",
"A.A.A.A.A.A.A.A.A.A.A.A.A.. ; e.f.B.V.B.f.e.; . A.A.A.A.A.A.A.A.",
"A.A.A.A.A.A.A.A.A.A.A.A.A.A.A.A.A.      A.A.A.A.A.A.A.A.A.A.A.A."
};
