/* XPM */
static char *openofficeorg__impress[] = {
/* columns rows colors chars-per-pixel */
"32 32 156 2",
"   c #000000",
".  c #1E1E1E",
"X  c #0F1F2E",
"o  c #102438",
"O  c #2D2D2E",
"+  c #323232",
"@  c #1B4873",
"#  c #254665",
"$  c #535A60",
"%  c #646567",
"&  c #696C6F",
"*  c #747576",
"=  c #757678",
"-  c #7B7B7C",
";  c #1F68AF",
":  c #1966B2",
">  c #2C6DAE",
",  c #226DB5",
"<  c #2474B7",
"1  c #2F72B5",
"2  c #2472B9",
"3  c #2B75B9",
"4  c #2779BA",
"5  c #2A7ABC",
"6  c #3374B1",
"7  c #3876B3",
"8  c #357ABD",
"9  c #397BBC",
"0  c #4E769B",
"q  c #667889",
"w  c #797C81",
"e  c #4D7BA7",
"r  c #4C7CA8",
"t  c #507CA6",
"y  c #507EAE",
"u  c #407CBA",
"i  c #2C7EC3",
"p  c #347EC3",
"a  c #2D81BF",
"s  c #3282BD",
"d  c #3984BC",
"f  c #7E8287",
"g  c #5A85AD",
"h  c #4680B7",
"j  c #4483BE",
"k  c #4A85BC",
"l  c #588ABE",
"z  c #7F95A8",
"x  c #2B80C5",
"c  c #3483C3",
"v  c #3B83C5",
"b  c #378AC5",
"n  c #3C8AC6",
"m  c #3E8DCA",
"M  c #4487C3",
"N  c #4188C5",
"B  c #4188C8",
"V  c #4C8DC9",
"C  c #548CC1",
"Z  c #5C8EC1",
"A  c #4B90C4",
"S  c #4191CB",
"D  c #4C93CA",
"F  c #5491C4",
"G  c #5B91C5",
"H  c #5592CB",
"J  c #5A95C8",
"K  c #5F99C8",
"L  c #6192C7",
"P  c #6A95C5",
"I  c #629DCA",
"U  c #6B9ACA",
"Y  c #7AA3C7",
"T  c #74A7CF",
"R  c #7BA4C9",
"E  c #6BA7D2",
"W  c #72A3D0",
"Q  c #7CACD5",
"!  c #82868C",
"~  c #85888C",
"^  c #878B91",
"/  c #8A8D93",
"(  c #8D9196",
")  c #8F9399",
"_  c #929395",
"`  c #92969C",
"'  c #96999E",
"]  c #9A9B9F",
"[  c #979BA0",
"{  c #999CA1",
"}  c #9FA2A5",
"|  c #9FA3A8",
" . c #A2A3A5",
".. c #A3A5AA",
"X. c #A5A8AC",
"o. c #A9ABAE",
"O. c #ABADB0",
"+. c #AEB1B4",
"@. c #AFB7BE",
"#. c #B0B1B5",
"$. c #B1B4B8",
"%. c #B6B8BC",
"&. c #B9BABB",
"*. c #80A7CA",
"=. c #84A8CB",
"-. c #85ACD3",
";. c #88AFD5",
":. c #85B7DB",
">. c #8AB5D9",
",. c #8FB9D9",
"<. c #90B7D8",
"1. c #93BDDD",
"2. c #9ABBDC",
"3. c #AFB7C0",
"4. c #B2BAC2",
"5. c #BABEC3",
"6. c #A0BEDD",
"7. c #BEC0C2",
"8. c #BDC4CA",
"9. c #AAC6DF",
"0. c #B0C6DD",
"q. c #A4C6E4",
"w. c #AFCCE5",
"e. c #B4CDE3",
"r. c #BED3E9",
"t. c #C3C5C6",
"y. c #C3C6CB",
"u. c #C6C9CC",
"i. c #CBCCCE",
"p. c #C6CCD2",
"a. c #CBCDD1",
"s. c #CDD2D6",
"d. c #CED3D9",
"f. c #D1D2D5",
"g. c #D3D6DA",
"h. c #D5DADE",
"j. c #D9DADB",
"k. c #C0DAEB",
"l. c #DADEE2",
"z. c #DEE1E4",
"x. c #CFE3F1",
"c. c #D5E6F3",
"v. c #DEEAF4",
"b. c #E1E3E6",
"n. c #E3E6E9",
"m. c #E7E9EA",
"M. c #E9EBED",
"N. c #E7EFF7",
"B. c #EDEFF1",
"V. c #EFF0F2",
"C. c #EDF3F9",
"Z. c #F3F4F5",
"A. c #F6F7F8",
"S. c #F7F8F9",
"D. c #FCFCFD",
"F. c None",
/* pixels */
"F.F.F.F.F.P Z P P P F.F.F.F.F.F.F.F.F.F.F.F.F.F.F.F.F.F.F.F.F.F.",
"F.F.F.C L ;.2.2.2.2.-.U F.F.F.F.F.F.F.F.F.F.F.F.F.F.F.F.F.F.F.F.",
"F.F.j Z ;.-.R R Y Y *.=.l F.F.F.F.F.F.F.F.F.F.F.F.F.F.F.F.F.F.F.",
"F.u 9 W Q w.N.C.e.9.N.C.k.P F.F.F.F.F.F.F.F.F.F.F.F.F.F.F.F.F.F.",
"F.1 8 J J J K ,.Z.S.,.C C 1 F.3.3.3.3.3.3.%.F.F.F.F.F.F.F.F.F.F.",
"> 3 3 N V D D A I T M N v 3 y 4.4.4.4.4.4.3.3.3.F.F.F.F.F.F.F.F.",
": 2 5 x n m m S n n c c 5 , > b.Z.S.D.S.V.b.s.5.4.4.F.F.F.F.F.F.",
": ; < 5 x b b d s s d 5 2 , , A.A.A.S.S.S.S.S.B.s.8.4.F.F.F.F.F.",
"; M G F s a d 1.c.D.S.c.q.H 6 A.A.A.A.A.S.S.S.S.A.d.8.5.F.F.F.F.",
"w.D.D.D.D.r.C.D.c.E a 4 3 3 r A.A.Z.A.Z.Z.Z.Z.Z.Z.C.d.p.8.F.F.F.",
"@ j J >.v.D.D.:.a a x i i p ) Z.Z.Z.Z.A.S.D.S.Z.Z.Z.m.s.s.8.F.F.",
"F.7 8 3 5 1.Q i x x i i v r s.V.V.Z.S.A.n.b.m.Z.S.Z.B.l.d.p.5.F.",
"F.o M N c 5 5 i x x c N k ~ Z.V.A.A.i.o.O.O.O.o.a.A.Z.z.l.s.5.F.",
"F.F.X h V n v c v B V 0 $ u.S.Z.M.X. .+.u.j.u.+.} o.M.B.l.l.p.F.",
"F.F.F.F.# e C V C g q  .V.D.B.Z.} ] t.S.D.D.S.S.y.` ` Z.B.l.d.@.",
"F.F.F.F.F.& & % = _ u.Z.A.Z.A.u.( 5.D.Z.B.V.V.Z.D.+.! u.B.l.g.5.",
"F.F.F.F.F.y.h.b.B.V.B.O.o.g.S. ./ V.Z.Z.Z.Z.Z.S.D.m.^ X.V.z.l.y.",
"F.F.F.F.F.p.l.m.N.V.B.f ! 7.A._ [ D.Z.V.Z.m.i.#._ ! / ' Z.m.z.d.",
"F.F.F.F.F.a.b.m.B.Z.A.}  .a.D.` [ S.Z.Z.A.b.! ! ^ ( ` ' D.m.z.s.",
"F.F.F.F.F.8.b.M.V.Z.D.D.D.D.D.../ Z.S.A.S.D.5._ ` ` ` o.D.N.z.y.",
"F.F.F.F.F.#.n.M.Z.Z.D.D.D.D.D.i./ &.D.A.A.D.A.{ ` ' ` f.D.M.b.+.",
"F.F.F.F.F.~ n.M.Z.Z.Z.w w 7.D.D.[ ! t.D.D.D.D.g.` ` } D.Z.M.b.~ ",
"F.F.F.F.F.F.b.M.V.S.Z.^ ^ t.D.D.M.' ! ] 7.i.t. .` | Z.S.Z.M.b.F.",
"F.F.F.F.F.F. .m.V.Z.D.f.f.m.D.D.D.Z.$./ ! ! ! / %.Z.D.Z.M.M.O.F.",
"F.F.F.F.F.F.F.n.Z.Z.A.D.D.D.D.D.D.D.D.A.g.g.j.A.D.D.S.Z.M.n.F.F.",
"F.F.F.F.F.F.F.* M.Z.Z.Z.D.D.D.D.D.D.D.D.D.D.D.D.D.S.Z.M.Z.- F.F.",
"F.F.F.F.F.F.F.F.] Z.M.Z.S.S.D.D.D.D.D.D.D.D.D.S.Z.Z.B.Z.} F.F.F.",
"F.F.F.F.F.F.F.F.F. .Z.Z.Z.Z.Z.S.D.D.S.D.D.S.Z.Z.Z.Z.Z. .F.F.F.F.",
"F.F.F.F.F.F.F.F.F.F.* V.Z.Z.Z.Z.Z.Z.Z.Z.Z.Z.B.Z.Z.Z.- F.F.F.F.F.",
"F.F.F.F.F.F.F.F.F.F.F.O &.Z.Z.Z.V.V.V.V.Z.Z.Z.Z.&.+ F.F.F.F.F.F.",
"F.F.F.F.F.F.F.F.F.F.F.F.F.. - t.j.Z.A.Z.j.t.- . F.F.F.F.F.F.F.F.",
"F.F.F.F.F.F.F.F.F.F.F.F.F.F.F.F.F.      F.F.F.F.F.F.F.F.F.F.F.F."
};
