/* XPM */
static char *openofficeorg__startcenter[] = {
/* columns rows colors chars-per-pixel */
"32 32 222 2",
"   c #01111E",
".  c #011423",
"X  c #021728",
"o  c #011A2B",
"O  c #091A2C",
"+  c #021E31",
"@  c #0B1E32",
"#  c #0E212F",
"$  c #13222E",
"%  c #042337",
"&  c #0B2236",
"*  c #04243A",
"=  c #0F263B",
"-  c #152637",
";  c #10263C",
":  c #12283E",
">  c #1E2D3D",
",  c #0A2B44",
"<  c #132B42",
"1  c #132E49",
"2  c #153042",
"3  c #14304C",
"4  c #1E374A",
"5  c #1F394D",
"6  c #123555",
"7  c #1B3954",
"8  c #183B5A",
"9  c #23364A",
"0  c #23394E",
"q  c #283D4E",
"w  c #243E53",
"e  c #243F5A",
"r  c #0C3461",
"t  c #0D3C6D",
"y  c #173D61",
"u  c #163D68",
"i  c #0E3F75",
"p  c #294156",
"a  c #20405D",
"s  c #294459",
"d  c #324A5E",
"f  c #0F4077",
"g  c #0F427A",
"h  c #1C4576",
"j  c #1D4873",
"k  c #10437B",
"l  c #1D4678",
"z  c #294A67",
"x  c #214668",
"c  c #3E5061",
"v  c #33536D",
"b  c #224976",
"n  c #2E527B",
"m  c #315473",
"M  c #375972",
"N  c #34567D",
"B  c #36597A",
"V  c #395C7C",
"C  c #3C617C",
"Z  c #41525F",
"A  c #545F6B",
"S  c #415973",
"D  c #415F7C",
"F  c #55646F",
"G  c #49657B",
"H  c #4F6A7F",
"J  c #5B6B76",
"K  c #516A7D",
"L  c #646F77",
"P  c #114782",
"I  c #124A86",
"U  c #144D8B",
"Y  c #17508F",
"T  c #1C518B",
"R  c #165293",
"E  c #185497",
"W  c #18569A",
"Q  c #19589D",
"!  c #204E83",
"~  c #275487",
"^  c #295381",
"/  c #23548B",
"(  c #325784",
")  c #375A82",
"_  c #3C5E82",
"`  c #355E8B",
"'  c #255790",
"]  c #235E9F",
"[  c #3F6586",
"{  c #3E648F",
"}  c #2B619C",
"|  c #33659C",
" . c #3E6999",
".. c #1B5CA3",
"X. c #2A62A1",
"o. c #2C66A8",
"O. c #336AA6",
"+. c #3A6DA5",
"@. c #316CAD",
"#. c #3C72AD",
"$. c #316EB2",
"%. c #3473B7",
"&. c #3D75B3",
"*. c #3575BC",
"=. c #3678BF",
"-. c #3C7ABE",
";. c #426484",
":. c #496582",
">. c #446B87",
",. c #4D6C84",
"<. c #4D6B8D",
"1. c #52708C",
"2. c #557392",
"3. c #5E7997",
"4. c #5D7B9A",
"5. c #647382",
"6. c #6C7885",
"7. c #637A8C",
"8. c #737B83",
"9. c #627F9F",
"0. c #4B74A1",
"q. c #4475AC",
"w. c #4176B0",
"e. c #447BB4",
"r. c #3678C0",
"t. c #397BC2",
"y. c #417EC2",
"u. c #72808B",
"i. c #66829F",
"p. c #758290",
"a. c #768A9B",
"s. c #4981BC",
"d. c #5986B7",
"f. c #5082B9",
"g. c #6280A2",
"h. c #6B8AAA",
"j. c #778DA3",
"k. c #798EA0",
"l. c #758DA8",
"z. c #7C90A3",
"x. c #7391AE",
"c. c #668FBB",
"v. c #7794B3",
"b. c #7F99B5",
"n. c #7497BD",
"m. c #7999BB",
"M. c #4280C3",
"N. c #4C86C4",
"B. c #4E89C7",
"V. c #4082CA",
"C. c #5086C1",
"Z. c #578BC5",
"A. c #5E8FC4",
"S. c #5A8FC8",
"D. c #488AD2",
"F. c #5294DC",
"G. c #6493C6",
"H. c #699ACE",
"J. c #729DCB",
"K. c #7DA1CA",
"L. c #7AA4D4",
"P. c #5C9EE6",
"I. c #6EADEF",
"U. c #6CAEF6",
"Y. c #79BBFF",
"T. c #8C949E",
"R. c #8698AB",
"E. c #919CA7",
"W. c #8A9FB5",
"Q. c #99A1A7",
"!. c #85A1BE",
"~. c #96A5B1",
"^. c #90A3B9",
"/. c #91A8BF",
"(. c #9BABBE",
"). c #A5ABB1",
"_. c #ABB1B7",
"`. c #ACB3BA",
"'. c #B1B6BB",
"]. c #85A5C7",
"[. c #88A5C3",
"{. c #8DADCD",
"}. c #93AAC2",
"|. c #99B0C7",
" X c #9EB5CD",
".X c #85AAD4",
"XX c #8BAED4",
"oX c #97B5D5",
"OX c #94B5D9",
"+X c #98B7D9",
"@X c #95B8DD",
"#X c #9BBBDD",
"$X c #A4B4C4",
"%X c #ABB8C5",
"&X c #A0B7CD",
"*X c #BABEC1",
"=X c #A2BFDE",
"-X c #9EBEE0",
";X c #A1BFE0",
":X c #B8C2C8",
">X c #AAC0D8",
",X c #A2C0E1",
"<X c #B4CAE1",
"1X c #BBD0E7",
"2X c #BFD4EB",
"3X c #C4CBD1",
"4X c #CDD0D4",
"5X c #C6D1DD",
"6X c #CCD6DF",
"7X c #D2D8DF",
"8X c #D9DCDF",
"9X c #CDD7E1",
"0X c #D9DFE6",
"qX c #E2E7ED",
"wX c #E5E9EB",
"eX c #EAEDEF",
"rX c #EBEEF2",
"tX c #EEF1F3",
"yX c #F3F4F6",
"uX c #F6F7F9",
"iX c #FEFEFE",
"pX c None",
/* pixels */
"pXpXpXpXpXpXpXpXpXpXpXpXpXpXpXpXpXpXpXpXpXpXpXpXpXpXpXpXpXpXpXpX",
"pXpXpXpXpXpXpXpXpXpXpXpXpXpXpXpXpXpXpXpXpXpXpXpXpXpXpXpXpXpXpXpX",
"pXpXpXpXpXpXpXpXpXpXpXpXpXpXpXpXpXpXpXpXpXpXpXpXpXpXpXpXpXpXpXpX",
"pXpXpXpX* * * * * * * * U Q W W E E W Q ....................pXpX",
"pXpXpX* 7 K a.z.a.7.* , &X X|.}./.}.}. X=X<X1X2X2X9X2X=X....pXpX",
"pXpXpX* G 1.V M m a + s v.l.$X6XqXiXrX9X[.{.+X#X-X#X-XG...R pXpX",
"pXpXpX% ,.M v H a.8.Z S W.rXiXtX%Xj.1.i.v.[.oX=X-X-X-Xe...pXpXpX",
"pXpXpXo G ~.eXiXiXiXiXuXiXiX$X:.:.,.2.4.h.b.].XXOX-X@Xo.Q pXpXpX",
"pXpXpXJ tX3XE.8.7.L 8.9XiXk.D ;.;.<.<.2.9.m.W.n.L..XXX..Q pXpXpX",
"pXpXpXF 0 2 < > < .   M :.m B _ <.^.9XiXiXtX9X[.c.H.L.Q Q pXpXpX",
"pXpXpXX 2 < < < < X . ) N N ) (.iXiXuX%X3.) { 0.d.G.H.W Q pXpXpX",
"pXpXpXo < < < : - O X n ( ;.0XiXiX(.) n ( `  .e.f.Z.S.] W pXpXpX",
"pXpXpXO < : 9 6.E.).E.R.9.0XiXyX4.b ^ ` | +.q.e.s.N.B.O.E pXpXpX",
"pXpXpXo c `.uXiXiXiXiXiXiXiXuX<.b ~ ] O.@.&.-.e.y.y.M.e.R pXpXpX",
"pXpXpXT.iXiXiXiX4X'.*X8XiXiXl.h ~ ] O.%.=.=.t.t.t.t.t.e.R U pXpX",
"pXpXwXyX_.F > X X -     N 9.h / X.$.%.-.r.=.=.r.r.r.=.N.R R pXpX",
"pXwX:X$ O @ @ @ @ - & . u T ' ] $.%.r.r.r.r.r.r.r.r.r.t.] Y pXpX",
"pXpXpX. @ @ = : = : q X 6 } o.$.%.r.r.r.r.r.r.r.r.r.r.r.e.T U pX",
"pXpXpXX < < 1 1 1 1 d o * $.%.=.r.r.r.r.r.r.r.r.r.r.r.r.C.U U pX",
"pXpXpX+ 1 1 3 3 3 1 e & + $.=.=.r.r.r.r.r.r.r.r.r.r.r.r.y.T U pX",
"pXpXpX+ 3 1 3 1 3 6 1 4 + / t.r.r.r.r.r.r.r.r.r.r.r.r.r.t.| I pX",
"pXpXpXo 3 3 3 3 3 1 1 w + j r.r.r.r.r.r.r.r.r.r.r.r.r.r.=.+.I pX",
"pXpXpXo 6 3 3 3 3 3 3 p + y r.r.r.r.r.r.r.r.r.t.r.r.r.r.r.#.P k ",
"pXpXpX+ 7 7 7 7 7 7 7 s o 6 t.t.t.t.t.t.t.t.t.t.t.t.t.t.t.q.P f ",
"pXpXpXo a a a a a a a s o 6 V.V.V.V.V.V.V.V.V.V.V.V.V.V.V.&.k f ",
"pXpXpXo z z z z z x z s o 8 D.D.D.D.D.D.D.D.D.D.D.D.D.D.D.&.k i ",
"pXpXpXo m m m m m m m s o x F.F.F.F.F.F.F.F.F.F.F.F.F.F.F.#.k t ",
"pXpXpXX N C ) V V V C 5 o [ P.P.P.P.P.P.P.P.P.P.P.P.P.P.P.| k pX",
"pXpXpXo z [ [ [ [ [ [ = X A.U.U.U.U.U.U.U.U.U.U.U.U.U.U.U.T f pX",
"pXpXpXX : z [ >.>.>.C o + Y.Y.Y.Y.Y.Y.Y.Y.Y.Y.Y.Y.Y.Y.Y.I.i i pX",
"pXpXpXpX. o # . X X X X r f i i i f f f i i f i f i i i i i pXpX",
"pXpXpXpXpXpXpXpXpXpXpXpXpXpXpXpXpXpXpXpXpXpXpXpXpXpXpXpXpXpXpXpX"
};
