/* XPM */
static char *openofficeorg__math[] = {
/* columns rows colors chars-per-pixel */
"32 32 149 2",
"   c #000000",
".  c #1E1E1E",
"X  c #0F1F2E",
"o  c #102438",
"O  c #2D2D2E",
"+  c #323232",
"@  c #1B4873",
"#  c #254665",
"$  c #646567",
"%  c #696C6F",
"&  c #6D747B",
"*  c #747576",
"=  c #757678",
"-  c #7B7B7C",
";  c #1F68AF",
":  c #1966B2",
">  c #2B6CAE",
",  c #226DB4",
"<  c #2474B7",
"1  c #2F71B3",
"2  c #2472B9",
"3  c #2B75B9",
"4  c #2779BA",
"5  c #2A7ABC",
"6  c #3273B1",
"7  c #3876B3",
"8  c #357ABD",
"9  c #397BBC",
"0  c #48729C",
"q  c #627586",
"w  c #787D82",
"e  c #4D7BA7",
"r  c #4C7BA8",
"t  c #507EAE",
"y  c #407CBA",
"u  c #2C7EC3",
"i  c #347EC3",
"p  c #2D81BF",
"a  c #3282BD",
"s  c #3984BC",
"d  c #5C85AC",
"f  c #4680B7",
"g  c #4483BE",
"h  c #4B86BD",
"j  c #588ABE",
"k  c #2B80C5",
"l  c #3483C3",
"z  c #3B83C5",
"x  c #378AC5",
"c  c #3C8AC6",
"v  c #3E8DCA",
"b  c #4487C4",
"n  c #4188C5",
"m  c #4188C8",
"M  c #4C8DC9",
"N  c #548CC1",
"B  c #5C8EC1",
"V  c #4B90C4",
"C  c #4191CB",
"Z  c #4C93CA",
"A  c #5491C4",
"S  c #5B91C5",
"D  c #5592CB",
"F  c #5A95C8",
"G  c #5F99C8",
"H  c #6192C7",
"J  c #6A95C5",
"K  c #629DCA",
"L  c #6B9ACA",
"P  c #7AA3C7",
"I  c #74A7CF",
"U  c #7BA4C9",
"Y  c #6BA7D2",
"T  c #72A3D0",
"R  c #7CACD5",
"E  c #82858A",
"W  c #86888C",
"Q  c #878B90",
"!  c #8A8D93",
"~  c #8B9095",
"^  c #8F939A",
"/  c #919296",
"(  c #91959A",
")  c #95989D",
"_  c #9B9C9E",
"`  c #8398AB",
"'  c #9B9EA3",
"]  c #9FA1A5",
"[  c #9FA3A9",
"{  c #A4A4A6",
"}  c #A4A8AE",
"|  c #ACAEB2",
" . c #AFB1B5",
".. c #AFB7BE",
"X. c #B0B3B7",
"o. c #B3B5B9",
"O. c #B5B8BA",
"+. c #BABABB",
"@. c #80A7CA",
"#. c #84A8CB",
"$. c #85ACD3",
"%. c #88AFD5",
"&. c #85B7DB",
"*. c #8AB5D9",
"=. c #8FB9D9",
"-. c #90B7D8",
";. c #93BDDD",
":. c #9ABBDC",
">. c #AFB7C0",
",. c #B2BBC2",
"<. c #BABEC3",
"1. c #A0BEDD",
"2. c #BDC4CA",
"3. c #AAC6DF",
"4. c #B0C6DD",
"5. c #A4C6E4",
"6. c #AFCCE5",
"7. c #B4CDE3",
"8. c #BED3E9",
"9. c #C4C6C7",
"0. c #C3C6CA",
"q. c #C3C9CD",
"w. c #C9CACB",
"e. c #C6CCD2",
"r. c #CACDD1",
"t. c #CDD2D7",
"y. c #CED3D9",
"u. c #D2D6DB",
"i. c #D6DBDF",
"p. c #D9DBDD",
"a. c #C0DAEB",
"s. c #DBDEE2",
"d. c #DEE1E4",
"f. c #CFE3F1",
"g. c #D5E6F3",
"h. c #DEEAF4",
"j. c #E1E4E6",
"k. c #E3E5E8",
"l. c #E7E9EB",
"z. c #E9EBED",
"x. c #E7EFF7",
"c. c #ECEEF0",
"v. c #EEF0F2",
"b. c #EDF3F9",
"n. c #F3F4F5",
"m. c #F5F7F8",
"M. c #F7F8F9",
"N. c #FBFCFC",
"B. c None",
/* pixels */
"B.B.B.B.B.J B J J J B.B.B.B.B.B.B.B.B.B.B.B.B.B.B.B.B.B.B.B.B.B.",
"B.B.B.N H %.:.:.;.3.$.L B.B.B.B.B.B.B.B.B.B.B.B.B.B.B.B.B.B.B.B.",
"B.B.g B %.$.U U U U @.#.j B.B.B.B.B.B.B.B.B.B.B.B.B.B.B.B.B.B.B.",
"B.y 9 T R 6.x.b.7.3.h.b.8.L B.B.B.B.B.B.B.B.B.B.B.B.B.B.B.B.B.B.",
"B.3 8 F F F G =.b.M.-.j N 1 B.o...>.>.>...>.B.B.B.B.B.B.B.B.B.B.",
"> 3 3 n M Z Z V K I g n z 3 t >.<.q.t.q.<.>.>.>.B.B.B.B.B.B.B.B.",
": 2 5 k c v v C v c l l 5 2 1 n.M.M.M.M.m.m.s.2.,.,.B.B.B.B.B.B.",
": , < 5 k x x s a a s 3 2 , , m.m.m.n.m.m.m.m.n.s.2.,.B.B.B.B.B.",
"; b S A s p s ;.g.N.N.g.5.D 6 m.m.m.m.m.m.n.m.m.n.d.2.2.B.B.B.B.",
"4.N.N.N.N.8.b.N.f.Y k 4 3 3 e n.n.n.n.n.n.n.n.n.b.n.s.q.2.B.B.B.",
"@ g F *.h.N.N.&.p p k 5 i i ` N.N.N.N.N.N.N.N.N.N.m.c.y.e.2.B.B.",
"B.7 8 3 5 ;.R 5 k k k k i 0 ' O.o.o.O.O.O.o.O.O.+.m.c.i.y.e.<.B.",
"B.o b n l 3 u u k u z b h &  . .X.X.X.X.X.X.X. .O.N.z.d.s.y.2.B.",
"B.B.X f M v l l z m Z d w  .| | w.p.p.s.p.i.p.p.p.M.l.k.d.u.r.B.",
"B.B.B.B.# e j M N d q ) z.n.| ] ] j.N.N.M.N.M.M.M.v.l.l.d.s.t...",
"B.B.B.B.B.% % $ = / q.z.c.M.n.} ' / s.m.v.v.v.c.c.c.c.c.l.d.u.<.",
"B.B.B.B.B.0.s.k.z.c.c.c.z.v.M.v.' ! Q s.n.n.v.v.c.c.c.c.c.j.s.2.",
"B.B.B.B.B.e.s.k.c.c.n.n.n.n.n.M.c.' ! W p.n.v.n.n.n.v.v.c.l.s.y.",
"B.B.B.B.B.r.d.l.v.n.n.n.n.n.m.M.k.' ^ ( l.M.n.n.n.n.n.n.c.l.d.y.",
"B.B.B.B.B.9.j.z.v.m.m.m.M.M.N.l.! ~ ' z.N.M.M.M.m.m.m.m.c.c.j.0.",
"B.B.B.B.B.X.j.z.n.m.N.m.N.N.l.! ! ' v.N.M.M.M.M.M.M.M.n.n.z.j.| ",
"B.B.B.B.B.W k.z.v.m.M.N.N.c.! ! ' v.N.N.N.N.N.M.N.N.M.m.v.c.k.W ",
"B.B.B.B.B.B.j.l.v.M.N.N.v./ ! ( 9.r.w.w.w.w.w.w.r.N.N.m.n.z.j.B.",
"B.B.B.B.B.B.{ z.v.n.N.v.( ! ( ( ! Q E E E E E E / N.N.m.z.z.| B.",
"B.B.B.B.B.B.B.j.z.n.N.| ! ( _ ) ) ( ( ( ( ( ( / ) N.M.n.c.j.B.B.",
"B.B.B.B.B.B.B.* v.v.M.N.N.N.N.N.N.N.N.N.N.N.N.N.N.N.v.v.v.- B.B.",
"B.B.B.B.B.B.B.B._ n.z.n.N.M.N.N.N.N.N.N.N.N.N.M.M.n.v.v.{ B.B.B.",
"B.B.B.B.B.B.B.B.B.{ m.v.n.n.n.M.N.N.N.N.N.N.m.n.n.v.n.{ B.B.B.B.",
"B.B.B.B.B.B.B.B.B.B.* n.n.v.c.n.n.n.n.n.n.n.z.v.n.n.- B.B.B.B.B.",
"B.B.B.B.B.B.B.B.B.B.B.O +.n.m.m.n.c.v.v.n.n.m.m.+.+ B.B.B.B.B.B.",
"B.B.B.B.B.B.B.B.B.B.B.B.B.. - 9.p.n.m.n.p.9.- . B.B.B.B.B.B.B.B.",
"B.B.B.B.B.B.B.B.B.B.B.B.B.B.B.B.B.      B.B.B.B.B.B.B.B.B.B.B.B."
};
