/* XPM */
static char *mozicon__[] = {
/* columns rows colors chars-per-pixel */
"48 48 256 2",
"   c #0A0A0A",
".  c #191919",
"X  c #313131",
"o  c #3B6A1A",
"O  c #3E6A3E",
"+  c #477B39",
"@  c #2A3847",
"#  c #414141",
"$  c #4C4C4C",
"%  c #426947",
"&  c #446A59",
"*  c #497B44",
"=  c #42587D",
"-  c #46646B",
";  c #436462",
":  c #58636F",
">  c #787878",
",  c #626262",
"<  c #498034",
"1  c #261C89",
"2  c #2D2997",
"3  c #383C9C",
"4  c #2616B5",
"5  c #2618B3",
"6  c #291AB6",
"7  c #2B1CBC",
"8  c #2012A2",
"9  c #2F21AD",
"0  c #2C24B3",
"q  c #3425B9",
"w  c #372ABD",
"e  c #3A2CBC",
"r  c #3628B7",
"t  c #3E32BD",
"y  c #3E3BB6",
"u  c #453AA9",
"i  c #4235BD",
"p  c #4A3DBD",
"a  c #4538BD",
"s  c #3B4888",
"d  c #3F4A97",
"f  c #3C4AAE",
"g  c #3D6DA9",
"h  c #3867A6",
"j  c #40448F",
"k  c #435687",
"l  c #475599",
"z  c #4E518F",
"x  c #506E9C",
"c  c #63639C",
"v  c #424BA2",
"b  c #4644A8",
"n  c #5147A9",
"m  c #4944B9",
"M  c #5245BE",
"N  c #5051AC",
"B  c #675EBE",
"V  c #456BAA",
"C  c #5667A6",
"Z  c #4672AD",
"A  c #5E75AC",
"S  c #527CB2",
"D  c #5F7ABC",
"F  c #5374B5",
"G  c #6976B2",
"H  c #7775B8",
"J  c #6A73AA",
"K  c #2E1EC1",
"L  c #2F20C2",
"P  c #3222C4",
"I  c #3B2EC4",
"U  c #3425C9",
"Y  c #3629CC",
"T  c #3A2CCB",
"R  c #3628C0",
"E  c #3F31C3",
"W  c #3C30C9",
"Q  c #3631C8",
"!  c #3A2BD2",
"~  c #3E32D1",
"^  c #4335C3",
"/  c #4539C2",
"(  c #4B3DC5",
")  c #493CCA",
"_  c #4334CB",
"`  c #493BD4",
"'  c #4E41C3",
"]  c #4A4EC6",
"[  c #5144C3",
"{  c #564AC2",
"}  c #5A4EC4",
"|  c #5346CB",
" . c #554ACB",
".. c #5A4ECB",
"X. c #5D53C3",
"o. c #5C52CC",
"O. c #4F41D2",
"+. c #5B4ED3",
"@. c #5548D4",
"#. c #5C53D1",
"$. c #5F53D9",
"%. c #6256C6",
"&. c #6459C5",
"*. c #655ACC",
"=. c #695FCB",
"-. c #6459C7",
";. c #6357D2",
":. c #6559D5",
">. c #685CDD",
",. c #6559D8",
"<. c #576AC1",
"1. c #6C62C6",
"2. c #6D63CB",
"3. c #646DC7",
"4. c #756BCB",
"5. c #7A6FCE",
"6. c #7167CA",
"7. c #6B79C6",
"8. c #7C73CE",
"9. c #7E77C1",
"0. c #6D63D4",
"q. c #6B65D7",
"w. c #746BD1",
"e. c #766BDC",
"r. c #796EDB",
"t. c #7D73D4",
"y. c #7B72DC",
"u. c #7370D1",
"i. c #7C72E3",
"p. c #837FB5",
"a. c #837BCF",
"s. c #8077CF",
"d. c #8077D3",
"f. c #847BD2",
"g. c #867DDA",
"h. c #857CE1",
"j. c #5B83B6",
"k. c #5F85AB",
"l. c #6783A7",
"z. c #768BAE",
"x. c #6186B9",
"c. c #678CBB",
"v. c #6B8CBE",
"b. c #6186B7",
"n. c #768BB6",
"m. c #6D91BD",
"M. c #7293BD",
"N. c #6F86C3",
"B. c #7888C8",
"V. c #7493C2",
"C. c #7B96C2",
"Z. c #7A9AC3",
"A. c #7D96CB",
"S. c #919191",
"D. c #929FAE",
"F. c #8799B3",
"G. c #939AB7",
"H. c #818DB1",
"J. c #8FA2BD",
"K. c #95A4BA",
"L. c #A9A9A9",
"P. c #8698CA",
"I. c #8981D4",
"U. c #8B83DB",
"Y. c #8F88D3",
"T. c #938CD6",
"R. c #938BDB",
"E. c #9790D7",
"W. c #9A95D5",
"Q. c #9C95D9",
"!. c #9B96DB",
"~. c #949CC1",
"^. c #A39DDB",
"/. c #A29ECE",
"(. c #82A0C7",
"). c #86A4C9",
"_. c #89A5CB",
"`. c #8EA0C0",
"'. c #92ADCF",
"]. c #98AAC3",
"[. c #95ACD0",
"{. c #92A4D5",
"}. c #97B1D1",
"|. c #9CB4D3",
" X c #A5B4CA",
".X c #A7A1DD",
"XX c #AAA4DD",
"oX c #AEA9DF",
"OX c #ABA6D3",
"+X c #B1ACDF",
"@X c #A4B9D6",
"#X c #A7BAD6",
"$X c #B8B6D4",
"%X c #AEAACB",
"&X c #8D85E3",
"*X c #8A82E8",
"=X c #938BE7",
"-X c #9C95E4",
";X c #9F98E0",
":X c #9991E8",
">X c #A29BE3",
",X c #A29BEB",
"<X c #ABA5E3",
"1X c #AEA9E1",
"2X c #ACA5EB",
"3X c #A9A3E5",
"4X c #B2ADE4",
"5X c #B2ACEC",
"6X c #B9B4E3",
"7X c #BDB9E5",
"8X c #BBB5EB",
"9X c #B9B4F1",
"0X c #C1BDE9",
"qX c #C2BDF0",
"wX c #AEC3DB",
"eX c #B3C5DD",
"rX c #B7C7DB",
"tX c #B7C0CB",
"yX c #BBCBE1",
"uX c #B7C6E0",
"iX c #C5C5C5",
"pX c #C7C4DE",
"aX c #D6D8DC",
"sX c #C4C0E9",
"dX c #C9C6EB",
"fX c #CDCAEE",
"gX c #C7C9E4",
"hX c #C4D1E3",
"jX c #CCD9E9",
"kX c #CBD7E8",
"lX c #D6D3EE",
"zX c #D2DDEC",
"xX c #CCC8F3",
"cX c #D5D2F3",
"vX c #DDDBF5",
"bX c #D9D7F2",
"nX c #D3CFF1",
"mX c #D6E1ED",
"MX c #DAE3EE",
"NX c #D5E3F1",
"BX c #DBE6F2",
"VX c #DEE9F4",
"CX c #E4E7EC",
"ZX c #E3E3F5",
"AX c #E4ECF5",
"SX c #E9EFF6",
"DX c #EDECFB",
"FX c #E7E4F8",
"GX c #F0EFFA",
"HX c #EBF1F7",
"JX c #EDF3F9",
"KX c #F4F4F5",
"LX c #F2F5FA",
"PX c #F6F9FC",
"IX c #FEFEFF",
"UX c None",
/* pixels */
"UXUXUXUXUXUXUXUXUXUXUXUXUXUXUXUXUXUXUXUXUXUXUXUXUXUXUXUXm.@X'.UXUXg UXP.g UXUXUXUXUXUXUXUXUXUXUX",
"UXUXUXUXUXUXUXUXUXUXUXUXUXUXUXUXUXUXUXUXUXUXUXUXUXUXUX).IXJXPXhX}.zXSXMXeXZ.h h UXUXUXUXUXUXUXUX",
"UXUXUXUXUXUXUXUXUXUXUXUXUXUXUXUXUXUXUXUXUXUXUXUXUXUXUXJXAXHXIXIXIXIXJXIXIXIXjX}.V UXUXUXUXUXUXUX",
"UXUXUXUXUXUXUXUXUXUXUXUXUXUXUXUXUXUXUXUXUXUXUXb.P.@XjXIXJXIXIXIXIXHXBXIXIXIXIXIXeXh UXUXUXUXUXUX",
"UXUXUXUXUXUXUXUXUXUXUXUXUXUXUXm.@XyXjXMXAXSXIXIXIXIXIXIXPXIXIXIXIXPXVXIXIXIXIXJXPXwXLXLX'.UXUXUX",
"UXUXUXUXUXUXUXUXUXUXUXUXUXZ.MXIXIXIXIXIXIXIXIXIXIXIXIXIXIXIXIXIXIXIXPXIXIXIXVXLXIXPXLXHXIXv.UXUX",
"UXUXUXUXUXUXUXUXUXUXUXUX|.IXIXIXIXIXIXIXIXIXIXIXIXIXIXIXIXIXCXtXIXIXIXIXHXAXHXIXIXIXIXJXJX@XUXUX",
"UXUXUXUXUXUXUXUXUXUXUX}.IXIXIXIXIXIXPXJXSXAXmXmXAXAXAXPXIXIXX > K.IXIXJXVXLXIXIXIXIXIXPXJX}.UXUX",
"UXUXUXUXUXUXUXUXUXUXc.PXIXIXIXPXJXlX].l.C C G H G A A #XIXIX#   z.IXIXIXIXCXD.HXIXIXIXLXPXj.UXUX",
"UXUXUXUXUXUXUXUXUXUXyXIXIXIXJXrXA 3 H OX7XgXgXgXpX$X%X~.PXPXKXMXVXIXIXIXJX@ > > IXIXIXIX_.UXUXUX",
"UXUXUXUXUXUXUXUXUXUXPXIXPXCXz.2 B ^.4X6X7X0XdXdXsX0X7Xn.HXLXIXIXIXIXIXIXBX:   L.IXIXIX}.UXUXUXUX",
"UXUXUXUXUXUXUXUXUXZ.IXIXMXs 2 4.T.W.^.XX4X$X$X0X6X6X+X~.AXBXLXIXIXIXIXIXIXIXPXIXIXIXZ.UXUXUXUXUX",
"UXUXUXUXUXUXUXUXUX|.IXIX X1 1.a.f.T.W.^.^.oX+X+XOXXX^.^.K.MXBXJXIXIXIXIXIXIXIXJXPX_.UXUXUXUXUXUX",
"UXUXUXUXUXUXUXUXUXeXIXIX].n 1.4.6XY.Y.E.Q.^.^.^.^.^.^.E.J zXzXJXIXIXIXIXIXHXAXHXeXUXUXUXUXUXUXUX",
"UXUXUXUXUXUXUXUXUXyXIXPXG.n &.6.lXa.f.Y.W.^.XXoX4XXX^.E.s.C SXiXX $ L.JXjXNXAXrXUXUXUXUXUXUXUXUX",
"UXUXUXUXUXUXUXUX& hXIXIXG.u B 4.a.lXlXXXoX.X.XXX^.XXXXoXOXH.G.KX. # , PXVXzXl.UXUXUXUXUXUXUXUXUX",
"UXUXUXUXUXUXUXUXQ uXIXPXK.n T.9.+XLXGXQ.a.f.I.I.f.f.a.s.5.s.c H.aXiXPXgXG 6 Y UXUXUXUXUXUXUXUXUX",
"UXUXUXUXUXUXUXl U eXIXIX%XG.LXI.1.6X0Xs.8.s.a.a.a.a.8.5.6.B M z F.H.l 2 8 4 L b UXUXUXUXUXUXUXUX",
"UXUXUXUXUXUXUXQ 7 #XIXIXtXc XXM { B s.T.8.8.s.s.a.8.4.6.&.X.B p u p.u B d.5 6 Y < UXUXUXUXUXUXUX",
"UXUXUXUXUXUXs Y 7 [.IXPXhXs i p M %.=.T.f.5.5.8.8.8.4.1.-.B M p X.fX<Xe 0Xi 4 U d UXUXUXUXUXUXUX",
"UXUXUXUXUXUXE L 4 B.PXDXrXz y a p } -.f.^.d.5.s.8.5.4.2.&.} M a f.GXDXp 4 6 e K W UXUXUXUXUXUXUX",
"UXUXUXUXUXUX! 7 6 F MXmXrXk q t p { %.6.^.^.f.f.d.5.4.2.-.{ { %.*.^.<X6 4 4 4 q ! + UXUXUXUXUXUX",
"UXUXUXUXUX; Y q 9 0 rXeX#X2 r e a [ %.=.Y.<XQ.f.f.d.4.=.=.8.5.&.i q t.q 4 6 4 7 U = UXUXUXUXUXUX",
"UXUXUXUXUXk Y 7 5 6 V J j 9 r t p [ } =.t.1X0X>X^.f.f.R.T.g.%.a w q 4.R 6 6 4 4 U d UXUXUXUXUXUX",
"UXUXUXUXUXd Y 7 4 7 7 p { q e i ( { %.6.d.4XvXvXfX0X4X3XY.%.( a e w 6.^ 6 7 7 7 P y UXUXUXUXUXUX",
"UXUXUXUXUXb U 7 4 7 7  . .w e / [ ..*.w.U.0XGXPXPXFX0Xg.=...( / e w =.) 7 7 7 7 P y UXUXUXUXUXUX",
"UXUXUXUXUXy P K 7 K 7 o.{ w t / [ } *.4.R.fXPXIXIXZX<X5.=.X.[ p ^ w 0.^ 7 7 7 7 P t UXUXUXUXUXUX",
"UXUXUXUXUXf K K 7 K q o.S c.m.Z m ..*.t.>XbXGXPXPXcX>Xw.*.o.( / e w w.E K K 7 7 U f UXUXUXUXUXUX",
"UXUXUXUXUXk Y K 7 L L g S g j.V.P.D u.;X2X8XfXcXZXnXf.0.*...( / e E w.R L K q L Y b UXUXUXUXUXUX",
"UXUXUXUXUX- ! K K P L Z Z S j.M._.@X[.N.d.5.R.;X4X4Xg.;.o.| ( ^ I ) ;.P L L K P Y k UXUXUXUXUXUX",
"UXUXUXUXUXUX! P L L P h b.j.m.).@XeXjXjX_.3.r.d.d.>X>X=.%.| ( _ I  . .P P U P L ! * UXUXUXUXUXUX",
"UXUXUXUXUXUX_ T L L P Q Z.M.Z.}.eXjXmXAXKXBXP.w.d.g.>Xg.;...| ) W ;.) P U T L Y f UXUXUXUXUXUXUX",
"UXUXUXUXUXUXk ! ) P U r.jX_.'.eXhXMXSXKXPXIXIXzXN.w.R.-Xq.;...|  .>.I _ _ L L Y V.UXUXUXUXUXUXUX",
"UXUXUXUXUXUXUX_ U @.U.>.fX{.|.hXMXSXLXPXIXIXIXIXIXhXN.E.g.q.:.#.q.,.+.` T L U <.wXUXUXUXUXUXUXUX",
"UXUXUXUXUXUXUXv Y Y 2Xr.:.=X3.rXAXLXPXIXIXIXIXIXIXIXPXuXN.y.q.r.5Xe.+.` W Y Q uX[.UXUXUXUXUXUXUX",
"UXUXUXUXUXUXUXUX~ Y ) @.i.cXHX7.gXPXIXIXIXIXIXIXIXIXIXIXIXuXB.xXIX:X,.@.) ~ A.JXx.UXUXUXUXUXUXUX",
"UXUXUXUXUXUXUXUX- ! O.#.:.9XDX5XB.#XIXIXIXIXIXIXIXIXIXIXIXIXJXwXA.q.,.#.] P.AXkXUXUXUXUXUXUXUXUX",
"UXUXUXUXUXUXUXUXUXv ` ,.q.r.:X=X-XW.z.CXIXIXIXIXIXIXPXIXPXLXPXJXHXkX#X@XjXAXVXV.UXUXUXUXUXUXUXUX",
"UXUXUXUXUXUXUXUXUXUXm @.r.y.h.2X:X,XE.n.K.LXIXPXPXPXPXPXLXJXJXSXAXAXAXVXBXBX}.UXUXUXUXUXUXUXUXUX",
"UXUXUXUXUXUXUXUXUXUXUXm >.h.=X-X2X2X5X8X/.J K.AXPXPXLXHXHXAXAXAXVXBXNXNXNX|.UXUXUXUXUXUXUXUXUXUX",
"UXUXUXUXUXUXUXUXUXUXUXUXl >.:X;X5X9X9XqXxXsX$Xz.z. XjXAXAXAXBXVXmXmXNXwXc.UXUXUXUXUXUXUXUXUXUXUX",
"UXUXUXUXUXUXUXUXUXUXUXUXUX& @.&X5X9XqXxXcXbXvXbXpX$XK.n.n.M.M.M.c.k.g UXUXUXUXUXUXUXUXUXUXUXUXUX",
"UXUXUXUXUXUXUXUXUXUXUXUXUXUXUX- #.&X9XcXvXFXDXDXSXZXvXfX6X&X#.k UXUXUXUXUXUXUXUXUXUXUXUXUXUXUXUX",
"UXUXUXUXUXUXUXUXUXUXUXUXUXUXUXUXUX% l o.i.*X,X2X,X=Xi.#.v % UXUXUXUXUXUXUXUXUXUXUXUXUXUXUXUXUXUX",
"UXUXUXUXUXUXUXUXUXUXUXUXUXUXUXUXUXUXUXUXUXo % % % o UXUXUXUXUXUXUXUXUXUXUXUXUXUXUXUXUXUXUXUXUXUX",
"UXUXUXUXUXUXUXUXUXUXUXUXUXUXUXUXUXUXUXUXUXUXUXUXUXUXUXUXUXUXUXUXUXUXUXUXUXUXUXUXUXUXUXUXUXUXUXUX",
"UXUXUXUXUXUXUXUXUXUXUXUXUXUXUXUXUXUXUXUXUXUXUXUXUXUXUXUXUXUXUXUXUXUXUXUXUXUXUXUXUXUXUXUXUXUXUXUX",
"UXUXUXUXUXUXUXUXUXUXUXUXUXUXUXUXUXUXUXUXUXUXUXUXUXUXUXUXUXUXUXUXUXUXUXUXUXUXUXUXUXUXUXUXUXUXUXUX"
};
