/* XPM */
static char *jabref__[] = {
/* columns rows colors chars-per-pixel */
"32 32 62 1 ",
"  c #4F5F8F",
". c #50608F",
"X c #536392",
"o c #586794",
"O c #5B6A96",
"+ c #5E6D98",
"@ c #606E99",
"# c #65739C",
"$ c #69779E",
"% c #6B789F",
"& c #6A77A0",
"* c #6D7AA1",
"= c #717DA4",
"- c #7582A6",
"; c #7984A6",
": c #7784A8",
"> c #7A86AA",
", c #7F8AAA",
"< c #828DAD",
"1 c #8690AF",
"2 c #8691B1",
"3 c #8A94B3",
"4 c #8E98B5",
"5 c #939CB6",
"6 c #939DB9",
"7 c #97A1BB",
"8 c #9AA2BA",
"9 c #9FA7C1",
"0 c #A4ACC2",
"q c #ABB2C5",
"w c #ADB5CA",
"e c #B0B7C9",
"r c #B9BECC",
"t c #B6BDD0",
"y c #B8BED1",
"u c #BCC2CF",
"i c #BDC3D2",
"p c #C2C6D3",
"a c #C5C9D5",
"s c #CACDD5",
"d c #C5CAD9",
"f c #C9CDD9",
"g c #CED0D6",
"h c #CDD1DD",
"j c #D0D2D7",
"k c #D3D5DA",
"l c #D6D8DE",
"z c #D8DADE",
"x c #D1D5E1",
"c c #D7DAE3",
"v c #DBDEE8",
"b c #DFE0E5",
"n c #DFE1EA",
"m c #E2E3E6",
"M c #E3E5EA",
"N c #E7E8EC",
"B c #EAEBEE",
"V c #ECEEF1",
"C c #EFF0F2",
"Z c #F3F3F5",
"A c #F7F7F9",
"S c #FDFDFD",
/* pixels */
"    .                     .    .",
"   .                        .   ",
"  .  #=*=*&&O  +@.       .     .",
".    -xNMnMMy+ =ddw2+X     . .  ",
"     .4CSSSSA3 XwASAnw=.    . . ",
" . .  .6ZSSSSiX +dSSSSM0O     . ",
".      .7ZSSSV&  *vSSSSAi+  .   ",
". .     oySSSA3   >vSSSSAyO   . ",
" .       *NSSS0    *hASSAZ3     ",
"  . . .  XtSASy     &yZAAAio  . ",
".   . .   2AAAiX     X9VZAh@    ",
"   .      >BAZdo      &cAZdo   .",
" .  . .   *vZZd+     o9BZC9X    ",
"   .      &xZCd+   o3pBCZf@   . ",
"    .. .  odVBa+ .>iVZZCf-  .   ",
". .       OdVBpO -nZZCBw#     . ",
" . .. . ..OpBNpO 0ZZCB0X    ..  ",
"         .OpNmuX wZVVM%   .    .",
" ..   . . Opmme. 9VVBM:      . .",
"     .    opmb0  >MVBN0.        ",
"  .  . .  Oubz8  opVNNk%  . ..  ",
".         #pzk5.  2bNNm7       .",
"  .  .    %gzj<.  owMMms#    . .",
"      .  .5kjs$.   #ammm0X .    ",
" X%X....X;aljqX.    -sbbz1      ",
".#pe5318qsjjs<..     %uzbp#     ",
" .ebzzkkljgg5...      #ezb0o    ",
"  *pzzkkjja8o...       #0kk1    ",
"...@8uppr0;.          . X,uu%   ",
"... .@%%#o    .      .    +1,X  ",
".     ..   . . .  .         o.  ",
". .  ....      . .              "
};
