/* XPM */
static char *krank[] = {
/* columns rows colors chars-per-pixel */
"32 32 112 2",
"   c #291756",
".  c #281658",
"X  c #2C1B59",
"o  c #210764",
"O  c #210961",
"+  c #311A6D",
"@  c #31137F",
"#  c #351B7B",
"$  c #3A2471",
"%  c #402A7B",
"&  c #4D3C7A",
"*  c #4F495E",
"=  c #524D61",
"-  c #554B6E",
";  c #585365",
":  c #5F5D66",
">  c #58516C",
",  c #544A70",
"<  c #584E72",
"1  c #605E66",
"2  c #615D6F",
"3  c #635D74",
"4  c #60557C",
"5  c #666271",
"6  c #6D6B73",
"7  c #727174",
"8  c #74717C",
"9  c #7B7B7C",
"0  c #27008C",
"q  c #28008F",
"w  c #310F89",
"e  c #331481",
"r  c #360F9A",
"t  c #3306A5",
"y  c #3408A6",
"u  c #421F9C",
"i  c #4F3494",
"p  c #563E94",
"a  c #4314BA",
"s  c #4620A8",
"d  c #4D21BB",
"f  c #562EBC",
"g  c #5633B2",
"h  c #5E4D8C",
"j  c #5F489B",
"k  c #6A5E89",
"l  c #6D5E92",
"z  c #7D7B82",
"x  c #7B7196",
"c  c #674CAB",
"v  c #684EAD",
"b  c #6C54AB",
"n  c #725EA6",
"m  c #755DB2",
"M  c #7459BC",
"N  c #7460A7",
"B  c #7C6CA5",
"V  c #7663A8",
"C  c #5B2ECD",
"Z  c #5D32CB",
"A  c #6036CB",
"S  c #795CC3",
"D  c #7E58DE",
"F  c #857AA3",
"G  c #8668D2",
"H  c #8869D7",
"J  c #8B6BDB",
"K  c #8F72D6",
"L  c #9074DA",
"P  c #9A7EDF",
"I  c #835EE3",
"U  c #838384",
"Y  c #85838A",
"T  c #88878B",
"R  c #8D8D8D",
"E  c #8F908F",
"W  c #8F8D95",
"Q  c #89839A",
"!  c #908C9A",
"~  c #929291",
"^  c #94929B",
"/  c #98979D",
"(  c #9C9C9C",
")  c #A0A09F",
"_  c #8C81A7",
"`  c #968EAA",
"'  c #9793A1",
"]  c #9A96A3",
"[  c #9891AA",
"{  c #9E98AF",
"}  c #A3A3A3",
"|  c #A7A7A8",
" . c #ADADAC",
".. c #AFAABA",
"X. c #B5B5B5",
"o. c #B5B4BA",
"O. c #BABABA",
"+. c #BFBDC2",
"@. c #B199EF",
"#. c #C3C3C3",
"$. c #C8C8C7",
"%. c #C6C6C8",
"&. c #CCCCCC",
"*. c #CFCED0",
"=. c #D4D4D4",
"-. c #D8D8D7",
";. c #DBDBDB",
":. c #E2E2E2",
">. c #E8E8E7",
",. c #EAEAEA",
"<. c #F4F4F4",
"1. c #FFFFFF",
/* pixels */
"1.1.1.1.1.1.1.1.1.1.1.1.1.1.1.1.1.1.1.1.1.1.1.1.1.1.1.1.1.1.1.1.",
"1.1.1.1.1.1.1.1.1.1.1.1.1.<.<.<.<.<.<.1.1.1.1.1.1.1.1.1.1.1.1.1.",
"1.1.1.1.1.1.1.1.1.1.1.1.<.:.*.....&.:.<.1.1.1.1.1.1.1.1.1.1.1.1.",
"1.1.1.1.1.1.1.1.1.1.1.1.>.O.F m m F O.:.1.1.1.1.1.1.1.1.1.1.1.1.",
"1.1.1.1.1.1.1.1.1.1.1.1.$.^ i H J i W $.1.1.1.1.1.1.1.1.1.1.1.1.",
"1.1.1.1.1.1.1.1.1.1.1.1.#.T # d d # T %.1.1.1.1.1.1.1.1.1.1.1.1.",
"1.1.1.1.1.1.1.1.1.1.1.1.;.E 3 $ $ 3 ~ ;.1.1.1.1.1.1.1.1.1.1.1.1.",
"1.1.1.1.1.1.1.1.1.1.1.1.1.#.R 9 9 R #.<.1.1.1.1.1.1.1.1.1.1.1.1.",
"1.1.1.1.<.1.1.1.1.1.1.1.1.<.;.#.#.;.<.1.1.1.1.1.1.<.1.<.1.1.1.1.",
"1.1.<.>.:.-.:.,.<.1.1.1.<.<.<.<.<.<.<.<.1.1.1.<.,.>.;.;.,.<.1.1.",
"1.<.-.+._ B ` $.:.1.<.,.>.:.:.>.>.:.>.:.,.<.1.:.&.{ B F o.=.<.1.",
"1.,.X.x M L b Q +.,.:.-.-.-.$.o.o.%.-.-.-.:.,.#.' b K S l X.,.1.",
"1.;.} & f I s 4  .*.&.*.&.] k h h k ' $.*.&.=. .8 u D A % ( ;.1.",
"1.,.( 3 e r # 8 ) +.#.#.^ h c M M v h ! #.#.O.} z $ r w < ( ,.1.",
"1.1.O.U 5 - 6 E O.O.X.| 4 v G P @.G v h } X.O.X.W 7 > 2 U O.<.1.",
"1.1.<.%.( E ) =.-. . .U + g J @.@.J g + z  . .=.=.} ~ ( %.<.1.1.",
"1.1.1.1.<.<.<.1.=.} | z O t Z I D A y o 8 } } =.1.<.<.<.1.1.1.1.",
"1.1.1.1.1.1.1.1.;.( ( U X 0 a C C y q X U ( ) ;.1.1.1.1.1.1.1.1.",
"1.1.1.1.1.1.1.1.,.} ~ ~ ; O 0 t t q o - W ~ } ,.1.1.1.1.1.1.1.1.",
"1.1.1.1.1.1.1.1.1.O.R R U =   O o . * U R R O.1.1.1.1.1.1.1.1.1.",
"1.1.1.1.1.1.1.1.1.,.} T U U 7 1 : 7 U U T ) ,.1.1.1.1.1.1.1.1.1.",
"1.1.1.1.1.1.1.<.<.<.-.( U U U U U U z U ( -.<.<.<.1.1.1.1.1.1.1.",
"1.1.1.1.1.1.,.;.&.$.;.*. .~ U 9 9 U R  .&.-.&.&.-.>.<.1.1.1.1.1.",
"1.1.1.1.1.,.$.` n V [ $.;.>.&.#.+.&.,.:.#.] N N ` #.:.1.1.1.1.1.",
"1.1.1.1.1.=.] j J L j / %.<.1.1.1.1.1.$./ p H H p ^ $.1.1.1.1.1.",
"1.1.1.1.1.&.T @ Z A # T O.1.1.1.1.1.1.%.Y # Z Z e U #.1.1.1.1.1.",
"1.1.1.1.1.:.E - @ @ - T $.1.1.1.1.1.1.=.R , @ @ , R =.1.1.1.1.1.",
"1.1.1.1.1.<.O.U 6 6 z | ,.1.1.1.1.1.1.<.O.U 6 6 U O.<.1.1.1.1.1.",
"1.1.1.1.1.1.<.*.X.| #.<.1.1.1.1.1.1.1.1.<.=.O.O.=.<.1.1.1.1.1.1.",
"1.1.1.1.1.1.1.1.1.<.1.1.1.1.1.1.1.1.1.1.1.1.1.1.1.1.1.1.1.1.1.1.",
"1.1.1.1.1.1.1.1.1.1.1.1.1.1.1.1.1.1.1.1.1.1.1.1.1.1.1.1.1.1.1.1.",
"1.1.1.1.1.1.1.1.1.1.1.1.1.1.1.1.1.1.1.1.1.1.1.1.1.1.1.1.1.1.1.1."
};
