/* XPM */
static char *freeplane[] = {
/* columns rows colors chars-per-pixel */
"32 32 250 2 ",
"   c #010100",
".  c #070C05",
"X  c #0C0A03",
"o  c #07070F",
"O  c #09000C",
"+  c #0C0C0C",
"@  c #120F03",
"#  c #190C0B",
"$  c #091107",
"%  c #0C1608",
"&  c #141303",
"*  c #191503",
"=  c #1B1A00",
"-  c #12120D",
";  c #1C1B0D",
":  c #000015",
">  c #131312",
",  c #151D12",
"<  c #1B121F",
"1  c #17181A",
"2  c #1C1C1C",
"3  c #3C0400",
"4  c #221C03",
"5  c #221E0B",
"6  c #2D1D1C",
"7  c #12200C",
"8  c #1A2F12",
"9  c #1E3415",
"0  c #272105",
"q  c #2D2804",
"w  c #222509",
"e  c #342D06",
"r  c #3A3107",
"t  c #3E3509",
"y  c #20201C",
"u  c #29211E",
"i  c #2C2B19",
"p  c #302B14",
"a  c #3B361C",
"s  c #0F0722",
"d  c #24112B",
"f  c #2A1134",
"g  c #232321",
"h  c #2D2B21",
"j  c #2C2C2B",
"k  c #2F302F",
"l  c #32312C",
"z  c #373737",
"x  c #383837",
"c  c #3C3C3C",
"v  c #42211F",
"b  c #5F2F2C",
"n  c #3F742A",
"m  c #5C4F0C",
"M  c #4A4119",
"N  c #564B18",
"B  c #74630C",
"V  c #766415",
"C  c #7D6B13",
"Z  c #4A452C",
"A  c #5A5233",
"S  c #587A2F",
"D  c #49793E",
"F  c #776926",
"G  c #71662F",
"H  c #291D7A",
"J  c #420659",
"K  c #472B52",
"L  c #540073",
"P  c #633774",
"I  c #434343",
"U  c #484649",
"Y  c #4B4C4B",
"T  c #535353",
"R  c #53535C",
"E  c #5C5C5B",
"W  c #577D5F",
"Q  c #66645A",
"!  c #59767B",
"~  c #646464",
"^  c #696967",
"/  c #6C6C6A",
"(  c #7A7976",
")  c #7D7D7D",
"_  c #800800",
"`  c #B41004",
"'  c #FF1200",
"]  c #FF1D05",
"[  c #FF1E0D",
"{  c #E22012",
"}  c #FF2212",
"|  c #FF291A",
" . c #FF3D1D",
".. c #FF3425",
"X. c #BB4B19",
"o. c #806D0C",
"O. c #81770C",
"+. c #8A7510",
"@. c #FF4C14",
"#. c #FF5C1E",
"$. c #FF6E1F",
"%. c #FF4235",
"&. c #C56621",
"*. c #FF7E24",
"=. c #FF7028",
"-. c #FF4C40",
";. c #FF584C",
":. c #FF6155",
">. c #FF6B60",
",. c #FF7166",
"<. c #FF7D73",
"1. c #4D8437",
"2. c #509236",
"3. c #58A13A",
"4. c #66BB44",
"5. c #6EBF4E",
"6. c #60856E",
"7. c #7ABD71",
"8. c #7BB87E",
"9. c #7AC256",
"0. c #978115",
"q. c #9D8412",
"w. c #A98F0F",
"e. c #A68C10",
"r. c #AD9314",
"t. c #BFA116",
"y. c #B7BF15",
"u. c #8E9E2E",
"i. c #AB983F",
"p. c #DDB90C",
"a. c #CCBD12",
"s. c #D2B31A",
"d. c #DBB91A",
"f. c #C48026",
"g. c #FF8E28",
"h. c #FF992A",
"j. c #FF9730",
"k. c #D1B633",
"l. c #FFB131",
"z. c #CFC100",
"x. c #E9C415",
"c. c #F7D217",
"v. c #F7D218",
"b. c #F8D21D",
"n. c #F5E500",
"m. c #FFEE00",
"M. c #FFEF0E",
"N. c #FFE91C",
"B. c #FCD52C",
"V. c #F6D632",
"C. c #F6D93C",
"Z. c #F8DA3F",
"A. c #9C8D47",
"S. c #A39244",
"D. c #9AB847",
"F. c #878166",
"G. c #86816C",
"H. c #888268",
"J. c #97937E",
"K. c #A69D74",
"L. c #CDB543",
"P. c #C4B35D",
"I. c #DBB258",
"U. c #C1B57C",
"Y. c #8BCA5D",
"T. c #A2D25D",
"R. c #CFD04D",
"E. c #DAC350",
"W. c #F2D340",
"Q. c #F7DC45",
"!. c #F8DB44",
"~. c #F2D54E",
"^. c #E0C95B",
"/. c #F7DD52",
"(. c #F9E05E",
"). c #DAC97B",
"_. c #F7E265",
"`. c #FAE066",
"'. c #F8E46F",
"]. c #F9E470",
"[. c #FBE57A",
"{. c #2E33B9",
"}. c #5D0080",
"|. c #0000D2",
" X c #0000FF",
".X c #0E0EFF",
"XX c #1110FE",
"oX c #1618FE",
"OX c #1D1FFE",
"+X c #2012F8",
"@X c #1F22FD",
"#X c #2629FD",
"$X c #292EFC",
"%X c #2F33FC",
"&X c #363BFB",
"*X c #5C2CE7",
"=X c #5429EA",
"-X c #4021F0",
";X c #602CE5",
":X c #3C45F9",
">X c #8200B3",
",X c #8800BB",
"<X c #8E0EBF",
"1X c #9012C0",
"2X c #9452DD",
"3X c #A640CC",
"4X c #AB4DCE",
"5X c #8978D7",
"6X c #6388A0",
"7X c #7F9FD3",
"8X c #7BA9C8",
"9X c #8A8A8A",
"0X c #949393",
"qX c #9D9D9D",
"wX c #B0A987",
"eX c #A4A299",
"rX c #A5A5A5",
"tX c #ABABAB",
"yX c #B2B2B2",
"uX c #BABABA",
"iX c #E9BD99",
"pX c #C0BFBA",
"aX c #89C78D",
"sX c #8AC694",
"dX c #8FC8A0",
"fX c #D4C684",
"gX c #DACA82",
"hX c #C7C09F",
"jX c #FAE685",
"kX c #F2E18C",
"lX c #FBE88A",
"zX c #FCEB9A",
"xX c #DCD4AD",
"cX c #D0CBB3",
"vX c #FBECA4",
"bX c #FCEDA8",
"nX c #89BCDD",
"mX c #C3C3C3",
"MX c #CCCCCC",
"NX c #D4D3D3",
"BX c #DCDCDC",
"VX c #E9E2C0",
"CX c #F9F0C1",
"ZX c #FDF4C9",
"AX c #D6C8ED",
"SX c #E4E4E4",
"DX c #ECECEC",
"FX c #F5F5F5",
"GX c #FFFFFF",
"HX c None",
/* pixels */
"HXHXHXHXHXHXHXHXHXHXHXHXHX    HXHXHXHXHXHXHX<.:.-.%...| } | ..%.",
"HXHXHXHXHXHXHXHXHXHXHXHX        HXHX,.%.[ ' ' ' ' ' ' ' ' ' ' [ ",
"HXHXHXHXHXHXHXHXHXHXHXHXHXHXHXv   ` ' ' ' ' ' ' @.$.*.g.h.g.*.=.",
"HXHXHXHXHXHXHXHXHXHXHXHXHX>.} ' _ 3 ' #.l.B.N.m.m.m.m.m.m.m.m.M.",
"HXHXHXHXHXHXHXHXHXHXHXHX..] ' ' X.X O.z.m.m.m.m.m.m.m.m.m.m.m.M.",
"HXHXHX> . + > HXHXHX;.' ' ] &.q & > 2 i w D.T.Y.9.1.9 8 2.5.9.Y.",
"HXHX> MXGXGXuXI 6 { ' ] j.z.=   > k Y ^ E , 3.n %   7 % 7 4.4.5.",
"HX+ NXGXGXGXGXGX0X# &.N.n.7         g c E Y   $ D 7.6XW 6.sXsXaX",
"HX~ GXGXGXGXGXGXGXmX; y.S .           + j Y > 8XnXnXnXnXnXnXnXnX",
"> qXGXGXGXGXGXGXGXGXyX, 7                 2 1 6XnXnXnXnXnXnXnXnX",
"+ qXGXGXGXGXGXGXGXGXGXqX>                   o {.:X%X#XOXoX#X$X:X",
"HXj GXGXGXGXGXGXGXGXGXGX) +   +             : |. X X X X X X X.X",
"HX> T FXGXGXBXyXrXyXDXGXGXI   y z j         s *X*X*X*X=X=X%X+XXX",
"HXHXb u 9Xx g E ^ T 1 g E 0X- B X 1 2     O L ,X,X,X,X,X,X,X,X<X",
"HXHX .u.> qXGXGXGXGXGXSXtXc 1 m s.e . > > < d d d f J }.>X,X,X<X",
"HX:.R.! R GXGXGXGXGXGXGXGXGXI X > g ( mXMXNXNXBXBXmX9XY # P 4X3X",
"HXI.7XH 9XGXGXGXGXGXGXGXGX( a F E E > qXGXGXGXGXGXGXGXGXNXx > HX",
"iX5X2XK 0XGXGXGXGXGXGXSXY 6 P.G 0XGXBXx T DXGXGXGXGXGXGXGXGX1 HX",
"AXHXHXHXj GXGXGXGXGX0X> A G.^ Z qXGXGXGX) g NXGXGXGXGXGXGXGXeX> ",
"HXHXHXHX+ ~ NXMX9Xh M E.[.lXU.j / GXGXGXGXuXy SXGXGXGXGXGXGXqX> ",
"HXHXHXHXHX+ > > 5 t A.).vXvXjXS.j GXGXGXGXGX0XY GXGXGXGXGXGX9X. ",
"HXHXHXHXHXHX  0 * y E 0XpXxXjX~.+ GXGXGXGXGXGXg BXGXGXGXGXFX1 HX",
"HXHXHXHXHXHX  s.b.~.fXcXNXqXF.C.p NXGXGXGXGXGXT E FXGXGXFXE > HX",
"HXHXHXHXHX    s.V.`.zXZXCXwXU N C / GXGXGXGXGXz + . g c . > HXHX",
"HXHXHXHXHX      l H.hXVXbX[.S.. m + BXGXGXGXtX> HXHXHXHXHXHXHXHX",
"HXHXHXHXHX  q e.S.K.eXqXJ.^.B.+.    2 MXDX9X+ HXHXHXHXHXHXHXHXHX",
"HXHXHXHXHX  4 x.Q.].kXfXQ l d.b.r   HX> O $ HXHXHXHXHXHXHXHXHXHX",
"HXHXHXHXHXHX  s.Q._.[./.L.& r r.  HXHXHXHXHXHXHXHXHXHXHXHXHXHXHX",
"HXHXHXHXHXHX  0.C././.C.v.w.      HXHXHXHXHXHXHXHXHXHXHXHXHXHXHX",
"HXHXHXHXHXHX  & k.C.V.v.p.o.  HXHXHXHXHXHXHXHXHXHXHXHXHXHXHXHXHX",
"HXHXHXHXHXHXHX  . V e.B 4   HXHXHXHXHXHXHXHXHXHXHXHXHXHXHXHXHXHX",
"HXHXHXHXHXHXHXHX        HXHXHXHXHXHXHXHXHXHXHXHXHXHXHXHXHXHXHXHX"
};
