/* XPM */
static char *latexdraw__[] = {
/* columns rows colors chars-per-pixel */
"32 32 69 1",
"  c #0D1B50",
". c #101E52",
"X c #152255",
"o c #192557",
"O c #1B2758",
"+ c #1D2A5A",
"@ c #212E5C",
"# c #26315F",
"$ c #273260",
"% c #2A3561",
"& c #2E3963",
"* c #323D66",
"= c #353F68",
"- c #364169",
"; c #3B456C",
": c #3E486E",
"> c #3F4970",
", c #404A6F",
"< c #444D71",
"1 c #475073",
"2 c #4A5375",
"3 c #4D5778",
"4 c #4F5878",
"5 c #545C7B",
"6 c #585F7D",
"7 c #59617E",
"8 c #576080",
"9 c #5D6581",
"0 c #606782",
"q c #646B85",
"w c #686E87",
"e c #666D8A",
"r c #696F88",
"t c #6D738A",
"y c #71768D",
"u c #73798E",
"i c #6F7691",
"p c #707791",
"a c #757B91",
"s c #797E92",
"d c #7C8195",
"f c #7C8298",
"g c #82879C",
"h c #858A9E",
"j c #898E9F",
"k c #878DA0",
"l c #898EA1",
"z c #8D92A4",
"x c #9196A7",
"c c #9599A9",
"v c #9A9EAD",
"b c #9EA2AF",
"n c #9EA2B0",
"m c #A1A5B3",
"M c #A5A9B5",
"N c #A8ABB6",
"B c #ABADB9",
"V c #AEB1BC",
"C c #B2B4BE",
"Z c #B4B7C0",
"A c #B7B9C2",
"S c #BBBDC4",
"D c #C3C5CB",
"F c #C7C8CD",
"G c #C9CACE",
"H c #CBCCD0",
"J c #CFD0D3",
"K c #D2D3D5",
"L c None",
/* pixels */
"LLLLLLLLuuuuuuyuuuaassssLLLLLLLL",
"LLLLLuuuyyyttyytyyyuuusssggLLLLL",
"LLLLuuyyttttttttryytyyyausssLLLL",
"LLLuuyttttrtrwqtrrrrrtyyyusssLLL",
"LLuyyttrtqwqqqqqqwqwwwrttyyussLL",
"Luyyttwwqqqqq0q0q0qqqqwrwttyuuaL",
"Luytttwqqq009999770q70qqqwwtttuL",
"Lyytwwqq00999979777770700qqwwtyL",
"uyttwq77qq7765565535555770qqqqrt",
"uyttwuzd7777qgp55ghkhgft76700qqw",
"uttwqgSCy667lDk55DHDSAANhq6770qq",
"yttww7bFv75aSZ735FSzgxMDFc657707",
"ytrwq0yCSsqbFs324FM9<<1tADs45567",
"yytwq07jDBlDm3213DM5<<<<hGN24556",
"yttwq070mHHSq11<3DM5<<<<rSC22345",
"ytrqq777fDKx11<<2Dm5;;;;9BA51223",
"utrqq975cKKm1<<<<Fn4;;;;8ZZ8><<2",
"yytwqq7dSSBDp<<><Dn3====8ZZ>>><<",
"uytwq7qMDkpSV2>;<Dn2***$iGn*;>>>",
"uytww7xFM55lHk<;>Dn1&&$8nSi*==;>",
"uurrqaSSs31qBS8;>DZe8efZGz=&&==;",
"auyrqNFc8533sFn<>GKDAZZnp>$%&&*=",
"auyrwlzt55315au,;pfspi91&@$$$&&&",
"duutr07765431:;;=&%$$@@@@@@@$$%&",
"Lauttqq775531,,;-=&&%$@@@O+@@@#$",
"Lduytwq075532<,,-==&%$@@+OO+O+@L",
"Lssyywq0775331,,>=*%%$@+OOXXXO+L",
"LLsuyrwq075531,,>-=&%$@+OXX.XXLL",
"LLLaytwq076533<<;-=*&%@++XX. .LL",
"LLLLuyrwq975531<>;==&%$@+O.. LLL",
"LLLLLyywqq96531<<>-=*%$@@OOLLLLL",
"LLLLLLLLqq975531<<;-=&%$@LLLLLLL"
};
