/* XPM */
static char *ProjectCenter[] = {
/* columns rows colors chars-per-pixel */
"32 32 256 2",
"   c #010000",
".  c #180505",
"X  c #101110",
"o  c #1B1A1A",
"O  c #210707",
"+  c #240708",
"@  c #2A0809",
"#  c #250909",
"$  c #370A0A",
"%  c #381111",
"&  c #271E21",
"*  c #232224",
"=  c #252829",
"-  c #362C2C",
";  c #27333C",
":  c #430F0F",
">  c #480E0F",
",  c #4C1112",
"<  c #481E1F",
"1  c #531414",
"2  c #5C1516",
"3  c #561A1B",
"4  c #5A191A",
"5  c #631617",
"6  c #641718",
"7  c #651819",
"8  c #6B191A",
"9  c #731B1C",
"0  c #7C1C1D",
"q  c #431F20",
"w  c #631F20",
"e  c #791F20",
"r  c #522021",
"t  c #5D2323",
"y  c #592829",
"u  c #493A3D",
"i  c #6D2425",
"p  c #6A2D2D",
"a  c #7B2D2D",
"s  c #792426",
"d  c #6F3434",
"f  c #7C3233",
"g  c #7B3A3B",
"h  c #5C4732",
"j  c #393D40",
"k  c #303C43",
"l  c #4D3C4B",
"z  c #3E4446",
"x  c #4D4547",
"c  c #4B4050",
"v  c #585A5A",
"b  c #604C4C",
"n  c #774247",
"m  c #6B4B56",
"M  c #7F5D5F",
"N  c #7F535C",
"B  c #5E5F61",
"V  c #6D5E60",
"C  c #785D63",
"Z  c #596466",
"A  c #4B697C",
"S  c #606163",
"D  c #716866",
"F  c #7E7868",
"G  c #766979",
"H  c #60707E",
"J  c #767878",
"K  c #821D1E",
"L  c #8C1E1F",
"P  c #851F20",
"I  c #8E1F20",
"U  c #832223",
"Y  c #8B2222",
"T  c #832C2D",
"R  c #8B2A2C",
"E  c #932223",
"W  c #9A2425",
"Q  c #9A2728",
"!  c #9B292A",
"~  c #972F31",
"^  c #853838",
"/  c #8A3939",
"(  c #9C3A3B",
")  c #953535",
"_  c #A12425",
"`  c #A52728",
"'  c #A42B2C",
"]  c #AB2A2B",
"[  c #AB2627",
"{  c #B32A2B",
"}  c #BB2C2D",
"|  c #AA2F30",
" . c #A43435",
".. c #A33B3C",
"X. c #B13A3B",
"o. c #BC3233",
"O. c #C62E2F",
"+. c #CF2E2F",
"@. c #C52F30",
"#. c #CE2F30",
"$. c #D02F30",
"%. c #C33334",
"&. c #CE3132",
"*. c #C43B3C",
"=. c #CB3C3D",
"-. c #D03233",
";. c #D03A3B",
":. c #A4561D",
">. c #9B7517",
",. c #976D2E",
"<. c #A3722E",
"1. c #873F41",
"2. c #943C40",
"3. c #A83F42",
"4. c #BF3F40",
"5. c #95474B",
"6. c #82594E",
"7. c #904A52",
"8. c #885657",
"9. c #915757",
"0. c #905F5F",
"q. c #9A5053",
"w. c #AA4243",
"e. c #B14748",
"r. c #B54849",
"t. c #BC4B4C",
"y. c #BD4F50",
"u. c #A85859",
"i. c #B7595A",
"p. c #BA5656",
"a. c #B3605D",
"s. c #855A67",
"d. c #836767",
"f. c #817A66",
"g. c #896D71",
"h. c #936C79",
"j. c #887979",
"k. c #817D7C",
"l. c #957D7E",
"z. c #AB666B",
"x. c #BC6870",
"c. c #AB7172",
"v. c #BC7071",
"b. c #C24243",
"n. c #C24748",
"m. c #CB4A4D",
"M. c #CC4142",
"N. c #CE5648",
"B. c #C45051",
"V. c #CA5354",
"C. c #C2595A",
"Z. c #D6585A",
"A. c #D15656",
"S. c #C47B7C",
"D. c #AC8935",
"F. c #AD963C",
"G. c #D3A516",
"H. c #DFAD18",
"J. c #E0AF19",
"K. c #EBB617",
"L. c #E8B51B",
"P. c #E6B219",
"I. c #C59D26",
"U. c #C19F3E",
"Y. c #D8AE2E",
"T. c #DBB030",
"R. c #E2B125",
"E. c #AA9349",
"W. c #B79D4E",
"Q. c #B39A53",
"!. c #AEA14D",
"~. c #B2A044",
"^. c #A2986D",
"/. c #B49866",
"(. c #A0A062",
"). c #ADA071",
"_. c #C3A448",
"`. c #3E6F8C",
"'. c #6F6C80",
"]. c #667489",
"[. c #7F7C8E",
"{. c #717D91",
"}. c #9F7F80",
"|. c #9C7F88",
" X c #A07C83",
".X c #A97F87",
"XX c #73868C",
"oX c #62879E",
"OX c #698A9B",
"+X c #758297",
"@X c #4D80A2",
"#X c #5688A5",
"$X c #5E8FAF",
"%X c #5485A5",
"&X c #6490A8",
"*X c #6E93A7",
"=X c #7099A8",
"-X c #789BAC",
";X c #6F9CB0",
":X c #6E9FBB",
">X c #729BB4",
",X c #6BA1BD",
"<X c #71A2BE",
"1X c #76A6C1",
"2X c #7CABC6",
"3X c #7EB1CD",
"4X c #878585",
"5X c #8A8C8C",
"6X c #8D8B83",
"7X c #9F8787",
"8X c #918A8B",
"9X c #9C8C8C",
"0X c #9E8796",
"qX c #9E8890",
"wX c #9B9999",
"eX c #A28080",
"rX c #BE8989",
"tX c #A18F99",
"yX c #B28A92",
"uX c #AC969B",
"iX c #BD969B",
"pX c #9D97A5",
"aX c #B19CA7",
"sX c #98A5AB",
"dX c #84A7BD",
"fX c #95A8BA",
"gX c #A9A6A6",
"hX c #A9A1A7",
"jX c #B8A8A8",
"kX c #B3ADAF",
"lX c #B6AFBC",
"zX c #C08183",
"xX c #85B1CB",
"cX c #95B4C6",
"vX c #98B9CB",
"bX c #86B8D6",
"nX c #8CBAD4",
"mX c #8DBEDA",
"MX c #92BCD5",
"NX c #93BFD8",
"BX c #A0BDCF",
"VX c #ACB4C4",
"CX c #96C1D9",
"ZX c #9AC3DB",
"AX c #AAC3D3",
"SX c #A7C7D9",
"DX c #ADCADC",
"FX c #A6C2D2",
"GX c #B1CBDC",
"HX c #AACDE1",
"JX c #B2CFE0",
"KX c #D0D0D0",
"LX c #DCD7D7",
"PX c #E4E4E4",
"IX c #F4F3F3",
"UX c None",
/* pixels */
"UXUXUXUXUXUXUXUXUXUXUXUXUXUXUXUXUXUXUXUXUXUXUXUXUXUXUXUXUXUXUXUX",
"UXUXUXUXUXUXUXT e.t.V.Z.UXUXUXUXUXUXUXUXUXUXUXUXUXUXUXUXUXUXUXUX",
"UXUXUXUXUXUXUX7 6 3 i T ..r.B.A.UXUXUXUXUXUXUXUXUXUXUXUXUXUXUXUX",
"UXUXUXUXUXUXUX5 5 1 , , , 3 i s 1.^.9XeXUXUXUXUXUXUXUXUXUXUXUXUX",
"UXUXUXUXUXUXUX5 6 5 2 2 2 1 , , , y y p ^ 3.t.V.UXUXUXUXUXUXUXUX",
"UXUXUXUXUXUXUX7 7 8 8 7 6 2 2 2 , @ # $ , , 4 i / ( e.B.Z.UXUXUX",
"UXUXUXUXUXUXUX7 7 9 9 9 8 8 8 6 #     o q 1 , > > , 1 w a (  .UX",
"UXUXG.J.G.UXUX5 8 0 e 0 0 9 9 8 . X & J uXt 2 2 1 1 , , > 7 K UX",
"UXUXUXH.K.G.UX5 8 K K K 0 K 0 0 % v KXPXLXd 5 7 6 2 2 2 1 9 UXUX",
"UXUXUXUXK.K.UX5 e 5.~ I Y P e 3 w eXIXIXjXi 9 8 8 8 8 7 6 P UXUX",
"UXUXUXUXE.Y.P.:.h.AXuX .W W 8 & 3 R 9.0.a 0 0 0 0 9 8 8 9 Y UXUX",
"UXUXUXUXUXf._.U.-XmXHXaXw.[ 0 & r W L K P P P K U m c a 0 P UXUX",
"UXUX5XgX8.V 4X).^.=XnXHXhX1.s & r ' ' ' Q E Y R |.cX@X'.P 0 UXUX",
"UXUXd.5X8Xk.Z F T.!.=XnXcXj - o q W ' | | |  ..XSXCX1X|.N l UXUX",
"UXUXa b 5XwXv S Q.K.~.=X1X; & * l e P Y Q  .yXGXNX1X+XpXcX`.UXUX",
"UXb.( f n d.j.5X6X!.L.F.OX`.o = x 8 0 0 U  XGXNX:X>XfX$X&X`.#XUX",
"UX&.=.=.X.) f g 8.4X(.J.D.H ; o z M T s |.AXNX<X>XBXGX&X%X%XUXUX",
"UX&.#.#.-.=.*.X.( 8.6X^.I.<.u * Z BXtXeXGXMX<X>XBXHXNX2X>XUXUXUX",
"UX&.&.&.&.-.-.-.=.4.z.g.h >.,.D XXvXJXJXnX1XxXAXHXmX:X'.7.UXUXUX",
"UXUX&.&.&.#.&.&.&.-.rXc.q.N <./.sXvXHXNXxXcXAXZXxX*Xs.R UXUXUXUX",
"UXUX&.&.&.&.&.&.&.&.S.gXwXkXi.N.zXlXNXMXSXHXnX<X].7.Q I UXUXUXUX",
"UXUX-.-.&.&.&.&.&.$.C.gXl.iXi.+.-.m.C.aXVXxX,X{.2.' E P UXUXUXUX",
"UXUX{ } -.-.&.&.&.-.v.9Xu.*.&.&.&.&.$.-.m.z.tXyX .E E 8 UXUXUXUX",
"UXUXUXUXE } &.-.-.M.y.X.u.%.&.&.&.&.&.&.#.$.;.4.E E W 2 UXUXUXUX",
"UXUXUXUXUXUXP ] O.;.t.n.p.%.#.&.&.&.&.&.&.&.-.{ E E Y : UXUXUXUX",
"UXUXUXUXUXUXUXUXUXW o.b.*.&.&.&.&.&.&.&.&.&.&.{ Y E 6 UXUXUXUXUX",
"UXUXUXUXUXUXUXUXUXUXUXE { &.&.&.&.&.#.&.&.&.&.` E 0 O UXUXUXUXUX",
"UXUXUXUXUXUXUXUXUXUXUXUXUXU ] O.-.-.-.&.&.&.&.` Y , UXUXUXUXUXUX",
"UXUXUXUXUXUXUXUXUXUXUXUXUXUXUXUXW } &.-.&.&.&._ 7 UXUXUXUXUXUXUX",
"UXUXUXUXUXUXUXUXUXUXUXUXUXUXUXUXUXUXY { #.-.&.Y O UXUXUXUXUXUXUX",
"UXUXUXUXUXUXUXUXUXUXUXUXUXUXUXUXUXUXUXUXUX] { 1 UXUXUXUXUXUXUXUX",
"UXUXUXUXUXUXUXUXUXUXUXUXUXUXUXUXUXUXUXUXUXUXUXUXUXUXUXUXUXUXUXUX"
};
