/* XPM */
static char *rawtherapee[] = {
/* columns rows colors chars-per-pixel */
"32 32 256 2",
"   c #79272B",
".  c #067D00",
"X  c #0C7905",
"o  c #1E6E12",
"O  c #197514",
"+  c #1F7E12",
"@  c #157310",
"#  c #237D0B",
"$  c #25701F",
"%  c #1C412F",
"&  c #1C4130",
"*  c #204C25",
"=  c #257320",
"-  c #376937",
";  c #281A53",
":  c #2B2648",
">  c #2B2747",
",  c #342B47",
"<  c #322D4C",
"1  c #234541",
"2  c #6B7F68",
"3  c #BE0606",
"4  c #B9040C",
"5  c #BC0510",
"6  c #96363A",
"7  c #993B3F",
"8  c #A1232B",
"9  c #BE2429",
"0  c #C7000C",
"q  c #CD0018",
"w  c #D20018",
"e  c #C42427",
"r  c #C93D3D",
"t  c #963C40",
"y  c #A32E45",
"u  c #DA1E45",
"i  c #CC3E43",
"p  c #994245",
"a  c #8B445D",
"s  c #9C4E51",
"d  c #B24C54",
"f  c #945E60",
"g  c #A35D62",
"h  c #B95A63",
"j  c #9D6469",
"k  c #A16466",
"l  c #A26669",
"z  c #A36B6D",
"x  c #A46F70",
"c  c #A67073",
"v  c #CF4146",
"b  c #D14F53",
"n  c #D3575C",
"m  c #D84F69",
"M  c #DB6D72",
"N  c #DB7A7D",
"B  c #D37578",
"V  c #CF6E74",
"C  c #0C8C05",
"Z  c #148C0C",
"A  c #039500",
"S  c #0A9702",
"D  c #039C00",
"F  c #0C9C02",
"G  c #0A910A",
"H  c #149A0C",
"J  c #189D0D",
"K  c #17960D",
"L  c #1C8D14",
"P  c #1E9316",
"I  c #05A003",
"U  c #0DA103",
"Y  c #15A40C",
"T  c #18A40E",
"R  c #13A50A",
"E  c #00B005",
"W  c #06B306",
"Q  c #14B400",
"!  c #1DB900",
"~  c #19B000",
"^  c #1AA411",
"/  c #1BA812",
"(  c #15A912",
")  c #03B910",
"_  c #25BD00",
"`  c #28BC00",
"'  c #26A41D",
"]  c #33852F",
"[  c #348A31",
"{  c #3A8835",
"}  c #26932C",
"|  c #14BD28",
" . c #36AF2E",
".. c #37AE30",
"X. c #3BB233",
"o. c #3FB63C",
"O. c #2CAC24",
"+. c #40AA37",
"@. c #42B23B",
"#. c #1DC500",
"$. c #07C902",
"%. c #3FBD48",
"&. c #4A8B46",
"*. c #51874D",
"=. c #53904F",
"-. c #569152",
";. c #5D925A",
":. c #5A9856",
">. c #52944E",
",. c #61945D",
"<. c #4FBC49",
"1. c #47B642",
"2. c #53B34E",
"3. c #5BAA57",
"4. c #59BD54",
"5. c #49A944",
"6. c #61B958",
"7. c #5E9D61",
"8. c #698D67",
"9. c #649661",
"0. c #6D9C69",
"q. c #709965",
"w. c #67BF60",
"e. c #76B872",
"r. c #5BC056",
"t. c #60C35A",
"y. c #6CC367",
"u. c #70C56A",
"i. c #77C972",
"p. c #79CA74",
"a. c #7ECA79",
"s. c #7BC377",
"d. c #80977E",
"f. c #81CD7D",
"g. c #96D67F",
"h. c #140E8B",
"j. c #1D1788",
"k. c #0B0494",
"l. c #0E0898",
"z. c #130C92",
"x. c #0C078C",
"c. c #231D87",
"v. c #3D3B81",
"b. c #3A2A86",
"n. c #0400A3",
"m. c #0A03A5",
"M. c #0F09A4",
"N. c #0C05AC",
"B. c #0F08AC",
"V. c #0701A8",
"C. c #120BA6",
"Z. c #140DA9",
"A. c #0C00BE",
"S. c #0A03B0",
"D. c #1B00B5",
"F. c #120AB1",
"G. c #1800BC",
"H. c #1200B5",
"J. c #2018A6",
"K. c #3631AE",
"L. c #59548D",
"P. c #514D96",
"I. c #6F6E85",
"U. c #544EB6",
"Y. c #615DBC",
"T. c #1300C2",
"R. c #1800CE",
"E. c #6E6CC1",
"W. c #746FC3",
"Q. c #7772C4",
"!. c #DE7E81",
"~. c #7EA284",
"^. c #9BAA9A",
"/. c #88AD84",
"(. c #8786A7",
"). c #ABB0AB",
"_. c #B3B9B3",
"`. c #A3A6AE",
"'. c #C38B8D",
"]. c #CD8A8D",
"[. c #DE8185",
"{. c #D88488",
"}. c #C58E91",
"|. c #DE9093",
" X c #E18488",
".X c #E38D92",
"XX c #E59095",
"oX c #E39599",
"OX c #E39B9D",
"+X c #E8979E",
"@X c #D99EA0",
"#X c #E59EA1",
"$X c #EA9DA3",
"%X c #C6A8A9",
"&X c #CDB5B6",
"*X c #CEBEBE",
"=X c #E6A2A5",
"-X c #E8A3A6",
";X c #E8A6A9",
":X c #E9ABAD",
">X c #E4A9AB",
",X c #EBAEB1",
"<X c #E7B8BA",
"1X c #86CE81",
"2X c #88CE83",
"3X c #8ECD8A",
"4X c #8AD185",
"5X c #8DD38A",
"6X c #87D082",
"7X c #92D38E",
"8X c #9CCA99",
"9X c #95D591",
"0X c #9AD696",
"qX c #93DB95",
"wX c #9ED49B",
"eX c #9DDA9B",
"rX c #9BD897",
"tX c #A1DA9D",
"yX c #9FDFA0",
"uX c #A8C6A6",
"iX c #AED6AB",
"pX c #A3DBA0",
"aX c #B2C2B1",
"sX c #BADAB7",
"dX c #A1E0A2",
"fX c #C0E0BF",
"gX c #8C81D1",
"hX c #BBBBCA",
"jX c #BCF8D2",
"kX c #C7C4C9",
"lX c #CED3CE",
"zX c #C6D8C4",
"xX c #CFD0D4",
"cX c #D5D3D3",
"vX c #D6DAD5",
"bX c #DCDADC",
"nX c #D4C8C6",
"mX c #E9C5C6",
"MX c #E9CBCC",
"NX c #EAD9DA",
"BX c #F2D9D9",
"VX c #C9E5C8",
"CX c #D4E7D3",
"ZX c #DFD6E0",
"AX c #E0D8E0",
"SX c #E7E8E6",
"DX c #F2EBEC",
"FX c #EBF3EA",
"GX c #F4EDF3",
"HX c #F3E6F5",
"JX c #F4F4F6",
"KX c #FBF5FC",
"LX c #F4FAFA",
"PX c #FEFEFF",
"IX c #F9F8F7",
"UX c None",
/* pixels */
"UXUXUXUXUXUXUXUXUXUXUXUXUXUXUXUXUXUXUXUXUXUXUXUXUXUXUXUXUXUXUXUX",
"UXf z x x x x z z z z k l k k g 9.9.,.;.;.:.:.-.-.=.=.&.&.&.] UX",
"UXc OX;X=X=X=X=X-X=X=XOXOXOXoX.XqX9X9X7X7X3X2X2Xf.f.a.a.i.w.@.UX",
"UXc -X,X,X,X,X,X:X;X>X;X;X-X=X$XdXpXtXtXeXrX0X9X9X7X7X5X2Xu.@.UX",
"UXz OX:X,X:X:X:X;X:X;X-X;X;X$X$XdXpXeXtXrX0X9X9X7X7X7X5X1Xu.@.UX",
"UXk OX-X;X=X=X=X=X=X#X=X$XOX$X$XeXeXeXrX0X9X0X9X7X5X4X4Xf.4...UX",
"UXk .X>X<X<XmXmXmXmX<X>XoXoXXXXXqX0X9X9X7X1XSXlXf.2Xf.f.s.wX3.UX",
"UXs MXGXJXPXPXPXLXPXPXJXNX|..XXXqXqX7X7X5Xf.FXCXs.f.i.a.VXPX9.UX",
"UXt PXPXPXPXPXPXPXJXPXPXPXLX@X X5X5X7X5X2Xi.FXGXe.2XVXJXPXPX;.UX",
"UX6 PXPXIXPXSXcX&X&X&XnXLXPXAX{.5X5Xf.p.y.4.CXPXzXFXPXPXPXIX-.UX",
"UX6 LXSX*X).].{.[. X[.N '.GXLXB r.r.4.w.0XsXIXPXPXPXPXPXSX).O UX",
"UXt '.'.B !. X X X[.!.M b NXJXh r.<.sXFXPXPXPXPXDXbX_.^.0.{ T UX",
"UXp n XXSX{.N N M n r r M PXDXd o.VXPXPXGXlXvXPX2 5.5.5.@.O./ UX",
"UXp b |.IX'.b r e 9 e 9 DXIXkX8 o.JXZX^.8.{ 8XKX] X.X.X.X.' / UX",
"UXt v N PXj 3 5 5 3 9 NXIXSX  4 ( [ @ G T I 3XKXX T ^ ' ^ ^ T UX",
"UXy u m PXj 0 q 0 4 NXPXGXa 5 q #._ ` ` _ ! 5XKX# _ ` ` ` ` _ UX",
"UX} E 1.PX~.E ) | jXPXKX- G ) $.R.G.D.D.D.N.gXPXb.H.D.D.D.G.G.UX",
"UXL H ..IX^.S D iXPXHX8.C T / ! T.Z.Z.Z.Z.n.Q.PXL.m.Z.Z.Z.Z.S.UX",
"UX+ T ' PX_.C S PXPX0.@ Y ^ T ! T.Z.Z.Z.Z.n.W.PX(.k.Z.Z.Z.Z.N.UX",
"UX+ T F PXkXA F PXPXaXZ Y ^ ^ ! T.C.Z.C.Z.n.W.PX`.k.B.Z.C.Z.N.UX",
"UXL J S PXAX. F KXPXPX/.S Y / ! A.Z.C.Z.C.n.W.PXhXh.Z.C.Z.Z.B.UX",
"UX+ T A KXHX. D uXPXPXPX:.S I Q G.C.Z.C.Z.n.E.PXcXj.B.Z.C.Z.B.UX",
"UX+ ^ D CXPXX R K uXPXPXPXvX3.6.KXP.m.Z.C.n.Y.PXbXc.B.C.Z.Z.B.UX",
"UX+ ^ D iXPXO Y T P cXPXPXPXPXPXPXL.V.Z.C.m.U.PXbXc.N.C.Z.Z.F.UX",
"UX+ ^ F s.PX= T ^ R C 0.AXKXPXPXSXv.B.C.Z.m.K.PXlXj.B.Z.C.Z.F.UX",
"UX+ ^ U 2.PX$ T T ^ T F [ ,.8.q.L.c.Z.C.Z.Z.J.hXI.z.Z.Z.C.Z.F.UX",
"UX+ ^ ^ ^ { L T ^ ^ ^ T R U R Q A.Z.Z.Z.Z.C.C.k.k.Z.Z.C.Z.Z.F.UX",
"UX+ ^ ^ ^ J ^ ^ ^ ^ ^ T ^ T T ! T.Z.Z.C.Z.Z.Z.Z.Z.C.C.Z.Z.Z.F.UX",
"UX+ / T ^ ^ T ^ ^ ^ ^ ^ T / T ! T.Z.C.Z.C.Z.C.Z.Z.Z.C.Z.Z.Z.F., ",
"UXo / ( / ^ / / T ^ / ^ ^ / / ! T.Z.Z.Z.Z.Z.Z.Z.Z.Z.Z.Z.Z.Z.Z., ",
"UXo L K J J K J J J J J J J Y ~ H.C.C.C.M.M.C.M.C.M.C.M.C.l.x.UX",
"UXUX1 & & & & & & & & & & & % % ; : : : : > > : > > : : : < UXUX"
};
