/* XPM */
static char *kdrill[] = {
/* width height num_colors chars_per_pixel */
"    26    31        2            1",
/* colors */
". c #ffffff",
"# c #000000",
/* pixels */
"..........................",
"..........................",
"..........................",
"............#.............",
".............##.....##....",
".........#....##....##....",
"..........##..##...##.....",
".......#..........#.......",
"......##################..",
"......##..............#...",
"......#...............#...",
".....#..#############.....",
"........#...........#.....",
"........#...........#.....",
"........#############.....",
"........#...........#.....",
"........#...........#.....",
"........#############.....",
"........#...........#.....",
"........#...........#.....",
"........#############.....",
"............#..#..........",
"............#..#..........",
"...........##..#..........",
"...........#...#.......#..",
".........##....#.......#..",
".....####.......#######...",
"..........................",
"..........................",
"..........................",
".........................."
};
