/* XPM */
static char *peces7[]={
"32 32 7 1",
"b c #0000ff",
"d c #008000",
"e c #00ff00",
"a c #00ffff",
"# c #ff0000",
"c c #ff00ff",
". c #ffff00",
"................###############a",
"...............bb#############aa",
"..............bbbb###########aaa",
".............bbbbbb#########aaaa",
"............bbbbbbbb#######aaaaa",
"...........bbbbbbbbbb#####aaaaaa",
"..........bbbbbbbbbbbb###aaaaaaa",
".........bbbbbbbbbbbbbb#aaaaaaaa",
"........bbbbbbbbbbbbbbbaaaaaaaaa",
".......cbbbbbbbbbbbbbbaaaaaaaaaa",
"......dccbbbbbbbbbbbbaaaaaaaaaaa",
".....ddcccbbbbbbbbbbaaaaaaaaaaaa",
"....dddccccbbbbbbbbaaaaaaaaaaaaa",
"...ddddcccccbbbbbbaaaaaaaaaaaaaa",
"..dddddccccccbbbbaaaaaaaaaaaaaaa",
".ddddddcccccccbbaaaaaaaaaaaaaaaa",
"dddddddccccccccbaaaaaaaaaaaaaaaa",
"dddddddccccccceeaaaaaaaaaaaaaaaa",
"dddddddcccccceeeeaaaaaaaaaaaaaaa",
"dddddddccccceeeeeeaaaaaaaaaaaaaa",
"dddddddcccceeeeeeeeaaaaaaaaaaaaa",
"dddddddccceeeeeeeeeeaaaaaaaaaaaa",
"dddddddcceeeeeeeeeeeeaaaaaaaaaaa",
"dddddddceeeeeeeeeeeeeeaaaaaaaaaa",
"dddddddeeeeeeeeeeeeeeeeeaaaaaaaa",
"ddddddeeeeeeeeeeeeeeeeeeeaaaaaaa",
"dddddeeeeeeeeeeeeeeeeeeeeeaaaaaa",
"ddddeeeeeeeeeeeeeeeeeeeeeeeaaaaa",
"dddeeeeeeeeeeeeeeeeeeeeeeeeeaaaa",
"ddeeeeeeeeeeeeeeeeeeeeeeeeeeeaaa",
"deeeeeeeeeeeeeeeeeeeeeeeeeeeeeaa",
"eeeeeeeeeeeeeeeeeeeeeeeeeeeeeeea"};
