/* XPM */
static char * clamtk_icon_big_xpm[] = {
"32 32 256 2",
"  	c None",
". 	c #0C0E14",
"+ 	c #0D100D",
"@ 	c #0C1114",
"# 	c #130D0B",
"$ 	c #100E10",
"% 	c #10100E",
"& 	c #101010",
"* 	c #080E22",
"= 	c #091625",
"- 	c #091A33",
"; 	c #131B25",
"> 	c #121B33",
", 	c #172517",
"' 	c #0B2329",
") 	c #0B2635",
"! 	c #0C3538",
"~ 	c #162429",
"{ 	c #172935",
"] 	c #18342A",
"^ 	c #183538",
"/ 	c #30120A",
"( 	c #2C1D22",
"_ 	c #322616",
": 	c #252726",
"< 	c #242B37",
"[ 	c #29352B",
"} 	c #273639",
"| 	c #372A25",
"1 	c #342B34",
"2 	c #383528",
"3 	c #363937",
"4 	c #19354B",
"5 	c #003674",
"6 	c #232B42",
"7 	c #272C5A",
"8 	c #263945",
"9 	c #273959",
"0 	c #332D4E",
"a 	c #353C44",
"b 	c #343A55",
"c 	c #243B64",
"d 	c #19443C",
"e 	c #334016",
"f 	c #2E4737",
"g 	c #3A613B",
"h 	c #1A4746",
"i 	c #02417D",
"j 	c #274547",
"k 	c #294655",
"l 	c #275549",
"m 	c #265556",
"n 	c #374649",
"o 	c #384854",
"p 	c #375647",
"q 	c #3A5456",
"r 	c #2D486E",
"s 	c #386655",
"t 	c #376865",
"u 	c #4D1509",
"v 	c #5C1F39",
"w 	c #502C16",
"x 	c #513829",
"y 	c #70120C",
"z 	c #771E2F",
"A 	c #6F3115",
"B 	c #6E372A",
"C 	c #503645",
"D 	c #6A3646",
"E 	c #5F401C",
"F 	c #554733",
"G 	c #506232",
"H 	c #75431A",
"I 	c #6E4C35",
"J 	c #75653B",
"K 	c #474747",
"L 	c #474B54",
"M 	c #495549",
"N 	c #475558",
"O 	c #584A45",
"P 	c #574954",
"Q 	c #5A5447",
"R 	c #575757",
"S 	c #505866",
"T 	c #526654",
"U 	c #486463",
"V 	c #4F6875",
"W 	c #457663",
"X 	c #586566",
"Y 	c #596974",
"Z 	c #597469",
"` 	c #5A7576",
" .	c #715848",
"..	c #6A5966",
"+.	c #786552",
"@.	c #676967",
"#.	c #676673",
"$.	c #69736A",
"%.	c #697775",
"&.	c #796A62",
"*.	c #736877",
"=.	c #7B7465",
"-.	c #767976",
";.	c #014F8A",
">.	c #02629C",
",.	c #0070A9",
"'.	c #27588B",
").	c #306797",
"!.	c #3376A5",
"~.	c #465D82",
"{.	c #4D719C",
"].	c #577AA3",
"^.	c #717784",
"/.	c #607FA6",
"(.	c #3E836E",
"_.	c #58835B",
":.	c #588C72",
"<.	c #76875B",
"[.	c #768575",
"}.	c #0183BB",
"|.	c #3288B5",
"1.	c #0094CB",
"2.	c #04AADA",
"3.	c #19B5E0",
"4.	c #3098C5",
"5.	c #2AAFDA",
"6.	c #30BAE1",
"7.	c #39C0E4",
"8.	c #4D8BB3",
"9.	c #788887",
"0.	c #6E8CAF",
"a.	c #4E9BC2",
"b.	c #52ADD3",
"c.	c #49BDE1",
"d.	c #719DC0",
"e.	c #6EAECB",
"f.	c #51C5E3",
"g.	c #69CBDE",
"h.	c #6CCEE6",
"i.	c #8F130C",
"j.	c #8E1A24",
"k.	c #8E2D16",
"l.	c #8F3529",
"m.	c #B1130B",
"n.	c #AA1922",
"o.	c #B12C14",
"p.	c #AE362A",
"q.	c #983C44",
"r.	c #B63E47",
"s.	c #8E4819",
"t.	c #8F4E33",
"u.	c #96621B",
"v.	c #936339",
"w.	c #B14C19",
"x.	c #AE4E35",
"y.	c #B2651B",
"z.	c #AF6A37",
"A.	c #8E5847",
"B.	c #955D71",
"C.	c #8E6C54",
"D.	c #917765",
"E.	c #AD5647",
"F.	c #B95E63",
"G.	c #AD6F51",
"H.	c #AD7966",
"I.	c #CD1409",
"J.	c #D02D13",
"K.	c #CD3529",
"L.	c #E4160A",
"M.	c #E83112",
"N.	c #E73726",
"O.	c #D13D40",
"P.	c #D34A15",
"Q.	c #CF4F32",
"R.	c #D76813",
"S.	c #D06A35",
"T.	c #ED4D16",
"U.	c #EB522E",
"V.	c #EE6C16",
"W.	c #F06C33",
"X.	c #CE5747",
"Y.	c #CE6E4F",
"Z.	c #CD7767",
"`.	c #EA5847",
" +	c #EF714E",
".+	c #EE7966",
"++	c #847584",
"@+	c #D27D83",
"#+	c #EF7F89",
"$+	c #898B38",
"%+	c #AE893C",
"&+	c #988458",
"*+	c #97866F",
"=+	c #8FA26F",
"-+	c #B18559",
";+	c #AF8B70",
">+	c #B6A477",
",+	c #DE8D16",
"'+	c #D48838",
")+	c #C9A43F",
"!+	c #F38718",
"~+	c #F38934",
"{+	c #F5A51C",
"]+	c #F3A634",
"^+	c #D08955",
"/+	c #CC9170",
"(+	c #D0A759",
"_+	c #D2A676",
":+	c #F38B53",
"<+	c #F2906C",
"[+	c #F8A854",
"}+	c #F5AA73",
"|+	c #EEC44D",
"1+	c #FAC375",
"2+	c #929188",
"3+	c #839CBA",
"4+	c #95A28F",
"5+	c #8AA1BD",
"6+	c #B49685",
"7+	c #B49FA0",
"8+	c #B6A68D",
"9+	c #B6ADA8",
"0+	c #869DC1",
"a+	c #95ABC5",
"b+	c #A7B9CE",
"c+	c #BDC1B4",
"d+	c #88C8DC",
"e+	c #90D9EA",
"f+	c #9AE0EE",
"g+	c #B7C5D7",
"h+	c #B9CCE0",
"i+	c #CB9887",
"j+	c #D19EA9",
"k+	c #D1AA8F",
"l+	c #D4B5A6",
"m+	c #F09787",
"n+	c #F39CA1",
"o+	c #F2B18E",
"p+	c #EFB8A7",
"q+	c #D9C297",
"r+	c #D8C4B0",
"s+	c #F8C894",
"t+	c #F6CDB0",
"u+	c #FEE299",
"v+	c #FDE6B5",
"w+	c #C6CEDA",
"x+	c #D1D6E8",
"y+	c #DBE2EB",
"z+	c #F5D7C8",
"A+	c #E0DEF0",
"B+	c #FCE9D1",
"C+	c #EFEFF6",
"D+	c #000000",
"E+	c #000000",
"F+	c #000000",
"G+	c #000000",
"                                                                ",
"                         +C+ +J.I.<+t+I.Z.                      ",
"                  _.M.K.m.J.<+C+m+`.m+ +K.B+`.q.                ",
"                W.<+n+<+<+`.S.p+.+t+ + +t+o+.+k.u+              ",
"              [+1+#+t+<+z+<+m+5 5 I..+Z.J.S.m.v+m+`.            ",
"            W.}+z+[+_+<+}+z+5 C+C+5 Q. +Z..+t+<+Y.y _+          ",
"          B+p+s+t+s+<+p+z+5 y+w+w+y+5 U.;+q+V.z.l.p+s+~+        ",
"        8+v+o+^+}+p+<+J.5 y+g+a+a+b+y+5 >+T.^+t.n+}+t+_+r+      ",
"        m+s+m+o+<+z+o+5 y+a+0.0.3+3+b+x+5 ^+t.o+K.p.s.q+L.x.    ",
"        p+v+t+`.<+<+c x+a+0./././.0.0.a+w+5 z+:+G.G.<+Y.X.K.    ",
"        ^+}+v+z+t+5 x+5+/.].].].A+A+A+C+5+w+5 9+A I.X.Z.X.G.u   ",
"        o+~+I.U.5 w+3+].5 5 5 A+C+5 /.A+C+0.h+5 s+Z.H.t.m.W.E.  ",
"      z+<+W.}+5 h+5 5 5 i 5 C+g+C+5 i 5 C+C+5 b+5 C.p+W.p.-+Y.  ",
"      r+^+:+c {.5 5 i 5 i 5 C+C+i i i i {.C+5 5 i 5 E.E.H.H p+| ",
"    S.7+o.r 5 5 i 5 i i i {.C+i ;.;.;.;.5 C+i 5 5 5 5 w t+w.X.Q.",
"    1+B+5 5 5 5 i i ;.;.;.i x+;.>.;.;.;.w+x+i i i 5 5 5 E.p./+@.",
"  '+p+l+5 i i i ;.;.;.>.>.>.A+A+;.>.;.].x+5 i i i i i v A./ G.H.",
"  Z.8+j+q+5 '.i ;.;.;.,.,.i C+C+C+A+A+C+0+;.>.;.;.'.5 *+p.p+S.E.",
"  o+i+i+_+k+5 !.>.>.,.,.;.C+C+,.>.>.;.>.,.,.>.>.!.r H.Y.A.;+2+  ",
"  m+i+i+/+k+i+5 a.,.,.'.C+C+}.1.1.1.1.}.}.}.,.a.0 &+=.;+x ;+p.  ",
"  H.;+j+^+k+q+/+5 b.,.C+C+1.1.1.1.1.2.1.}.}.a.9 +.u +.p.S.K.E.  ",
"    ;+i+i+k+_+G.t.5 b.}.1.2.2.3.3.2.2.1.1.f.4 t.E.u.C.E.=.k+    ",
"      6+;+/+_+_+i+J 5 f.2.3.6.7.7.6.3.2.f.5 A.&.H.v./ C.@+q+    ",
"      o @+i+C.;+C.v.I 5 f.6.c.f.f.c.6.h.c 2 G.o+E.E.E.F.r.`     ",
"        2+6+6+A.;+I D.I 5 e+f.f.g.g.e+5  .C.+.D.*+w x E A.      ",
"          *+;+C.D.C.C.C.+.5 e+h.d+e+9  .G.l+-+;+H.A.G.>+        ",
"          N  .D.+.C.D. . .Q c f+e+7  . . . .D.F ;+H.&+          ",
"              +.C.C.&++.D.C.C.I I  .D.C.D.C.D.&+G.S.p           ",
"                +.=.=.=.D.;+;+G.A.*+H.6+=+>+E./+z.              ",
"                  &.+.E  .*+=.++n -.;+;+;+*+&+                  ",
"                    v.=+v.[.                                    ",
"                                                                "};
