/* XPM */
static char *freqtweak_logo__x__[] = {
/* columns rows colors chars-per-pixel */
"32 18 226 2 ",
"   c #1A8027CE1ACB",
".  c #20352C1F1928",
"X  c #22632F861D49",
"o  c #25062FC524DC",
"O  c #28EC332428C3",
"+  c #2D9B38332906",
"@  c #2E1C39FB292A",
"#  c #2D8B387B2E3B",
"$  c #2E7239602EF2",
"%  c #314C3CC126CB",
"&  c #347E3D872F78",
"*  c #61C51D981A2C",
"=  c #61F51BAA2601",
"-  c #77EF179E2D03",
";  c #7A782ED62429",
":  c #7789213B2A51",
">  c #7D1F3E9C3913",
",  c #4608581735D3",
"<  c #49BA52923C25",
"1  c #49FB57083D58",
"2  c #758A4D093E8C",
"3  c #6DA537655DE6",
"4  c #528F1EDB6EFB",
"5  c #4FE118627934",
"6  c #60D60A687C9A",
"7  c #7FA302DE7B38",
"8  c #63CA29D77C2B",
"9  c #78582B5C77C3",
"0  c #6A583156771A",
"q  c #6B943604799D",
"w  c #47AB4EB547BF",
"e  c #4A0B4EDB41F5",
"r  c #4BC651C84BC6",
"t  c #4DA053544E00",
"y  c #4D87542D4D8C",
"u  c #44DB5B7A48F9",
"i  c #4F6859C14DF8",
"p  c #562C5D714523",
"a  c #526C5879526A",
"s  c #57FA5C5C53A3",
"d  c #7DBE52FE4D05",
"f  c #7FE4515A5CC4",
"g  c #4B15615041F3",
"h  c #4F1E6559432E",
"j  c #5B7666F64E1C",
"k  c #596F62935AA3",
"l  c #5A5C72CE5EDB",
"z  c #4CB35EAB6937",
"x  c #75305BE6680E",
"c  c #66DA44647B0C",
"v  c #67E95A217BAA",
"b  c #48C86B1F6A3D",
"n  c #5844706C6C24",
"m  c #5E8973D46FD8",
"M  c #494867DD797E",
"N  c #4BFA6B417E7E",
"B  c #566A680271B2",
"V  c #5D90716D7C4E",
"C  c #633C6765633C",
"Z  c #676E6AF16628",
"A  c #632B6B516FCC",
"S  c #6B9973DA6BC5",
"D  c #73C1743C6A17",
"F  c #709D736A6E11",
"G  c #6E1A73CE72B9",
"H  c #6DD9796E708C",
"J  c #6DAC78177C4B",
"K  c #73247603737F",
"L  c #77DA7A397325",
"P  c #7A0F7B7676A8",
"I  c #9A8B09C61BFC",
"U  c #AE100ABE1E32",
"Y  c #AB1D0BDD1C34",
"T  c #A2B914BE1158",
"R  c #88B03AA81D87",
"E  c #A70A39AB0582",
"W  c #A5AA3D65058D",
"Q  c #AF3532740C99",
"!  c #AF7724DB1264",
"~  c #A05E2D9B12A1",
"^  c #A6DB28731B65",
"/  c #A02833161F98",
"(  c #9CA819882ED8",
")  c #93690F6C33EB",
"_  c #A24C0E3A2113",
"`  c #AC6109452633",
"'  c #9D6222512248",
"]  c #9B9C25E82BE9",
"[  c #9CB52E892C19",
"{  c #963834962932",
"}  c #93833D9D2B1E",
"|  c #98F5264C3849",
" . c #9DDF37223940",
".. c #A20020DA3D69",
"X. c #C1D21FBD1006",
"o. c #AE7245DD059F",
"O. c #AD0845AB0F8D",
"+. c #911F635E0DFE",
"@. c #8D74499A2DE3",
"#. c #96BA59F62CE4",
"$. c #8B595E7F3132",
"%. c #9B9953C939D4",
"&. c #9D8363B33655",
"*. c #9B2467533842",
"=. c #970F7B0D3DC2",
"-. c #9F1515F246F0",
";. c #9EC60E1E511F",
":. c #9AD21D2B5BFA",
">. c #A50008A95CE3",
",. c #98DC38B349B8",
"<. c #853920EA5C11",
"1. c #878229205ABB",
"2. c #9B090A335FE3",
"3. c #97521D9C6E41",
"4. c #8622218869C5",
"5. c #9875368369A0",
"6. c #80D9378779DC",
"7. c #8A3852C54D0C",
"8. c #912C53074D62",
"9. c #84324E7F5BA3",
"0. c #860F50075396",
"q. c #8F1651055596",
"w. c #88045B965473",
"e. c #9115578E5BD2",
"r. c #8F2A677552FC",
"t. c #923A47756695",
"y. c #987A3FFF6AC0",
"u. c #87175FCB6250",
"i. c #871657336820",
"p. c #84465A5272B3",
"a. c #85735E9378D4",
"s. c #8E126E1665B6",
"d. c #85746ECC685E",
"f. c #89EB7748697E",
"g. c #8E0D71F26C00",
"h. c #8DC16C2D7207",
"j. c #8EE368D27E57",
"k. c #9A8467EC71AB",
"l. c #8FCC7E0A7340",
"z. c #92D1793572A0",
"x. c #9F97728E7F87",
"c. c #930D7E3C7BF4",
"v. c #824983507DD7",
"b. c #858D86257FAE",
"n. c #93F88087758C",
"m. c #4C02046A8816",
"M. c #5EB101DB8E57",
"N. c #402816AC8106",
"B. c #425302369B30",
"V. c #62150E2A83ED",
"C. c #5FF401AF8815",
"Z. c #678D03B68D26",
"A. c #6FC81C2D888E",
"S. c #700B0DB2958A",
"D. c #748E05529F5F",
"F. c #48B727E28775",
"G. c #416E20BE8C5B",
"H. c #7C193AD692AF",
"J. c #784C3B7694F5",
"K. c #608A0CECA3CE",
"L. c #72A4059FA177",
"P. c #5C94485187AC",
"I. c #776859668F69",
"U. c #78F4547394C4",
"Y. c #7ABA54E8965E",
"T. c #7C935AAF9750",
"R. c #4BB66F5B84CA",
"E. c #4D6377AD8C07",
"W. c #4DA5743B8C7B",
"Q. c #4C2C756A8E9D",
"!. c #56FA7796818B",
"~. c #57CA741184F2",
"^. c #591772E3831C",
"/. c #5A7F769F8799",
"(. c #5608766A8BB2",
"). c #5083765D8DD7",
"_. c #5DC078458A66",
"`. c #5AF27A9C8DAE",
"'. c #5E5F7BBF8D64",
"]. c #5CB77B599007",
"[. c #5B797D788EA4",
"{. c #4CD678F09300",
"}. c #4E7178D39388",
"|. c #50727D3593B5",
" X c #4FDD7CF694FE",
".X c #54407D409666",
"XX c #61FF790F8763",
"oX c #6CFF7A2F81FC",
"OX c #6E267B2B83B9",
"+X c #6FC77F3182C1",
"@X c #70237C8D8416",
"#X c #73E37EA384F7",
"$X c #746D7F28859A",
"%X c #942203DE8C75",
"&X c #80A7065A9B2C",
"*X c #85D35F9782B3",
"=X c #84AB48F2920B",
"-X c #840A6DFC8CD6",
";X c #885C68708871",
":X c #9990686C86DE",
">X c #88A574A38EEC",
",X c #90B77270859B",
"<X c #96C974FD854A",
"1X c #951C79F186D3",
"2X c #9FE479A885BC",
"3X c #89366DC99297",
"4X c #8F3F696C9734",
"5X c #8ED57A2691FA",
"6X c #7591802886AC",
"7X c #7A0F809E8456",
"8X c #7A1485C18CEA",
"9X c #7A9A85F68DC3",
"0X c #7A778A1E923D",
"qX c #7CE68D91947A",
"wX c #4F3D854DA5C5",
"eX c #801F837F8646",
"rX c #853D873B85BC",
"tX c #88818A0D867B",
"yX c #8AC18DE48A48",
"uX c #9914869C88D4",
"iX c #920F8FC088DB",
"pX c #8FDC90A68DE2",
"aX c #98AB8E1C9806",
"sX c #9BE09A2C9663",
"dX c #99189A93997D",
"fX c None",
/* pixels */
"fXfXfXfXfXfXfXfXfXfXfXfXfXfXfXfXfXfXfXfXfXfXfXfXfXfXfXfXfXfXfXfX",
"fXfXfXpXP fXfXfXfXfXfXfXfXfXfXfXfXfXfXfXfXfXfXfXfXfXfXfXfXfXfXfX",
"fXfXF 1 j fXfXfXfXfXfXfXfXfXfXfXfXfXfXfXfXfXfXfXfXfXfXfXfXfXfXfX",
"fXfXi b +XfXK t dXrXa y fXfXfXZ w C fXfXfXfXfXfXfXfXfXfXfXfXfXfX",
"fXfXm E.8Xv.+ . P & o O + yXH , X   t fXfXfXfXfXfXfXfXfXfXfXfXfX",
"fXfX].wX~.k h p S g s e u J [.!.tX# # fXfXfXfXfXfXfXfXfXfXfXfXfX",
"fXfX].{.#XB  XqX8X XV G fXeX`.{.6X< % fXfXfXfXfXfXfXfXfXfXfXfXfX",
"fXfX_.R.fXz W.0XfX^.W.N 7XfXOX).M n l fXfXfXfXfXfXfXfXfXfXfXfXfX",
"fXfXb.D fXfX6XfXfXfX#XOXfXfXfXfXA (..XfXfXfXfXfXfXfXfXfXfXfXfXfX",
"fXfX=.+.fXfXfXfXfXfXfXfXfXfXfXfXfXXX^.fXfXfXfXfXfXV.Y.fXfXfXfXfX",
"fXfX&.W d fXw.n.h.f fX9.fXfXd.- 0.sXfXfX> ; s.fXfXC.Y.j.3 fXfXfX",
"fXfX%.X.} d.^ q.,.) = _ k.i.( { | t.aX1.-...<.-XfX7 q A.9 fXfXfX",
"fXfX*.E 2 g.! 8. .I * Y x.5.;.x 4.3.j.%X=X4X&X8 fXZ.4 6 c fXfXfX",
"fXfX$.Q 7.z.O.@.[ T - ` 2Xy.>.a.,X1X;XL.J.>XK.N.fXB.P.F.G.fXfXfX",
"fXfXn.[ R iX#.o.~ ' U ] uX<X:.;.6.fXfXH.D.0 S.5 fXM.T.I.m.v fXfX",
"fXfXfXfXf.fXfXr.z.fXe.fXfXfXfX:X*XfXfXfX3X5XfXfXfXfXfXfXfXfXfXfX",
"fXfXfXfXfXfXfXfXfXfXfXfXfXfXfXfXfXfXfXfXfXfXfXfXfXfXfXfXfXfXfXfX",
"fXfXfXfXfXfXfXfXfXfXfXfXfXfXfXfXfXfXfXfXfXfXfXfXfXfXfXfXfXfXfXfX"
};
