/* XPM */
static char *fslview[] = {
/* columns rows colors chars-per-pixel */
"32 32 108 2 ",
"   c #2D2D2D",
".  c #2D3031",
"X  c #353535",
"o  c #3B3B3C",
"O  c #3B433E",
"+  c #41423E",
"@  c #3B3E41",
"#  c #3E4144",
"$  c #434443",
"%  c #484747",
"&  c #494946",
"*  c #454349",
"=  c #464A4B",
"-  c #4C4C4B",
";  c #4D534F",
":  c #50504B",
">  c #464B50",
",  c #4A4E52",
"<  c #4E5151",
"1  c #4F545C",
"2  c #535353",
"3  c #5A5A56",
"4  c #515459",
"5  c #555A5D",
"6  c #5C5C5C",
"7  c #5F605D",
"8  c #575D65",
"9  c #5A5E64",
"0  c #575D68",
"q  c #5A5F68",
"w  c #5C6265",
"e  c #5D636A",
"r  c #636363",
"t  c #6A6260",
"y  c #656867",
"u  c #646669",
"i  c #656B6C",
"p  c #6B6C6C",
"a  c #66716F",
"s  c #6A706F",
"d  c #73726E",
"f  c #646B73",
"g  c #6A6E72",
"h  c #6B6F79",
"j  c #6C7274",
"k  c #6D747B",
"l  c #747374",
"z  c #777876",
"x  c #7A7877",
"c  c #73757B",
"v  c #78777A",
"b  c #757A7E",
"n  c #7B7B7D",
"m  c #7F807E",
"M  c #747682",
"N  c #757B83",
"B  c #7B7D82",
"V  c #767E8B",
"C  c #797F8A",
"Z  c #817F85",
"A  c #7C8186",
"S  c #7C838A",
"D  c #7D8491",
"F  c #838284",
"G  c #878887",
"H  c #85848B",
"J  c #88878C",
"K  c #84898E",
"L  c #8B8A8D",
"P  c #8E908F",
"I  c #848591",
"U  c #898790",
"Y  c #838A92",
"T  c #8C8C93",
"R  c #868B98",
"E  c #8F8D98",
"W  c #908E93",
"Q  c #918D99",
"!  c #8B929E",
"~  c #939294",
"^  c #93929A",
"/  c #9A969D",
"(  c #9B9B9C",
")  c #9795A0",
"_  c #9996A1",
"`  c #9198A5",
"'  c #9B9BA2",
"]  c #9F9DA9",
"[  c #A09EA1",
"{  c #A19DAE",
"}  c #A2A2A3",
"|  c #ACABA6",
" . c #A5A3AA",
".. c #A2A9A9",
"X. c #ABABAC",
"o. c #AFB1AB",
"O. c #ADADB4",
"+. c #ABADBA",
"@. c #B3B3B2",
"#. c #B5B4BC",
"$. c #BDBDBC",
"%. c #BEC0BF",
"&. c #C3C3C3",
"*. c #CCCCCC",
"=. c #D5D4D4",
"-. c #DBDBDB",
";. c #E0DFDE",
":. c #E3E3E3",
/* pixels */
"J E ^ T Q ^ E W T H Z F H F L T H H H n Z B Z J J L H J J L T Q ",
"E ^ / ( ( / ^ ^ Q J G J J U L L L L W L J T T Q Q Q J J U T Q / ",
"G G T ~ Q L T G H Z Z B v v B Z Z n F W n B T ' ^ Z T Z B B z B ",
"F B P ^ ~ T ~ U J H G n l v Z I Z B B Z u 2 % r ( [ T Z Z G v z ",
"l n Z Q ) / E T Z J Z F n n Q { { [ Q Q Z v t - $ Z #.T B Z v l ",
"l n Z U E Q R T Z Z J Q / Q J Q ^ [ X.| { / / J u o n +.Q v l v ",
"x Z J T T ) / Q L H Q Q T L d p { J { W Q J [ { ' g 4 Q #.T h B ",
"l x B C Z I E Q Q L v Z Z d t t d W / L W G Z Q E b C U _ #.^ v ",
"l J ~ O.@.O.X.O.( l Z 6 d x [ =.=.| Q Z L F G J } ..F c v G +.U ",
"p u G :.=.%.%.[ n % r z d o.;.=.&.$.P 2 p p z r @.&.- 6 d X W +.",
"6 r m =.d $ r s u 2 p z L $.~ + 2 t ~ 2 r r d 6 ( X.$ p L d n +.",
"l t L &.- $ X r L 2 2 r m &.3 7 r 6 7 7 p p t r ( | % 2 m F H +.",
"l r ~ @.- p - X 7 6 2 u l *.3 : : 6 r r y 7 u 3 / X.$ o p F M U ",
"v r L $.; j s # o p d 6 u %.} p d v Z n L d H 3 / X.X r p g B c ",
"v p n *.x L ~ P G y x 6 6 G =.} l l z p G r n 3 ( } $ 6 6 Z [ ^ ",
"B p z =.G y m P l X 2 - $ 6 / ;.%.l u 2 p 2 r : ( | $ $ % 9 z m ",
"F s m *.6 6 3 O $ X o X X X : F *.%.p : % + - 2 / X.o   X o $ + ",
"N y P $.4 Y K > o % 2 2 2 % $ X 7 *.[ 3 $ o $ - / X.o   X   o - ",
"N p ( } - K j = - $ 2 2 2 6 6 r & Z %.6 2 7 3 4 ~ o.+ o 2 w 2 , ",
"Z p [ ( % 7 O ; n - $ p ~ o 2 2 - Z &.6 - 9 6 6 L $.% o $ N f 0 ",
"B u } } o o 5 y 3 $ o 9 @.l - $ 6 %.%.$ 2 2 3 6 B *.r 3 r n T I ",
"0 u @.@.* 5 e 5 2 $ o p ~ ;.=.$.:.:.l X 2 - : 7 n ;.&.@.$.| F e ",
"H w L G = j k w u , , # 3 ' :.-.@.t o - % $ + & 7 ~ ( L F l 5 9 ",
"A N v B b N A b c C 9 5 # $ O X   X + $ % % $ X O   @ @ @ q M R ",
"Y Y Y Y D S A A A S A j f 1 ; - - $ 2 $ ; $ = , , o = 8 f S D ` ",
"K D D D S S k k N S k N A k c y 3 p 5 r ; 6 w 8 9 + @ g D S D ! ",
"D D S D S N A k k A A N k k k a c N A n b C R k , @ i T Y A V R ",
"S S D V N N N k j k n m N A S A N b S A K U M 1 4 k S B Y N D R ",
"V M S S A N h f a a j z c c N n A S A S b f 9 h A A A A K N S ! ",
"h M M V N N N f j a a a a k c k j k f e k N c M k m A K A A A D ",
"M k k k j j f a s y y s i i p i i i u e f k j j k c n A n N V D ",
"S N S A A A N a a a d j l a a a j i j k k n N n A A K A S K Y R "
};
