/* XPM */
static char *noname[] = {
/* width height ncolors chars_per_pixel */
"32 32 464 2",
/* colors */
"   c #000000",
" . c #067B05",
" X c #087507",
" o c #20AE1B",
" O c #52AD49",
" + c #259420",
" @ c #51AD48",
" # c #076306",
" $ c #7BF471",
" % c #016B00",
" & c #1E9A19",
" * c #065F05",
" = c #23901E",
" - c #2A8425",
" ; c #4CAD43",
" : c #73F669",
" > c #4BD545",
" , c #055904",
" < c #74F06A",
" 1 c #075306",
" 2 c #094F08",
" 3 c #71F467",
" 4 c #73F069",
" 5 c #277C22",
" 6 c #054F04",
" 7 c #42AD39",
" 8 c #257420",
" 9 c #064505",
" 0 c #46C940",
" q c #014B00",
" w c #33E72D",
" e c #188613",
" r c #1E7C19",
" t c #64F65A",
" y c #69EC5F",
" u c #0C350B",
" i c #083B07",
" p c #034302",
" a c #053B04",
" s c #2C5C27",
" d c #3ECB38",
" f c #033D02",
" g c #053904",
" h c #0E270D",
" j c #043703",
" k c #092D08",
" l c #3DC337",
" z c #A8FF9D",
" x c #2DD927",
" c c #022F01",
" v c #A6FF9B",
" b c #47A941",
" n c #062505",
" m c #012700",
" M c #4F9349",
" N c #3FA739",
" B c #69EC62",
" V c #051304",
" C c #69EA62",
" Z c #4AF040",
" A c #399F33",
" S c #3A9D34",
" D c #379F31",
" F c #33A52D",
" G c #0F7E0D",
" H c #399933",
" J c #60E659",
" K c #2FA729",
" L c #26B520",
" P c #27B321",
" I c #5FE458",
" U c #2DA527",
" Y c #2DA327",
" T c #2D9F27",
" R c #2AA124",
" E c #368D30",
" W c #85F77A",
" Q c #0D6C0B",
" ! c #10660E",
" ~ c #0E640C",
" ^ c #2F8F29",
" / c #33872D",
" ( c #7EF973",
" ) c #55AE4B",
" _ c #51E04A",
" ` c #2D8B27",
" ' c #076405",
" ] c #1E3E1C",
" [ c #164614",
" { c #4CD845",
" } c #49AE3F",
" | c #124210",
".  c #47D840",
".. c #76EB6B",
".X c #3CE635",
".o c #084606",
".O c #67F95C",
".+ c #3DDC36",
".@ c #0E380C",
".# c #0C360A",
".$ c #80F178",
".% c #2DE426",
".& c #84DB7C",
".* c #10A90D",
".= c #0FA90C",
".- c #73F16B",
".; c #79E771",
".: c #3CBC35",
".> c #70ED68",
"., c #3BB634",
".< c #0F990C",
".1 c #73DD6B",
".2 c #20751D",
".3 c #419E3A",
".4 c #68EB60",
".5 c #409E39",
".6 c #419C3A",
".7 c #65ED5D",
".8 c #25C61E",
".9 c #62EB5A",
".0 c #157912",
".q c #1C6D19",
".w c #127B0F",
".e c #61E759",
".r c #117B0E",
".t c #32A42B",
".y c #186D15",
".u c #5BED53",
".i c #1A6917",
".p c #30A629",
".a c #31A42A",
".s c #2FA628",
".d c #205D1D",
".f c #078304",
".g c #60DD58",
".h c #62D95A",
".j c #A4F89B",
".k c #136710",
".l c #54E94C",
".z c #5BDD53",
".x c #156112",
".c c #165F13",
".v c #9FF896",
".b c #A0F697",
".n c #12630F",
".m c #9FF696",
".M c #9EF695",
".N c #9DF694",
".B c #135910",
".V c #50E348",
".C c #51E149",
".Z c #97F68E",
".A c #95F68C",
".S c #95F48C",
".D c #55CD4D",
".F c #104B0D",
".G c #8FF686",
".H c #8EF485",
".J c #49D541",
".K c #50C948",
".L c #23AE1F",
".P c #82F479",
".I c #84EE7B",
".U c #7CF673",
".Y c #1EA01A",
".T c #1DA019",
".R c #7DEE74",
".E c #4EAB46",
".W c #7BEE72",
".Q c #78F06F",
".! c #41BB39",
".~ c #199815",
".^ c #159E11",
"./ c #169A12",
".( c #49A741",
".) c #80DA77",
"._ c #199215",
".` c #287824",
".' c #189214",
".] c #109E0C",
".[ c #73EA6A",
".{ c #41AD39",
".} c #29D321",
".| c #1A8A16",
"X  c #78DA6F",
"X. c #469D3E",
"XX c #3EA936",
"Xo c #1F7A1B",
"XO c #429F3A",
"X+ c #1E781A",
"X@ c #67EE5E",
"X# c #3BA733",
"X$ c #62F059",
"X% c #266422",
"X& c #61F058",
"X* c #256421",
"X= c #1F6A1B",
"X- c #157A11",
"X; c #6ADA61",
"X: c #42B93D",
"X> c #5AEC51",
"X, c #A2FD98",
"X< c #13660F",
"X1 c #57E24E",
"X2 c #001D00",
"X3 c #9DF793",
"X4 c #9EF594",
"X5 c #9DF593",
"X6 c #4DEA44",
"X7 c #9CF592",
"X8 c #9BF591",
"X9 c #011301",
"X0 c #97F98D",
"Xq c #2DB728",
"Xw c #43913E",
"Xe c #000F00",
"Xr c #000D00",
"Xt c #46E83D",
"Xy c #000900",
"Xu c #000700",
"Xi c #8DFB83",
"Xp c #000500",
"Xa c #000300",
"Xs c #000100",
"Xd c #1EBD19",
"Xf c #2BA726",
"Xg c #8CF382",
"Xh c #3C8737",
"Xj c #56E650",
"Xk c #88F37E",
"Xl c #067605",
"Xz c #2C9327",
"Xx c #096808",
"Xc c #7CF972",
"Xv c #53DA4D",
"Xb c #7BF971",
"Xn c #19AB14",
"Xm c #30852B",
"XM c #327F2D",
"XN c #50AE47",
"XB c #269121",
"XV c #7BF371",
"XC c #2B8526",
"XZ c #4EAC45",
"XA c #32772D",
"XS c #2D7F28",
"XD c #1D9918",
"XF c #4CAC43",
"XG c #48AE3F",
"XH c #4EA445",
"XJ c #0C4C0B",
"XK c #045803",
"XL c #257D20",
"XP c #015600",
"XI c #035202",
"XU c #297524",
"XY c #6CF362",
"XT c #4AC844",
"XR c #49C643",
"XE c #064405",
"XW c #024A01",
"XQ c #11B90F",
"X! c #1A7D15",
"X~ c #073A06",
"X^ c #0B2E0A",
"X/ c #023201",
"X( c #A7FE9C",
"X) c #042603",
"X_ c #061E05",
"X` c #031E02",
"X' c #27D021",
"X] c #9CF891",
"X[ c #0B9509",
"X{ c #197D17",
"X} c #021201",
"X| c #36A830",
"o  c #399C33",
"o. c #2AB424",
"oX c #23BE1D",
"oo c #3D8E37",
"oO c #010200",
"o+ c #0D790B",
"o@ c #116F0F",
"o# c #29A623",
"o$ c #0A7708",
"o% c #29A423",
"o& c #86FA7B",
"o* c #146312",
"o= c #0E650C",
"o- c #41D337",
"o; c #56DB4F",
"o: c #289822",
"o> c #56D94F",
"o, c #105D0E",
"o< c #125910",
"o1 c #56D74F",
"o2 c #086706",
"o3 c #125510",
"o4 c #10570E",
"o5 c #056303",
"o6 c #51A747",
"o7 c #94EE8C",
"o8 c #4AD743",
"o9 c #095307",
"o0 c #0A4F08",
"oq c #085106",
"ow c #1B3119",
"oe c #0E450C",
"or c #50C549",
"ot c #103F0E",
"oy c #8CEE84",
"ou c #72EC67",
"oi c #084906",
"op c #094707",
"oa c #3CE135",
"os c #73E668",
"od c #123310",
"of c #0D390B",
"og c #87EC7F",
"oh c #83F07B",
"oj c #18B015",
"ok c #80F478",
"ol c #3FCD38",
"oz c #7FF077",
"ox c #0A3108",
"oc c #7DEC75",
"ov c #79F071",
"ob c #77F26F",
"on c #2CD525",
"om c #199016",
"oM c #247E21",
"oN c #0DA00A",
"oB c #6CF064",
"oV c #2CCB25",
"oC c #479F40",
"oZ c #79D871",
"oA c #20781D",
"oS c #31BB2A",
"oD c #67EE5F",
"oF c #80C478",
"oG c #1E741B",
"oH c #0E8E0B",
"oJ c #419B3A",
"oK c #73D66B",
"oL c #6FDA67",
"oP c #65E85D",
"oI c #70D668",
"oU c #33A72C",
"oY c #107E0D",
"oT c #117C0E",
"oR c #64E25C",
"oE c #157412",
"oW c #186E15",
"oQ c #6BD263",
"o! c #58EE50",
"o~ c #136E10",
"o^ c #62DA5A",
"o/ c #5EE056",
"o( c #5EDE56",
"o) c #A3F99A",
"o_ c #3B8734",
"o` c #59E251",
"o' c #358F2E",
"o] c #A1F798",
"o[ c #9FF796",
"o{ c #11640E",
"o} c #9DF594",
"o| c #9CF593",
"O  c #125A0F",
"O. c #9BF592",
"OX c #9AF591",
"Oo c #145411",
"OO c #086605",
"O+ c #4BE643",
"O@ c #0F560C",
"O# c #1B4218",
"O$ c #53D44B",
"O% c #134E10",
"O& c #164613",
"O* c #94ED8B",
"O= c #8EF385",
"O- c #8DF384",
"O; c #8CF383",
"O: c #1DB919",
"O> c #29A325",
"O, c #31852D",
"O< c #32E22A",
"O1 c #7CF173",
"O2 c #50A848",
"O3 c #79F170",
"O4 c #278523",
"O5 c #74F56B",
"O6 c #75F36C",
"O7 c #1C9518",
"O8 c #1A9716",
"O9 c #4AA842",
"O0 c #79E770",
"Oq c #48AA40",
"Ow c #44AE3C",
"Oe c #45AC3D",
"Or c #7EDB75",
"Ot c #44AA3C",
"Oy c #43AA3B",
"Ou c #1B8917",
"Oi c #11990D",
"Op c #6EEF65",
"Oa c #7AD971",
"Os c #1B7F17",
"Od c #2D5F29",
"Of c #1F751B",
"Og c #3BA833",
"Oh c #20731C",
"Oj c #023E02",
"Ok c #266322",
"Ol c #177B13",
"Oz c #64EB5B",
"Ox c #043404",
"Oc c #127B0E",
"Ov c #64E35B",
"Ob c #225F1E",
"On c #023202",
"Om c #1A6916",
"OM c #A7FC9D",
"ON c #186914",
"OB c #002E00",
"OV c #63D75A",
"OC c #A3FA99",
"OZ c #A4F89A",
"OA c #002600",
"OS c #A0FC96",
"OD c #A2F898",
"OF c #9CFE92",
"OG c #9FF895",
"OH c #5BD952",
"OJ c #9DFA93",
"OK c #3CAA37",
"OL c #011C01",
"OP c #9DF893",
"OI c #23D01E",
"OU c #9BFA91",
"OY c #021802",
"OT c #4A9045",
"OR c #9CF892",
"OE c #9DF693",
"OW c #001A00",
"OQ c #9AFA90",
"O! c #9CF692",
"O~ c #031403",
"O^ c #011601",
"O/ c #021402",
"O( c #001400",
"O) c #040C04",
"O_ c #001000",
"O` c #010E01",
"O' c #000E00",
"O] c #95F68B",
"O[ c #93F889",
"O{ c #000C00",
"O} c #020802",
"O| c #000A00",
"+  c #000800",
"+. c #000600",
"+X c #000200",
"+o c None",
/* pixels */
"                            O~ G+.                              ",
"                             K.O.c                              ",
"                          O`o;o!o^ V                            ",
"                          om y.UXb h                            ",
"                          .T.u v.l |                            ",
"                          ol {o8X; a                            ",
"                          OfXwO,O% kO}    O|OnXe                ",
"            XaOu.}OiO|O^O>.J 3O$ HXfOoX+  OBo5 6 %O|            ",
"          OL.8 wO<OOot.[ dOJX(.1 DXD.2 8oEXr c coNoHXr          ",
"        XpXq Z.%o~ ].K CO[X$ORoKX[oWXHXGo'o4.B f.<.f p          ",
"         YXt.XX&X~OvOFX,OGXkOpoQ eOh @ )XNXCX* QoSXn.]OA        ",
"       gX>X'Xc b.LXiX,OPO! <OEoZ &XS / OOw TX%ooou.,Xd.w+       ",
"      .DOIoaX1o@ tOSX]X8.QXgX4Oa FXF !.`oEoJ uOk  OV. .* X      ",
"    O/X6ojXYoA lo>O6oDO3.9.R.b.).EoCo* U.p.5.0 S.FX_.! o Pop    ",
"     i.C.+X:Xu.h IO]o}X7o}.W.$X oUo=X..s.t ;o#Ojo2  O) LoVoMXs  ",
"    O#Oz.VXJX2O+.P.NO.OXO..SXvXRXA.iOq.t.aOt +XW.Y+X  .@./XE    ",
"    odo&OKXyX) :ob.NO.O.X8oPX3oIO2O9 ` RXX.6 A 1oXXs     nX2Xa  ",
"    oO Mow  o< $oL.Mo}o|ozocODOr N.( EoYXBo OyX-o-Xa            ",
"      Xs    .oo(o/.H 4.4XjO-.j.& *Xm.dXU.ro$O8.n.^Xu            ",
"             mXV _O1O.o}o}ov.-O0Xl 2OcOeOqOg.|OmXK              ",
"            Xs.z 0o[.Mo|X5.m J.;.yOd.~XO.3X|X#X<o0              ",
"              X{X@.Go[.MOE.>.AO*.{ = 'O4XZ 7 ^oqoi              ",
"               j W.e.voh.g.7OZo7o:XzXL.qo6 }ON r                ",
"                .:OHXT.Io]O;oB.Z.'o%o+oGXM.kO@ox                ",
"                X`...>ogOCo)OU >o9Ox .oT - 5X!Xs                ",
"                  o,or BokoyO5OQX=X^Xx._o3.xOY                  ",
"                    OloFO5o1 zOMo_ sOb [ ,Xe                    ",
"                  Oson 9OTO=oRX0XoO&O OLXsO{                    ",
"                OW xXQ #X9Xho` ( ~.#OYXpO_O{                    ",
"                  .=O:XI+X  oeosofO(X/o{ qO(                    ",
"                  XaXuO{      X}O'  O7o.XPXs                    ",
"                                    +XXpXu                      "
};
