/* XPM */
static char *geotrans[] = {
/* columns rows colors chars-per-pixel */
"32 32 256 2",
"   c red",
".  c None",
"X  c #180019",
"o  c #00007F",
"O  c #456019",
"+  c #37752F",
"@  c #00002E",
"#  c #008219",
"$  c #00197F",
"%  c #000019",
"&  c #FF192E",
"*  c #0F0030",
"=  c #000019",
"-  c #00003F",
";  c #94E74E",
":  c #005B4E",
">  c #194E00",
",  c #CB5062",
"<  c #65190A",
"1  c #60009A",
"2  c #7E1900",
"3  c black",
"4  c #8D3D00",
"5  c black",
"6  c #00000A",
"7  c #000A9A",
"8  c #000AA8",
"9  c #003E21",
"0  c #B03E00",
"q  c #003E00",
"w  c #003D00",
"e  c black",
"r  c #C20000",
"t  c #5A0000",
"y  c #E70000",
"u  c #5B0000",
"i  c #FF8772",
"p  c #0F189A",
"a  c #003500",
"s  c black",
"d  c #0000BD",
"f  c #000039",
"g  c #00C900",
"h  c #009B00",
"j  c #3D3EC2",
"k  c #CC000F",
"l  c #05F0BF",
"z  c #500E00",
"x  c #00FE34",
"c  c #00D121",
"v  c #009F8C",
"b  c black",
"n  c #F30000",
"m  c #A80000",
"M  c #00F5A8",
"N  c #003E21",
"B  c #C6FE34",
"V  c #F5D121",
"C  c #7B1E8C",
"Z  c #005E00",
"A  c #FF007B",
"S  c #83009A",
"D  c #47197D",
"F  c #00003A",
"G  c #6900E0",
"H  c #00000F",
"J  c #001E00",
"K  c #005E00",
"L  c #DD0000",
"P  c #F50000",
"I  c #7B0A00",
"U  c #002200",
"Y  c #B1FE00",
"T  c #F5D100",
"R  c #7BC96E",
"E  c #004F33",
"W  c #90AECA",
"Q  c #0CCCD1",
"!  c #4B22D6",
"~  c #000006",
"^  c #E5F000",
"/  c #FF0E00",
"(  c #FFFE00",
")  c #FFD100",
"_  c #009F00",
"`  c black",
"'  c #00000B",
"]  c black",
"[  c #1775E6",
"{  c #833F5C",
"}  c #47FED2",
"|  c #00D1D1",
" . c #0A1E4C",
".. c #FA5E00",
"X. c #7B0000",
"o. c black",
"O. c #271EC9",
"+. c #005E00",
"@. c blue",
"#. c black",
"$. c #DD9F00",
"%. c #F5C48C",
"&. c #7BFF00",
"*. c #00D100",
"=. c #B1B07F",
"-. c #F5F0CD",
";. c #7BCC96",
":. c #00D10A",
">. c #00C600",
",. c #000600",
"<. c black",
"1. c #00008C",
"2. c #8C0B00",
"3. c #020000",
"4. c #FF00D1",
"5. c #D10011",
"6. c #4840FF",
"7. c #AE3700",
"8. c #005DE7",
"9. c #004B5B",
"0. c #7D80A8",
"q. c #621900",
"w. c #6046F0",
"e. c #6B720E",
"r. c #7C79FE",
"t. c #6D7BD1",
"y. c #5D62C1",
"u. c #6B700F",
"i. c #6870D1",
"p. c #736211",
"a. c #7B7B93",
"s. c #756D0F",
"d. c #62799C",
"f. c #72C4CD",
"g. c #79FF38",
"h. c #5DD106",
"j. c #6D003D",
"k. c #642C8D",
"l. c #737B00",
"z. c #720000",
"x. c #797200",
"c. c #5D5600",
"v. c #006D00",
"b. c #006800",
"n. c #8D7E02",
"m. c black",
"M. c black",
"N. c black",
"B. c #B1ECF0",
"V. c #B5060E",
"C. c #4C007C",
"Z. c black",
"A. c #5C7400",
"S. c #00F500",
"D. c #007B00",
"F. c black",
"G. c #B20000",
"H. c black",
"J. c black",
"K. c black",
"L. c #DC8C00",
"P. c #000200",
"I. c green",
"U. c #00D100",
"Y. c #3F6100",
"T. c #00B300",
"R. c #004C00",
"E. c black",
"W. c #79DAF0",
"Q. c #00F50E",
"!. c #007BFE",
"~. c #0000D1",
"^. c #F35627",
"/. c #00BE00",
"(. c #00FE00",
"). c #00D100",
"_. c #00DAFF",
"`. c #00D4FF",
"'. c blue",
"]. c #008DFF",
"[. c #00A027",
"{. c #005800",
"}. c black",
"|. c #008D00",
" X c #F3020A",
".X c #00B3FA",
"XX c #00007B",
"oX c #008D00",
"OX c #0FF000",
"+X c #00D900",
"@X c black",
"#X c #008D00",
"$X c #1700F7",
"%X c #0F00F5",
"&X c #FB007B",
"*X c #D10000",
"=X c #199645",
"-X c #00584B",
";X c #000047",
":X c #008D00",
">X c #4C00DD",
",X c #7300F5",
"<X c #7B007B",
"1X c #190000",
"2X c #628C91",
"3X c #19020C",
"4X c #69FF4B",
"5X c #6DD100",
"6X c #704800",
"7X c #68AEF6",
"8X c #19007B",
"9X c #2B0000",
"0X c #19F48C",
"qX c #2FF502",
"wX c #2A7BFF",
"eX c #2C00D1",
"rX c #2CF670",
"tX c #19C9F7",
"yX c #48FF7B",
"uX c #3FD100",
"iX c #00B1E3",
"pX c #0056FF",
"aX c #604BFF",
"sX c #75008C",
"dX c #00B53D",
"fX c #0056F7",
"gX c #004B7B",
"hX c black",
"jX c #1EEC00",
"kX c #9AAD00",
"lX c #B8FF00",
"zX c #A3D100",
"xX c #00F48C",
"cX c #00F502",
"vX c #007BFF",
"bX c #0000D1",
"nX c black",
"mX c black",
"MX c black",
"NX c black",
"BX c #006172",
"VX c #00B319",
"CX c #004C50",
"ZX c black",
"AX c #3D004E",
"SX c #FFFF2B",
"DX c #FF8D43",
"FX c #FF1900",
"GX c #00003D",
"HX c #0000F7",
"JX c #00007B",
"KX c #001A00",
"LX c #00003D",
"PX c #0041F7",
"IX c #00FF7B",
"UX c #00D100",
/* pixels */
". . . . . . . . . . . . . . . . . . . . . . . . . . . . . . . . ",
". . . . . . . . . . . . . . . . . . . . . . . . . . . . . . . . ",
". . . . . . . . . . . . . . . . . . . . . . . . . . . . . . . . ",
". . . . . . . . . . . . . . . . . . . . . . . . . . . . . . . . ",
". . . . . . . . . . . . . . . . . . . . . . . . . . . . . . . . ",
". . . . . . . . . . . . . . . . . . . . . . . . . . . . . . . . ",
". . . . . . . . . . . . . . . . . . . . . . . . . . . . . . . . ",
". . .     .   .     . . . . . . . . . . . .     .   .     . . . ",
". . .     .   .     . . . . . . . . . . . .     .   .     . . . ",
". . .               . . . . . . . . . . . .               . . . ",
". . . .           . . .     .     .     . . .           . . . . ",
". . . .     .     . . .     .     .     . . .     .     . . . . ",
". . . .     .     . . .                 . . .     .     . . . . ",
". . . .     .     . . . .             . . . .     .     . . . . ",
". . . .     .     . . . .             . . . .     .     . . . . ",
". . . .           . . . .             . . . .           . . . . ",
". . . .                       . .                       . . . . ",
". . . .                     . . . .                     . . . . ",
". . . .     .       .       . . . .       .       .     . . . . ",
". . . .     .       .       . . . .       .       .     . . . . ",
". . . .     .       .       . . . .       .       .     . . . . ",
". . . .     .               . . . .               .     . . . . ",
". . .                       . . . .                       . . . ",
". . .                                                     . . . ",
". . .                                                     . . . ",
". . . . . . . . . . . . . . . . . . . . . . . . . . . . . . . . ",
". . . . . . . . . . . . . . . . . . . . . . . . . . . . . . . . ",
". . . . . . . . . . . . . . . . . . . . . . . . . . . . . . . . ",
". . . . . . . . . . . . . . . . . . . . . . . . . . . . . . . . ",
". . . . . . . . . . . . . . . . . . . . . . . . . . . . . . . . ",
". . . . . . . . . . . . . . . . . . . . . . . . . . . . . . . . ",
". . . . . . . . . . . . . . . . . . . . . . . . . . . . . . . . "
};
