/* XPM */
static char *lv_rack[] = {
/* columns rows colors chars-per-pixel */
"32 32 119 2",
"   c #000000000000",
".  c #030303030404",
"X  c #040404040505",
"o  c #060607070808",
"O  c #070709090A0A",
"+  c #08080A0A0C0C",
"@  c #09090B0B0D0D",
"#  c #0B0B0D0D0F0F",
"$  c #0C0C0F0F1111",
"%  c #0D0D10101212",
"&  c #0E0E11111414",
"*  c #0F0F13131616",
"=  c #111115151818",
"-  c #121216161919",
";  c #131318181B1B",
":  c #16161B1B1F1F",
">  c #16161C1C2020",
",  c #18181E1E2222",
"<  c #19191F1F2424",
"1  c #1A1A20202525",
"2  c #1D1D24242929",
"3  c #1D1D25252A2A",
"4  c #1E1E25252B2B",
"5  c #202028282E2E",
"6  c #22222B2B3131",
"7  c #24242C2C3333",
"8  c #26262F2F3636",
"9  c #272731313838",
"0  c #282832323939",
"q  c #2A2A34343C3C",
"w  c #2C2C37373F3F",
"e  c #2D2D38383F3F",
"r  c #2E2E39394040",
"t  c #30303C3C4444",
"y  c #32323E3E4646",
"u  c #33333F3F4747",
"i  c #353542424B4B",
"p  c #373744444D4D",
"a  c #3A3A47475151",
"s  c #3B3B49495353",
"d  c #3C3C4B4B5555",
"f  c #3E3E4D4D5757",
"g  c #414150505B5B",
"h  c #434353535E5E",
"j  c #434354545F5F",
"k  c #444454546060",
"l  c #454555556161",
"z  c #49495B5B6767",
"x  c #4A4A5B5B6868",
"c  c #4A4A5C5C6969",
"v  c #4E4E61616E6E",
"b  c #505063637171",
"n  c #515165657373",
"m  c #525266667474",
"M  c #555569697878",
"N  c #56566B6B7A7A",
"B  c #58586E6E7D7D",
"V  c #5A5A6F6F7F7F",
"C  c #5B5B70708080",
"Z  c #5D5D73738383",
"A  c #5E5E75758585",
"S  c #606077778888",
"D  c #626279798A8A",
"F  c #63637B7B8C8C",
"G  c #64647C7C8D8D",
"H  c #66667E7E9090",
"J  c #696982829494",
"K  c #6B6B84849797",
"L  c #6C6C86869999",
"P  c #6D6D87879A9A",
"I  c #6E6E88889B9B",
"U  c #70708B8B9F9F",
"Y  c #72728D8DA1A1",
"T  c #75759191A6A6",
"R  c #77779393A8A8",
"E  c #79799696ABAB",
"W  c #7A7A9797ADAD",
"Q  c #7C7C9999AFAF",
"!  c #7C7C9A9AB0B0",
"~  c #7E7E9D9DB3B3",
"^  c #80809E9EB5B5",
"/  c #8383A2A2B9B9",
"(  c #8484A4A4BBBB",
")  c #8787A7A7BEBE",
"_  c #8787A8A8BFBF",
"`  c #8888A9A9C0C0",
"'  c #8989AAAAC1C1",
"]  c #8A8AACACC3C3",
"[  c #8D8DAFAFC7C7",
"{  c #8E8EB1B1C9C9",
"}  c #8F8FB2B2CACA",
"|  c #9090B2B2CBCB",
" . c #9191B3B3CCCC",
".. c #9393B6B6CFCF",
"X. c #9494B8B8D1D1",
"o. c #9797BBBBD5D5",
"O. c #9898BCBCD6D6",
"+. c #9898BDBDD7D7",
"@. c #9999BEBED8D8",
"#. c #9A9AC0C0DADA",
"$. c #9C9CC1C1DCDC",
"%. c #9F9FC5C5E0E0",
"&. c #A1A1C7C7E3E3",
"*. c #A3A3CACAE6E6",
"=. c #A4A4CCCCE8E8",
"-. c #A5A5CDCDE9E9",
";. c #A7A7CFCFECEC",
":. c #A8A8D0D0EDED",
">. c #A9A9D2D2EFEF",
",. c #AAAAD3D3F0F0",
"<. c #ABABD4D4F1F1",
"1. c #ABABD4D4F2F2",
"2. c #ACACD5D5F3F3",
"3. c #ADADD6D6F4F4",
"4. c #AEAED8D8F6F6",
"5. c #AFAFDADAF8F8",
"6. c #B1B1DBDBFAFA",
"7. c #B2B2DCDCFBFB",
"8. c #B3B3DEDEFDFD",
/* pixels */
"8.8.X.8.8.8.8.8.8.8.-.8.8.8.8.8.8.,.6.8.8.8.8.8.8.8.8.8.8.8.8.8.",
"8.W   Z 8.8.8.8.8.~   S 8.8.8.8.-.& 2 5.8.8.4.D u p P 5.8.8.8.8.",
"8.h   5 8.8.8.8.8.g   : 8.8.8.8.G     ' 8.2.0         u 1.8.8.8.",
"8.i   - 8.8.8.8.8.a     @.8.8.8.u     ^ 8.n             h 8.8.8.",
"8.i   : 8.8.8.8.8.m     E 8.8.8.-     $.;.O               [ 8.8.",
"8.i   : 8.8.8.8.8.W     C 8.8.2.    & 8.Y     o n C       l 8.8.",
"8.i   , 8.8.8.8.8.&.    f 8.8.|     i 8.x     Z 8.8.l     , 8.8.",
"8.u   1 8.8.8.8.8.8.:   5 8.8.T     Z 8.r     Q 8.8.)       6.8.",
"8.i   2 8.8.8.8.8.8.s   o 6.8.Z     / 8.r     ~ 8.8.(       ,.8.",
"8.i   5 8.8.8.8.8.8.D     @.8.g     >.8.H     ] 8.8.P     . 7.8.",
"8.i   5 8.8.8.8.8.8.'     Q 8.8   2 8.8.8.J V 7.8.8.z     2 8.8.",
"8.i   7 8.8.8.8.8.8.3..   A 8.$   l 8.8.8.8.8.8.8.6.-     c 8.8.",
"8.i   8 8.8.8.8.8.8.8.6   g -.    P 8.8.8.8.8.8.8.!       ` 8.8.",
"7.i   0 8.8.8.8.8.8.8.z   7 '     X.8.8.8.8.8.8.8.q     5 8.8.8.",
"8.i   q 8.8.8.8.8.8.8.U   O P   O 8.8.8.8.8.8.8.!       ! 8.8.8.",
"8.i   w 8.8.8.8.8.8.8.o.    -   r 8.8.8.8.8.8.7.1     r 8.8.8.8.",
"8.i   e 8.8.8.8.8.8.8.8.$       M 8.8.8.8.8.8.Z     O #.8.8.8.8.",
"8.i   u 8.1.O.>.8.8.8.8.u       ! 8.8.8.8.8.X.o     G 8.8.8.8.8.",
"8.i   O $     i 8.8.8.8.M       *.8.8.8.8.,.5     ; ( ( / ) 7.8.",
"8.u           o 8.8.8.8.~     > 8.8.8.8.8.i                 G 8.",
"8.i             1.8.8.8.-.    f 8.8.8.8.R                   w 8.",
"8.l           @ 8.8.8.8.8.4   I 8.8.8.8.P                   2 8.",
"8.{ 2 , , , 1 M 8.8.8.8.8.T : >.8.8.8.8.*.$                 g 8.",
"8.8.8.8.8.8.8.8.8.8.8.8.8.8.8.8.8.8.8.8.8.,.o...{ ] ) / ! W >.8.",
"8.8.( l z v ' 8.8.8.8.$.F >.8.8.8.8.] U T -.8.8.8.8.8.8.8.8.8.8.",
"8.8.V   p 0 . { 8.8.8.i   x 8.8.8.j X :   % 2.[ S 8.8. .o.8.8.8.",
"8.8.D   &.8.@ D 8.8.>.o w O -.8. .  [ 8.-.W 7.V   4.E X d 8.8.8.",
"8.8.K   , > > $.8.8.Y   %.- B 8.U : 8.8.8.8.8.D   I   0 -.8.8.8.",
"8.8.T   r   J 8.8.8.a & m 7 & 3./ O 1.8.8.8.8.P     X &.8.8.8.8.",
"8.8.!   / f   G 8.3.O c 8.@.  J 4., f [ ! N &.T   n   9 1.8.8.8.",
"8.8.o.@ { 3.u e 8.X.X E 8.8.e e 8.o.8     & ) ~   ! T X 0 2.8.8.",
"8.8.8.8.8.8.8.5.8.8.8.8.8.8.6.6.8.8.8.-.&.8.8.O.- ) 8.T O ) 8.8."
};
