/* XPM */
static char *mmass[] = {
/* columns rows colors chars-per-pixel */
"32 32 209 2",
"   c #000000",
".  c #3D3D3D",
"X  c #603913",
"o  c #606060",
"O  c #636363",
"+  c #6D6D6D",
"@  c #737373",
"#  c #7F7F7F",
"$  c #8C6239",
"%  c #C69C6D",
"&  c #0000FF",
"*  c #4E85FF",
"=  c #6F97FF",
"-  c #7BBAF8",
";  c #818081",
":  c #828283",
">  c #828383",
",  c #848484",
"<  c #989898",
"1  c #A9A9A9",
"2  c #B5B5B5",
"3  c #B6B6B6",
"4  c #B8B8B8",
"5  c #8EA8FF",
"6  c #82BBF6",
"7  c #80BCF7",
"8  c #84BEF8",
"9  c #87BFF8",
"0  c #ACB5FF",
"q  c #BFBFFF",
"w  c #91C2F6",
"e  c #93C4F7",
"r  c #93C6F7",
"t  c #93C5F8",
"y  c #94C5F8",
"u  c #94C6F8",
"i  c #A0CAF6",
"p  c #A1CBF7",
"a  c #A6CDF6",
"s  c #A7CFF7",
"d  c #A2CCF8",
"f  c #A2CDF8",
"g  c #ACD1F7",
"h  c #ADD2F7",
"j  c #A8D0F8",
"k  c #ADD3F8",
"l  c #BEDAF6",
"z  c #BFDBF7",
"x  c #CBCBCC",
"c  c #CCCCCC",
"v  c #CDCDCD",
"b  c #D6D6D6",
"n  c #DADADA",
"m  c #DBDADA",
"M  c #DADBDA",
"N  c #DBDBDB",
"B  c #DCDBDB",
"V  c #DBDCDB",
"C  c #DBDBDC",
"Z  c #DCDBDC",
"A  c #DCDCDC",
"S  c #DDDDDC",
"D  c #DCDCDD",
"F  c #DDDCDD",
"G  c #DCDDDD",
"H  c #DDDDDD",
"J  c #DEDDDD",
"K  c #DDDEDD",
"L  c #DDDDDE",
"P  c #DEDEDE",
"I  c #DEDFDE",
"U  c #DFDEDF",
"Y  c #DEDFDF",
"T  c #DFDFDF",
"R  c #E0DFDF",
"E  c #E0E0DF",
"W  c #DFDFE0",
"Q  c #C0DBF7",
"!  c #C6DEF7",
"~  c #C0DCF8",
"^  c #C1DDF8",
"/  c #C6E0F7",
"(  c #C7E0F8",
")  c #D7E7F6",
"_  c #D8E8F7",
"`  c #D9E8F7",
"'  c #E0E0E0",
"]  c #E1E1E0",
"[  c #E0E1E1",
"{  c #E1E1E1",
"}  c #E1E2E1",
"|  c #E2E2E1",
" . c #E2E2E2",
".. c #E3E2E2",
"X. c #E2E3E2",
"o. c #E3E3E2",
"O. c #E3E3E3",
"+. c #E4E3E3",
"@. c #E3E4E3",
"#. c #E3E3E4",
"$. c #E4E3E4",
"%. c #E3E4E4",
"&. c #E4E4E4",
"*. c #E4E5E4",
"=. c #E5E5E4",
"-. c #E4E4E5",
";. c #E5E4E5",
":. c #E5E5E5",
">. c #E6E5E5",
",. c #E5E6E5",
"<. c #E6E6E5",
"1. c #E5E5E6",
"2. c #E6E6E6",
"3. c #E7E6E6",
"4. c #E6E7E6",
"5. c #E6E6E7",
"6. c #E7E6E7",
"7. c #E7E7E7",
"8. c #E8E7E7",
"9. c #E8E8E7",
"0. c #E7E7E8",
"q. c #E8E7E8",
"w. c #E7E8E8",
"e. c #E8E8E8",
"r. c #E9E8E8",
"t. c #E8E9E8",
"y. c #E8E8E9",
"u. c #E8E9E9",
"i. c #E9E9E9",
"p. c #EAE9E9",
"a. c #E9EAE9",
"s. c #EAEAE9",
"d. c #E9E9EA",
"f. c #EAEAEA",
"g. c #EAEBEA",
"h. c #EBEBEA",
"j. c #EBEAEB",
"k. c #EBEBEB",
"l. c #ECEBEB",
"z. c #ECECEB",
"x. c #EBEBEC",
"c. c #ECEBEC",
"v. c #EBECEC",
"b. c #ECECEC",
"n. c #EDECEC",
"m. c #ECEDEC",
"M. c #ECECED",
"N. c #EDEDED",
"B. c #EEEDED",
"V. c #EEEEED",
"C. c #EDEDEE",
"Z. c #EEEDEE",
"A. c #EDEEEE",
"S. c #EEEEEE",
"D. c #EFEEEE",
"F. c #EEEEEF",
"G. c #EFEEEF",
"H. c #EEEFEF",
"J. c #EFEFEF",
"K. c #F0EFEF",
"L. c #EFF0EF",
"P. c #F0F0EF",
"I. c #E2ECF6",
"U. c #E4EDF7",
"Y. c #E4EEF7",
"T. c #EFEFF0",
"R. c #F0F0F0",
"E. c #F1F0F0",
"W. c #F1F1F0",
"Q. c #F0F0F1",
"!. c #F1F0F1",
"~. c #F0F1F1",
"^. c #F1F1F1",
"/. c #F2F2F1",
"(. c #F1F1F2",
"). c #F2F1F2",
"_. c #F1F2F2",
"`. c #F2F2F2",
"'. c #F3F2F2",
"]. c #F2F3F2",
"[. c #F3F3F2",
"{. c #F2F3F3",
"}. c #F3F3F3",
"|. c #F4F3F3",
" X c #F4F4F3",
".X c #F3F3F4",
"XX c #F4F3F4",
"oX c #F4F4F4",
"OX c #F5F4F4",
"+X c #F5F5F4",
"@X c #F4F5F5",
"#X c #F5F5F5",
"$X c #F6F5F5",
"%X c #F6F6F5",
"&X c #F5F6F6",
"*X c #F6F6F6",
"=X c #F7F6F6",
"-X c #F6F7F6",
";X c #F7F7F6",
":X c #F7F7F7",
">X c #F8F7F7",
",X c #F8F8F7",
"<X c #F7F7F8",
"1X c #F8F8F8",
"2X c #F9F8F8",
"3X c #F9F9F9",
"4X c #FAF9F9",
"5X c #FFFFFF",
"6X c None",
/* pixels */
"6X6X6X6X6X6X6X6X6X6X6X6X6X6X6X6X6X6X6X6X6X6X6X6X6X6X6X6X6X6X6X6X",
"6X. . . . . . . . . . . . . . . . . . . . . . . . . . . . . . 6X",
". . 5X5X5X5X5X5X5X5X5X5X5X5X5X5X5X5X5X5X5X5X5X5X5X5X5X5X5X:.. 6X",
"6X. 5Xn n n V V A A A R A Y A ' ' ' & ' #.:.:.7.:.e.q.e.e.n . 6X",
". . 5Xn n A B A A A A A Y ' ' ' ' @.& =.+.:.:.:.0.q.e.e.e.n . 6X",
"6X. 5Xn n n n n n B A n n n n n n n n n n n n n n n B n A n . 6X",
". . 5XV A A A A A ' ' ' ' ' ' @.' +.& :.:.:.7.9.e.e.e.c.m.n . 6X",
"6X. 5XA A A A A A Y Y ' ' ' ' @.:.:.& :.:.7.w.e.e.e.l.m.m.n . 6X",
". . 5XA Z A <         : ' @.' =.:.:.& :.q.q.e.e.m.m.c.c.m.n . 6X",
"6X. 5Xn n o   p a p w   o n B n n n & V n n B n n n n Z Z n . 6X",
". . 5XA :   h Q ! l h t   , :.:.:.:.& e.e.e.e.m.m.m.m.m.G.n . 6X",
"6X. 5XA   p Q _ 0 _ ~ f 8   =.:.:.9.& e.e.k.l.c.m.m.G.G.G.n . 6X",
". . 5XA   j / Y.q Y./ j 9   :.:.e.e.& e.e.l.l.m.m.m.T.G.^.n . 6X",
"6X. 5Xn   p l ) I._ l p 6   n n n n & n B B n n Z n n n n n . 6X",
". . 5XR   e h ~ 5 ~ k y -   8.e.e.e.& z.& m.m.T.K.L.^.^.^.n . 6X",
"6X. 5X' :   e f = f y 7   @ x %.l.e.& m.& m.m.m.T.^.^.^.^.n . 6X",
". . 5X' ' o   8 * 8 -         3 :.c.& m.& m.K.K.^.G.^.^..Xn . 6X",
"6X. 5XB A n #         +   $ %   1 b & n & n n n n n n n V n . 6X",
". . 5X' ' :.:.:.& :.e.v   X $ %   m.& m.& K.^.^.^.^..X.X%Xn . 6X",
"6X. 5X' #.:.:.:.& e.e.' 3   X $   m.& K.& ^.^.^.|..X X%X.Xn . 6X",
". . 5X@.:.=.:.:.& e.e.e.:.3     4 m.& K.& ^.^.^.{..X.X%X%Xn . 6X",
"6X. 5Xn & n n n & n & C n B n n n Z & n & n & n V n n n n n . 6X",
". . 5X:.& 7.9.e.& e.& z.c.m.m.m.K.^.& ^.& ^.& %X.X%X%X%X%Xn . 6X",
"6X. 5X:.:.9.9.e.& e.& k.c.m.K.K.K.G.& ^.& ^.& %X%X%X%X;X<Xn . 6X",
". . 5X:.& 9.e.e.& l.& m.m.m.m.K.G.^.& ^.& %X& %X.X%X%X%X<Xn . 6X",
"6X. 5Xn & n n n & n & n & Z n n n n & n & n & n n n n n n n . 6X",
". . 5X9.& l.e.m.& m.& m.& P.^.^.^.|.& %X& %X& %X& %X3X3X3Xn . 6X",
"6X. 5X& & & & & & & & & & & & & & & & & & & & & & & & & & n . 6X",
". . 5Xe.e.z.l.m.m.m.G.^.^.^.^.^.|.|.%X.X%X%X%X<X>X<X3X3X3Xn . 6X",
"6X. :.n B n n n n n C n n n n n n n n n n n n n n n n n n v . 6X",
"6X. . . . . . . . . . . . . . . . . . . . . . . . . . . . . . 6X",
"6X6X6X. 6X. 6X. 6X. 6X. 6X. 6X. 6X. 6X. 6X. 6X. 6X. 6X. 6X. 6X6X"
};
