/* XPM */
static char *mrtrix[] = {
/* columns rows colors chars-per-pixel */
"32 32 175 2",
"   c #000200020002",
".  c #013201320132",
"X  c #01D901D901D9",
"o  c #02E102E102E1",
"O  c #040904090409",
"+  c #052A052A052A",
"@  c #060406040604",
"#  c #06A506A506A5",
"$  c #082308230823",
"%  c #091C091C091C",
"&  c #0A000A000A00",
"*  c #0B120B120B12",
"=  c #0C3D0C3D0C3D",
"-  c #0CC90CC90CC9",
";  c #0DD90DD90DD9",
":  c #0EEB0EEB0EEB",
">  c #0FF40FF40FF4",
",  c #10E310E310E3",
"<  c #132913291329",
"1  c #139E139E139E",
"2  c #170017001700",
"3  c #17CE17CE17CE",
"4  c #19ED19ED19ED",
"5  c #1BE71BE71BE7",
"6  c #1D8B1D8B1D8B",
"7  c #1EFA1EFA1EFA",
"8  c #202D202D202D",
"9  c #21E321E321E3",
"0  c #232623262326",
"q  c #243424342434",
"w  c #25ED25ED25ED",
"e  c #26C226C226C2",
"r  c #282828282828",
"t  c #294B294B294B",
"y  c #2B362B362B36",
"u  c #2C002C002C00",
"i  c #2D4B2D4B2D4B",
"p  c #2E652E652E65",
"a  c #2EF92EF92EF9",
"s  c #316431643164",
"d  c #349934993499",
"f  c #365C365C365C",
"g  c #382438243824",
"h  c #392239223922",
"j  c #3A4C3A4C3A4C",
"k  c #3C2D3C2D3C2D",
"l  c #3D813D813D81",
"z  c #3EB63EB63EB6",
"x  c #3F0F3F0F3F0F",
"c  c #403640364036",
"v  c #41BC41BC41BC",
"b  c #41FB41FB41FB",
"n  c #438543854385",
"m  c #444D444D444D",
"M  c #454145414541",
"N  c #464A464A464A",
"B  c #471947194719",
"V  c #483C483C483C",
"C  c #495B495B495B",
"Z  c #4A684A684A68",
"A  c #4B934B934B93",
"S  c #4C664C664C66",
"D  c #4D744D744D74",
"F  c #4E524E524E52",
"G  c #4F884F884F88",
"H  c #511A511A511A",
"J  c #524052405240",
"K  c #539353935393",
"L  c #546B546B546B",
"P  c #553D553D553D",
"I  c #564756475647",
"U  c #590459045904",
"Y  c #5A775A775A77",
"T  c #5BA25BA25BA2",
"R  c #5CBB5CBB5CBB",
"E  c #5D225D225D22",
"W  c #5E405E405E40",
"Q  c #5FC35FC35FC3",
"!  c #603C603C603C",
"~  c #614361436143",
"^  c #625462546254",
"/  c #63AA63AA63AA",
"(  c #645A645A645A",
")  c #653665366536",
"_  c #667C667C667C",
"`  c #678967896789",
"'  c #67E967E967E9",
"]  c #699A699A699A",
"[  c #6AAB6AAB6AAB",
"{  c #6BC76BC76BC7",
"}  c #6C456C456C45",
"|  c #6DAE6DAE6DAE",
" . c #6FCB6FCB6FCB",
".. c #70DA70DA70DA",
"X. c #715D715D715D",
"o. c #724672467246",
"O. c #736173617361",
"+. c #746474647464",
"@. c #752A752A752A",
"#. c #769376937693",
"$. c #775277527752",
"%. c #785478547854",
"&. c #791F791F791F",
"*. c #7A7F7A7F7A7F",
"=. c #7B097B097B09",
"-. c #7C7C7C7C7C7C",
";. c #7D667D667D66",
":. c #7E887E887E88",
">. c #7F707F707F70",
",. c #80B480B480B4",
"<. c #815B815B815B",
"1. c #821D821D821D",
"2. c #836083608360",
"3. c #842084208420",
"4. c #85BF85BF85BF",
"5. c #86AD86AD86AD",
"6. c #879F879F879F",
"7. c #889688968896",
"8. c #898189818981",
"9. c #8AA68AA68AA6",
"0. c #8B6E8B6E8B6E",
"q. c #8CA18CA18CA1",
"w. c #8DD58DD58DD5",
"e. c #8E9A8E9A8E9A",
"r. c #8F808F808F80",
"t. c #90C490C490C4",
"y. c #918691869186",
"u. c #922092209220",
"i. c #938D938D938D",
"p. c #94B294B294B2",
"a. c #957395739573",
"s. c #96B496B496B4",
"d. c #97A297A297A2",
"f. c #98A598A598A5",
"g. c #99D399D399D3",
"h. c #9B659B659B65",
"j. c #9C8B9C8B9C8B",
"k. c #9D8D9D8D9D8D",
"l. c #9E409E409E40",
"z. c #A0B7A0B7A0B7",
"x. c #A1A0A1A0A1A0",
"c. c #A3B8A3B8A3B8",
"v. c #A4A9A4A9A4A9",
"b. c #A59AA59AA59A",
"n. c #A6EBA6EBA6EB",
"m. c #A7BCA7BCA7BC",
"M. c #A89DA89DA89D",
"N. c #A9D8A9D8A9D8",
"B. c #AAC9AAC9AAC9",
"V. c #AC97AC97AC97",
"C. c #ADAEADAEADAE",
"Z. c #AEACAEACAEAC",
"A. c #AF70AF70AF70",
"S. c #B045B045B045",
"D. c #B182B182B182",
"F. c #B2A2B2A2B2A2",
"G. c #B374B374B374",
"H. c #B4C1B4C1B4C1",
"J. c #B5B8B5B8B5B8",
"K. c #B64EB64EB64E",
"L. c #B791B791B791",
"P. c #B89BB89BB89B",
"I. c #BA0FBA0FBA0F",
"U. c #BACEBACEBACE",
"Y. c #BB55BB55BB55",
"T. c #BD3ABD3ABD3A",
"R. c #BF09BF09BF09",
"E. c #BFB4BFB4BFB4",
"W. c #C1E3C1E3C1E3",
"Q. c #C6E6C6E6C6E6",
"!. c #C7FDC7FDC7FD",
"~. c #C914C914C914",
"^. c #CAABCAABCAAB",
"/. c #CE0BCE0BCE0B",
"(. c None",
/* pixels */
"(.(.(.(.(.(.(.(.(.(.(.(.(.(.(.(.(.(.(.(.(.(.(.(.(.(.(.(.(.(.(.(.",
"(.(.(.(.(.(.(.(.(.(.(.(.(.(.(.(.(.(.(.(.(.(.(.(.(.(.(.(.(.(.(.(.",
"(.(.(.(.(.(.(.(.(.(.(.(.(.(.(.(.(.(.(.(.(.(.(.(.(.(.(.(.(.(.(.(.",
"(.(.(.(.(.(.(.(.(.(.(.  (.(.(.(.(.  (.(.(.(.(.(.(.(.(.(.(.(.(.(.",
"(.(.(.(.(.(.(.(.(.(.  , M $   : + :         (.(.(.(.(.(.(.(.(.(.",
"(.(.(.(.(.(.(.      s J u.C ^ -.c 4.h   0 :     (.(.(.(.(.(.(.(.",
"(.(.(.(.(.(.  $ C c ^ x 9.9.K.u.9.N.%.M +.E c ,   (.(.(.(.(.(.(.",
"(.(.(.(.(.    i 9.u.-.h +.V.K.F.F.X.-.c.f.V.V.J       (.(.(.(.(.",
"(.(.(.(.  $ h r.d.N.V.h  .K.K.n.-.X.+.l.N.l.l.^ , $     (.(.(.(.",
"(.(.(.    C N.W.V.Q.^.1.^ _ +.E +.1.X.d.r.-.n.c.d.P : :   (.(.(.",
"(.(.    s +.d.W.%.9.d.9.r.P P J N.N.X.E C C 1.%.d.f.-.X.,   (.(.",
"(.(.  0 M X.c.Y.1.^ E X.V.V.N.V.Y.F.K.c.4.[ M M 9.c.l.d.i   (.(.",
"(.  , %.T C C u.F.l.n.Y.R.R.u.P c x F E d.n.1.M c M 4.l.F +   (.",
"  $ c X.c.c.[ _ n.^./.^.n.J 0 h C q , y y T F.n.-.h F _ _ F +   ",
"  i f.4.N.N.d.F 9.R.Q.F.h 0 ^ d.l.u.[ _ E 0 x K.R.[ x [  .E q   ",
"+ x d.V.d.[ X.J F ^ V.F.+.+.9.f.d.c.F.d.%._ q d.^.f.c ^ C ^ C + ",
": J u.d.[ X.r.+.E ^ -.d.%.E 9.f.l.n.Y.R.9._ X.Y.Y.-.J E x _ J $ ",
":  .9.d.r.%.4._ f i i 4 q i 9.c.K.n.f.4.^ X.n.Y.N.+.P _ r.4.y   ",
"+ T r.4.n.X.q + + 4 y 5   5 4.f. .5 , : f P [ u.r.X.1.l.9.c $   ",
"  : x x M , $ h T ^ X.[ $ 0 9.r.2           : i F h x c ,     (.",
"(.        , F 1.r.d.c.^   F K.c.,   (.(.      + $         (.(.(.",
"(.(.(.  : ^ -.f.F.Y.V.F + -.K.+.$ (.(.(.(.(.(.(.(.(.(.(.(.(.(.(.",
"(.(.(.  i -.d.V.K.F.n.-._ V.+.:   (.(.(.(.(.(.(.(.(.(.(.(.(.(.(.",
"(.(.(.  $ C 4.l.f.N.-.1.R.c.2   (.(.(.(.(.(.(.(.(.(.(.(.(.(.(.(.",
"(.(.(.(.    2 ^ c.V.u.C -.c   (.(.(.(.(.(.(.(.(.(.(.(.(.(.(.(.(.",
"(.(.(.(.(.(.  : J u.X.$ y :   (.(.(.(.(.(.(.(.(.(.(.(.(.(.(.(.(.",
"(.(.(.(.(.(.(.    0 , 4 h   (.(.(.(.(.(.(.(.(.(.(.(.(.(.(.(.(.(.",
"(.(.(.(.(.(.(.(.      h 4   (.(.(.(.(.(.(.(.(.(.(.(.(.(.(.(.(.(.",
"(.(.(.(.(.(.(.(.(.(.  $ +   (.(.(.(.(.(.(.(.(.(.(.(.(.(.(.(.(.(.",
"(.(.(.(.(.(.(.(.(.(.(.    (.(.(.(.(.(.(.(.(.(.(.(.(.(.(.(.(.(.(.",
"(.(.(.(.(.(.(.(.(.(.(.(.(.(.(.(.(.(.(.(.(.(.(.(.(.(.(.(.(.(.(.(.",
"(.(.(.(.(.(.(.(.(.(.(.(.(.(.(.(.(.(.(.(.(.(.(.(.(.(.(.(.(.(.(.(."
};
