/* XPM */
static char *dummy[]={
"32 32 753 2",
"Qt c None",
"bB c #650002",
"jA c #693637",
"aJ c #6a0406",
"b# c #6b0204",
"jL c #6c3939",
"bD c #6e0002",
"b5 c #6f0609",
"bC c #6f0c0e",
"aI c #701012",
"jU c #703a3a",
"cy c #711214",
"b7 c #730306",
"b. c #740f11",
"jM c #743a3c",
"cx c #750002",
"b6 c #751113",
"#U c #751315",
"b4 c #760a0d",
"bA c #760d0f",
"c0 c #761719",
"jT c #763b3d",
"ai c #771315",
"jl c #773d40",
"jB c #773e40",
"#T c #781d1f",
"jm c #793e3f",
"cw c #7b0508",
"cA c #7b090c",
"aK c #7b1215",
"jN c #7b3e41",
"jK c #7b4042",
"cB c #7c0205",
"cz c #7c1619",
"ds c #7c1d20",
"jS c #7c3e40",
"ba c #7d1013",
"dr c #7d1214",
"ah c #7d1e20",
"#v c #7d2022",
"#u c #7d2628",
"b8 c #7e080b",
"bE c #7e0d10",
"c4 c #7f0306",
"jO c #804042",
"c3 c #811013",
"c1 c #812629",
"i6 c #814144",
"jz c #814345",
"dx c #820103",
"c2 c #821c1e",
"aH c #821e21",
"dY c #822426",
"jR c #824144",
"#V c #832123",
"jQ c #834244",
"jP c #834245",
"iL c #834447",
"dV c #840205",
"eo c #840306",
"dW c #840d10",
"dX c #841a1c",
"dt c #842b2d",
"dq c #85070a",
"a9 c #851d20",
"#S c #85292c",
".9 c #852f31",
"io c #854446",
"fL c #860104",
"ey c #860305",
"d4 c #860407",
"d3 c #860507",
"eZ c #870204",
"eR c #870609",
"cZ c #870e11",
"bz c #871b1e",
"du c #872325",
"#. c #872b2d",
"eQ c #880508",
"dw c #880a0d",
"cv c #881417",
"dv c #88181b",
"aj c #882225",
"es c #882a2d",
"jC c #884749",
"fn c #88474a",
"fv c #890306",
"fh c #890508",
"ez c #890608",
"ep c #89080b",
"c5 c #89090c",
"dU c #890a0d",
"b3 c #89181c",
"i7 c #894749",
"gc c #8a0003",
"f1 c #8a0205",
"fg c #8a0508",
"er c #8a2124",
"dZ c #8a3133",
".O c #8a383a",
"fu c #8b0508",
"e0 c #8b0609",
"f2 c #8c0205",
"gd c #8c0407",
"aL c #8c2124",
"ag c #8c2a2d",
".P c #8c3436",
"jJ c #8c484a",
"gC c #8d0002",
"fM c #8d080b",
"dy c #8d0f12",
"eq c #8d1619",
"d0 c #8d2a2c",
"#w c #8d2e30",
"eU c #8d3134",
"#t c #8d3335",
"gw c #8e0104",
"gD c #8e0306",
"fK c #8e0a0d",
"ff c #8e0c0f",
"en c #8e0e11",
".w c #8e3a3c",
"gx c #8f0002",
"gb c #8f070a",
"cC c #8f1114",
"bb c #8f1f23",
"d1 c #8f2023",
"jn c #8f494b",
"gy c #900306",
"fw c #900b0e",
"d5 c #901215",
"dp c #901316",
"et c #90383a",
"jk c #904a4c",
"gB c #910407",
"gv c #910508",
"f0 c #910b0e",
"e1 c #910e11",
"eY c #910f13",
"eA c #911013",
"ex c #911114",
"b9 c #91181b",
"bF c #911c20",
"eT c #912a2d",
"fm c #91383a",
"eV c #913e40",
"gA c #920508",
"gE c #92070a",
"f3 c #920a0d",
"ge c #920d10",
"d2 c #921417",
"c6 c #92181b",
"gz c #930508",
"fJ c #930f12",
"ft c #931114",
"fi c #931417",
"#W c #933133",
"eu c #933235",
"fS c #933e40",
"gl c #934347",
"iM c #934c4e",
"gu c #940c0f",
"gF c #940d10",
"eS c #942023",
".8 c #943e40",
"hZ c #944d4f",
"ga c #950e11",
"dT c #95181b",
"cY c #951c1f",
"## c #95393b",
".v c #954749",
"in c #954d4f",
"fx c #961215",
"fN c #961417",
"fe c #96171a",
"dz c #961c1f",
".N c #964446",
"f4 c #970f12",
"fZ c #971518",
"em c #971a1d",
"iK c #974e4f",
"ip c #974e50",
"e2 c #98181b",
"cD c #982023",
"ev c #98292b",
"fl c #983335",
"eW c #98393d",
"aG c #983a3c",
"i5 c #984e50",
"g0 c #990b0e",
"g1 c #990c0f",
"g2 c #990d10",
"g# c #991215",
"gG c #991417",
"fI c #99171a",
"d6 c #991c1f",
"h0 c #994e51",
"jy c #995151",
"gZ c #9a0b0e",
"gY c #9a0d10",
"g3 c #9a1013",
"gf c #9a181b",
"eB c #9a1c1f",
"cu c #9a2629",
"ak c #9a3335",
".Q c #9a4245",
".h c #9a4a4c",
"hD c #9a4f52",
"gX c #9b0f12",
"f5 c #9b1316",
"fj c #9b1f22",
"ew c #9b2023",
"do c #9b2225",
".x c #9b4749",
"g4 c #9c1417",
"f6 c #9c1619",
"fy c #9c1a1d",
"c7 c #9c2629",
"fk c #9c2a2d",
"fR c #9c3a3d",
"fo c #9c4142",
"g. c #9d171a",
"fs c #9d1d20",
"fd c #9d1e21",
"fO c #9d2124",
"c. c #9d272a",
"gk c #9d4344",
"#s c #9d4345",
"#R c #9d4748",
".g c #9d5355",
"f9 c #9e181b",
"hq c #9e1a1d",
"gt c #9e1c1f",
"hs c #9e1d20",
"dS c #9e2528",
"#x c #9e3f41",
"i8 c #9e5253",
"jI c #9e5255",
".# c #9e5456",
"f8 c #9f191c",
"hr c #9f1a1d",
"b2 c #9f3135",
"aM c #9f3336",
"fT c #9f484a",
"gM c #9f494b",
"gm c #9f4d4f",
"hc c #9f4e53",
"gW c #a0181b",
"g5 c #a0191c",
"hp c #a01a1d",
"fH c #a01e21",
"fY c #a01f22",
"ht c #a01f23",
"fz c #a02023",
"e3 c #a02124",
"eP c #a02427",
"el c #a02629",
"dA c #a0282b",
"cX c #a02a2d",
"bG c #a02d30",
".u c #a05254",
"hd c #a05255",
"f7 c #a1181b",
"ho c #a11d20",
"gg c #a12326",
"hN c #a1292f",
"hO c #a12b2e",
"by c #a13a3e",
"hn c #a22124",
"eC c #a22629",
"d7 c #a2292c",
"eX c #a22a2d",
"bc c #a23134",
"a8 c #a24548",
".7 c #a24d4f",
".f c #a25a5c",
"hM c #a32c30",
"hP c #a32e30",
"cE c #a32f32",
"fQ c #a33538",
".M c #a35254",
"gV c #a41f22",
"g6 c #a42124",
"fG c #a42426",
"hm c #a42427",
"hu c #a42528",
"fc c #a4272a",
"fr c #a4292c",
"hL c #a42e31",
"dn c #a42f32",
"fp c #a43c3f",
"iN c #a45458",
".i c #a45658",
".a c #a45c5d",
"fA c #a52428",
"gs c #a52629",
"gH c #a5272a",
"fP c #a52c2f",
"ct c #a53134",
"#a c #a5494c",
"hE c #a55557",
"h1 c #a5575a",
"fF c #a6282b",
"e4 c #a6292c",
"hQ c #a63235",
"gj c #a63e41",
"#X c #a64243",
"jo c #a65557",
"iq c #a65759",
"gU c #a72528",
"fB c #a7272a",
"hl c #a7282b",
"eO c #a72d30",
"dR c #a73134",
"jD c #a7585a",
".e c #a76162",
"fX c #a82c2f",
"gh c #a82e31",
"ek c #a83134",
"c8 c #a83336",
"hR c #a83638",
"c# c #a83639",
"b1 c #a83b3e",
"fU c #a84447",
".R c #a85254",
"hC c #a85557",
".y c #a85658",
".b c #a86263",
".c c #a86466",
"g7 c #a92629",
"fE c #a9292c",
"fb c #a92e30",
"cW c #a9373a",
"ic c #a9393f",
"id c #a93b3e",
"af c #a95557",
"im c #a9575b",
"i4 c #a95859",
".d c #a96566",
"fD c #aa2a2d",
"gr c #aa2e31",
"hv c #aa2f31",
"e5 c #aa2f33",
"eD c #aa3033",
"dB c #aa3437",
"fq c #aa3639",
"ia c #aa3a3d",
"bH c #aa3c3f",
"i. c #aa3d3f",
"gL c #aa474a",
"gN c #aa5456",
"hY c #aa5658",
"jx c #aa575c",
".t c #aa5e60",
"fC c #ab292c",
"d8 c #ab3437",
"ib c #ab393c",
"hS c #ab3b3d",
"i# c #ab3c3f",
"ie c #ab3e40",
"gn c #ab4c4f",
"hb c #ab4f52",
"iJ c #ab595b",
"gT c #ac2c2f",
"gI c #ac3235",
"bd c #ac4143",
"if c #ac4144",
"g8 c #ad3033",
"hK c #ad3a3d",
"cF c #ad3b3e",
"h9 c #ad4044",
"al c #ad4547",
"#y c #ad4f52",
"fa c #ae3336",
"hw c #ae3538",
"eN c #ae3639",
"fW c #ae363c",
"dm c #ae3c3f",
"ig c #ae4546",
"jH c #ae5a5c",
".j c #ae6264",
"hk c #af3538",
"gi c #af383b",
"dQ c #af3d40",
"fV c #af4043",
"bx c #af474b",
"aF c #af5659",
"jE c #af5a5f",
"i9 c #af5b5d",
".L c #af6163",
"e6 c #b03438",
"ej c #b03b3e",
"hT c #b04043",
"h8 c #b04246",
"aN c #b04548",
".6 c #b05e5f",
"#Q c #b06062",
"eE c #b1383b",
"c9 c #b13f42",
"cs c #b14144",
"ca c #b14346",
"a7 c #b14f54",
"jF c #b15c5e",
"gS c #b23739",
"hx c #b23d40",
"dC c #b24044",
"h7 c #b2484c",
"ih c #b2494c",
"#b c #b25b5d",
".s c #b26a6c",
"f# c #b3373a",
"g9 c #b3383a",
"gq c #b33a3d",
"hj c #b33b3e",
"d9 c #b33e41",
"cV c #b34548",
"b0 c #b3474a",
"jG c #b35d60",
"jp c #b35f5f",
"e7 c #b4383b",
"e9 c #b43a3d",
"e8 c #b43b3e",
"gJ c #b43c3f",
"eM c #b43d40",
"eF c #b44042",
"gK c #b44347",
"hU c #b4484c",
"go c #b4494c",
"hB c #b45658",
"he c #b4595b",
"iO c #b45e60",
".k c #b46e6f",
"f. c #b5393c",
"ii c #b54d51",
"h6 c #b54e50",
"hX c #b5585c",
"hF c #b55c60",
"jj c #b55f61",
"jw c #b55f62",
".S c #b56163",
".z c #b56466",
"hJ c #b64749",
"cG c #b64a4c",
"bI c #b64b4e",
"ha c #b64e50",
"gO c #b65254",
"#Y c #b65558",
".r c #b67475",
"eL c #b74245",
"ei c #b74447",
"dl c #b7484b",
"iA c #b74b4e",
"iC c #b74c4f",
"bw c #b75355",
"il c #b75b5d",
"h2 c #b75d60",
"gR c #b83e41",
"h. c #b84144",
"hi c #b84349",
"iB c #b84a4d",
"iz c #b84c4f",
"iy c #b84e51",
"be c #b85153",
"iE c #b85154",
"ir c #b86063",
".K c #b86f70",
".q c #b87b7e",
"eG c #b94447",
"hy c #b94549",
"e. c #b9464a",
"dP c #b9494b",
"d. c #b94c50",
"cr c #b94f52",
"iD c #b95051",
"hV c #b95054",
"ij c #b95558",
"gp c #ba454b",
"dD c #ba4b4e",
"ix c #ba5155",
"h5 c #ba5356",
"aO c #ba5456",
"iF c #ba5557",
"ae c #ba6869",
"#r c #ba6f71",
".l c #ba7779",
".m c #ba7d7f",
"hI c #bb4e53",
"cb c #bb5355",
"am c #bb5758",
"ik c #bb5b5e",
"i3 c #bb6062",
"iI c #bb6063",
".p c #bb8081",
"gQ c #bc474a",
"eK c #bc484b",
"iw c #bc5356",
"a6 c #bc5d5e",
".n c #bc8283",
".o c #bc8284",
"eH c #bd494c",
"eh c #bd4d4f",
"hW c #bd5759",
"aE c #bd6364",
".5 c #bd6b6d",
".J c #bd7b7c",
"eJ c #be4a4d",
"e# c #be4f51",
"bZ c #be5759",
"iv c #be595c",
"hf c #be595d",
"j. c #be6264",
"#z c #be6365",
"jq c #be6466",
".A c #be7274",
"eI c #bf4c4f",
"hz c #bf4e51",
"dO c #bf5255",
"cU c #bf5356",
"hA c #bf5456",
"h# c #c04b4e",
"hh c #c04d50",
"eg c #c05356",
"dk c #c05558",
"cH c #c05659",
"bJ c #c05a5c",
"bv c #c05c5e",
"iH c #c05f62",
"jv c #c06568",
"gP c #c15155",
"dE c #c15557",
"h4 c #c15c5e",
"iG c #c15e61",
"iu c #c15f60",
"h3 c #c15f61",
".T c #c17173",
".B c #c17e7f",
"ea c #c25558",
"d# c #c2575a",
"hH c #c2585b",
"ji c #c26467",
"#P c #c27476",
".I c #c28689",
"iX c #c35c5e",
"iV c #c35c5f",
"cq c #c35d5f",
"hG c #c35d61",
"bf c #c36063",
"#c c #c36c6e",
"iU c #c45c5f",
"iW c #c45d60",
"it c #c46166",
"a5 c #c46669",
".4 c #c47c7e",
"ef c #c5595a",
"eb c #c5595c",
"iY c #c55d60",
"iZ c #c55e60",
"is c #c56567",
"#Z c #c5686a",
"#q c #c57a7c",
".C c #c58a8b",
".H c #c59192",
"hg c #c65659",
"dN c #c65b5d",
"cc c #c66063",
"cT c #c66164",
"aP c #c66466",
"iP c #c6686a",
"jr c #c6686b",
"ee c #c75b5e",
"dF c #c75c5f",
"iT c #c75f61",
"iS c #c76063",
"dj c #c76163",
"i1 c #c76668",
"an c #c76769",
".D c #c79294",
".G c #c79495",
"ec c #c85c5f",
"ed c #c85d5f",
"iR c #c86365",
"i0 c #c86467",
"bY c #c86668",
"i2 c #c8696b",
"ad c #c87375",
".U c #c88284",
"iQ c #c96769",
"aD c #c96f72",
".E c #c99697",
".F c #c99899",
"cI c #ca6365",
"da c #ca6466",
".3 c #ca8a8c",
"dM c #cb6366",
"bK c #cb696b",
"jh c #cb696e",
"ju c #cb6b6d",
"ja c #cc6a6c",
"bu c #cc6d6f",
"dG c #cd6567",
"j# c #cd6b6c",
"cp c #cd6b6d",
"#d c #cd7d80",
"#p c #cd8688",
".V c #cd9091",
"di c #ce686b",
"jg c #ce6a6d",
"jb c #ce6a6f",
"cS c #ce6d6f",
"a4 c #ce7173",
"jf c #cf6b6e",
"js c #cf6c71",
"bg c #cf7072",
"#O c #cf8183",
".2 c #cf9899",
"dH c #d0686b",
"dL c #d0696a",
"db c #d06b6d",
"jd c #d06c6e",
"jc c #d06c6f",
"jt c #d06d70",
"cd c #d06e71",
"#A c #d07678",
"#o c #d08a8c",
".W c #d09d9e",
"je c #d16d6f",
"bX c #d17375",
"aC c #d17a7d",
"dI c #d26c6e",
"dK c #d26c6f",
"cJ c #d26f72",
"aQ c #d27476",
"#0 c #d2797b",
"ac c #d28185",
".1 c #d2a4a6",
"dJ c #d36d6f",
"ao c #d37779",
"#B c #d38588",
"aB c #d48286",
"#M c #d49092",
".X c #d4a8a8",
"co c #d5777a",
"bt c #d57b7d",
"a3 c #d58082",
"#1 c #d5888a",
"ab c #d5888c",
"#e c #d59192",
"#C c #d59597",
"#n c #d59b9b",
"dh c #d67074",
"cR c #d67578",
"bL c #d6777a",
"bh c #d67e80",
"ap c #d6888a",
"#N c #d68e8f",
"aa c #d69395",
"#f c #d69e9f",
".0 c #d6acae",
".Y c #d6aeaf",
".Z c #d6b0b2",
"dc c #d77375",
"aR c #d78587",
"#2 c #d79799",
"#L c #d7a0a1",
"dg c #d8787a",
"ce c #d87a7c",
"a2 c #d88f91",
"aA c #d89395",
"#m c #d8a7a8",
"#g c #d8abad",
"dd c #d9787b",
"bs c #d9888a",
"bi c #d98e90",
"aS c #d99395",
"aq c #d99698",
"a# c #d9a3a4",
"cK c #da7a7c",
"bW c #da8284",
"bM c #da8587",
"#D c #daa5a6",
"#h c #dab7b8",
"de c #db7b7d",
"cn c #db8385",
"cf c #db8587",
"br c #db9698",
"a1 c #db9e9f",
"aT c #dba1a3",
"az c #dba3a4",
"ar c #dba6a7",
"#3 c #dba7a8",
"#K c #dbb0b1",
"#l c #dbb3b4",
"#E c #dbb4b4",
"#k c #dbbfc0",
"#i c #dbc1c1",
"df c #dc7c7e",
"bN c #dc9193",
"bj c #dc9a9c",
"#j c #dcc2c3",
"cQ c #dd7f82",
"cL c #dd8284",
"cP c #dd8587",
"cm c #dd8d8f",
"cg c #dd8f91",
"bV c #dd9092",
"bU c #dd989a",
"bq c #dda5a6",
"a0 c #ddadae",
"#4 c #ddb8b8",
"#J c #ddbec0",
"cM c #de888a",
"cN c #de8a8c",
"cO c #de8c8e",
"cl c #de9496",
"ch c #de9698",
"bT c #dea1a3",
"bk c #dea5a8",
"aU c #deafb1",
"ay c #deb3b4",
"a. c #deb5b6",
"as c #deb6b7",
"#F c #dec3c4",
"#9 c #dec3c5",
"ck c #df999b",
"bO c #df9b9d",
"#I c #dfcece",
"ci c #e09a9c",
"cj c #e09c9e",
"bp c #e0afb0",
"bl c #e0b2b3",
"aZ c #e0b9ba",
"aV c #e0bdbe",
"ax c #e0c1c2",
"at c #e0c5c6",
"#5 c #e0c8c8",
"#G c #e0d1d1",
"bP c #e1a5a6",
"bS c #e1a7a9",
"bQ c #e1a9aa",
"bR c #e1abac",
"bo c #e1b7b9",
"aY c #e1c3c5",
"aW c #e1c6c6",
"#H c #e1d5d4",
"bm c #e2b8b8",
"bn c #e2babc",
"aX c #e2c8c9",
"aw c #e2cecf",
"au c #e2d3d3",
"#8 c #e2d4d4",
"#6 c #e2d8d8",
"av c #e3d8d8",
"#7 c #e3e0df",
"QtQtQtQtQtQtQtQtQtQtQtQt.#.a.b.c.d.c.e.f.gQtQtQtQtQtQtQtQtQtQtQt",
"QtQtQtQtQtQtQtQtQt.h.i.j.k.l.m.n.o.p.q.r.s.t.u.vQtQtQtQtQtQtQtQt",
"QtQtQtQtQtQtQt.w.x.y.z.A.B.C.D.E.F.G.H.I.J.K.L.M.N.OQtQtQtQtQtQt",
"QtQtQtQtQtQt.P.Q.R.S.T.U.V.W.X.Y.Z.0.1.2.3.4.5.6.7.8.9QtQtQtQtQt",
"QtQtQtQtQt#.###a#b#c#d#e#f#g#h#i#j#k#l#m#n#o#p#q#r#s#t#uQtQtQtQt",
"QtQtQtQt#v#w#x#y#z#A#B#C#D#E#F#G#H#I#J#K#L#M#N#O#P#Q#R#S#TQtQtQt",
"QtQtQt#U#V#W#X#Y#Z#0#1#2#3#4#5#6#7#8#9a.a#aaabacadaeafagahQtQtQt",
"QtQtQtaiajakalamanaoapaqarasatauavawaxayazaAaBaCaDaEaFaGaHaIQtQt",
"QtQtaJaKaLaMaNaOaPaQaRaSaTaUaVaWaXaYaZa0a1a2a3a4a5a6a7a8a9b.QtQt",
"QtQtb#babbbcbdbebfbgbhbibjbkblbmbnbobpbqbrbsbtbubvbwbxbybzbAbBQt",
"QtbCb#babbbcbdbebfbgbhbibjbkblbmbnbobpbqbrbsbtbubvbwbxbybzbAbBQt",
"QtbCbDbEbFbGbHbIbJbKbLbMbNbObPbQbRbSbTbUbVbWbXbYbZb0b1b2b3b4b5Qt",
"Qtb6b7b8b9c.c#cacbcccdcecfcgchcicjckclcmcncocpcqcrcsctcucvcwcxcy",
"b6czcAcBcCcDcEcFcGcHcIcJcKcLcMcNcOcNcPcQcRcScTcUcVcWcXcYcZcwcxc0",
"c1c2c3c4c5c6c7c8c9d.d#dadbdcdddedfdedgdhdidjdkdldmdndodpdqcwdrds",
"dtdudvdwdxdydzdAdBdCdDdEdFdGdHdIdJdKdLdMdNdOdPdQdRdSdTdUdVdWdXdY",
"dZd0d1d2d3d4d5d6d7d8d9e.e#eaebecedeeefegeheiejekelemeneoepeqeres",
"eteuevewexeyezeAeBeCeDeEeFeGeHeIeIeJeKeLeMeNeOePemeneQeRd2eSeTeU",
"eVeWaMeXeBeYeZe0e1e2e3e4e5e6e7e8e9f.f#fafbfcfdfefffgfhfifjfkflfm",
"fnfofpfqfrfsftfufvfwfxfyfzfAfBfCfDfEfFfGfHfIfJfKfLfMfNfOfPfQfRfS",
"QtfTfUfVfWfXfYfZf0f1f2f3f4f5f6f7f8f9g.g#gagbgcgdgegfggghgigjgkgl",
"Qtgmgngogpgqgrgsgtg#gugvgwgxgygzgzgAgBgCgDgEgFgGfHgHgIgJgKgLgMQt",
"QtfngNgOgPgQgRgSgTgUgVgWf5gXgYgZg0g1g2g3g4g5g6g7g8g9h.h#hahbhcQt",
"QtQthdhehfhghhhihjhkgrhlhmhnhohphqhrhshthue4hvhwhxhyhzhAhBhCfnQt",
"QtQthDhEhFhGhHhIhJcshKdBdRhLhMeXd7hNhOhPhQhRhShThUhVhWhXhYhZQtQt",
"QtQtQth0h1h2h3h4h5h6h7h8h9i.i#iaibicidieifigihiiijikiliminioQtQt",
"QtQtQtQtipiqirisitiuiviwixiyiziAiBiAiCiDiEiFiviGiHiIiJiKiLQtQtQt",
"QtQtQtQtQtiMiNiOiPbKiQiRiSiTiUiViWiXiYiZiSi0i1i2i3i4i5i6QtQtQtQt",
"QtQtQtQtQtQti7i8i9j.j#jajbjcjdjejejdjfjgcpjhjijjhEjkjlQtQtQtQtQt",
"QtQtQtQtQtQtQtjmjnjojpjqjrjsjtjtjtjtjtjujvjwjxjyjzjAQtQtQtQtQtQt",
"QtQtQtQtQtQtQtQtQtjBjCipjDjEjFjGjGjFjHjxjIjJjKjLQtQtQtQtQtQtQtQt",
"QtQtQtQtQtQtQtQtQtQtQtQtjMjNjOjPjQjRjSjTjUQtQtQtQtQtQtQtQtQtQtQt"};
