/* XPM */
static char *psychopy[] = {
/* columns rows colors chars-per-pixel */
"32 32 52 1",
"  c #060606",
". c #0C0C0C",
"X c #141414",
"o c #1C1C1C",
"O c #232323",
"+ c #2B2B2B",
"@ c #343434",
"# c #3C3C3C",
"$ c #444343",
"% c #4C4C4C",
"& c #545454",
"* c #575758",
"= c #585758",
"- c #5C5C5C",
"; c #646464",
": c #6B6B6B",
"> c #727272",
", c #7B7B7B",
"< c #807F80",
"1 c #848484",
"2 c #8B8B8B",
"3 c #908F90",
"4 c #949494",
"5 c #969598",
"6 c #9C9C9C",
"7 c #9F9FA2",
"8 c #A3A3A3",
"9 c #A6A6AA",
"0 c #ACABAC",
"q c #AFAEB2",
"w c #B3B3B4",
"e c #B6B5B9",
"r c #B8B7BB",
"t c #BBBABC",
"y c #BEBDC1",
"u c #C0BFC3",
"i c #C3C3C3",
"p c #C7C6CA",
"a c #C8C7C9",
"s c #CCCBCD",
"d c #CFCFD2",
"f c #D3D3D4",
"g c #D7D6D8",
"h c #DBDBDC",
"j c #DEDEE0",
"k c #E3E3E4",
"l c #E8E7E8",
"z c #EBEBEC",
"x c #F4F4F4",
"c c #F8F7F7",
"v c #FAFAFA",
"b c None",
/* pixels */
"bbbbbbbbbbbbbbtyybbbbbbbbbbbbbbb",
"bbbbbbbbbbrrtrryiypdsbbbbbbbbbbb",
"bbbbbbbbwt088whlf035rffybbbbbbbb",
"bbbbbbbrw6120hvxd4:-1tfhfbbbbbbb",
"bbbbbwe061<4ixvk0,->8hxdhhbbbbbb",
"bbbbwwqq3,2whcxi2;;2axxa4skbbbbb",
"bbbbewu6,,6sxvh8>-,0kvk8-=dkbbbb",
"bbbewsq1>2wkvzt<;;4dcxy,##,lgbbb",
"bbrwai3>>6fxcf4:-<wzvg5&@%2szbbb",
"bbrrd7>:1tzvkw,-:6gvzw>##>rkzhbb",
"brwpw<;>6fcxi2--1yxcf2%#*6hxhlbb",
"brry3;-1yxch8:&;6hvk8-@$,ixxtkdb",
"brw8:=:8hvzw-Oo-wxxw-oX%6lvf1ygb",
"br9<&=1ixcy:o @2hcf<+ o:icl8&3hb",
"yr2-%:8jch2@ o;txl8%..%8lci:O:hb",
"yr:$%1izz0&X.#4hzi>O +,sch3@ =fb",
"it-#;6hxa,+ O:tlf4#.X&8zzw-X :sb",
"bt&$>tzh6%.X$6gh0-o.@<szs,+ O2sb",
"ba:-6hlt;O.+>thi,@.o-0hh6%X.$9ib",
"bs4>ilf2#.X&6ss4%X.#1ahw:O.+>yeb",
"bst8hj0=o.@,ws0:+.O-0si2#.X&6u9b",
"bbdiji,+.o=6iw1#XX$1ta6=o.@,etbb",
"bbfsa6%o.#,wt5-OX+;8t0>@.o-6t0bb",
"bbuhw:O.O;6w8>@Xo$20w2%X.#<qebbb",
"bbbff-XX$<001%oX+:605;+.O-7r7bbb",
"bbbbju@+:7q5;+XO%,86>#XX$2r9bbbb",
"bbbbbki>108,$oo@:261&O.+,w9bbbbb",
"bbbbbbkkw92&OXO%,52;@X@2e9bbbbbb",
"bbbbbbbgzh6&oX#;22>%$>qr8bbbbbbb",
"bbbbbbbbbhzg02148660rr9bbbbbbbbb",
"bbbbbbbbbbbdhjhfdpie9bbbbbbbbbbb",
"bbbbbbbbbbbbbbbbbbbbbbbbbbbbbbbb"
};
