/* XPM */
static char * pype_xpm[] = {
"32 32 26 1",
" 	c None",
".	c #1F0000",
"+	c #100000",
"@	c #FFFFFF",
"#	c #0B0B1E",
"$	c #28266A",
"%	c #3E3BA6",
"&	c #4F4CD4",
"*	c #4441B5",
"=	c #383697",
"-	c #5A56F1",
";	c #5551E3",
">	c #333188",
",	c #1FB000",
"'	c #22205B",
")	c #00C800",
"!	c #10BB00",
"~	c #2D2B79",
"{	c #11102D",
"]	c #17163C",
"^	c #4946C5",
"/	c #06050F",
"(	c #000000",
"_	c #1C1B4C",
":	c #F9E200",
"<	c #F8F800",
"       .+.                      ",
"      .@@@.                     ",
"     .@@@@@....            #$%&*",
"    ..@++@@+@@@.         #=---;>",
"  ..,+@@@@+@@@@@.       '--*'#  ",
" .,))!+@@@+@++@@.       ~-'  {'#",
" .))))!++++@@@@@.    ]$ ~-'=;--]",
".,))))))))!+@@@+,. #^--]~---&=$/",
".,)))))))))!+++!),];-;-'~-*]    ",
" .)))))))))))))))'-&{~-#~-]  {''",
" .,)))))))))))))>-%//;% ~-'=;--*",
"  ..,)))))()))))*-){&;# ~---&=${",
"    ......,)))))*-];;{  ~-*]    ",
"          ...,//*--^#  ._]      ",
"             {&/*-%/. .,),.     ",
"             %^.*-)).  ..,,.    ",
"             -~:*-)),.   .).    ",
"         #  _-{<*-))),.  .,,.   ",
"    {>*~_;' >;<<*;)))).   .).   ",
" '=^----=-&.&=<<>/)))),.  .,,.  ",
" ---%_&-#--~-'<<<<))))).   .).  ",
" -=/ /&*.=---/<<<<))))).   .).  ",
" -~ ]^-],#--^<<<<<))))).   .).  ",
" -^^--',))%-><<<<))))))..  .).  ",
" ---=#.)))~-{:<<<))))))(,..,).  ",
" -=  .,)){;* .<<)))))))()))),.  ",
" -~  .)){;;{ .<)))))))..,)),.   ",
" -~  .))]^{..,))))))),. ....    ",
" -'  .,))))))))))))),.          ",
"      .,))))))))),...           ",
"       ..,)))),...              ",
"         .++++.                 "};
