/* XPM */
static char * pyragua_xpm[] = {
"32 32 352 2",
"  	c None",
". 	c #040401",
"+ 	c #000000",
"@ 	c #BDBD63",
"# 	c #8F8F4A",
"$ 	c #A7A756",
"% 	c #9F9F52",
"& 	c #7F7F41",
"* 	c #79793F",
"= 	c #7A7A3F",
"- 	c #9B9B50",
"; 	c #808041",
"> 	c #B8B860",
", 	c #71713B",
"' 	c #0A0A04",
") 	c #A9A956",
"! 	c #90904B",
"~ 	c #9A9A51",
"{ 	c #94944E",
"] 	c #53532B",
"^ 	c #282813",
"/ 	c #35351B",
"( 	c #4D4D27",
"_ 	c #424221",
": 	c #2D2D16",
"< 	c #292914",
"[ 	c #292915",
"} 	c #2F2F17",
"| 	c #434322",
"1 	c #36361B",
"2 	c #34341A",
"3 	c #080803",
"4 	c #505029",
"5 	c #D2D26E",
"6 	c #D6D671",
"7 	c #8D8D4A",
"8 	c #898948",
"9 	c #8B8B4B",
"0 	c #17170A",
"a 	c #DCDC73",
"b 	c #F0F085",
"c 	c #E7E77A",
"d 	c #BEBE64",
"e 	c #C0C066",
"f 	c #CACA6B",
"g 	c #CCCC6C",
"h 	c #ADAD5B",
"i 	c #A0A053",
"j 	c #95954E",
"k 	c #6C6C39",
"l 	c #2C2C15",
"m 	c #F6F68B",
"n 	c #686838",
"o 	c #4A4A25",
"p 	c #7C7C41",
"q 	c #3B3B1D",
"r 	c #6C6C38",
"s 	c #93934C",
"t 	c #A4A456",
"u 	c #898947",
"v 	c #636333",
"w 	c #8A8A48",
"x 	c #9B9B51",
"y 	c #D8D871",
"z 	c #1C1C0D",
"A 	c #111107",
"B 	c #151509",
"C 	c #070703",
"D 	c #C9C96B",
"E 	c #5F5F32",
"F 	c #F1F181",
"G 	c #656534",
"H 	c #F0F07E",
"I 	c #474725",
"J 	c #7B7B43",
"K 	c #91914B",
"L 	c #EEEE82",
"M 	c #53532A",
"N 	c #9E9E52",
"O 	c #9E9E53",
"P 	c #EDED7E",
"Q 	c #EBEB7C",
"R 	c #B5B55F",
"S 	c #060602",
"T 	c #6D6D38",
"U 	c #050502",
"V 	c #131308",
"W 	c #121207",
"X 	c #D9D972",
"Y 	c #16160A",
"Z 	c #0D0D06",
"` 	c #EBEB7F",
" .	c #101007",
"..	c #E5E57D",
"+.	c #76763D",
"@.	c #FAFA85",
"#.	c #606031",
"$.	c #090903",
"%.	c #474724",
"&.	c #818143",
"*.	c #888846",
"=.	c #A1A154",
"-.	c #16160B",
";.	c #BABA61",
">.	c #C0C064",
",.	c #E8E879",
"'.	c #51512A",
").	c #080802",
"!.	c #96964F",
"~.	c #14140A",
"{.	c #CBCB69",
"].	c #18180B",
"^.	c #A6A658",
"/.	c #3D3D20",
"(.	c #FAFA84",
"_.	c #1E1E0F",
":.	c #E1E177",
"<.	c #ECEC7D",
"[.	c #F9F985",
"}.	c #A9A959",
"|.	c #DBDB72",
"1.	c #BFBF65",
"2.	c #C8C869",
"3.	c #E6E67A",
"4.	c #A9A95A",
"5.	c #AFAF5D",
"6.	c #646433",
"7.	c #050501",
"8.	c #3C3C20",
"9.	c #3C3C1F",
"0.	c #6B6B37",
"a.	c #9C9C52",
"b.	c #212110",
"c.	c #C3C365",
"d.	c #8C8C49",
"e.	c #A9A957",
"f.	c #0C0C05",
"g.	c #7E7E41",
"h.	c #7D7D41",
"i.	c #7E7E42",
"j.	c #7C7C42",
"k.	c #484825",
"l.	c #5B5B2F",
"m.	c #313119",
"n.	c #7E7E44",
"o.	c #0F0F06",
"p.	c #DFDF78",
"q.	c #C6C667",
"r.	c #2B2B15",
"s.	c #4B4B28",
"t.	c #4B4B29",
"u.	c #474726",
"v.	c #040400",
"w.	c #38381C",
"x.	c #030301",
"y.	c #3C3C1E",
"z.	c #111109",
"A.	c #2B2B02",
"B.	c #060603",
"C.	c #20200F",
"D.	c #7B7B3F",
"E.	c #111106",
"F.	c #030300",
"G.	c #5C5C2F",
"H.	c #D1D16E",
"I.	c #D7D773",
"J.	c #D7D772",
"K.	c #DCDC76",
"L.	c #15150A",
"M.	c #00000E",
"N.	c #414631",
"O.	c #4B4B00",
"P.	c #7F7F00",
"Q.	c #060600",
"R.	c #0D0D05",
"S.	c #0B0C06",
"T.	c #000005",
"U.	c #000006",
"V.	c #0C0D07",
"W.	c #BBC46E",
"X.	c #0B0E70",
"Y.	c #030F76",
"Z.	c #020D73",
"`.	c #525200",
" +	c #070700",
".+	c #484C2B",
"++	c #E6F48C",
"@+	c #171943",
"#+	c #0B0D77",
"$+	c #6A703B",
"%+	c #EFFA8F",
"&+	c #86917B",
"*+	c #0B0D74",
"=+	c #292F30",
"-+	c #504F00",
";+	c #7D7D00",
">+	c #575700",
",+	c #010100",
"'+	c #353400",
")+	c #686F40",
"!+	c #D3E17F",
"~+	c #788047",
"{+	c #0A0A02",
"]+	c #858E51",
"^+	c #ECF08D",
"/+	c #6D7440",
"(+	c #4C4C07",
"_+	c #7E7E00",
":+	c #7C7C00",
"<+	c #6F6F00",
"[+	c #050500",
"}+	c #1E1E00",
"|+	c #555500",
"1+	c #535302",
"2+	c #797900",
"3+	c #717100",
"4+	c #353503",
"5+	c #727100",
"6+	c #7C7D00",
"7+	c #7C7B00",
"8+	c #767600",
"9+	c #768100",
"0+	c #738400",
"a+	c #797E00",
"b+	c #7B7B00",
"c+	c #1B1B00",
"d+	c #737300",
"e+	c #757500",
"f+	c #778000",
"g+	c #54A100",
"h+	c #4AAB00",
"i+	c #49AB00",
"j+	c #49AA00",
"k+	c #50A400",
"l+	c #768300",
"m+	c #252500",
"n+	c #010400",
"o+	c #7A7A00",
"p+	c #707000",
"q+	c #292900",
"r+	c #0C0C00",
"s+	c #7D7A00",
"t+	c #589E00",
"u+	c #4DA800",
"v+	c #0BEA00",
"w+	c #00F800",
"x+	c #00EE00",
"y+	c #00F500",
"z+	c #15E200",
"A+	c #50A600",
"B+	c #282900",
"C+	c #056500",
"D+	c #4CAA00",
"E+	c #6C8400",
"F+	c #7A7800",
"G+	c #5B5B00",
"H+	c #7E7A00",
"I+	c #688D00",
"J+	c #629400",
"K+	c #38BD00",
"L+	c #17E000",
"M+	c #00F900",
"N+	c #00EF00",
"O+	c #066800",
"P+	c #205500",
"Q+	c #01F700",
"R+	c #47B200",
"S+	c #0B0B00",
"T+	c #005E00",
"U+	c #01F900",
"V+	c #2ACC00",
"W+	c #3FB500",
"X+	c #698D00",
"Y+	c #6C8B00",
"Z+	c #6B8D00",
"`+	c #599C00",
" @	c #2CCA00",
".@	c #2ACB00",
"+@	c #00F600",
"@@	c #009200",
"#@	c #011500",
"$@	c #377300",
"%@	c #16E500",
"&@	c #00F700",
"*@	c #011700",
"=@	c #000A00",
"-@	c #00CA00",
";@	c #01F800",
">@	c #02F800",
",@	c #02F700",
"'@	c #00FA00",
")@	c #00D500",
"!@	c #00BA00",
"~@	c #001300",
"{@	c #091800",
"]@	c #3B9800",
"^@	c #10E700",
"/@	c #00ED00",
"(@	c #001400",
"_@	c #000200",
":@	c #001B00",
"<@	c #00DB00",
"[@	c #00DE00",
"}@	c #00E000",
"|@	c #029B00",
"1@	c #000E00",
"2@	c #000500",
"3@	c #000300",
"4@	c #1D4300",
"5@	c #43B000",
"6@	c #01F500",
"7@	c #00C700",
"8@	c #001200",
"9@	c #143200",
"0@	c #0B0100",
"a@	c #990000",
"b@	c #D70000",
"c@	c #B50000",
"d@	c #050700",
"e@	c #050C00",
"f@	c #3E8200",
"g@	c #479900",
"h@	c #0BEC00",
"i@	c #006700",
"j@	c #1F6000",
"k@	c #EE0D00",
"l@	c #E10900",
"m@	c #6A7400",
"n@	c #357500",
"o@	c #51A500",
"p@	c #38C200",
"q@	c #18E000",
"r@	c #00F100",
"s@	c #007B00",
"t@	c #6A0000",
"u@	c #EF0000",
"v@	c #9C5400",
"w@	c #07F000",
"x@	c #0BEB00",
"y@	c #05F300",
"z@	c #00F400",
"A@	c #00DC00",
"B@	c #007A00",
"C@	c #000B00",
"D@	c #F80000",
"E@	c #EA0000",
"F@	c #018000",
"G@	c #00AB00",
"H@	c #00AA00",
"I@	c #00A900",
"J@	c #000C00",
"K@	c #8E0000",
"                        . + + +                                 ",
"                  @ # $ % & * = - ; > , +                       ",
"      ' ) ! ~ { ] ^ / ( _ : < [ } | 1 2 3                       ",
"    4 5 6 7 8 9 0 a b c ! d e f g h i j k                       ",
"  l m n ^ o p q r s t u v = w x y z + + + + A     B C           ",
"  D E v F G H I J K L M N O P Q R + + + S T U V W ] X Y         ",
"Z `  ...+.@.#.$.%.&.*.=.-.;.>.,.y + + 1 '.Z ).!.( ~.            ",
"  {.].^./.(._.' :.<.[.}.|.1.2.a 3.4.5.6.7.8.9.-.+ + + + +       ",
"  0.a.b.c.d.e.[ Z f.* g.g.h.i.i.h.j.j.k.# l.+ + + + + +         ",
"    m.n.o.G 1 p.q.r.I s.t.u.v.w.x.y.z.A.7.+ + + + +             ",
"      B.C.D.E.~.F.G.H.I.J.K.L.' M.N.O.P.Q.+ + +                 ",
"        + + R.C + x.S.T.U.V.W.X.Y.Z.`.P. ++ +                   ",
"            + + + .+++@+#+$+%+&+*+=+-+;+>++ +                   ",
"                ,+'+)+!+~+{+]+^+/+(+_+:+<+[++                   ",
"              }+|+;+:+1+2+_+3+4+5+6+:+7+:+8+v.                  ",
"          + O.;+:+:+:+:+:+:+:+:+:+:+9+0+0+a+b+v.                ",
"        c+d+e+b+:+2+b+:+:+:+:+:+f+g+h+i+j+k+l+m++               ",
"      n+o+p+q+:+_+r+2+:+7+:+s+t+u+v+w+x+y+z+A+B++ +             ",
"      C+D+E+F+:+;+G+7+H+I+J+K+L+M+N+O+P+Q+w+R+S++ +             ",
"      T+U+V+W+X+Y+Z+`+ @.@U+w++@@@#@$@%@&@N+*@+ + +             ",
"      =@-@M+;@>@>@>@,@w+'@)@!@~@{@]@^@w+/@(@+ + + +             ",
"        _@:@<@[@[@[@}@|@1@2@3@4@5@6@&@7@8@+ + + +               ",
"            9@0@a@b@c@d@e@f@g@h@&@N+i@+ + + + +                 ",
"          + j@k@l@m@n@o@p@q@M+r@s@=@+ + + + +                   ",
"          t@u@v@w@x@y@;@z@A@B@C@+ + + + +                       ",
"          D@E@F@G@H@H@I@J@2@+ + + + + +                         ",
"          K@    + + + + + + + + + +                             ",
"              + + + + + + + +                                   ",
"                                                                ",
"                                                                ",
"                                                                ",
"                                                                "};
