/* XPM */
static char *qlandkartegt[] = {
/* columns rows colors chars-per-pixel */
"32 32 256 2 ",
"   c #013B2A",
".  c #00382B",
"X  c #003531",
"o  c #053D37",
"O  c #044B1F",
"+  c #054532",
"@  c #084036",
"#  c #094E32",
"$  c #07413C",
"%  c #0A4A3E",
"&  c #094639",
"*  c #0B5632",
"=  c #0E5E32",
"-  c #0B5038",
";  c #13762D",
":  c #0F6630",
">  c #116732",
",  c #136F32",
"<  c #167433",
"1  c #1B7B37",
"2  c #0C4848",
"3  c #0C4E42",
"4  c #144940",
"5  c #115D41",
"6  c #175C48",
"7  c #145755",
"8  c #21544B",
"9  c #235546",
"0  c #2D5D54",
"q  c #27575A",
"w  c #176748",
"e  c #1A6948",
"r  c #1A7440",
"t  c #1D7749",
"y  c #1C6D57",
"u  c #216F4D",
"i  c #377F58",
"p  c #1A5B62",
"a  c #206867",
"s  c #296F66",
"d  c #27686F",
"f  c #286562",
"g  c #24726C",
"h  c #257467",
"j  c #256A73",
"k  c #316B75",
"l  c #387E7C",
"z  c #497B5D",
"x  c #476D6A",
"c  c #1E8339",
"v  c #2C8549",
"b  c #318E4F",
"n  c #2C8153",
"m  c #3A9A59",
"M  c #308960",
"N  c #358B69",
"B  c #508C68",
"V  c #409863",
"C  c #48907C",
"Z  c #63867C",
"A  c #4EC855",
"S  c #53CA58",
"D  c #5FC576",
"F  c #61CF65",
"G  c #63D068",
"H  c #2D3CAD",
"J  c #303DAD",
"K  c #2D7388",
"L  c #2B7290",
"P  c #347C94",
"I  c #2A4BB2",
"U  c #2F41B1",
"Y  c #3747B3",
"T  c #2D58BB",
"R  c #3057B8",
"E  c #335ABB",
"W  c #3861BE",
"Q  c #3E69B1",
"!  c #407896",
"~  c #4C5FBB",
"^  c #4765B7",
"/  c #5A77BF",
"(  c #3863C2",
")  c #4C6BC4",
"_  c #4B61C0",
"`  c #4C78CC",
"'  c #5B7BCC",
"]  c #5574C9",
"[  c #5C7CD1",
"{  c #647CC7",
"}  c #378888",
"|  c #338499",
" . c #3B87A5",
".. c #3C87B6",
"X. c #449A84",
"o. c #509989",
"O. c #49829B",
"+. c #508F9B",
"@. c #499A96",
"#. c #678784",
"$. c #7A9694",
"%. c #69AE8B",
"&. c #69B58E",
"*. c #68AB94",
"=. c #6CB49C",
"-. c #4886A9",
";. c #4292A0",
":. c #5798A4",
">. c #408EBC",
",. c #5C82BE",
"<. c #5788B8",
"1. c #5698B8",
"2. c #6399A8",
"3. c #68AAAD",
"4. c #73ABAF",
"5. c #72B3A9",
"6. c #61A6B5",
"7. c #7FD787",
"8. c #7CC0AC",
"9. c #5985CE",
"0. c #5A98C6",
"q. c #5C8DD4",
"w. c #5A86D5",
"e. c #4F9FD5",
"r. c #4899D8",
"t. c #6B87C7",
"y. c #799BCA",
"u. c #6D8CD5",
"i. c #638ED0",
"p. c #708BD3",
"a. c #6892D8",
"s. c #6898D4",
"d. c #719BD9",
"f. c #7596D8",
"g. c #5EA7C6",
"h. c #58A5DA",
"j. c #58A5D5",
"k. c #61A4C0",
"l. c #73B6C1",
"z. c #73B0CD",
"x. c #74A3DE",
"c. c #6CB2D3",
"v. c #77B6D8",
"b. c #699DE1",
"n. c #55A7E8",
"m. c #59ACF6",
"M. c #59AEFE",
"N. c #56ABF7",
"B. c #5DB0FF",
"V. c #74A0E0",
"C. c #69B2E5",
"Z. c #63B3FF",
"A. c #69B6FF",
"S. c #6DB8FF",
"D. c #66B1F2",
"F. c #72B8F1",
"G. c #73BAFE",
"H. c #7ABEFF",
"J. c #7EC0FF",
"K. c #839D9B",
"L. c #87A09F",
"P. c #88A09F",
"I. c #89A1A0",
"U. c #89A5A3",
"Y. c #95AEA6",
"T. c #97AFA8",
"R. c #95B1A4",
"E. c #97B0A8",
"W. c #85BEB9",
"Q. c #9EB6B2",
"!. c #A3BDAE",
"~. c #9CC29E",
"^. c #97CFBB",
"/. c #A8C7AD",
"(. c #AEC9B4",
"). c #ABC4B9",
"_. c #B5CEBD",
"`. c #AADEBE",
"'. c #BAD5BC",
"]. c #ABE2B4",
"[. c #849FDC",
"{. c #85BAC2",
"}. c #82A0DC",
"|. c #91A7DF",
" X c #8BB7D4",
".X c #8FABE2",
"XX c #90ABE1",
"oX c #8ABFE2",
"OX c #94B2E3",
"+X c #9CB3E6",
"@X c #A4BFE9",
"#X c #88C2C6",
"$X c #88C0DF",
"%X c #AEC7C1",
"&X c #B4CCC4",
"*X c #BBD4C3",
"=X c #B9D3C4",
"-X c #A7D2DC",
";X c #BCD3D8",
":X c #B5E4C2",
">X c #92C7E0",
",X c #9ACDE7",
"<X c #83C1F6",
"1X c #84C3FF",
"2X c #8AC6FE",
"3X c #8CC6F1",
"4X c #94CAFF",
"5X c #99CDFF",
"6X c #98C3F3",
"7X c #9FD0FF",
"8X c #AAC9EA",
"9X c #BAD6E6",
"0X c #A4C5F0",
"qX c #A4D1F3",
"wX c #A2D1FE",
"eX c #AAD5FF",
"rX c #AFD8FF",
"tX c #AED3F4",
"yX c #B3D9F3",
"uX c #B4DAFF",
"iX c #BCDEFF",
"pX c #C6DDC6",
"aX c #C8DEC7",
"sX c #C1D7CC",
"dX c #C4DBD4",
"fX c #CBE1CE",
"gX c #C9E4D5",
"hX c #D2E5D2",
"jX c #D6E8DB",
"kX c #DDEBDD",
"lX c #D5E6DB",
"zX c #E0EDDF",
"xX c #CADBF4",
"cX c #D4ECE4",
"vX c #D8E9E9",
"bX c #C3E1FF",
"nX c #CBE6FF",
"mX c #CFE8FF",
"MX c #CEE5F4",
"NX c #DCEDF5",
"BX c #D5EAFF",
"VX c #DBEDFF",
"CX c #D1E7F8",
"ZX c #E1EEE2",
"AX c #EDF5EE",
"SX c #E6F0E7",
"DX c #E2EFF2",
"FX c #E3F3F1",
"GX c #ECF5F2",
"HX c #E4F2FF",
"JX c #ECF6FE",
"KX c #EFF8F9",
"LX c #F3F8F5",
"PX c #F4FAFC",
"IX c #F9FDFE",
"UX c None",
/* pixels */
"UXUXUXUXUXUXUXUXUXUXUXUXUXUXUXUXUXUXUXUXUXUXUXUXUXUXUXUXUXUXUXUX",
"UXUXUXUXUXUXUXUXUXUXUXUXUXUXUXUXUXUXUXUXUXUXUXUXUXUXUXUXUXUXUXUX",
"UXUXUXUXUXUXUXUXUXUXUXH ) p.[.|..X}.u.) I UXUXUXUXUXUXUXUXUXUXUX",
"UXUXUXUXUXUXUXUXUXY u.8XBXJXPXIXIXIXJXCX0Xa.E UXUXUXUXUXUXUXUXUX",
"UXUXUXUXUXUXUXUX{ 0XVXLXLXLXLXLXIXLXAXAXAXCX6X9.UXUXUXUXUXUXUXUX",
"UXUXUXUXUXUXH d.9XvXZXzXSXGXLXAXZXkXkXkXkXkXcXqXb.E UXUXUXUXUXUX",
"UXUXUXUXUXH d.-XhXhXhXlXkXZXSXkXhXhXhXhXhXhXhXfX#Xs.E UXUXUXUXUX",
"UXUXUXUXUXi.W.pXaXfXlXDXKXPXIXlXpXpXfXpXfXpXfXpX'.*.0.UXUXUXUXUX",
"UXUXUXUX] 3./.*XgXNXHXJXPXPXPXlX'.'.'._.'.*X'.'.'.~.o.9.UXUXUXUX",
"UXUXUXY 1.B =XMXBXVXVXHXHXJXDX_.sXdX_.=XdX_.(.(.(.(.i 1.( UXUXUX",
"UXUXUX' } d oXbXmXBXBXVXVXMX&X!.).).&X;X%X!.!.!.R.z O s q.UXUXUX",
"UXUXH <.K ..Z.1XeXbXmXmXdXQ.T.E.Y.E.T.T.T.E.U.Z 9 O   & 0.E UXUX",
"UXUX^ ! >.N.M.Z.S.1XwXtXI.K.K.K.P.P.K.$.#.x q o X X X X O.` UXUX",
"UXUX' -.L r.N.Z.Z.A.S.H.! 6 0 0 0 0 8 4 @ o $ p $ 2 $ . k q.UXUX",
"UXUX9.d @ 3 j >.m.Z.A.S.F.K & 2 % + + + + + + 7 7 P p j f i.UXUX",
"UXUX9.6 # # # #  .B.B.Z.A.D.j.h. .# # # # # # # a P g.1.+.d.UXUX",
"UXUX9.e * * * * 5 | N.B.B.B.Z.B.j.5 * * * * * g n.j.P l z.x.UXUX",
"UXUX/ e = = = = : g n.M.B.M.B.M.n.y = = = = w h.S.g.k.c.qXV.UXUX",
"UXUX] i : > > : y e.B.M.M.M.M.M.N.h : > > t @.S.F.@.6.oXqXa.UXUX",
"UXUX~ C , , , r } Z.Z.B.B.B.B.B.M.} , , r } C.J.<XN , i {.` UXUX",
"UXUXJ 2.1 1 M c.J.J.A.A.A.A.A.Z.Z.j.c 1 N g.J.<X3XN ; v  XE UXUX",
"UXUXUXt.m c l.4X<XJ.J.J.G.G.G.G.S.J.X.X.v.1X4Xl.>X5.b %.d.UXUXUX",
"UXUXUXY 3.m ,X7X5X4X1X1X2X1XJ.J.J.<X2X2X4X5X7X#XyXbX9X-XW UXUXUX",
"UXUXUXUXt.&.8.uXrXwX7X5X4X4X4X4X4X5X7X7XwXrXuXiXnXVXVXa.UXUXUXUX",
"UXUXUXUXUXy.^.nXbXuXuXeXeXeXeXeXeXeXeXuXuXxXnXBXVXJXOXUXUXUXUXUX",
"UXUXUXUXUXJ +XVXBXmXnXbXbXiXiXiXiXbXbXnXBXBXVXPXKX0XR UXUXUXUXUX",
"UXUXUXUXUXUXH |.HXHXHXVXVXBXBXBXBXVXVXHXHXJXIXJXOXR UXUXUXUXUXUX",
"UXUXUXUXUXUXUXUXt.xXFX].:XgXcXFXcXFXLXIXIXIXxXf.UXUXUXUXUXUXUXUX",
"UXUXUXUXUXUXUXUXUXY t.=.D A S F A F 7.].9Xf.E UXUXUXUXUXUXUXUXUX",
"UXUXUXUXUXUXUXUXUXUXUXY ^ <.:.:.:.:.-.Q I UXUXUXUXUXUXUXUXUXUXUX",
"UXUXUXUXUXUXUXUXUXUXUXUXUXUXUXUXUXUXUXUXUXUXUXUXUXUXUXUXUXUXUXUX",
"UXUXUXUXUXUXUXUXUXUXUXUXUXUXUXUXUXUXUXUXUXUXUXUXUXUXUXUXUXUXUXUX"
};
