/* XPM */
static char *slashem[] = {
/* columns rows colors chars-per-pixel */
"32 32 9 1",
"  c black",
". c #008080",
"X c cyan",
"o c red",
"O c #800080",
"+ c #808000",
"@ c yellow",
"# c #C0C0C0",
"$ c gray100",
/* pixels */
"$$$$$$$$$$$$$$$$$$$$$$$$$$$$$$$$",
"$$$$$$$$$$$$$$$$$$$$$$$$$$$$$...",
"$$##########################....",
"$$##########################....",
"$$##########################....",
"$$#@@###########@@##########....",
"$$#@@@#########@@@##########....",
"$$#@@@@@@@@@@@@@@@##########....",
"$$#@@@@@@@@@@@@@@@O#########....",
"$$#@@@@@ooooo@@@@@O#########....",
"$$#@@@@ooooooo@@@@O#########....",
"$$#@@@ooooooooo@@@O#####XX##....",
"$$#@@ooooooooooo@@O####XXX##....",
"$$#@@ooooooooooo@@O###XXX+##....",
"$$#@@ooooooooooo@@O##XXX++##....",
"$$#@@ooooooooooo@@O#XXX++###....",
"$$#@@ooooooooooo@@OXXX++####....",
"$$#@@@ooooooooo@@@XXX++#####....",
"$$#@@@@ooooooo@@@XXX++######....",
"$$#@@@@@ooooo@@@XXX++#######....",
"$$#@@@@@@@@@@@@XXXO+########....",
"$$#@@@@@@@@@@@XXX+O#########....",
"$$##@@@@@@  @XXX+OO#########....",
"$$###@@@@@@  XX+OO##########....",
"$$####OOOOO   OOO###########....",
"$$########     O############....",
"$$########  OO O############....",
"$$#########OOOOO############....",
"$$##########################....",
"$$##########################....",
"$$..............................",
"$..............................."
};
