/* XPM */
static char * slimevolley_xpm[] = {
"32 32 148 2",
"  	c None",
". 	c #545454",
"+ 	c #555554",
"@ 	c #565656",
"# 	c #575757",
"$ 	c #585858",
"% 	c #595959",
"& 	c #5A5A5A",
"* 	c #50504F",
"= 	c #515151",
"- 	c #525252",
"; 	c #535353",
"> 	c #545353",
", 	c #555555",
"' 	c #575756",
") 	c #585758",
"! 	c #4C4C4C",
"~ 	c #4E4E4E",
"{ 	c #4F4F4F",
"] 	c #505050",
"^ 	c #515252",
"/ 	c #535253",
"( 	c #555556",
"_ 	c #565657",
": 	c #4A4A4B",
"< 	c #4B4B4B",
"[ 	c #4D4D4D",
"} 	c #4E4E4D",
"| 	c #515050",
"1 	c #515152",
"2 	c #555656",
"3 	c #484848",
"4 	c #484949",
"5 	c #4A4949",
"6 	c #4A4A4A",
"7 	c #4D4D4C",
"8 	c #4D4E4D",
"9 	c #515150",
"0 	c #C4C4C4",
"a 	c #FFFFFF",
"b 	c #C5C5C5",
"c 	c #5B5B5B",
"d 	c #585857",
"e 	c #454545",
"f 	c #464646",
"g 	c #474746",
"h 	c #474748",
"i 	c #494949",
"j 	c #FEFEFE",
"k 	c #F3F3F3",
"l 	c #A6A7A7",
"m 	c #F5F5F5",
"n 	c #5A595A",
"o 	c #424242",
"p 	c #434444",
"q 	c #444444",
"r 	c #464546",
"s 	c #464747",
"t 	c #484748",
"u 	c #49494A",
"v 	c #4A4B4B",
"w 	c #4B4B4C",
"x 	c #4E4D4D",
"y 	c #C2C1C2",
"z 	c #F2F2F2",
"A 	c #0C0C0C",
"B 	c #0B0C0C",
"C 	c #0C0D0D",
"D 	c #F6F6F6",
"E 	c #3F3F3F",
"F 	c #414141",
"G 	c #414241",
"H 	c #434343",
"I 	c #454544",
"J 	c #474747",
"K 	c #4A4A49",
"L 	c #A7A8A8",
"M 	c #3E3E3E",
"N 	c #404040",
"O 	c #404041",
"P 	c #424241",
"Q 	c #484948",
"R 	c #4A494A",
"S 	c #FDFDFD",
"T 	c #0B0D0D",
"U 	c #535352",
"V 	c #535454",
"W 	c #3B3B3B",
"X 	c #3D3D3C",
"Y 	c #3D3D3E",
"Z 	c #404140",
"` 	c #424343",
" .	c #444344",
"..	c #444544",
"+.	c #C0C0C0",
"@.	c #FCFCFC",
"#.	c #A8A8A8",
"$.	c #F4F4F4",
"%.	c #525152",
"&.	c #3A3A3A",
"*.	c #3C3B3B",
"=.	c #3C3C3C",
"-.	c #3D3D3D",
";.	c #3E3E3F",
">.	c #424243",
",.	c #454646",
"'.	c #464647",
").	c #4F4E4E",
"!.	c #383838",
"~.	c #393939",
"{.	c #3A393A",
"].	c #3B3B3A",
"^.	c #3F3F3E",
"/.	c #414140",
"(.	c #414242",
"_.	c #424342",
":.	c #454444",
"<.	c #454546",
"[.	c #C1C1C1",
"}.	c #C2C2C2",
"|.	c #363635",
"1.	c #363636",
"2.	c #373737",
"3.	c #383839",
"4.	c #3E3D3E",
"5.	c #424142",
"6.	c #474847",
"7.	c #494849",
"8.	c #4C4D4C",
"9.	c #343434",
"0.	c #353535",
"a.	c #383738",
"b.	c #383939",
"c.	c #3B3C3C",
"d.	c #3D3C3D",
"e.	c #434243",
"f.	c #464746",
"g.	c #4C4B4B",
"h.	c #363737",
"i.	c #3A3B3A",
"j.	c #3C3C3B",
"k.	c #3D3E3E",
"l.	c #414142",
"m.	c #434342",
"n.	c #464545",
"o.	c #494A49",
"p.	c #363536",
"q.	c #454445",
"                                                                ",
"                                                                ",
"                                                                ",
"                                                                ",
"                                                                ",
"                                                                ",
"                                                                ",
"                                                                ",
"                        . + @ # $ $ % &                         ",
"                  * = - ; > . , @ ' ) $ % & %                   ",
"              ! ~ { { ] = ^ / ; . , ( _ # $ % % %               ",
"            : < ! [ } ~ { ] | 1 - ; . . 2 @ # $ % %             ",
"          3 4 5 6 < ! 7 8 ~ { ] 9 = - # 0 a a b c d $           ",
"        e f g h 3 i 6 < ! ! [ ~ { ] . a j k l m a n ' #         ",
"      o p q e r s t 3 i u v w ! [ x y j z A B C D b , @ @       ",
"    E F G o H q I e f J 3 4 K 6 < ! a j l B B B L j ; . , ,     ",
"    M E N O P o H q I r f J h Q R 6 a S m C B T m j = - U V     ",
"  W X Y M E N Z F o `  ...e f g J 3 +.j @.D #.$.a 0 { ] = %.-   ",
"  &.W *.=.-.M ;.E N F o >.H q e ,.'.! a a S S j j = } ).{ ] =   ",
"  !.~.{.].W =.-.-.^.E N /.(._.H q :.<.< [.a a }.~ < ! ! 8 ~ {   ",
"|.1.2.!.3.{.&.W =.X 4.M E N N 5.o H q ..e f J 6.7.i 6 < w 8.[ ~ ",
"9.0.0.1.2.a.b.~.&.W c.d.-.M E E /.F o e.q q e f f.3 3 i 6 6 g.! ",
"0.9.9.9.0.1.h.2.!.~.&.i.j.=.-.k.M E N F l.m.H q e n.s J 3 i o.6 ",
"0.9.9.0.9.9.0.p.1.2.!.~.~.&.W =.-.-.M E N F F o H q q.e f J 3 Q ",
"                                                                ",
"                                                                ",
"                                                                ",
"                                                                ",
"                                                                ",
"                                                                ",
"                                                                ",
"                                                                "};
