/* XPM */
static char * tkabber_xpm[] = {
"32 32 214 2",
"  	c None",
". 	c #156FFF",
"+ 	c #0072FF",
"@ 	c #2273FF",
"# 	c #0068FF",
"$ 	c #56D220",
"% 	c #76E42D",
"& 	c #97F44C",
"* 	c #5BA6EF",
"= 	c #5C9CFF",
"- 	c #5695FF",
"; 	c #4D8EFF",
"> 	c #2D84FF",
", 	c #3698BD",
"' 	c #137FDF",
") 	c #0064FF",
"! 	c #43C239",
"~ 	c #73CD73",
"{ 	c #8FCEB8",
"] 	c #A1D7C3",
"^ 	c #8CB6FF",
"/ 	c #80B1FF",
"( 	c #6EA6FF",
"_ 	c #689EFE",
": 	c #4890EC",
"< 	c #56C15F",
"[ 	c #349B94",
"} 	c #046DF7",
"| 	c #3CB24A",
"1 	c #74D269",
"2 	c #9BD9A3",
"3 	c #91BFFF",
"4 	c #96BAFE",
"5 	c #56B78A",
"6 	c #51C545",
"7 	c #0E89A1",
"8 	c #006BE6",
"9 	c #0B957A",
"0 	c #63BA8F",
"a 	c #89CEA4",
"b 	c #91C4EA",
"c 	c #99C0FD",
"d 	c #AECBFD",
"e 	c #C1D4EE",
"f 	c #71A8FF",
"g 	c #61A3FF",
"h 	c #5CC750",
"i 	c #47BC3D",
"j 	c #30AD36",
"k 	c #019177",
"l 	c #3A7FFE",
"m 	c #7DACFF",
"n 	c #C5D9FF",
"o 	c #D7E3F1",
"p 	c #62AAE0",
"q 	c #6ECB77",
"r 	c #60CB53",
"s 	c #46BF47",
"t 	c #37B33B",
"u 	c #21A738",
"v 	c #0060FF",
"w 	c #5192FE",
"x 	c #79BDC6",
"y 	c #83DE6E",
"z 	c #74D55E",
"A 	c #53C252",
"B 	c #39B746",
"C 	c #179450",
"D 	c #0066F6",
"E 	c #81B2FF",
"F 	c #77BCD2",
"G 	c #98E568",
"H 	c #83DB65",
"I 	c #019F37",
"J 	c #0177AF",
"K 	c #4A8CFE",
"L 	c #8FB9FF",
"M 	c #98D2C3",
"N 	c #92DB96",
"O 	c #A4EC77",
"P 	c #7ADC64",
"Q 	c #69D152",
"R 	c #54C14A",
"S 	c #36B544",
"T 	c #259D2F",
"U 	c #1D66F9",
"V 	c #9DCEDB",
"W 	c #A9E4A7",
"X 	c #A3E795",
"Y 	c #94D79A",
"Z 	c #98EC66",
"` 	c #80D481",
" .	c #75CC80",
"..	c #70D858",
"+.	c #55C848",
"@.	c #008768",
"#.	c #378AFF",
"$.	c #90BDFF",
"%.	c #8ABBF5",
"&.	c #82B7EA",
"*.	c #6BBCB0",
"=.	c #5EB5AF",
"-.	c #5CCD45",
";.	c #2FA436",
">.	c #1675CE",
",.	c #0070C8",
"'.	c #93C0FF",
").	c #AEE0B2",
"!.	c #ADEB8C",
"~.	c #9DE384",
"{.	c #76C2B1",
"].	c #5098EE",
"^.	c #4292DA",
"/.	c #5FD43B",
"(.	c #56CD32",
"_.	c #42AA84",
":.	c #39AC66",
"<.	c #2AAB51",
"[.	c #26AA3A",
"}.	c #0962FC",
"|.	c #3079FF",
"1.	c #75AEFF",
"2.	c #A4D6C9",
"3.	c #A9EB7E",
"4.	c #94E862",
"5.	c #7BDC45",
"6.	c #67D544",
"7.	c #2993B1",
"8.	c #2AA470",
"9.	c #0D84C8",
"0.	c #0077FF",
"a.	c #2A938C",
"b.	c #006BFF",
"c.	c #076DFF",
"d.	c #95CADD",
"e.	c #93E96A",
"f.	c #83E05A",
"g.	c #75D94A",
"h.	c #5AD036",
"i.	c #67D23A",
"j.	c #52C92F",
"k.	c #0085B5",
"l.	c #2CA767",
"m.	c #42BE2C",
"n.	c #128CBD",
"o.	c #1F7EFF",
"p.	c #81B6FD",
"q.	c #79D650",
"r.	c #56C535",
"s.	c #4BC327",
"t.	c #41BB1D",
"u.	c #0971D0",
"v.	c #4587FF",
"w.	c #006AFF",
"x.	c #5494FF",
"y.	c #4CB480",
"z.	c #48C331",
"A.	c #33B21E",
"B.	c #31A91F",
"C.	c #1FA81D",
"D.	c #3DA08D",
"E.	c #2B6CF8",
"F.	c #30A36A",
"G.	c #28AE24",
"H.	c #29A526",
"I.	c #37939A",
"J.	c #1B7DBC",
"K.	c #119C25",
"L.	c #4F8FFF",
"M.	c #287CD6",
"N.	c #005EF7",
"O.	c #5875F2",
"P.	c #7287F2",
"Q.	c #788FF4",
"R.	c #6785F6",
"S.	c #2F5EC1",
"T.	c #0049F4",
"U.	c #3345E5",
"V.	c #3647E7",
"W.	c #574AE3",
"X.	c #6559E4",
"Y.	c #7966E6",
"Z.	c #6053E5",
"`.	c #536DBA",
" +	c #696D70",
".+	c #4866AB",
"++	c #3051D1",
"@+	c #545CE9",
"#+	c #5C64EB",
"$+	c #5165E9",
"%+	c #5363D3",
"&+	c #6678AE",
"*+	c #898B88",
"=+	c #6C6E6B",
"-+	c #6F716E",
";+	c #7A7F82",
">+	c #7A8189",
",+	c #7C8895",
"'+	c #828991",
")+	c #878986",
"!+	c #8A8C89",
"~+	c #757774",
"{+	c #787A77",
"]+	c #828481",
"^+	c #636562",
"/+	c #737572",
"(+	c #7C7E7B",
"_+	c #535452",
":+	c #5D5F5C",
"<+	c #696B68",
"[+	c #181917",
"}+	c #333432",
"|+	c #40413F",
"1+	c #2B2C2A",
"                          . + @ + . #                           ",
"                    $ % & * = - ; > , ' # )                     ",
"                  ! ~ { ] ^ / ( _ - : < [ } )                   ",
"                | 1 2 3 4 ^ ^ / ( = ; 5 6 | 7 8                 ",
"              9 0 a b 3 c d e / f g - 0 h i j k )               ",
"            # l = m 4 c n o d m m ( p q r s t u 8 v             ",
"            @ w ( ^ 4 c ^ ^ / m ( x y z r A B u C D             ",
"          @ > - E 3 c 3 4 / / ( F G H z 1 A | | I J v           ",
"          ) K _ E 3 4 L ^ M { N O P P Q r R S | T J v           ",
"          U K m L 4 3 V W X Y Z `  ...Q +.R | I I @.)           ",
"          ) #.m 3 4 $.%.&.g = *.=.q -.-.6 i t ;.>.,.v           ",
"          # > E 4 '.).!.~.{.].#.^./.(._.! :.<.[.# }.)           ",
"          ) |.1.c 2.!.3.G 4.5.6._.7.$ 8.9.@ 0.a.b.) v           ",
"          @ c.- L d.3.e.f.g.h.i.j.k.l.m.n.|.o.' o.# )           ",
"            ) > m p.a G q.q.r.s.t.j u.' o.v.#.v.o.)             ",
"            ) w.- _ x.: y.z.m.A.B.C.u D.; - = - o.)             ",
"              v |.v.o.|.E.F.i G.B.H.I.- _ _ g - .               ",
"              ) # } @ . # J.B.H.K.;.: ( E / ( o.)               ",
"                v ) ) # ) D C T ;.[ g E 4 m L.)                 ",
"                  v ) ) v }.) ,.M.L.^ 4 E = )                   ",
"                  v v v v N.v # l _ 3 ^ _ |.v                   ",
"                    v ) ) v ) @ v.g ^ 1.- )                     ",
"                    v v v ) . 0.v._ m ( o.)                     ",
"                    v v v ) ) E.O.P.Q.R.U N.                    ",
"                    S.T.T.U.V.W.X.Y.Y.Z.U.`.                    ",
"                     +.+++U.V.Z.@+#+$+%+&+*+                    ",
"                    =+-+;+;+>+,+'+)+!+)+!+!+                    ",
"                     + +~+{+;+]+;+!+'+'+!+!+                    ",
"                      ^+ +/+{+(+;+)+*+'+;+                      ",
"                        _+:+ +-+/+{+/+<+                        ",
"                          [+}+|+_+_+1+                          ",
"                            [+1+|+1+                            "};
