/* XPM */
static char * xoids_icon_xpm[] = {
"32 32 4 1",
" 	c None",
".	c #2D5BE5",
"+	c #B7E5E5",
"@	c #000000",
"                                ",
"                                ",
"                                ",
"                                ",
"                                ",
"                                ",
"               ..               ",
"              ....              ",
"              .++.              ",
"             ..++..             ",
"             .++++.             ",
"            .++++++.            ",
"            .+@..@+.            ",
"           ..+@..@+..           ",
"           .++@..@++..          ",
"          ..+@@..@@+..          ",
"         ..++@@..@@++..         ",
"         ..+@@@..@@@+..         ",
"        ..++@.@..@.@++..        ",
"        ..+@@.@..@.@@+..        ",
"       ..++@+.@..@.+@++..       ",
"       ..+@@+.++++.+@@+..       ",
"      ...+@++......++@+...      ",
"       ...++........+++..       ",
"         ..............         ",
"           ..........           ",
"              .....             ",
"                                ",
"                                ",
"                                ",
"                                ",
"                                "};
