/* XPM */
static char *xsddiagram[] = {
/* columns rows colors chars-per-pixel */
"32 32 23 1",
"  c black",
". c #201A00",
"X c #2A2200",
"o c #403400",
"O c #635000",
"+ c #776100",
"@ c #896F00",
"# c #8B7100",
"$ c #9D8000",
"% c #9F8200",
"& c #AF8F00",
"* c #B79500",
"= c #D2AB00",
"- c #DDB400",
"; c #E6BB00",
": c #E8BD00",
"> c #FFD000",
", c #000CFF",
"< c #00FF94",
"1 c #058EFF",
"2 c #BCB7B9",
"3 c #FFFCFC",
"4 c None",
/* pixels */
"44444444444444444444444444444444",
"44444444444444444444444444>>4444",
"4>>>4444>>>444444444444444>>o 44",
"4>>># 4>>>o  4444444444444>>o 44",
"44>>>.@>>%  44444444444444>>o 44",
"444>>*>>>   44>>>>>444>>>>>>o 44",
"444>>>>>o  4>>>4  > o>>4 o>>o 44",
"4444>>>#  44>>&  444*>:  4>>o 44",
"4444>>>>  44>>>>&444>>%  4>>o 44",
"444>>>>># 444>>>>>=4>>#  4>>o 44",
"444>>+>>>. 444$>>>>O>>#  4>>o 44",
"44>>> O>>* 44444$>>o>>#  4>>o 44",
"4>>>o  >>>OX>444>>- O>>. >>>o 44",
">>>%  44>>>o>>>>>>   >>>>;>>o 44",
"44    4444   4      444       44",
"44444444444444444444444444444444",
"444444444444444444444 11111 4444",
"4444444444        4   11111 4444",
"4444444444 222222 4 4       4444",
"44444444   222222   444444444444",
"4      4 4 222222 4 4       4444",
"4 ,,,, 4 4        4   33333 4444",
"4 ,,,,   444444444444 33333 4444",
"4 ,,,, 4 444444444444       4444",
"4      4 44444444444444444444444",
"44444444 4      4444444444444444",
"44444444 4 <<<< 4444444444444444",
"44444444   <<<< 4444444444444444",
"4444444444 <<<< 4444444444444444",
"4444444444      4444444444444444",
"44444444444444444444444444444444",
"44444444444444444444444444444444"
};
