/* XPM */
static char *openofficeorg__base[] = {
/* columns rows colors chars-per-pixel */
"32 32 151 2",
"   c #000000",
".  c #1E1E1E",
"X  c #0F1F2E",
"o  c #102438",
"O  c #2D2D2E",
"+  c #323232",
"@  c #1B4873",
"#  c #254665",
"$  c #5F6265",
"%  c #5A6D7E",
"&  c #646567",
"*  c #696C6F",
"=  c #747576",
"-  c #757678",
";  c #72787E",
":  c #7B7B7C",
">  c #1F68AF",
",  c #1966B2",
"<  c #2C6DAE",
"1  c #226DB5",
"2  c #2474B7",
"3  c #2F72B5",
"4  c #2472B9",
"5  c #2B75B9",
"6  c #2779BA",
"7  c #2A7ABC",
"8  c #3374B1",
"9  c #3876B3",
"0  c #357ABD",
"q  c #397BBC",
"w  c #4C769D",
"e  c #4D7BA7",
"r  c #4D7CA9",
"t  c #507EAE",
"y  c #407CBA",
"u  c #2C7EC3",
"i  c #347EC2",
"p  c #2D81BF",
"a  c #3282BD",
"s  c #3984BC",
"d  c #7D8185",
"f  c #6D8295",
"g  c #5B85AD",
"h  c #4680B7",
"j  c #4483BE",
"k  c #4B87BD",
"l  c #588ABE",
"z  c #2B80C5",
"x  c #3483C3",
"c  c #3B83C5",
"v  c #378AC5",
"b  c #3C8AC6",
"n  c #3E8DCA",
"m  c #4487C3",
"M  c #4188C5",
"N  c #4188C8",
"B  c #4C8DC9",
"V  c #548CC1",
"C  c #5C8EC1",
"Z  c #4B90C4",
"A  c #4191CB",
"S  c #4C93CA",
"D  c #5491C4",
"F  c #5B91C5",
"G  c #5592CB",
"H  c #5A95C8",
"J  c #5F99C8",
"K  c #6192C7",
"L  c #6A95C5",
"P  c #629DCA",
"I  c #6B9ACA",
"U  c #7AA3C7",
"Y  c #74A7CF",
"T  c #7BA4C9",
"R  c #6BA7D2",
"E  c #72A3D0",
"W  c #7CACD5",
"Q  c #83868B",
"!  c #87898D",
"~  c #868A90",
"^  c #898D93",
"/  c #8E9196",
"(  c #909397",
")  c #92959A",
"_  c #96999D",
"`  c #9B9D9F",
"'  c #999DA2",
"]  c #9FA0A3",
"[  c #A4A4A6",
"{  c #A3A6A9",
"}  c #A9AAAE",
"|  c #ACAFB1",
" . c #AEB0B4",
".. c #AFB7BE",
"X. c #B3B5B7",
"o. c #B3B6B9",
"O. c #B7BABD",
"+. c #BABBBD",
"@. c #80A7CA",
"#. c #84A8CB",
"$. c #85ACD3",
"%. c #88AFD5",
"&. c #85B7DB",
"*. c #8AB5D9",
"=. c #8FB9D9",
"-. c #90B7D8",
";. c #93BDDD",
":. c #9ABBDC",
">. c #AFB7C0",
",. c #B2BAC2",
"<. c #BBBEC2",
"1. c #A0BEDD",
"2. c #BFC2C5",
"3. c #BDC4CA",
"4. c #AAC6DF",
"5. c #B0C6DD",
"6. c #A4C6E4",
"7. c #AFCCE5",
"8. c #B4CDE3",
"9. c #BED3E9",
"0. c #C2C4C6",
"q. c #C4C6CA",
"w. c #C4C9CD",
"e. c #CACCCE",
"r. c #C6CCD2",
"t. c #C9CDD2",
"y. c #CDD1D5",
"u. c #CED3D9",
"i. c #D1D3D5",
"p. c #D4D6DA",
"a. c #D6D9DC",
"s. c #D9DADC",
"d. c #C0DAEB",
"f. c #DBDEE2",
"g. c #DDE1E4",
"h. c #CFE3F1",
"j. c #D5E6F3",
"k. c #DEEAF4",
"l. c #E1E4E6",
"z. c #E4E6E8",
"x. c #E7E9EB",
"c. c #EAECED",
"v. c #E7EFF7",
"b. c #ECEFF0",
"n. c #EFF0F2",
"m. c #EDF3F9",
"M. c #F2F3F4",
"N. c #F6F7F8",
"B. c #F7F8F9",
"V. c #FCFCFD",
"C. c None",
/* pixels */
"C.C.C.C.C.L C L L L C.C.C.C.C.C.C.C.C.C.C.C.C.C.C.C.C.C.C.C.C.C.",
"C.C.C.V K %.:.:.;.4.$.I C.C.C.C.C.C.C.C.C.C.C.C.C.C.C.C.C.C.C.C.",
"C.C.j C %.$.T T U U @.#.l C.C.C.C.C.C.C.C.C.C.C.C.C.C.C.C.C.C.C.",
"C.y q E W 7.v.m.5.4.v.m.9.I C.C.C.C.C.C.C.C.C.C.C.C.C.C.C.C.C.C.",
"C.3 0 H H H J =.M.B.=.D V 3 C.o...>.,.>.o.>.C.C.C.C.C.C.C.C.C.C.",
"< 5 5 M B S S Z P Y m m c 5 t ,.,.,.,.,.,.>.>.,.C.C.C.C.C.C.C.C.",
", 4 7 z b n n A b b x x 7 1 < l.n.B.V.B.n.l.y.,.,.,.C.C.C.C.C.C.",
", > 2 7 z v v s a a s 7 4 1 1 B.B.B.B.B.B.B.B.n.y.3.,.C.C.C.C.C.",
"> m F D a p s ;.j.V.B.j.6.G 8 V.V.V.V.V.V.N.N.N.M.u.3.,.C.C.C.C.",
"7.V.V.V.V.9.m.V.j.R p 6 5 7 r M.c.c.c.n.M.B.V.V.N.M.f.3.3.C.C.C.",
"@ j H *.k.V.V.&.p p z u 7 i f e.i.p.p.i.e.e.s.c.B.M.b.y.r.3.C.C.",
"C.9 0 5 7 ;.W u z z u u c w 0.N.V.V.V.V.B.c.i.<.f.N.b.f.u.r.<.C.",
"C.o m M x 7 7 u z z x m k ' V.M.n.n.c.n.M.B.V.f.| z.m.f.f.r.3.C.",
"C.C.X h B b c x c N B w ; x.n.c.c.n.n.c.b.b.b.N.{ t.b.z.g.f.t.C.",
"C.C.C.C.# e V B V g % $  .N.N.M.n.c.c.n.n.B.B.q.' 0.b.x.l.f.u...",
"C.C.C.C.C.* * & - ) X.^ ) _ e.n.B.B.V.B.M.p.] ( ) +.n.b.b.f.a.,.",
"C.C.C.C.C.3.f.l.x.M.a.^ s.+./ Q d _ _ Q Q ! X.z.) +.N.b.c.l.f.3.",
"C.C.C.C.C.r.f.x.c.N.p.~ x.V.V.z.s.e.e.i.z.B.V.V./ <.N.n.b.z.g.u.",
"C.C.C.C.C.t.g.x.M.N.a.! q.B.N.N.B.B.B.V.B.N.B.z.~ 0.N.M.n.x.g.u.",
"C.C.C.C.C.q.g.c.n.N.a.^ ! X.n.V.V.V.V.V.V.V.e.~ ^ <.B.N.n.c.l.q.",
"C.C.C.C.C.X.l.c.M.B.s./ 0./ d ` X.+.0. .{ ! ^ 0.) +.V.N.M.x.l. .",
"C.C.C.C.C.! l.c.M.B.s.^ c.V.s.+.| ` ' | o.p.V.V.) 2.V.B.n.b.l.! ",
"C.C.C.C.C.C.l.c.M.B.s.~ x.V.V.V.V.V.V.V.V.V.V.V./ 2.V.B.n.x.l.C.",
"C.C.C.C.C.C.[ x.n.N.M./ } V.V.V.V.V.V.V.V.V.V.e.! l.V.M.n.c. .C.",
"C.C.C.C.C.C.C.l.c.M.V.s.^ ( 0.M.V.V.V.V.V.s.} Q w.V.B.M.n.z.C.C.",
"C.C.C.C.C.C.C.- n.n.N.V.c.+.! Q ! _ ( ( w ! } l.V.B.M.c.n.: C.C.",
"C.C.C.C.C.C.C.C.] M.n.M.B.V.V.z.e.e.0.e.x.M.V.V.B.M.n.M.[ C.C.C.",
"C.C.C.C.C.C.C.C.C.[ M.n.M.M.N.V.V.V.V.V.B.N.N.M.M.M.M.[ C.C.C.C.",
"C.C.C.C.C.C.C.C.C.C.= M.M.n.M.M.M.M.M.M.M.M.b.M.M.n.: C.C.C.C.C.",
"C.C.C.C.C.C.C.C.C.C.C.O +.N.M.M.n.n.n.n.M.M.N.M.+.+ C.C.C.C.C.C.",
"C.C.C.C.C.C.C.C.C.C.C.C.C.. : q.s.M.B.M.s.q.: . C.C.C.C.C.C.C.C.",
"C.C.C.C.C.C.C.C.C.C.C.C.C.C.C.C.C.      C.C.C.C.C.C.C.C.C.C.C.C."
};
