/* XPM */
static char *openofficeorg__draw[] = {
/* columns rows colors chars-per-pixel */
"32 32 153 2",
"   c #000000",
".  c #1E1E1E",
"X  c #0F1F2E",
"o  c #102438",
"O  c #2D2D2E",
"+  c #323232",
"@  c #1B4873",
"#  c #254665",
"$  c #535A60",
"%  c #5F6265",
"&  c #596B7D",
"*  c #646567",
"=  c #696C6F",
"-  c #6D747B",
";  c #747576",
":  c #757678",
">  c #7B7B7C",
",  c #1F68AF",
"<  c #1966B2",
"1  c #2C6DAE",
"2  c #226DB5",
"3  c #2474B7",
"4  c #2F72B5",
"5  c #2472B9",
"6  c #2B75B9",
"7  c #2779BA",
"8  c #2A7ABC",
"9  c #3374B1",
"0  c #3876B3",
"q  c #357ABD",
"w  c #397BBC",
"e  c #4B769D",
"r  c #4D7BA7",
"t  c #4D7CA9",
"y  c #507EAE",
"u  c #407CBA",
"i  c #2C7EC3",
"p  c #347EC3",
"a  c #2D81BF",
"s  c #3282BD",
"d  c #3984BC",
"f  c #7D8085",
"g  c #5A85AD",
"h  c #4680B7",
"j  c #4483BE",
"k  c #4A85BC",
"l  c #588ABE",
"z  c #7C90A3",
"x  c #2B80C5",
"c  c #3483C3",
"v  c #3B83C5",
"b  c #378AC5",
"n  c #3C8AC6",
"m  c #3E8DCA",
"M  c #4487C3",
"N  c #4188C5",
"B  c #4188C8",
"V  c #4C8DC9",
"C  c #548CC1",
"Z  c #5C8EC1",
"A  c #4B90C4",
"S  c #4191CB",
"D  c #4C93CA",
"F  c #5491C4",
"G  c #5B91C5",
"H  c #5592CB",
"J  c #5A95C8",
"K  c #5F99C8",
"L  c #6192C7",
"P  c #6A95C5",
"I  c #629DCA",
"U  c #6B9ACA",
"Y  c #7AA3C7",
"T  c #74A7CF",
"R  c #7BA4C9",
"E  c #6BA7D2",
"W  c #72A3D0",
"Q  c #7CACD5",
"!  c #82858A",
"~  c #86888D",
"^  c #878A90",
"/  c #898E93",
"(  c #8F9399",
")  c #92969B",
"_  c #94989E",
"`  c #9D9E9F",
"'  c #979BA2",
"]  c #9A9EA2",
"[  c #9EA1A4",
"{  c #9EA2A8",
"}  c #A4A4A6",
"|  c #A3A5AB",
" . c #A5A9AE",
".. c #ABAEB1",
"X. c #AFB1B3",
"o. c #AFB7BE",
"O. c #B2B3B7",
"+. c #B4B7BC",
"@. c #B6B9BD",
"#. c #BABABB",
"$. c #80A7CA",
"%. c #84A8CB",
"&. c #85ACD3",
"*. c #88AFD5",
"=. c #85B7DB",
"-. c #8AB5D9",
";. c #8FB9D9",
":. c #90B7D8",
">. c #93BDDD",
",. c #9ABBDC",
"<. c #AFB7C0",
"1. c #B2BAC2",
"2. c #BBBEC2",
"3. c #A0BEDD",
"4. c #BFC0C2",
"5. c #BDC4CA",
"6. c #AAC6DF",
"7. c #B0C6DD",
"8. c #A4C6E4",
"9. c #AFCCE5",
"0. c #B4CDE3",
"q. c #BED3E9",
"w. c #C4C6C7",
"e. c #C3C6CA",
"r. c #C5CACE",
"t. c #C9CACD",
"y. c #C6CCD2",
"u. c #CACDD1",
"i. c #CDD1D5",
"p. c #CED3D9",
"a. c #D4D5D7",
"s. c #D2D6DA",
"d. c #D5DADE",
"f. c #D9DADC",
"g. c #C0DAEB",
"h. c #DCDEE1",
"j. c #DDE1E4",
"k. c #CFE3F1",
"l. c #D5E6F3",
"z. c #DEEAF4",
"x. c #E1E4E6",
"c. c #E3E5E9",
"v. c #E7E9EB",
"b. c #E9EBED",
"n. c #E7EFF7",
"m. c #ECEFF0",
"M. c #EFF0F2",
"N. c #EDF3F9",
"B. c #F2F3F5",
"V. c #F6F7F8",
"C. c #F7F8FA",
"Z. c #FBFCFC",
"A. c None",
/* pixels */
"A.A.A.A.A.P Z P P P A.A.A.A.A.A.A.A.A.A.A.A.A.A.A.A.A.A.A.A.A.A.",
"A.A.A.C L *.,.,.>.6.&.U A.A.A.A.A.A.A.A.A.A.A.A.A.A.A.A.A.A.A.A.",
"A.A.j Z *.&.R R R R $.%.l A.A.A.A.A.A.A.A.A.A.A.A.A.A.A.A.A.A.A.",
"A.u w W Q 9.n.N.0.6.z.B.q.U A.A.A.A.A.A.A.A.A.A.A.A.A.A.A.A.A.A.",
"A.4 q J J J K ;.B.V.:.F C 4 A.o.o.<.<.<.o.<.A.A.A.A.A.A.A.A.A.A.",
"1 6 6 N V D D A I T j N v 6 y 1.1.1.1.1.1.1.<.<.A.A.A.A.A.A.A.A.",
"< 5 8 x n m m S n n b c 6 5 1 x.M.Z.Z.V.M.c.i.2.1.1.A.A.A.A.A.A.",
"< , 3 8 x b b d s a d 6 3 2 2 V.V.V.Z.V.V.V.V.m.u.5.1.A.A.A.A.A.",
", M G F s a d >.l.Z.C.l.8.H 9 V.V.V.V.V.V.V.V.V.V.p.5.1.A.A.A.A.",
"9.Z.Z.Z.Z.q.N.Z.l.E x 7 6 6 r Z.Z.Z.V.V.B.V.V.B.V.N.h.5.5.A.A.A.",
"@ j J -.z.Z.Z.=.a a x a p p z x.h.x.V.C.V.B.B.B.B.B.m.i.y.5.A.A.",
"A.0 q 6 8 >.Q i x x i i v e ] 2.4.4.2.b.V.m.m.B.m.m.m.h.p.y.2.A.",
"A.o M N c 6 7 x x x c M k - +.+.+.O.O...m.B.m.m.m.m.m.h.h.y.5.A.",
"A.A.X h V m v c v B V e $ | u.M.B.a...| e.M.m.m.m.m.b.c.j.h.y.A.",
"A.A.A.A.# r l V C g & % ` t.Z.V.C.V.} ] O.B.m.m.m.m.v.v.c.h.p.o.",
"A.A.A.A.A.= = * : ) w./ ' V.B.M.V.e.' ' 2.C.m.m.m.m.m.n.v.h.s.2.",
"A.A.A.A.A.5.d.c.b.M.Z.f.f.Z.M.Z.a.^ ) _ x.V.m.m.m.M.m.m.m.c.h.5.",
"A.A.A.A.A.y.h.c.m.M.V.V.V.B.V.f.! / ) e.Z.B.B.B.M.B.M.M.m.c.h.p.",
"A.A.A.A.A.u.j.b.M.M.B.B.B.V.v.~ / ) u.Z.V.B.B.B.B.B.B.B.m.c.j.i.",
"A.A.A.A.A.w.x.b.M.V.V.V.V.Z.| ^ ( a.Z.Z.V.V.V.V.Z.Z.V.V.N.m.c.r.",
"A.A.A.A.A.X.c.b.N.V.Z.V.Z.B.~ ( | Z.Z.V.C.V.Z.Z.v.i.Z.V.B.b.c.X.",
"A.A.A.A.A.~ c.b.M.V.Z.Z.Z.V./ ) | Z.Z.Z.Z.Z.Z.w.! f t.Z.m.b.c.~ ",
"A.A.A.A.A.A.x.b.M.V.V.Z.Z.Z.' ) / 2.Z.Z.Z.x.} ! ^ ^ f.Z.B.b.x.A.",
"A.A.A.A.A.A.} v.M.B.Z.Z.Z.Z.f.) ) ~ ^ _ ~ ! ~ ( _ i.Z.V.b.b...A.",
"A.A.A.A.A.A.A.c.m.B.V.Z.Z.Z.Z.a._ ) / / / ( )  .v.Z.Z.M.M.x.A.A.",
"A.A.A.A.A.A.A.; m.m.B.V.Z.Z.Z.Z.v.@.[ _  .#.h.Z.Z.C.B.M.M.> A.A.",
"A.A.A.A.A.A.A.A.` B.b.B.Z.V.Z.Z.Z.Z.Z.Z.Z.Z.Z.Z.V.B.M.B.} A.A.A.",
"A.A.A.A.A.A.A.A.A.} V.B.B.B.V.V.Z.Z.Z.Z.Z.Z.V.B.M.M.B.} A.A.A.A.",
"A.A.A.A.A.A.A.A.A.A.; M.B.B.m.B.B.B.V.B.B.M.M.M.B.B.> A.A.A.A.A.",
"A.A.A.A.A.A.A.A.A.A.A.O #.B.V.V.B.m.B.m.B.V.B.V.+.+ A.A.A.A.A.A.",
"A.A.A.A.A.A.A.A.A.A.A.A.A.. > w.f.B.V.B.f.w.> . A.A.A.A.A.A.A.A.",
"A.A.A.A.A.A.A.A.A.A.A.A.A.A.A.A.A.      A.A.A.A.A.A.A.A.A.A.A.A."
};
