/* XPM */
static char *openofficeorg__writer[] = {
/* columns rows colors chars-per-pixel */
"32 32 145 2",
"   c #000000",
".  c #1E1E1E",
"X  c #0F1F2E",
"o  c #102438",
"O  c #2D2D2E",
"+  c #323232",
"@  c #1B4873",
"#  c #254665",
"$  c #535A60",
"%  c #646567",
"&  c #696C6F",
"*  c #686E74",
"=  c #747576",
"-  c #757678",
";  c #767A7E",
":  c #7B7B7C",
">  c #1F68AF",
",  c #1966B2",
"<  c #2C6DAE",
"1  c #226DB5",
"2  c #2474B7",
"3  c #2F72B5",
"4  c #2472B9",
"5  c #2B75B9",
"6  c #2779BA",
"7  c #2A7ABC",
"8  c #3374B1",
"9  c #3876B3",
"0  c #357ABD",
"q  c #397BBC",
"w  c #4E769B",
"e  c #687A8B",
"r  c #797D81",
"t  c #4D7BA7",
"y  c #4C7CA8",
"u  c #517EAB",
"i  c #407CBA",
"p  c #2C7EC3",
"a  c #347EC3",
"s  c #2D81BF",
"d  c #3282BD",
"f  c #3984BC",
"g  c #5A85AD",
"h  c #4680B7",
"j  c #4483BE",
"k  c #4A85BC",
"l  c #588ABE",
"z  c #7F93A8",
"x  c #2B80C5",
"c  c #3483C3",
"v  c #3B83C5",
"b  c #378AC5",
"n  c #3C8AC6",
"m  c #3E8DCA",
"M  c #4487C3",
"N  c #4188C5",
"B  c #4188C8",
"V  c #4C8DC9",
"C  c #548CC1",
"Z  c #5C8EC1",
"A  c #4B90C4",
"S  c #4191CB",
"D  c #4C93CA",
"F  c #5491C4",
"G  c #5B91C5",
"H  c #5592CB",
"J  c #5A95C8",
"K  c #5F99C8",
"L  c #6192C7",
"P  c #6A95C5",
"I  c #629DCA",
"U  c #6B9ACA",
"Y  c #7AA3C7",
"T  c #74A7CF",
"R  c #7BA4C9",
"E  c #6BA7D2",
"W  c #72A3D0",
"Q  c #7CACD5",
"!  c #84878D",
"~  c #86898B",
"^  c #898E94",
"/  c #8C9095",
"(  c #929395",
")  c #9D9E9F",
"_  c #9FA1A3",
"`  c #A4A4A6",
"'  c #A1A4A8",
"]  c #A6A9AD",
"[  c #ACAFB0",
"{  c #AFB1B3",
"}  c #AFB7BE",
"|  c #B6B8BA",
" . c #BABABB",
".. c #80A7CA",
"X. c #84A8CB",
"o. c #85ACD3",
"O. c #88AFD5",
"+. c #85B7DB",
"@. c #8AB5D9",
"#. c #8FB9D9",
"$. c #90B7D8",
"%. c #93BDDD",
"&. c #9ABBDC",
"*. c #AFB7C0",
"=. c #B2BAC2",
"-. c #B9BEC4",
";. c #A0BEDD",
":. c #BDC4CA",
">. c #AAC6DF",
",. c #B0C6DD",
"<. c #A4C6E4",
"1. c #AFCCE5",
"2. c #B4CDE3",
"3. c #BED3E9",
"4. c #C4C6C7",
"5. c #C3C7CC",
"6. c #C3CACF",
"7. c #CACBCD",
"8. c #C6CCD2",
"9. c #CBCED1",
"0. c #CDD1D6",
"q. c #CED3D9",
"w. c #D1D3D5",
"e. c #D5D7DA",
"r. c #D5DADD",
"t. c #D9DADB",
"y. c #C0DAEB",
"u. c #DADEE2",
"i. c #DDE1E4",
"p. c #CFE3F1",
"a. c #D5E6F3",
"s. c #DEEAF4",
"d. c #E1E4E6",
"f. c #E3E5E9",
"g. c #E7E9EC",
"h. c #E9EBED",
"j. c #E7EFF7",
"k. c #ECEFF1",
"l. c #EFF1F2",
"z. c #EDF3F9",
"x. c #F2F4F5",
"c. c #F6F7F8",
"v. c #F7F8F9",
"b. c #FCFCFC",
"n. c None",
/* pixels */
"n.n.n.n.n.P Z P P P n.n.n.n.n.n.n.n.n.n.n.n.n.n.n.n.n.n.n.n.n.n.",
"n.n.n.C L O.&.&.&.;.O.U n.n.n.n.n.n.n.n.n.n.n.n.n.n.n.n.n.n.n.n.",
"n.n.j Z O.o.R R Y Y ..X.l n.n.n.n.n.n.n.n.n.n.n.n.n.n.n.n.n.n.n.",
"n.i q W Q 1.j.z.,.>.j.z.3.U n.n.n.n.n.n.n.n.n.n.n.n.n.n.n.n.n.n.",
"n.3 0 J J J K #.x.v.#.F Z 3 n.*.} *.=.} } *.n.n.n.n.n.n.n.n.n.n.",
"< 5 5 N V D D A I T j N a 5 u =.=.=.=.=.=.=.=.=.n.n.n.n.n.n.n.n.",
", 4 7 x n m m S m n c c 7 4 < d.l.v.b.v.x.d.9.-.=.=.n.n.n.n.n.n.",
", > 2 7 x b b f d d f 5 4 1 1 v.v.v.v.v.c.c.v.k.0.-.=.n.n.n.n.n.",
"> M G F d s f %.a.b.v.a.<.H 8 c.c.c.c.c.c.c.c.c.x.e.:.-.n.n.n.n.",
"1.b.b.b.b.3.z.b.a.E s 6 5 p t x.c.x.x.c.c.c.x.x.x.z.e.8.:.n.n.n.",
"@ j J @.s.b.b.+.s s x p p a ^ x.x.x.x.x.x.x.c.x.x.z.h.q.8.:.n.n.",
"n.9 0 5 7 %.Q p x x p p v y e.b.b.b.b.b.b.v.b.b.b.v.x.r.q.8.-.n.",
"n.o M N c 7 7 p x x c N k * ] ] ] ] ] ] ] ] ] ] ] ] c.i.u.0.:.n.",
"n.n.X h V n v c v B V w $ _ ] ] ] ] ] ] ] ` ] ] ] ' v.f.i.r.9.n.",
"n.n.n.n.# t C V C g e ~ 9.t.e.e.e.e.e.e.e.e.e.e.e.w.v.g.f.u.0.} ",
"n.n.n.n.n.& & % - ( 7.c.v.v.v.b.b.b.v.v.b.v.b.b.v.c.x.h.g.u.r.=.",
"n.n.n.n.n.:.u.d.h.l.c.v.c.l.b.b.b.v.b.b.b.v.b.b.v.v.x.k.h.i.u.5.",
"n.n.n.n.n.8.u.g.h.l.v.: : z ; : : ; r r r : r r r ; c.x.k.g.u.q.",
"n.n.n.n.n.9.i.g.l.x.b.~ ~ / ~ / ^ ^ ^ ^ ~ / ^ ^ ^ ~ b.x.l.g.i.0.",
"n.n.n.n.n.:.d.h.l.c.b.7.w.w.w.w.w.w.0.w.w.w.w.w.q.0.b.c.l.h.f.5.",
"n.n.n.n.n.{ f.h.l.c.v.b.b.b.b.b.b.b.b.b.b.b.b.b.b.b.v.c.x.h.d.{ ",
"n.n.n.n.n.~ d.h.z.c.b.b.b.c.b.b.b.b.b.b.b.b.b.b.b.v.b.v.l.h.f.~ ",
"n.n.n.n.n.n.d.h.l.c.b.: z = r : r r r r z { b.b.b.b.v.v.l.h.i.n.",
"n.n.n.n.n.n.` h.l.v.b.~ / / / / / / ( / ~  .b.b.b.b.v.c.k.h.{ n.",
"n.n.n.n.n.n.n.d.h.x.b.9.e.w.e.e.w.e.w.e.w.h.b.b.b.b.c.x.l.f.n.n.",
"n.n.n.n.n.n.n.= x.h.c.b.b.b.b.b.b.b.b.b.b.b.b.b.b.v.x.l.l.- n.n.",
"n.n.n.n.n.n.n.n.) x.l.x.v.v.b.b.b.b.b.b.b.b.b.v.c.x.l.l.` n.n.n.",
"n.n.n.n.n.n.n.n.n.` x.k.x.x.x.v.b.b.b.b.b.v.x.x.l.l.x.` n.n.n.n.",
"n.n.n.n.n.n.n.n.n.n.= x.x.x.x.x.x.x.x.x.x.x.k.x.x.x.: n.n.n.n.n.",
"n.n.n.n.n.n.n.n.n.n.n.O | x.x.x.x.k.l.l.l.c.c.x. .+ n.n.n.n.n.n.",
"n.n.n.n.n.n.n.n.n.n.n.n.n.. : 4.t.x.c.x.t.4.: . n.n.n.n.n.n.n.n.",
"n.n.n.n.n.n.n.n.n.n.n.n.n.n.n.n.n.      n.n.n.n.n.n.n.n.n.n.n.n."
};
